<svg id="svg" viewBox="0 6 28 9"  xmlns="http://www.w3.org/2000/svg" transform="translate(-10 0)scale(1.5 1.5)">
      <defs>
        <radialGradient id="g1" cx="50%" cy="50%" r="50%" fx="35%" fy="35%">
          <stop stop-color="#a7e0a7" offset="0%"></stop>
          <stop stop-color="#6cc36c" offset="30%"></stop>
          <stop stop-color="#1c711c" offset="90%"></stop>
          <stop stop-color="#014c04" offset="100%"></stop>
        </radialGradient>
        <radialGradient id="g2" cx="50%" cy="50%" r="50%" fx="35%" fy="35%">
          <stop stop-color="#5bb7ff" offset="0%"></stop>
          <stop stop-color="#008eff" offset="30%"></stop>
          <stop stop-color="blue" offset="90%"></stop>
          <stop stop-color="#014c04" offset="100%"></stop>
        </radialGradient>
      </defs>
      <g id="Background">
      <g id="Grid_0"><line x1="0" x2="0" y1="0" y2="24" stroke-width="0.01" stroke="gray" stroke-dasharray="0.1 0.05"></line><line x1="1" x2="1" y1="0" y2="24" stroke-width="0.01" stroke="gray" stroke-dasharray="0.1 0.05"></line><line x1="2" x2="2" y1="0" y2="24" stroke-width="0.01" stroke="gray" stroke-dasharray="0.1 0.05"></line><line x1="3" x2="3" y1="0" y2="24" stroke-width="0.01" stroke="gray" stroke-dasharray="0.1 0.05"></line><line x1="4" x2="4" y1="0" y2="24" stroke-width="0.01" stroke="gray" stroke-dasharray="0.1 0.05"></line><line x1="5" x2="5" y1="0" y2="24" stroke-width="0.01" stroke="gray" stroke-dasharray="0.1 0.05"></line><line x1="6" x2="6" y1="0" y2="24" stroke-width="0.01" stroke="gray" stroke-dasharray="0.1 0.05"></line><line x1="7" x2="7" y1="0" y2="24" stroke-width="0.01" stroke="gray" stroke-dasharray="0.1 0.05"></line><line x1="8" x2="8" y1="0" y2="24" stroke-width="0.01" stroke="gray" stroke-dasharray="0.1 0.05"></line><line x1="9" x2="9" y1="0" y2="24" stroke-width="0.01" stroke="gray" stroke-dasharray="0.1 0.05"></line><line x1="10" x2="10" y1="0" y2="24" stroke-width="0.01" stroke="gray" stroke-dasharray="0.1 0.05"></line><line x1="11" x2="11" y1="0" y2="24" stroke-width="0.01" stroke="gray" stroke-dasharray="0.1 0.05"></line><line x1="12" x2="12" y1="0" y2="24" stroke-width="0.01" stroke="gray" stroke-dasharray="0.1 0.05"></line><line x1="13" x2="13" y1="0" y2="24" stroke-width="0.01" stroke="gray" stroke-dasharray="0.1 0.05"></line><line x1="14" x2="14" y1="0" y2="24" stroke-width="0.01" stroke="gray" stroke-dasharray="0.1 0.05"></line><line x1="15" x2="15" y1="0" y2="24" stroke-width="0.01" stroke="gray" stroke-dasharray="0.1 0.05"></line><line x1="16" x2="16" y1="0" y2="24" stroke-width="0.01" stroke="gray" stroke-dasharray="0.1 0.05"></line><line x1="17" x2="17" y1="0" y2="24" stroke-width="0.01" stroke="gray" stroke-dasharray="0.1 0.05"></line><line x1="18" x2="18" y1="0" y2="24" stroke-width="0.01" stroke="gray" stroke-dasharray="0.1 0.05"></line><line x1="19" x2="19" y1="0" y2="24" stroke-width="0.01" stroke="gray" stroke-dasharray="0.1 0.05"></line><line x1="20" x2="20" y1="0" y2="24" stroke-width="0.01" stroke="gray" stroke-dasharray="0.1 0.05"></line><line x1="21" x2="21" y1="0" y2="24" stroke-width="0.01" stroke="gray" stroke-dasharray="0.1 0.05"></line><line x1="22" x2="22" y1="0" y2="24" stroke-width="0.01" stroke="gray" stroke-dasharray="0.1 0.05"></line><line x1="23" x2="23" y1="0" y2="24" stroke-width="0.01" stroke="gray" stroke-dasharray="0.1 0.05"></line><line x1="24" x2="24" y1="0" y2="24" stroke-width="0.01" stroke="gray" stroke-dasharray="0.1 0.05"></line><line x1="25" x2="25" y1="0" y2="24" stroke-width="0.01" stroke="gray" stroke-dasharray="0.1 0.05"></line><line x1="26" x2="26" y1="0" y2="24" stroke-width="0.01" stroke="gray" stroke-dasharray="0.1 0.05"></line><line x1="27" x2="27" y1="0" y2="24" stroke-width="0.01" stroke="gray" stroke-dasharray="0.1 0.05"></line><line x1="28" x2="28" y1="0" y2="24" stroke-width="0.01" stroke="gray" stroke-dasharray="0.1 0.05"></line><line x1="29" x2="29" y1="0" y2="24" stroke-width="0.01" stroke="gray" stroke-dasharray="0.1 0.05"></line><line x1="0" x2="30" y1="0" y2="0" stroke-width="0.01" stroke="gray" stroke-dasharray="0.1 0.05"></line><line x1="0" x2="30" y1="1" y2="1" stroke-width="0.01" stroke="gray" stroke-dasharray="0.1 0.05"></line><line x1="0" x2="30" y1="2" y2="2" stroke-width="0.01" stroke="gray" stroke-dasharray="0.1 0.05"></line><line x1="0" x2="30" y1="3" y2="3" stroke-width="0.01" stroke="gray" stroke-dasharray="0.1 0.05"></line><line x1="0" x2="30" y1="4" y2="4" stroke-width="0.01" stroke="gray" stroke-dasharray="0.1 0.05"></line><line x1="0" x2="30" y1="5" y2="5" stroke-width="0.01" stroke="gray" stroke-dasharray="0.1 0.05"></line><line x1="0" x2="30" y1="6" y2="6" stroke-width="0.01" stroke="gray" stroke-dasharray="0.1 0.05"></line><line x1="0" x2="30" y1="7" y2="7" stroke-width="0.01" stroke="gray" stroke-dasharray="0.1 0.05"></line><line x1="0" x2="30" y1="8" y2="8" stroke-width="0.01" stroke="gray" stroke-dasharray="0.1 0.05"></line><line x1="0" x2="30" y1="9" y2="9" stroke-width="0.01" stroke="gray" stroke-dasharray="0.1 0.05"></line><line x1="0" x2="30" y1="10" y2="10" stroke-width="0.01" stroke="gray" stroke-dasharray="0.1 0.05"></line><line x1="0" x2="30" y1="11" y2="11" stroke-width="0.01" stroke="gray" stroke-dasharray="0.1 0.05"></line><line x1="0" x2="30" y1="12" y2="12" stroke-width="0.01" stroke="gray" stroke-dasharray="0.1 0.05"></line><line x1="0" x2="30" y1="13" y2="13" stroke-width="0.01" stroke="gray" stroke-dasharray="0.1 0.05"></line><line x1="0" x2="30" y1="14" y2="14" stroke-width="0.01" stroke="gray" stroke-dasharray="0.1 0.05"></line><line x1="0" x2="30" y1="15" y2="15" stroke-width="0.01" stroke="gray" stroke-dasharray="0.1 0.05"></line><line x1="0" x2="30" y1="16" y2="16" stroke-width="0.01" stroke="gray" stroke-dasharray="0.1 0.05"></line><line x1="0" x2="30" y1="17" y2="17" stroke-width="0.01" stroke="gray" stroke-dasharray="0.1 0.05"></line><line x1="0" x2="30" y1="18" y2="18" stroke-width="0.01" stroke="gray" stroke-dasharray="0.1 0.05"></line><line x1="0" x2="30" y1="19" y2="19" stroke-width="0.01" stroke="gray" stroke-dasharray="0.1 0.05"></line><line x1="0" x2="30" y1="20" y2="20" stroke-width="0.01" stroke="gray" stroke-dasharray="0.1 0.05"></line><line x1="0" x2="30" y1="21" y2="21" stroke-width="0.01" stroke="gray" stroke-dasharray="0.1 0.05"></line><line x1="0" x2="30" y1="22" y2="22" stroke-width="0.01" stroke="gray" stroke-dasharray="0.1 0.05"></line><line x1="0" x2="30" y1="23" y2="23" stroke-width="0.01" stroke="gray" stroke-dasharray="0.1 0.05"></line></g></g>
      <g id="Curve">
      </g>

      <path id="splinefit" style="fill: none;stroke: green;stroke-width: 0.05px;" p="" d="M 0 11.99999384233521 0.04 11.99261226279761 0.08 11.970467524184826 0.12 11.933559626496846 0.16 11.881888569733672 0.2 11.815454353895309 0.24 11.734256978981751 0.28 11.638296444993005 0.32 11.527572751929064 0.36 11.402085899789931 0.4 11.261835888575611 0.44 11.106822718286093 0.48 10.937046388921384 0.52 10.755369533877692 0.56 10.578967953532258 0.6 10.410704281281292 0.64 10.250578517124792 0.68 10.098590661062756 0.72 9.954740713095191 0.76 9.81902867322209 0.8 9.691454541443456 0.84 9.572018317759287 0.88 9.46072000216959 0.92 9.357559594674354 0.96 9.262537095273586 1 9.175652503967287 1.04 9.096905820755453 1.08 9.026297045638085 1.12 8.963826178615184 1.16 8.90949321968675 1.2 8.863298168852783 1.24 8.825241026113282 1.28 8.795321791468247 1.32 8.77354046491768 1.36 8.759897046461578 1.4000000000000001 8.754391536099945 1.44 8.757023933832777 1.48 8.767794239660077 1.52 8.785381255335029 1.56 8.801857791376763 1.6 8.815902649538469 1.6400000000000001 8.827515829820147 1.68 8.836697332221794 1.72 8.843447156743412 1.76 8.847765303385 1.8 8.849651772146556 1.84 8.849106563028087 1.8800000000000001 8.846129676029587 1.92 8.840721111151057 1.96 8.832880868392495 2 8.822608947753908 2.04 8.809905349235288 2.08 8.79477007283664 2.12 8.77720311855796 2.16 8.757204486399253 2.2 8.734774176360517 2.24 8.70991218844175 2.2800000000000002 8.682618522642954 2.32 8.652893178964128 2.36 8.620736157405272 2.4 8.586147457966387 2.44 8.549127080647473 2.48 8.50967502544853 2.52 8.468256206206876 2.56 8.427660105946424 2.6 8.388351638504497 2.64 8.350330803881093 2.68 8.313597602076213 2.72 8.278152033089855 2.7600000000000002 8.24399409692202 2.8000000000000003 8.21112379357271 2.84 8.179541123041922 2.88 8.149246085329658 2.92 8.120238680435918 2.96 8.092518908360699 3 8.066086769104004 3.04 8.040942262665833 3.08 8.017085389046185 3.12 7.99451614824506 3.16 7.9732345402624585 3.2 7.95324056509838 3.24 7.934534222752825 3.2800000000000002 7.917115513225793 3.3200000000000003 7.900984436517284 3.36 7.886140992627299 3.4 7.872585181555837 3.44 7.860317003302898 3.48 7.849336457868483 3.52 7.839627783516259 3.56 7.831096409828239 3.6 7.823726575068097 3.64 7.817518279235828 3.68 7.812471522331434 3.72 7.808586304354913 3.7600000000000002 7.805862625306267 3.8000000000000003 7.804300485185496 3.84 7.8038998839925995 3.88 7.804660821727577 3.92 7.8065832983904295 3.96 7.809667313981155 4 7.813912868499756 4.04 7.819319961946231 4.08 7.825888594320582 4.12 7.833618765622806 4.16 7.842510475852904 4.2 7.852563725010878 4.24 7.863778513096724 4.28 7.876154840110447 4.32 7.889692706052044 4.36 7.904392110921515 4.4 7.920253054718859 4.44 7.937275537444078 4.48 7.955459559097173 4.5200000000000005 7.974838254499776 4.5600000000000005 7.995610432581694 4.6000000000000005 8.01780922816456 4.64 8.041434641248374 4.68 8.06648667183314 4.72 8.092965319918852 4.76 8.120870585505514 4.8 8.150202468593124 4.84 8.180960969181685 4.88 8.213146087271191 4.92 8.246757822861651 4.96 8.281796175953057 5 8.318261146545412 5.04 8.356152734638716 5.08 8.395470940232968 5.12 8.43621576332817 5.16 8.47838720392432 5.2 8.521985262021419 5.24 8.567009937619467 5.28 8.613461230718466 5.32 8.661339141318411 5.36 8.710643669419305 5.4 8.76137481502115 5.44 8.81353257812394 5.48 8.867116958727683 5.5200000000000005 8.921783516664044 5.5600000000000005 8.975465610923058 5.6000000000000005 9.027818801336394 5.64 9.078843087904053 5.68 9.128538470626035 5.72 9.17690494950234 5.76 9.22394252453297 5.8 9.26965119571792 5.84 9.314030963057194 5.88 9.357081826550791 5.92 9.398803786198712 5.96 9.439196842000955 6 9.478260993957521 6.04 9.515996242068411 6.08 9.552402586333624 6.12 9.587480026753157 6.16 9.621228563327016 6.2 9.653648196055197 6.24 9.684738924937703 6.28 9.71450074997453 6.32 9.74293367116568 6.36 9.770037688511152 6.4 9.79581280201095 6.44 9.820259011665069 6.48 9.843376317473512 6.5200000000000005 9.865100139839699 6.5600000000000005 9.885043001184172 6.6000000000000005 9.903140321910351 6.640000000000001 9.919392102018236 6.68 9.933798341507828 6.72 9.946359040379129 6.76 9.957074198632133 6.8 9.965943816266849 6.84 9.972967893283267 6.88 9.978146429681393 6.92 9.98147942546123 6.96 9.982966880622769 7 9.982608795166016 7.04 9.98040516909097 7.08 9.976356002397631 7.12 9.970461295085999 7.16 9.962721047156073 7.2 9.953135258607857 7.24 9.941703929441344 7.28 9.928427059656538 7.32 9.91330464925344 7.36 9.89633669823205 7.4 9.877523206592365 7.44 9.856864174334389 7.48 9.834359601458118 7.5200000000000005 9.810010006175212 7.5600000000000005 9.783818497755615 7.6000000000000005 9.755785594410986 7.640000000000001 9.725911296141323 7.68 9.694195602946628 7.72 9.6606385148269 7.76 9.625240031782141 7.8 9.588000153812349 7.84 9.54891888091752 7.88 9.507996213097664 7.92 9.465232150352772 7.96 9.420626692682848 8 9.37417984008789 8.040000000000001 9.325891592567901 8.08 9.27576195012288 8.120000000000001 9.223790912752824 8.16 9.169978480457736 8.2 9.114324653237617 8.24 9.056829431092462 8.28 8.997492814022277 8.32 8.93631480202706 8.36 8.873295395106808 8.4 8.808434593261524 8.44 8.741732396491207 8.48 8.673188804795856 8.52 8.603728626209627 8.56 8.538900708937419 8.6 8.479629861013393 8.64 8.42591608243754 8.68 8.377759373209868 8.72 8.335159733330368 8.76 8.29811716279905 8.8 8.266631661615907 8.84 8.240703229780943 8.88 8.220331867294153 8.92 8.205517574155545 8.96 8.19626035036511 9 8.192560195922853 9.040000000000001 8.194417110828773 9.08 8.20183109508287 9.120000000000001 8.214802148685147 9.16 8.233330271635596 9.200000000000001 8.257415463934226 9.24 8.287057725581032 9.28 8.322257056576014 9.32 8.363013456919175 9.36 8.409326926610511 9.4 8.461197465650027 9.44 8.518625074037718 9.48 8.581609751773588 9.52 8.648712235285306 9.56 8.711296943138915 9.6 8.767924611762089 9.64 8.818595241154826 9.68 8.863308831317127 9.72 8.902065382248992 9.76 8.934864893950419 9.8 8.961707366421411 9.84 8.982592799661967 9.88 8.997521193672085 9.92 9.006492548451769 9.96 9.009506864001017 10 9.006564140319826 10.040000000000001 8.9976643774082 10.08 8.982807575266138 10.120000000000001 8.961993733893639 10.16 8.935222853290703 10.200000000000001 8.902494933457332 10.24 8.863809974393526 10.28 8.819167976099282 10.32 8.768568938574601 10.36 8.712012861819487 10.4 8.649499745833932 10.44 8.581029590617945 10.48 8.506602396171518 10.52 8.427584954723812 10.56 8.352178019649749 10.6 8.28174838317849 10.64 8.216296045310028 10.68 8.155821006044368 10.72 8.100323265381503 10.76 8.049802823321443 10.8 8.00425967986418 10.84 7.963693835009719 10.88 7.928105288758058 10.92 7.897494041109197 10.96 7.871860092063135 11 7.851203441619873 11.040000000000001 7.835524089779412 11.08 7.82482203654175 11.120000000000001 7.81909728190689 11.16 7.818349825874828 11.200000000000001 7.822579668445565 11.24 7.831786809619104 11.28 7.845971249395442 11.32 7.865132987774581 11.36 7.889272024756519 11.4 7.9183883603412575 11.44 7.952481994528796 11.48 7.991552927319134 11.52 8.035141636530522 11.56 8.080490989072453 11.6 8.127141462763175 11.64 8.175093057602691 11.68 8.224345773591 11.72 8.274899610728102 11.76 8.326754569013996 11.8 8.379910648448684 11.84 8.434367849032162 11.88 8.490126170764434 11.92 8.5471856136455 11.96 8.605546177675356 12 8.665207862854004 12.040000000000001 8.72617066918145 12.08 8.788434596657684 12.120000000000001 8.85199964528271 12.16 8.916865815056529 12.200000000000001 8.983033105979143 12.24 9.050501518050547 12.280000000000001 9.119271051270745 12.32 9.189341705639734 12.36 9.260713481157516 12.4 9.333386377824095 12.44 9.407360395639461 12.48 9.482635534603624 12.52 9.55829141398979 12.56 9.62880574943727 12.6 9.693258160219266 12.64 9.751648646335788 12.68 9.803977207786831 12.72 9.850243844572397 12.76 9.890448556692485 12.8 9.924591344147098 12.84 9.95267220693623 12.88 9.974691145059884 12.92 9.990648158518066 12.96 10.000543247310766 13 10.00437641143799 13.040000000000001 10.002147650899735 13.08 9.993856965696004 13.120000000000001 9.979504355826794 13.16 9.959089821292109 13.200000000000001 9.932613362091942 13.24 9.900074978226304 13.280000000000001 9.861474669695184 13.32 9.816812436498589 13.36 9.766088278636516 13.4 9.709302196108961 13.44 9.646454188915936 13.48 9.577544257057427 13.52 9.503470618666475 13.56 9.429622582541247 13.6 9.356898366814786 13.64 9.285297971487081 13.68 9.214821396558138 13.72 9.145468642027952 13.76 9.077239707896528 13.8 9.01013459416386 13.84 8.944153300829957 13.88 8.87929582789481 13.92 8.815562175358426 13.96 8.752952343220798 14 8.691466331481935 14.040000000000001 8.631104140141828 14.08 8.571865769200482 14.120000000000001 8.513751218657895 14.16 8.456760488514067 14.200000000000001 8.400893578769 14.24 8.346150489422696 14.280000000000001 8.292531220475146 14.32 8.240035771926362 14.36 8.188664143776334 14.4 8.138416336025065 14.44 8.089292348672558 14.48 8.041292181718811 14.52 7.994988481952048 14.56 7.953817130101617 14.6 7.9183507729557485 14.64 7.888589410514437 14.68 7.864533042777686 14.72 7.846181669745493 14.76 7.83353529141786 14.8 7.826593907794787 14.84 7.82535751887627 14.88 7.829826124662316 14.92 7.83999972515292 14.96 7.855878320348082 15 7.877461910247804 15.040000000000001 7.9047504948520855 15.08 7.937744074160925 15.120000000000001 7.9764426481743245 15.16 8.02084621689228 15.200000000000001 8.0709547803148 15.24 8.126768338441877 15.280000000000001 8.188286891273513 15.32 8.255510438809708 15.36 8.328438981050459 15.4 8.407072517995775 15.44 8.491411049645645 15.48 8.581454576000079 15.52 8.675725891354647 15.56 8.765361761482838 15.6 8.848884980680223 15.64 8.92629554894681 15.68 8.997593466282588 15.72 9.062778732687569 15.76 9.121851348161746 15.8 9.17481131270512 15.84 9.221658626317693 15.88 9.262393288999464 15.92 9.297015300750434 15.96 9.325524661570599 16 9.347921371459963 16.04 9.364205430418524 16.080000000000002 9.374376838446283 16.12 9.378435595543241 16.16 9.376381701709395 16.2 9.368215156944748 16.240000000000002 9.353935961249299 16.28 9.333544114623045 16.32 9.307039617065993 16.36 9.274422468578136 16.4 9.235692669159478 16.44 9.190850218810015 16.48 9.139895117529754 16.52 9.083807667570218 16.56 9.02846968244058 16.6 8.974861464392363 16.64 8.922983013425577 16.68 8.872834329540217 16.72 8.824415412736283 16.76 8.777726263013772 16.8 8.73276688037269 16.84 8.689537264813035 16.88 8.648037416334807 16.92 8.608267334938 16.96 8.570227020622623 17 8.533916473388672 17.04 8.499335693236148 17.080000000000002 8.466484680165047 17.12 8.435363434175374 17.16 8.405971955267129 17.2 8.378310243440307 17.240000000000002 8.352378298694912 17.28 8.328176121030943 17.32 8.305703710448402 17.36 8.284961066947286 17.400000000000002 8.265948190527595 17.44 8.248665081189332 17.48 8.233111738932495 17.52 8.218874805036805 17.56 8.203474127180593 17.6 8.186496346643576 17.64 8.167941463425759 17.68 8.147809477527144 17.72 8.126100388947725 17.76 8.102814197687502 17.8 8.07795090374648 17.84 8.051510507124657 17.88 8.023493007822033 17.92 7.993898405838603 17.96 7.962726701174376 18 7.929977893829347 18.04 7.895651983803517 18.080000000000002 7.859748971096881 18.12 7.8222688557094475 18.16 7.7832116376412115 18.2 7.742577316892175 18.240000000000002 7.700365893462332 18.28 7.656577367351693 18.32 7.611211738560252 18.36 7.564269007088009 18.400000000000002 7.51574917293496 18.44 7.465652236101115 18.48 7.413978196586468 18.52 7.361344627544657 18.56 7.311456967897512 18.6 7.264932790798669 18.64 7.221772096248136 18.68 7.181974884245907 18.72 7.145541154791982 18.76 7.11247090788636 18.8 7.082764143529046 18.84 7.056420861720035 18.88 7.033441062459331 18.92 7.013824745746929 18.96 6.997571911582833 19 6.984682559967042 19.04 6.975156690899556 19.080000000000002 6.968994304380375 19.12 6.9661954004095 19.16 6.966759978986928 19.2 6.970688040112662 19.240000000000002 6.9779795837867 19.28 6.988634610009044 19.32 7.002653118779694 19.36 7.020035110098647 19.400000000000002 7.040780583965907 19.44 7.06488954038147 19.48 7.092361979345338 19.52 7.1227263635636735 19.56 7.153153469273459 19.6 7.183171759180859 19.64 7.212781233285869 19.68 7.241981891588493 19.72 7.270773734088729 19.76 7.299156760786579 19.8 7.32713097168204 19.84 7.354696366775113 19.88 7.3818529460658 19.92 7.4086007095541 19.96 7.434939657240012 20 7.460869789123536 20.04 7.486391105204672 20.080000000000002 7.511503605483424 20.12 7.536207289959785 20.16 7.56050215863376 20.2 7.584388211505346 20.240000000000002 7.6078654485745485 20.28 7.6309338698413605 20.32 7.653593475305785 20.36 7.675844264967822 20.400000000000002 7.697686238827473 20.44 7.719119396884737 20.48 7.7401437391396115 20.52 7.760983687807927 20.56 7.782985776184636 20.6 7.806374426485572 20.64 7.831149638710728 20.68 7.857311412860105 20.72 7.884859748933706 20.76 7.913794646931532 20.8 7.944116106853577 20.84 7.975824128699846 20.88 8.008918712470336 20.92 8.043399858165055 20.96 8.07926756578399 21 8.116521835327148 21.04 8.155162666794531 21.080000000000002 8.195190060186139 21.12 8.236604015501966 21.16 8.279404532742014 21.2 8.323591611906286 21.240000000000002 8.369165252994783 21.28 8.416125456007501 21.32 8.46447222094444 21.36 8.514205547805604 21.400000000000002 8.565325436590992 21.44 8.6178318873006 21.48 8.671724899934429 21.52 8.726407204474027 21.56 8.778295180808662 21.6 8.826791558919886 21.64 8.871896338807685 21.68 8.913609520472072 21.72 8.951931103913038 21.76 8.986861089130594 21.8 9.018399476124726 21.84 9.046546264895444 21.88 9.071301455442743 21.92 9.092665047766628 21.96 9.110637041867093 22 9.125217437744142 22.04 9.136406235397775 22.080000000000002 9.14420343482799 22.12 9.14860903603479 22.16 9.14962303901817 22.2 9.147245443778134 22.240000000000002 9.141476250314682 22.28 9.132315458627811 22.32 9.119763068717525 22.36 9.103819080583822 22.400000000000002 9.0844834942267 22.44 9.06175630964616 22.48 9.035637526842207 22.52 9.006581300679954 22.56 8.977312560350112 22.6 8.948285460717797 22.64 8.919500001783014 22.68 8.890956183545761 22.72 8.862654006006036 22.76 8.83459346916384 22.8 8.806774573019176 22.84 8.779197317572038 22.88 8.751861702822433 22.92 8.724767728770354 22.96 8.697915395415807 23 8.671304702758789 23.04 8.644935650799301 23.080000000000002 8.61880823953734 23.12 8.592922468972912 23.16 8.56727833910601 23.2 8.541875849936641 23.240000000000002 8.5167150014648 23.28 8.491795793690487 23.32 8.467118226613707 23.36 8.442682300234454 23.400000000000002 8.418488014552729 23.44 8.394535369568535 23.48 8.370824365281871 23.52 8.347325427542456 23.56 8.323861111448593 23.6 8.300401842849999 23.64 8.276947621746679 23.68 8.253498448138629 23.72 8.230054322025852 23.76 8.206615243408343 23.8 8.18318121228611 23.84 8.159752228659146 23.88 8.136328292527454 23.92 8.112909403891031 23.96 8.089495562749882 24 8.066086769104004 24.04 8.042683022953398 24.080000000000002 8.01928432429806 24.12 7.995890673137996 24.16 7.972502069473204 24.2 7.949118513303683 24.240000000000002 7.92574000462943 24.28 7.9023665434504515 24.32 7.878998129766744 24.36 7.85563476357831 24.400000000000002 7.832276444885143 24.44 7.8089231736872495 24.48 7.785574949984628 24.52 7.762277849000622 24.560000000000002 7.739308322075282 24.6 7.716712444431962 24.64 7.694490216070653 24.68 7.672641636991361 24.72 7.65116670719408 24.76 7.630065426678815 24.8 7.6093377954455645 24.84 7.588983813494328 24.88 7.569003480825106 24.92 7.549396797437896 24.96 7.530163763332702 25 7.511304378509522 25.04 7.492818642968358 25.080000000000002 7.474706556709205 25.12 7.456968119732069 25.16 7.439603332036947 25.2 7.422612193623839 25.240000000000002 7.405994704492744 25.28 7.389750864643663 25.32 7.373880674076599 25.36 7.358384132791547 25.400000000000002 7.343261240788509 25.44 7.328511998067487 25.48 7.31413640462848 25.52 7.300371755339816 25.560000000000002 7.288641819411479 25.6 7.279183891711802 25.64 7.271997972240784 25.68 7.2670840609984255 25.72 7.264442157984723 25.76 7.264072263199682 25.8 7.265974376643298 25.84 7.270148498315573 25.88 7.276594628216507 25.92 7.285312766346099 25.96 7.296302912704351 26 7.30956506729126 26.04 7.325099230106829 26.080000000000002 7.342905401151057 26.12 7.3629835804239425 26.16 7.385333767925486 26.2 7.409955963655689 26.240000000000002 7.436850167614553 26.28 7.466016379802074 26.32 7.497454600218251 26.36 7.531164828863089 26.400000000000002 7.567147065736588 26.44 7.605401310838742 26.48 7.645927564169556 26.52 7.688466416781542 26.560000000000002 7.731461414989785 26.6 7.774653149846793 26.64 7.8180416213525685 26.68 7.861626829507112 26.72 7.905408774310423 26.76 7.9493874557625075 26.8 7.993562873863357 26.84 8.037935028612972 26.88 8.082503920011359 26.92 8.127269548058514 26.96 8.172231912754434 27 8.217391014099121 27.04 8.262746852092578 27.080000000000002 8.308299426734806 27.12 8.3540487380258 27.16 8.399994785965559 27.2 8.446137570554088 27.240000000000002 8.492477091791388 27.28 8.539013349677454 27.32 8.585746344212286 27.36 8.632676075395887 27.400000000000002 8.67980254322826 27.44 8.727125747709396 27.48 8.774645688839302 27.52 8.82279387437255 27.560000000000002 8.874159350836601 27.6 8.92917362598602 27.64 8.987836699820814 27.68 9.050148572340982 27.72 9.116109243546521 27.76 9.185718713437444 27.8 9.258976982013733 27.84 9.335884049275393 27.88 9.416439915222428 27.92 9.500644579854843 27.96 9.588498043172628 28 9.680000305175781 28.04 9.77515136586431 28.080000000000002 9.873951225238223 28.12 9.9763998832975 28.16 10.08249734004215 28.2 10.192243595472174 28.240000000000002 10.305638649587582 28.28 10.422682502388351 28.32 10.543375153874496 28.36 10.667716604046014 28.400000000000002 10.795706852902917 28.44 10.927345900445184 28.48 11.062633746672823 28.52 11.199724925301032 28.560000000000002 11.327546638621016 28.6 11.444253420347945 28.64 11.549845270481834 28.68 11.644322189022683 28.72 11.72768417597049 28.76 11.799931231325264 28.8 11.861063355086989 28.84 11.91108054725567 28.88 11.949982807831319 28.92 11.977770136813922 28.96 11.994442534203483 29 12.000000000000004"></path>
    <g id="GPoint_0" transform="translate(0,12)" visibility="show"><circle id="Point_0" draggable="true" fill="blue" stroke-width="0.0375" stroke="white" cx="0" cy="0" r="0.15" opacity="1"></circle></g><g id="GPoint_1" transform="translate(1,9.175652503967285)" visibility="show"><circle id="Point_1" draggable="true" fill="blue" stroke-width="0.0375" stroke="white" cx="0" cy="0" r="0.15" opacity="1"></circle></g><g id="GPoint_2" transform="translate(2,8.822608947753906)" visibility="show"><circle id="Point_2" draggable="true" fill="blue" stroke-width="0.0375" stroke="white" cx="0" cy="0" r="0.15" opacity="1"></circle></g><g id="GPoint_3" transform="translate(3,8.066086769104004)" visibility="show"><circle id="Point_3" draggable="true" fill="blue" stroke-width="0.0375" stroke="white" cx="0" cy="0" r="0.15" opacity="1"></circle></g><g id="GPoint_4" transform="translate(4,7.813912868499756)" visibility="show"><circle id="Point_4" draggable="true" fill="blue" stroke-width="0.0375" stroke="white" cx="0" cy="0" r="0.15" opacity="1"></circle></g><g id="GPoint_5" transform="translate(5,8.31826114654541)" visibility="show"><circle id="Point_5" draggable="true" fill="blue" stroke-width="0.0375" stroke="white" cx="0" cy="0" r="0.15" opacity="1"></circle></g><g id="GPoint_6" transform="translate(6,9.47826099395752)" visibility="show"><circle id="Point_6" draggable="true" fill="blue" stroke-width="0.0375" stroke="white" cx="0" cy="0" r="0.15" opacity="1"></circle></g><g id="GPoint_7" transform="translate(7,9.982608795166016)" visibility="show"><circle id="Point_7" draggable="true" fill="blue" stroke-width="0.0375" stroke="white" cx="0" cy="0" r="0.15" opacity="1"></circle></g><g id="GPoint_8" transform="translate(8,9.37417984008789)" visibility="show"><circle id="Point_8" draggable="true" fill="blue" stroke-width="0.0375" stroke="white" cx="0" cy="0" r="0.15" opacity="1"></circle></g><g id="GPoint_9" transform="translate(9,8.192560195922852)" visibility="show"><circle id="Point_9" draggable="true" fill="blue" stroke-width="0.0375" stroke="white" cx="0" cy="0" r="0.15" opacity="1"></circle></g><g id="GPoint_10" transform="translate(10,9.006564140319824)" visibility="show"><circle id="Point_10" draggable="true" fill="blue" stroke-width="0.0375" stroke="white" cx="0" cy="0" r="0.15" opacity="1"></circle></g><g id="GPoint_11" transform="translate(11,7.851203441619873)" visibility="show"><circle id="Point_11" draggable="true" fill="blue" stroke-width="0.0375" stroke="white" cx="0" cy="0" r="0.15" opacity="1"></circle></g><g id="GPoint_12" transform="translate(12,8.665207862854004)" visibility="show"><circle id="Point_12" draggable="true" fill="blue" stroke-width="0.0375" stroke="white" cx="0" cy="0" r="0.15" opacity="1"></circle></g><g id="GPoint_13" transform="translate(13,10.004376411437988)" visibility="show"><circle id="Point_13" draggable="true" fill="blue" stroke-width="0.0375" stroke="white" cx="0" cy="0" r="0.15" opacity="1"></circle></g><g id="GPoint_14" transform="translate(14,8.691466331481934)" visibility="show"><circle id="Point_14" draggable="true" fill="blue" stroke-width="0.0375" stroke="white" cx="0" cy="0" r="0.15" opacity="1"></circle></g><g id="GPoint_15" transform="translate(15,7.877461910247803)" visibility="show"><circle id="Point_15" draggable="true" fill="blue" stroke-width="0.0375" stroke="white" cx="0" cy="0" r="0.15" opacity="1"></circle></g><g id="GPoint_16" transform="translate(16,9.347921371459961)" visibility="show"><circle id="Point_16" draggable="true" fill="blue" stroke-width="0.0375" stroke="white" cx="0" cy="0" r="0.15" opacity="1"></circle></g><g id="GPoint_17" transform="translate(17,8.533916473388672)" visibility="show"><circle id="Point_17" draggable="true" fill="blue" stroke-width="0.0375" stroke="white" cx="0" cy="0" r="0.15" opacity="1"></circle></g><g id="GPoint_18" transform="translate(18,7.929977893829346)" visibility="show"><circle id="Point_18" draggable="true" fill="blue" stroke-width="0.0375" stroke="white" cx="0" cy="0" r="0.15" opacity="1"></circle></g><g id="GPoint_19" transform="translate(19,6.984682559967041)" visibility="show"><circle id="Point_19" draggable="true" fill="blue" stroke-width="0.0375" stroke="white" cx="0" cy="0" r="0.15" opacity="1"></circle></g><g id="GPoint_20" transform="translate(20,7.460869789123535)" visibility="show"><circle id="Point_20" draggable="true" fill="blue" stroke-width="0.0375" stroke="white" cx="0" cy="0" r="0.15" opacity="1"></circle></g><g id="GPoint_21" transform="translate(21,8.116521835327148)" visibility="show"><circle id="Point_21" draggable="true" fill="blue" stroke-width="0.0375" stroke="white" cx="0" cy="0" r="0.15" opacity="1"></circle></g><g id="GPoint_22" transform="translate(22,9.12521743774414)" visibility="show"><circle id="Point_22" draggable="true" fill="blue" stroke-width="0.0375" stroke="white" cx="0" cy="0" r="0.15" opacity="1"></circle></g><g id="GPoint_23" transform="translate(23,8.671304702758789)" visibility="show"><circle id="Point_23" draggable="true" fill="blue" stroke-width="0.0375" stroke="white" cx="0" cy="0" r="0.15" opacity="1"></circle></g><g id="GPoint_24" transform="translate(24,8.066086769104004)" visibility="show"><circle id="Point_24" draggable="true" fill="blue" stroke-width="0.0375" stroke="white" cx="0" cy="0" r="0.15" opacity="1"></circle></g><g id="GPoint_25" transform="translate(25,7.5113043785095215)" visibility="show"><circle id="Point_25" draggable="true" fill="blue" stroke-width="0.0375" stroke="white" cx="0" cy="0" r="0.15" opacity="1"></circle></g><g id="GPoint_26" transform="translate(26,7.30956506729126)" visibility="show"><circle id="Point_26" draggable="true" fill="blue" stroke-width="0.0375" stroke="white" cx="0" cy="0" r="0.15" opacity="1"></circle></g><g id="GPoint_27" transform="translate(27,8.217391014099121)" visibility="show"><circle id="Point_27" draggable="true" fill="blue" stroke-width="0.0375" stroke="white" cx="0" cy="0" r="0.15" opacity="1"></circle></g><g id="GPoint_28" transform="translate(28,9.680000305175781)" visibility="show"><circle id="Point_28" draggable="true" fill="blue" stroke-width="0.0375" stroke="white" cx="0" cy="0" r="0.15" opacity="1"></circle></g><g id="GPoint_29" transform="translate(29,12)" visibility="show"><circle id="Point_29" draggable="true" fill="blue" stroke-width="0.0375" stroke="white" cx="0" cy="0" r="0.15" opacity="1"></circle></g></svg>
