<svg id="svg" viewBox="0 5 24 20" style="width: calc(100% - 494px);" xmlns="http://www.w3.org/2000/svg" transform="translate(-10 0)scale(1.5 1.5)">
      <defs>
        <radialGradient id="g1" cx="50%" cy="50%" r="50%" fx="35%" fy="35%">
          <stop stop-color="#a7e0a7" offset="0%"></stop>
          <stop stop-color="#6cc36c" offset="30%"></stop>
          <stop stop-color="#1c711c" offset="90%"></stop>
          <stop stop-color="#014c04" offset="100%"></stop>
        </radialGradient>
        <radialGradient id="g2" cx="50%" cy="50%" r="50%" fx="35%" fy="35%">
          <stop stop-color="#5bb7ff" offset="0%"></stop>
          <stop stop-color="#008eff" offset="30%"></stop>
          <stop stop-color="blue" offset="90%"></stop>
          <stop stop-color="#014c04" offset="100%"></stop>
        </radialGradient>
      </defs>
      <g id="Background">
      <g id="Grid_0"><line x1="0" x2="0" y1="0" y2="24" stroke-width="0.01" stroke="gray" stroke-dasharray="0.1 0.05"></line><line x1="1" x2="1" y1="0" y2="24" stroke-width="0.01" stroke="gray" stroke-dasharray="0.1 0.05"></line><line x1="2" x2="2" y1="0" y2="24" stroke-width="0.01" stroke="gray" stroke-dasharray="0.1 0.05"></line><line x1="3" x2="3" y1="0" y2="24" stroke-width="0.01" stroke="gray" stroke-dasharray="0.1 0.05"></line><line x1="4" x2="4" y1="0" y2="24" stroke-width="0.01" stroke="gray" stroke-dasharray="0.1 0.05"></line><line x1="5" x2="5" y1="0" y2="24" stroke-width="0.01" stroke="gray" stroke-dasharray="0.1 0.05"></line><line x1="6" x2="6" y1="0" y2="24" stroke-width="0.01" stroke="gray" stroke-dasharray="0.1 0.05"></line><line x1="7" x2="7" y1="0" y2="24" stroke-width="0.01" stroke="gray" stroke-dasharray="0.1 0.05"></line><line x1="8" x2="8" y1="0" y2="24" stroke-width="0.01" stroke="gray" stroke-dasharray="0.1 0.05"></line><line x1="9" x2="9" y1="0" y2="24" stroke-width="0.01" stroke="gray" stroke-dasharray="0.1 0.05"></line><line x1="10" x2="10" y1="0" y2="24" stroke-width="0.01" stroke="gray" stroke-dasharray="0.1 0.05"></line><line x1="11" x2="11" y1="0" y2="24" stroke-width="0.01" stroke="gray" stroke-dasharray="0.1 0.05"></line><line x1="12" x2="12" y1="0" y2="24" stroke-width="0.01" stroke="gray" stroke-dasharray="0.1 0.05"></line><line x1="13" x2="13" y1="0" y2="24" stroke-width="0.01" stroke="gray" stroke-dasharray="0.1 0.05"></line><line x1="14" x2="14" y1="0" y2="24" stroke-width="0.01" stroke="gray" stroke-dasharray="0.1 0.05"></line><line x1="15" x2="15" y1="0" y2="24" stroke-width="0.01" stroke="gray" stroke-dasharray="0.1 0.05"></line><line x1="16" x2="16" y1="0" y2="24" stroke-width="0.01" stroke="gray" stroke-dasharray="0.1 0.05"></line><line x1="17" x2="17" y1="0" y2="24" stroke-width="0.01" stroke="gray" stroke-dasharray="0.1 0.05"></line><line x1="18" x2="18" y1="0" y2="24" stroke-width="0.01" stroke="gray" stroke-dasharray="0.1 0.05"></line><line x1="19" x2="19" y1="0" y2="24" stroke-width="0.01" stroke="gray" stroke-dasharray="0.1 0.05"></line><line x1="20" x2="20" y1="0" y2="24" stroke-width="0.01" stroke="gray" stroke-dasharray="0.1 0.05"></line><line x1="21" x2="21" y1="0" y2="24" stroke-width="0.01" stroke="gray" stroke-dasharray="0.1 0.05"></line><line x1="22" x2="22" y1="0" y2="24" stroke-width="0.01" stroke="gray" stroke-dasharray="0.1 0.05"></line><line x1="23" x2="23" y1="0" y2="24" stroke-width="0.01" stroke="gray" stroke-dasharray="0.1 0.05"></line><line x1="24" x2="24" y1="0" y2="24" stroke-width="0.01" stroke="gray" stroke-dasharray="0.1 0.05"></line><line x1="25" x2="25" y1="0" y2="24" stroke-width="0.01" stroke="gray" stroke-dasharray="0.1 0.05"></line><line x1="26" x2="26" y1="0" y2="24" stroke-width="0.01" stroke="gray" stroke-dasharray="0.1 0.05"></line><line x1="27" x2="27" y1="0" y2="24" stroke-width="0.01" stroke="gray" stroke-dasharray="0.1 0.05"></line><line x1="28" x2="28" y1="0" y2="24" stroke-width="0.01" stroke="gray" stroke-dasharray="0.1 0.05"></line><line x1="29" x2="29" y1="0" y2="24" stroke-width="0.01" stroke="gray" stroke-dasharray="0.1 0.05"></line><line x1="0" x2="30" y1="0" y2="0" stroke-width="0.01" stroke="gray" stroke-dasharray="0.1 0.05"></line><line x1="0" x2="30" y1="1" y2="1" stroke-width="0.01" stroke="gray" stroke-dasharray="0.1 0.05"></line><line x1="0" x2="30" y1="2" y2="2" stroke-width="0.01" stroke="gray" stroke-dasharray="0.1 0.05"></line><line x1="0" x2="30" y1="3" y2="3" stroke-width="0.01" stroke="gray" stroke-dasharray="0.1 0.05"></line><line x1="0" x2="30" y1="4" y2="4" stroke-width="0.01" stroke="gray" stroke-dasharray="0.1 0.05"></line><line x1="0" x2="30" y1="5" y2="5" stroke-width="0.01" stroke="gray" stroke-dasharray="0.1 0.05"></line><line x1="0" x2="30" y1="6" y2="6" stroke-width="0.01" stroke="gray" stroke-dasharray="0.1 0.05"></line><line x1="0" x2="30" y1="7" y2="7" stroke-width="0.01" stroke="gray" stroke-dasharray="0.1 0.05"></line><line x1="0" x2="30" y1="8" y2="8" stroke-width="0.01" stroke="gray" stroke-dasharray="0.1 0.05"></line><line x1="0" x2="30" y1="9" y2="9" stroke-width="0.01" stroke="gray" stroke-dasharray="0.1 0.05"></line><line x1="0" x2="30" y1="10" y2="10" stroke-width="0.01" stroke="gray" stroke-dasharray="0.1 0.05"></line><line x1="0" x2="30" y1="11" y2="11" stroke-width="0.01" stroke="gray" stroke-dasharray="0.1 0.05"></line><line x1="0" x2="30" y1="12" y2="12" stroke-width="0.01" stroke="gray" stroke-dasharray="0.1 0.05"></line><line x1="0" x2="30" y1="13" y2="13" stroke-width="0.01" stroke="gray" stroke-dasharray="0.1 0.05"></line><line x1="0" x2="30" y1="14" y2="14" stroke-width="0.01" stroke="gray" stroke-dasharray="0.1 0.05"></line><line x1="0" x2="30" y1="15" y2="15" stroke-width="0.01" stroke="gray" stroke-dasharray="0.1 0.05"></line><line x1="0" x2="30" y1="16" y2="16" stroke-width="0.01" stroke="gray" stroke-dasharray="0.1 0.05"></line><line x1="0" x2="30" y1="17" y2="17" stroke-width="0.01" stroke="gray" stroke-dasharray="0.1 0.05"></line><line x1="0" x2="30" y1="18" y2="18" stroke-width="0.01" stroke="gray" stroke-dasharray="0.1 0.05"></line><line x1="0" x2="30" y1="19" y2="19" stroke-width="0.01" stroke="gray" stroke-dasharray="0.1 0.05"></line><line x1="0" x2="30" y1="20" y2="20" stroke-width="0.01" stroke="gray" stroke-dasharray="0.1 0.05"></line><line x1="0" x2="30" y1="21" y2="21" stroke-width="0.01" stroke="gray" stroke-dasharray="0.1 0.05"></line><line x1="0" x2="30" y1="22" y2="22" stroke-width="0.01" stroke="gray" stroke-dasharray="0.1 0.05"></line><line x1="0" x2="30" y1="23" y2="23" stroke-width="0.01" stroke="gray" stroke-dasharray="0.1 0.05"></line></g></g>
      <g id="Curve">
      </g>
      
      <path id="splinefit" style="fill: none;stroke: green;stroke-width: 0.05px;" p="" d="M 0 11.999993842335208 0.04 11.999994891031525 0.08 11.99999803712048 0.12 12.00000328060207 0.16 12.000010621476296 0.2 12.000020059743159 0.24 12.000031595402655 0.28 12.00004522845479 0.32 12.00006095889956 0.36 12.000078786736966 0.4 12.00009871196701 0.44 12.000120734589686 0.48 12.000144854604999 0.52 12.000170033168894 0.56 12.000190037217045 0.6 12.000203827905398 0.64 12.000211405233951 0.68 12.000212769202708 0.72 12.000207919811663 0.76 12.000196857060821 0.8 12.00017958095018 0.84 12.00015609147974 0.88 12.000126388649504 0.92 12.000090472459467 0.96 12.000048342909633 1 12 1.04 11.999945443730565 1.08 11.999884674101338 1.12 11.999817691112307 1.16 11.99974449476348 1.2 11.999665085054852 1.24 11.99957946198643 1.28 11.999487625558206 1.32 11.999389575770184 1.36 11.999285312622364 1.4000000000000001 11.999174836114744 1.44 11.999058146247325 1.48 11.99893524302011 1.52 11.998811291096576 1.56 11.998717278457606 1.6 11.998658369766686 1.6400000000000001 11.998634565023806 1.68 11.998645864228978 1.72 11.998692267382195 1.76 11.998773774483457 1.8 11.998890385532766 1.84 11.99904210053012 1.8800000000000001 11.99922891947552 1.92 11.99945084236897 1.96 11.999707869210463 2 12 2.04 12.000327234737588 2.08 12.000689573423221 2.12 12.001087016056898 2.16 12.001519562638624 2.2 12.001987213168396 2.24 12.002489967646213 2.2800000000000002 12.003027826072076 2.32 12.003600788445986 2.36 12.004208854767942 2.4 12.004852025037945 2.44 12.005530299255993 2.48 12.006243677422088 2.52 12.006962220251662 2.56 12.007506292037325 2.6 12.007845953494506 2.64 12.007981204623212 2.68 12.007912045423437 2.72 12.007638475895185 2.7600000000000002 12.00716049603845 2.8000000000000003 12.00647810585324 2.84 12.005591305339552 2.88 12.00450009449738 2.92 12.003204473326736 2.96 12.001704441827606 3 12.000000000000004 3.04 11.998091147843919 3.08 11.995977885359355 3.12 11.993660212546313 3.16 11.991138129404792 3.2 11.988411635934792 3.24 11.985480732136315 3.2800000000000002 11.982345418009357 3.3200000000000003 11.97900569355392 3.36 11.975461558770006 3.4 11.971713013657613 3.44 11.967760058216738 3.48 11.963602692447388 3.52 11.95941538739347 3.56 11.956244969318465 3.6 11.95426590926629 3.64 11.95347820723694 3.68 11.953881863230416 3.72 11.955476877246722 3.7600000000000002 11.958263249285851 3.8000000000000003 11.96224097934781 3.84 11.967410067432592 3.88 11.973770513540204 3.92 11.981322317670644 3.96 11.99006547982391 4 12.000000000000002 4.04 12.011125878198921 4.08 12.023443114420667 4.12 12.036951708665239 4.16 12.051651660932638 4.2 12.067542971222867 4.24 12.084625639535918 4.28 12.102899665871801 4.32 12.122365050230506 4.36 12.143021792612043 4.4 12.164869893016402 4.44 12.18790935144359 4.48 12.212140167893605 4.5200000000000005 12.236545455387533 4.5600000000000005 12.255023892051895 4.6000000000000005 12.266558590907769 4.64 12.271149551955162 4.68 12.268796775194074 4.72 12.259500260624506 4.76 12.243260008246452 4.8 12.220076018059919 4.84 12.1899482900649 4.88 12.152876824261398 4.92 12.108861620649414 4.96 12.057902679228949 5 12 5.04 11.935153582962569 5.08 11.863363428116656 5.12 11.78462953546226 5.16 11.698951904999383 5.2 11.606330536728024 5.24 11.50676543064818 5.28 11.400256586759852 5.32 11.286804005063047 5.36 11.166407685557754 5.4 11.039067628243982 5.44 10.904783833121726 5.48 10.763556300190988 5.5200000000000005 10.617277097871668 5.5600000000000005 10.477298636683171 5.6000000000000005 10.345512985045401 5.64 10.221920142958355 5.68 10.106520110422032 5.72 9.999312887436433 5.76 9.900298474001557 5.8 9.80947687011741 5.84 9.726848075783982 5.88 9.65241209100128 5.92 9.586168915769305 5.96 9.52811855008805 6 9.478260993957521 6.04 9.436596247377716 6.08 9.403124310348637 6.12 9.37784518287028 6.16 9.36075886494265 6.2 9.351865356565742 6.24 9.35116465773956 6.28 9.358656768464101 6.32 9.374341688739365 6.36 9.398219418565356 6.4 9.43028995794207 6.44 9.47055330686951 6.48 9.519009465347672 6.5200000000000005 9.574199431137336 6.5600000000000005 9.627369190803174 6.6000000000000005 9.677059742105959 6.640000000000001 9.723271085045694 6.68 9.766003219622377 6.72 9.805256145836012 6.76 9.841029863686593 6.8 9.873324373174125 6.84 9.902139674298605 6.88 9.927475767060033 6.92 9.949332651458413 6.96 9.967710327493739 7 9.982608795166016 7.04 9.994028054475242 7.08 10.001968105421419 7.12 10.00642894800454 7.16 10.007410582224614 7.2 10.004913008081637 7.24 9.998936225575608 7.28 9.989480234706528 7.32 9.976545035474398 7.36 9.960130627879217 7.4 9.940237011920987 7.44 9.916864187599703 7.48 9.890012154915368 7.5200000000000005 9.859920677181755 7.5600000000000005 9.828028334281482 7.6000000000000005 9.79457488952832 7.640000000000001 9.759560342922272 7.68 9.722984694463337 7.72 9.684847944151516 7.76 9.645150091986803 7.8 9.603891137969205 7.84 9.561071082098717 7.88 9.516689924375342 7.92 9.470747664799081 7.96 9.423244303369929 8 9.374179840087892 8.040000000000001 9.323554274952965 8.08 9.271367607965152 8.120000000000001 9.217619839124449 8.16 9.162310968430859 8.2 9.105440995884384 8.24 9.047009921485017 8.28 8.987017745232766 8.32 8.925464467127625 8.36 8.862350087169597 8.4 8.79767460535868 8.44 8.731438021694878 8.48 8.663640336178185 8.52 8.595165308872724 8.56 8.53131550016321 8.6 8.472974670113762 8.64 8.420142818724376 8.68 8.372819945995058 8.72 8.331006051925803 8.76 8.294701136516615 8.8 8.26390519976749 8.84 8.238618241678434 8.88 8.21884026224944 8.92 8.204571261480513 8.96 8.19581123937165 9 8.192560195922853 9.040000000000001 8.19481813113412 9.08 8.202585045005454 9.120000000000001 8.215860937536851 9.16 8.234645808728313 9.200000000000001 8.258939658579843 9.24 8.288742487091437 9.28 8.324054294263092 9.32 8.36487508009482 9.36 8.411204844586607 9.4 8.463043587738461 9.44 8.52039130955038 9.48 8.583248010022364 9.52 8.650181468300167 9.56 8.712598359258308 9.6 8.769066462042538 9.64 8.81958577665286 9.68 8.864156303089272 9.72 8.902778041351773 9.76 8.935450991440367 9.8 8.962175153355048 9.84 8.982950527095824 9.88 8.997777112662687 9.92 9.006654910055644 9.96 9.00958391927469 10 9.006564140319826 10.040000000000001 8.997595573191052 10.08 8.98267821788837 10.120000000000001 8.961812074411778 10.16 8.934997142761276 10.200000000000001 8.902233422936865 10.24 8.863520914938546 10.28 8.818859618766316 10.32 8.768249534420177 10.36 8.711690661900128 10.4 8.64918300120617 10.44 8.580726552338303 10.48 8.506321315296525 10.52 8.427332873971547 10.56 8.351954731707611 10.6 8.281552472395427 10.64 8.21612609603499 10.68 8.15567560262631 10.72 8.100200992169375 10.76 8.049702264664196 10.8 8.004179420110763 10.84 7.9636324585090845 10.88 7.928061379859155 10.92 7.897466184160979 10.96 7.87184687141455 11 7.851203441619875 11.040000000000001 7.835535894776949 11.08 7.824844230885773 11.120000000000001 7.81912844994635 11.16 7.818388551958676 11.200000000000001 7.822624536922754 11.24 7.831836404838582 11.28 7.846024155706161 11.32 7.865187789525493 11.36 7.889327306296572 11.4 7.9184427060194045 11.44 7.952533988693986 11.48 7.99160115432032 11.52 8.035184888029255 11.56 8.080529300605901 11.6 8.127175077181105 11.64 8.175122217754872 11.68 8.2243707223272 11.72 8.274920590898088 11.76 8.326771823467535 11.8 8.379924420035547 11.84 8.434378380602116 11.88 8.490133705167247 11.92 8.547190393730938 11.96 8.605548446293193 12 8.665207862854004 12.040000000000001 8.726168643413382 12.08 8.788430787971315 12.120000000000001 8.851994296527812 12.16 8.916859169082866 12.200000000000001 8.983025405636484 12.24 9.050493006188661 12.280000000000001 9.119261970739403 12.32 9.1893322992887 12.36 9.260703991836559 12.4 9.333377048382982 12.44 9.407351468927963 12.48 9.482627253471506 12.52 9.558283985749659 12.56 9.628799168178727 12.6 9.693252384494754 12.64 9.751643634697746 12.68 9.8039729187877 12.72 9.850240236764618 12.76 9.890445588628497 12.8 9.924588974379338 12.84 9.952670394017142 12.88 9.97468984754191 12.92 9.99064733495364 12.96 10.000542856252332 13 10.004376411437988 13.040000000000001 10.002148000510605 13.08 9.993857623470186 13.120000000000001 9.97950528031673 13.16 9.959090971050237 13.200000000000001 9.932614695670704 13.24 9.900076454178135 13.280000000000001 9.86147624657253 13.32 9.816814072853887 13.36 9.766089933022206 13.4 9.709303827077486 13.44 9.646455755019733 13.48 9.577545716848938 13.52 9.503471936608534 13.56 9.429623758559053 13.6 9.356899406743924 13.64 9.285298881163145 13.68 9.21482218181672 13.72 9.145469308704643 13.76 9.077240261826919 13.8 9.010135041183542 13.84 8.94415364677452 13.88 8.879296078599847 13.92 8.815562336659525 13.96 8.752952420953555 14 8.691466331481935 14.040000000000001 8.631104068244666 14.08 8.571865631241748 14.120000000000001 8.51375102047318 14.16 8.456760235938964 14.200000000000001 8.400893277639096 14.24 8.346150145573583 14.280000000000001 8.292530839742415 14.32 8.240035360145605 14.36 8.188663706783144 14.4 8.138415879655032 14.44 8.089291878761271 14.48 8.04129170410186 14.52 7.99498800253983 14.56 7.953816655253343 14.6 7.9183503091054295 14.64 7.88858896409609 14.68 7.864532620225321 14.72 7.846181277493127 14.76 7.833534935899505 14.8 7.826593595444456 14.84 7.82535725612798 14.88 7.829825917950076 14.92 7.839999580910747 14.96 7.85587824500999 15 7.8774619102478045 15.040000000000001 7.904750576624193 15.08 7.937744244139154 15.120000000000001 7.976442912792688 15.16 8.020846582584793 15.200000000000001 8.070955253515473 15.24 8.126768925584727 15.280000000000001 8.188287598792552 15.32 8.25551127313895 15.36 8.328439948623918 15.4 8.407073625247465 15.44 8.491412303009579 15.48 8.58145598191027 15.52 8.6757274498859 15.56 8.76536343455469 15.6 8.848886723853001 15.64 8.926297317780838 15.68 8.997595216338198 15.72 9.062780419525081 15.76 9.121852927341491 15.8 9.174812739787425 15.84 9.221659856862884 15.88 9.262394278567868 15.92 9.297016004902375 15.96 9.325525035866406 16 9.347921371459963 16.04 9.364205011683042 16.080000000000002 9.374375956535651 16.12 9.37843420601778 16.16 9.376379760129435 16.2 9.368212618870613 16.240000000000002 9.353932782241316 16.28 9.333540250241544 16.32 9.307035022871297 16.36 9.274417100130574 16.4 9.235686482019378 16.44 9.1908431685377 16.48 9.139887159685552 16.52 9.08379879579492 16.56 9.028460118857748 16.6 8.974851469206023 16.64 8.922972846839755 16.68 8.87282425175894 16.72 8.824405683963576 16.76 8.77771714345366 16.8 8.732758630229199 16.84 8.689530144290192 16.88 8.648031685636635 16.92 8.608263254268527 16.96 8.570224850185875 17 8.533916473388674 17.04 8.499338123876925 17.080000000000002 8.466489801650624 17.12 8.43537150670978 17.16 8.405983239054386 17.2 8.378324998684446 17.240000000000002 8.352396785599955 17.28 8.328198599800917 17.32 8.305730441287333 17.36 8.284992310059199 17.400000000000002 8.265984206116515 17.44 8.248706129459286 17.48 8.23315808008751 17.52 8.218926477157341 17.56 8.203529835605734 17.6 8.18655457458884 17.64 8.168000694106663 17.68 8.147868194159205 17.72 8.126157074746464 17.76 8.102867335868439 17.8 8.077998977525132 17.84 8.05155199971654 17.88 8.023526402442668 17.92 7.993922185703508 17.96 7.962739349499069 18 7.929977893829347 18.04 7.8956378186943414 18.080000000000002 7.859719124094049 18.12 7.822221810028477 18.16 7.7831458764976205 18.2 7.742491323501484 18.240000000000002 7.7002581510400585 18.28 7.656446359113353 18.32 7.611055947721367 18.36 7.564086916864095 18.400000000000002 7.5155392665415395 18.44 7.465412996753702 18.48 7.413708107500582 18.52 7.361043466596736 18.56 7.311132280929502 18.6 7.2645934183134315 18.64 7.221426878748535 18.68 7.181632662234806 18.72 7.145210768772246 18.76 7.112161198360852 18.8 7.082483951000629 18.84 7.0561790266915745 18.88 7.033246425433689 18.92 7.01368614722697 18.96 6.997498192071422 19 6.984682559967042 19.04 6.97523925091383 19.080000000000002 6.9691682649117865 19.12 6.966469601960913 19.16 6.967143262061207 19.2 6.9711892452126705 19.240000000000002 6.978607551415302 19.28 6.989398180669102 19.32 7.003561132974071 19.36 7.021096408330208 19.400000000000002 7.042004006737516 19.44 7.06628392819599 19.48 7.093936172705632 19.52 7.124481657130661 19.56 7.155045882656385 19.6 7.185149766147022 19.64 7.2147933076025685 19.68 7.24397650702303 19.72 7.2726993644084 19.76 7.3009618797586855 19.8 7.32876405307388 19.84 7.356105884353987 19.88 7.382987373599005 19.92 7.409408520808938 19.96 7.435369325983781 20 7.460869789123536 20.04 7.485909910228202 20.080000000000002 7.510489689297782 20.12 7.534609126332272 20.16 7.558268221331674 20.2 7.581466974295989 20.240000000000002 7.604205385225217 20.28 7.626483454119354 20.32 7.648301180978406 20.36 7.669658565802367 20.400000000000002 7.690555608591243 20.44 7.710992309345029 20.48 7.730968668063726 20.52 7.750753087353917 20.56 7.77195598285509 20.6 7.794845757173827 20.64 7.819422410310125 20.68 7.845685942263986 20.72 7.873636353035411 20.76 7.9032736426244 20.8 7.934597811030951 20.84 7.967608858255064 20.88 8.00230678429674 20.92 8.038691589155983 20.96 8.076763272832784 21 8.116521835327148 21.04 8.157967276639077 21.080000000000002 8.201099596768572 21.12 8.245918795715625 21.16 8.29242487348024 21.2 8.34061783006242 21.240000000000002 8.390497665462167 21.28 8.442064379679472 21.32 8.495317972714341 21.36 8.550258444566772 21.400000000000002 8.60688579523677 21.44 8.665200024724328 21.48 8.725201133029449 21.52 8.786035513631091 21.56 8.842581527403016 21.6 8.893985567824187 21.64 8.940247634894593 21.68 8.981367728614243 21.72 9.017345848983135 21.76 9.04818199600127 21.8 9.073876169668646 21.84 9.094428369985259 21.88 9.10983859695112 21.92 9.120106850566218 21.96 9.12523313083056 22 9.12521743774414 22.04 9.120059771306966 22.080000000000002 9.109760131519032 22.12 9.094318518380339 22.16 9.073734931890888 22.2 9.048009372050679 22.240000000000002 9.017141838859708 22.28 8.981132332317982 22.32 8.939980852425498 22.36 8.893687399182255 22.400000000000002 8.84225197258825 22.44 8.78567457264349 22.48 8.723955199347973 22.52 8.659042046191571 22.56 8.602624274113532 22.6 8.556650076603727 22.64 8.521119453662164 22.68 8.496032405288837 22.72 8.48138893148375 22.76 8.4771890322469 22.8 8.483432707578286 22.84 8.500119957477912 22.88 8.527250781945774 22.92 8.564825180981877 22.96 8.612843154586214 23 8.67130470275879 23.04 8.740209825499601 23.080000000000002 8.81955852280866 23.12 8.909350794685949 23.16 9.009586641131474 23.2 9.120266062145236 23.240000000000002 9.241389057727249 23.28 9.372955627877488 23.32 9.514965772595962 23.36 9.667419491882676 23.400000000000002 9.830316785737642 23.44 10.003657654160833 23.48 10.187442097152257 23.52 10.37922690648512 23.56 10.564352832798615 23.6 10.74037666786596 23.64 10.907298411687119 23.68 11.065118064262109 23.72 11.213835625590931 23.76 11.353451095673599 23.8 11.483964474510085 23.84 11.605375762100401 23.88 11.71768495844455 23.92 11.82089206354254 23.96 11.914997077394354 24 12 24.04 12.075900831359476 24.080000000000002 12.14269957147279 24.12 12.20039622033993 24.16 12.2489907779609 24.2 12.288483244335705 24.240000000000002 12.318873619464343 24.28 12.34016190334681 24.32 12.352348095983107 24.36 12.35543219737324 24.400000000000002 12.3494142075172 24.44 12.334294126414994 24.48 12.31007195406662 24.52 12.27808066101586 24.560000000000002 12.2463180705254 24.6 12.216117153139027 24.64 12.18747790885674 24.68 12.16040033767854 24.72 12.134884439604425 24.76 12.110930214634392 24.8 12.088537662768447 24.84 12.067706784006589 24.88 12.048437578348814 24.92 12.030730045795123 24.96 12.01458418634552 25 12.000000000000002 25.04 11.986977486758569 25.080000000000002 11.97551664662122 25.12 11.965617479587959 25.16 11.957279985658781 25.2 11.95050416483369 25.240000000000002 11.945290017112683 25.28 11.941637542495762 25.32 11.939546740982927 25.36 11.939017612574178 25.400000000000002 11.940050157269514 25.44 11.942644375068934 25.48 11.94680026597244 25.52 11.952289127419727 25.560000000000002 11.957738744048976 25.6 11.96292041329988 25.64 11.96783413517244 25.68 11.972479909666655 25.72 11.976857736782526 25.76 11.980967616520056 25.8 11.98480954887924 25.84 11.988383533860079 25.88 11.991689571462576 25.92 11.994727661686726 25.96 11.997497804532536 26 12.000000000000002 26.04 12.00223424808912 26.080000000000002 12.004200548799897 26.12 12.00589890213233 26.16 12.007329308086419 26.2 12.008491766662164 26.240000000000002 12.009386277859564 26.28 12.01001284167862 26.32 12.010371458119334 26.36 12.010462127181702 26.400000000000002 12.010284848865727 26.44 12.009839623171409 26.48 12.009126450098746 26.52 12.00818457446578 26.560000000000002 12.00724946518075 26.6 12.0063603670617 26.64 12.005517280108629 26.68 12.004720204321535 26.72 12.00396913970042 26.76 12.003264086245283 26.8 12.002605043956121 26.84 12.001992012832941 26.88 12.001424992875739 26.92 12.000903984084514 26.96 12.000428986459267 27 12 27.04 11.99961702470671 27.080000000000002 11.9992800605794 27.12 11.998989107618067 27.16 11.998744165822712 27.2 11.998545235193335 27.240000000000002 11.998392315729937 27.28 11.998285407432519 27.32 11.998224510301075 27.36 11.998209624335612 27.400000000000002 11.998240749536127 27.44 11.998317885902619 27.48 11.99844103343509 27.52 11.998603425785603 27.560000000000002 11.998764464866525 27.6 11.998917384329927 27.64 11.999062184175799 27.68 11.999198864404145 27.72 11.999327425014966 27.76 11.999447866008262 27.8 11.999560187384033 27.84 11.999664389142279 27.88 11.999760471282999 27.92 11.99984843380619 27.96 11.99992827671186 28 12 28.04 12.000063603670618 28.080000000000002 12.000119087723709 28.12 12.000166452159275 28.16 12.000205696977314 28.2 12.00023682217783 28.240000000000002 12.00025982776082 28.28 12.000274713726283 28.32 12.000281480074221 28.36 12.000280126804633 28.400000000000002 12.00027065391752 28.44 12.00025306141288 28.48 12.000227349290718 28.52 12.000194870820614 28.560000000000002 12.000163745620101 28.6 12.000135326958759 28.64 12.000109614836596 28.68 12.000086609253607 28.72 12.000066310209792 28.76 12.000048717705155 28.8 12.000033831739689 28.84 12.000021652313402 28.88 12.00001217942629 28.92 12.000005413078352 28.96 12.000001353269589 29 12"></path>
    <g id="GPoint_0" transform="translate(0,12)" visibility="show"><circle id="Point_0" draggable="true" fill="blue" stroke-width="0.0375" stroke="white" cx="0" cy="0" r="0.15" opacity="1"></circle></g><g id="GPoint_1" transform="translate(1,12)" visibility="show"><circle id="Point_1" draggable="true" fill="blue" stroke-width="0.0375" stroke="white" cx="0" cy="0" r="0.15" opacity="1"></circle></g><g id="GPoint_2" transform="translate(2,12)" visibility="show"><circle id="Point_2" draggable="true" fill="blue" stroke-width="0.0375" stroke="white" cx="0" cy="0" r="0.15" opacity="1"></circle></g><g id="GPoint_3" transform="translate(3,12)" visibility="show"><circle id="Point_3" draggable="true" fill="blue" stroke-width="0.0375" stroke="white" cx="0" cy="0" r="0.15" opacity="1"></circle></g><g id="GPoint_4" transform="translate(4,12)" visibility="show"><circle id="Point_4" draggable="true" fill="blue" stroke-width="0.0375" stroke="white" cx="0" cy="0" r="0.15" opacity="1"></circle></g><g id="GPoint_5" transform="translate(5,12)" visibility="show"><circle id="Point_5" draggable="true" fill="blue" stroke-width="0.0375" stroke="white" cx="0" cy="0" r="0.15" opacity="1"></circle></g><g id="GPoint_6" transform="translate(6,9.47826099395752)" visibility="show"><circle id="Point_6" draggable="true" fill="blue" stroke-width="0.0375" stroke="white" cx="0" cy="0" r="0.15" opacity="1"></circle></g><g id="GPoint_7" transform="translate(7,9.982608795166016)" visibility="show"><circle id="Point_7" draggable="true" fill="blue" stroke-width="0.0375" stroke="white" cx="0" cy="0" r="0.15" opacity="1"></circle></g><g id="GPoint_8" transform="translate(8,9.37417984008789)" visibility="show"><circle id="Point_8" draggable="true" fill="blue" stroke-width="0.0375" stroke="white" cx="0" cy="0" r="0.15" opacity="1"></circle></g><g id="GPoint_9" transform="translate(9,8.192560195922852)" visibility="show"><circle id="Point_9" draggable="true" fill="blue" stroke-width="0.0375" stroke="white" cx="0" cy="0" r="0.15" opacity="1"></circle></g><g id="GPoint_10" transform="translate(10,9.006564140319824)" visibility="show"><circle id="Point_10" draggable="true" fill="blue" stroke-width="0.0375" stroke="white" cx="0" cy="0" r="0.15" opacity="1"></circle></g><g id="GPoint_11" transform="translate(11,7.851203441619873)" visibility="show"><circle id="Point_11" draggable="true" fill="blue" stroke-width="0.0375" stroke="white" cx="0" cy="0" r="0.15" opacity="1"></circle></g><g id="GPoint_12" transform="translate(12,8.665207862854004)" visibility="show"><circle id="Point_12" draggable="true" fill="blue" stroke-width="0.0375" stroke="white" cx="0" cy="0" r="0.15" opacity="1"></circle></g><g id="GPoint_13" transform="translate(13,10.004376411437988)" visibility="show"><circle id="Point_13" draggable="true" fill="blue" stroke-width="0.0375" stroke="white" cx="0" cy="0" r="0.15" opacity="1"></circle></g><g id="GPoint_14" transform="translate(14,8.691466331481934)" visibility="show"><circle id="Point_14" draggable="true" fill="blue" stroke-width="0.0375" stroke="white" cx="0" cy="0" r="0.15" opacity="1"></circle></g><g id="GPoint_15" transform="translate(15,7.877461910247803)" visibility="show"><circle id="Point_15" draggable="true" fill="blue" stroke-width="0.0375" stroke="white" cx="0" cy="0" r="0.15" opacity="1"></circle></g><g id="GPoint_16" transform="translate(16,9.347921371459961)" visibility="show"><circle id="Point_16" draggable="true" fill="blue" stroke-width="0.0375" stroke="white" cx="0" cy="0" r="0.15" opacity="1"></circle></g><g id="GPoint_17" transform="translate(17,8.533916473388672)" visibility="show"><circle id="Point_17" draggable="true" fill="blue" stroke-width="0.0375" stroke="white" cx="0" cy="0" r="0.15" opacity="1"></circle></g><g id="GPoint_18" transform="translate(18,7.929977893829346)" visibility="show"><circle id="Point_18" draggable="true" fill="blue" stroke-width="0.0375" stroke="white" cx="0" cy="0" r="0.15" opacity="1"></circle></g><g id="GPoint_19" transform="translate(19,6.984682559967041)" visibility="show"><circle id="Point_19" draggable="true" fill="blue" stroke-width="0.0375" stroke="white" cx="0" cy="0" r="0.15" opacity="1"></circle></g><g id="GPoint_20" transform="translate(20,7.460869789123535)" visibility="show"><circle id="Point_20" draggable="true" fill="blue" stroke-width="0.0375" stroke="white" cx="0" cy="0" r="0.15" opacity="1"></circle></g><g id="GPoint_21" transform="translate(21,8.116521835327148)" visibility="show"><circle id="Point_21" draggable="true" fill="blue" stroke-width="0.0375" stroke="white" cx="0" cy="0" r="0.15" opacity="1"></circle></g><g id="GPoint_22" transform="translate(22,9.12521743774414)" visibility="show"><circle id="Point_22" draggable="true" fill="blue" stroke-width="0.0375" stroke="white" cx="0" cy="0" r="0.15" opacity="1"></circle></g><g id="GPoint_23" transform="translate(23,8.671304702758789)" visibility="show"><circle id="Point_23" draggable="true" fill="blue" stroke-width="0.0375" stroke="white" cx="0" cy="0" r="0.15" opacity="1"></circle></g><g id="GPoint_24" transform="translate(24,12)" visibility="show"><circle id="Point_24" draggable="true" fill="blue" stroke-width="0.0375" stroke="white" cx="0" cy="0" r="0.15" opacity="1"></circle></g><g id="GPoint_25" transform="translate(25,12)" visibility="show"><circle id="Point_25" draggable="true" fill="blue" stroke-width="0.0375" stroke="white" cx="0" cy="0" r="0.15" opacity="1"></circle></g><g id="GPoint_26" transform="translate(26,12)" visibility="show"><circle id="Point_26" draggable="true" fill="blue" stroke-width="0.0375" stroke="white" cx="0" cy="0" r="0.15" opacity="1"></circle></g><g id="GPoint_27" transform="translate(27,12)" visibility="show"><circle id="Point_27" draggable="true" fill="blue" stroke-width="0.0375" stroke="white" cx="0" cy="0" r="0.15" opacity="1"></circle></g><g id="GPoint_28" transform="translate(28,12)" visibility="show"><circle id="Point_28" draggable="true" fill="blue" stroke-width="0.0375" stroke="white" cx="0" cy="0" r="0.15" opacity="1"></circle></g><g id="GPoint_29" transform="translate(29,12)" visibility="show"><circle id="Point_29" draggable="true" fill="blue" stroke-width="0.0375" stroke="white" cx="0" cy="0" r="0.15" opacity="1"></circle></g></svg>