<svg id="svg" viewBox="0 6 28 9"  xmlns="http://www.w3.org/2000/svg" transform="translate(-10 0)scale(1.5 1.5)">
      <defs>
        <radialGradient id="g1" cx="50%" cy="50%" r="50%" fx="35%" fy="35%">
          <stop stop-color="#a7e0a7" offset="0%"></stop>
          <stop stop-color="#6cc36c" offset="30%"></stop>
          <stop stop-color="#1c711c" offset="90%"></stop>
          <stop stop-color="#014c04" offset="100%"></stop>
        </radialGradient>
        <radialGradient id="g2" cx="50%" cy="50%" r="50%" fx="35%" fy="35%">
          <stop stop-color="#5bb7ff" offset="0%"></stop>
          <stop stop-color="#008eff" offset="30%"></stop>
          <stop stop-color="blue" offset="90%"></stop>
          <stop stop-color="#014c04" offset="100%"></stop>
        </radialGradient>
      </defs>
      <g id="Background">
      <g id="Grid_0"><line x1="0" x2="0" y1="0" y2="24" stroke-width="0.01" stroke="gray" stroke-dasharray="0.1 0.05"></line><line x1="1" x2="1" y1="0" y2="24" stroke-width="0.01" stroke="gray" stroke-dasharray="0.1 0.05"></line><line x1="2" x2="2" y1="0" y2="24" stroke-width="0.01" stroke="gray" stroke-dasharray="0.1 0.05"></line><line x1="3" x2="3" y1="0" y2="24" stroke-width="0.01" stroke="gray" stroke-dasharray="0.1 0.05"></line><line x1="4" x2="4" y1="0" y2="24" stroke-width="0.01" stroke="gray" stroke-dasharray="0.1 0.05"></line><line x1="5" x2="5" y1="0" y2="24" stroke-width="0.01" stroke="gray" stroke-dasharray="0.1 0.05"></line><line x1="6" x2="6" y1="0" y2="24" stroke-width="0.01" stroke="gray" stroke-dasharray="0.1 0.05"></line><line x1="7" x2="7" y1="0" y2="24" stroke-width="0.01" stroke="gray" stroke-dasharray="0.1 0.05"></line><line x1="8" x2="8" y1="0" y2="24" stroke-width="0.01" stroke="gray" stroke-dasharray="0.1 0.05"></line><line x1="9" x2="9" y1="0" y2="24" stroke-width="0.01" stroke="gray" stroke-dasharray="0.1 0.05"></line><line x1="10" x2="10" y1="0" y2="24" stroke-width="0.01" stroke="gray" stroke-dasharray="0.1 0.05"></line><line x1="11" x2="11" y1="0" y2="24" stroke-width="0.01" stroke="gray" stroke-dasharray="0.1 0.05"></line><line x1="12" x2="12" y1="0" y2="24" stroke-width="0.01" stroke="gray" stroke-dasharray="0.1 0.05"></line><line x1="13" x2="13" y1="0" y2="24" stroke-width="0.01" stroke="gray" stroke-dasharray="0.1 0.05"></line><line x1="14" x2="14" y1="0" y2="24" stroke-width="0.01" stroke="gray" stroke-dasharray="0.1 0.05"></line><line x1="15" x2="15" y1="0" y2="24" stroke-width="0.01" stroke="gray" stroke-dasharray="0.1 0.05"></line><line x1="16" x2="16" y1="0" y2="24" stroke-width="0.01" stroke="gray" stroke-dasharray="0.1 0.05"></line><line x1="17" x2="17" y1="0" y2="24" stroke-width="0.01" stroke="gray" stroke-dasharray="0.1 0.05"></line><line x1="18" x2="18" y1="0" y2="24" stroke-width="0.01" stroke="gray" stroke-dasharray="0.1 0.05"></line><line x1="19" x2="19" y1="0" y2="24" stroke-width="0.01" stroke="gray" stroke-dasharray="0.1 0.05"></line><line x1="20" x2="20" y1="0" y2="24" stroke-width="0.01" stroke="gray" stroke-dasharray="0.1 0.05"></line><line x1="21" x2="21" y1="0" y2="24" stroke-width="0.01" stroke="gray" stroke-dasharray="0.1 0.05"></line><line x1="22" x2="22" y1="0" y2="24" stroke-width="0.01" stroke="gray" stroke-dasharray="0.1 0.05"></line><line x1="23" x2="23" y1="0" y2="24" stroke-width="0.01" stroke="gray" stroke-dasharray="0.1 0.05"></line><line x1="24" x2="24" y1="0" y2="24" stroke-width="0.01" stroke="gray" stroke-dasharray="0.1 0.05"></line><line x1="25" x2="25" y1="0" y2="24" stroke-width="0.01" stroke="gray" stroke-dasharray="0.1 0.05"></line><line x1="26" x2="26" y1="0" y2="24" stroke-width="0.01" stroke="gray" stroke-dasharray="0.1 0.05"></line><line x1="27" x2="27" y1="0" y2="24" stroke-width="0.01" stroke="gray" stroke-dasharray="0.1 0.05"></line><line x1="28" x2="28" y1="0" y2="24" stroke-width="0.01" stroke="gray" stroke-dasharray="0.1 0.05"></line><line x1="29" x2="29" y1="0" y2="24" stroke-width="0.01" stroke="gray" stroke-dasharray="0.1 0.05"></line><line x1="0" x2="30" y1="0" y2="0" stroke-width="0.01" stroke="gray" stroke-dasharray="0.1 0.05"></line><line x1="0" x2="30" y1="1" y2="1" stroke-width="0.01" stroke="gray" stroke-dasharray="0.1 0.05"></line><line x1="0" x2="30" y1="2" y2="2" stroke-width="0.01" stroke="gray" stroke-dasharray="0.1 0.05"></line><line x1="0" x2="30" y1="3" y2="3" stroke-width="0.01" stroke="gray" stroke-dasharray="0.1 0.05"></line><line x1="0" x2="30" y1="4" y2="4" stroke-width="0.01" stroke="gray" stroke-dasharray="0.1 0.05"></line><line x1="0" x2="30" y1="5" y2="5" stroke-width="0.01" stroke="gray" stroke-dasharray="0.1 0.05"></line><line x1="0" x2="30" y1="6" y2="6" stroke-width="0.01" stroke="gray" stroke-dasharray="0.1 0.05"></line><line x1="0" x2="30" y1="7" y2="7" stroke-width="0.01" stroke="gray" stroke-dasharray="0.1 0.05"></line><line x1="0" x2="30" y1="8" y2="8" stroke-width="0.01" stroke="gray" stroke-dasharray="0.1 0.05"></line><line x1="0" x2="30" y1="9" y2="9" stroke-width="0.01" stroke="gray" stroke-dasharray="0.1 0.05"></line><line x1="0" x2="30" y1="10" y2="10" stroke-width="0.01" stroke="gray" stroke-dasharray="0.1 0.05"></line><line x1="0" x2="30" y1="11" y2="11" stroke-width="0.01" stroke="gray" stroke-dasharray="0.1 0.05"></line><line x1="0" x2="30" y1="12" y2="12" stroke-width="0.01" stroke="gray" stroke-dasharray="0.1 0.05"></line><line x1="0" x2="30" y1="13" y2="13" stroke-width="0.01" stroke="gray" stroke-dasharray="0.1 0.05"></line><line x1="0" x2="30" y1="14" y2="14" stroke-width="0.01" stroke="gray" stroke-dasharray="0.1 0.05"></line><line x1="0" x2="30" y1="15" y2="15" stroke-width="0.01" stroke="gray" stroke-dasharray="0.1 0.05"></line><line x1="0" x2="30" y1="16" y2="16" stroke-width="0.01" stroke="gray" stroke-dasharray="0.1 0.05"></line><line x1="0" x2="30" y1="17" y2="17" stroke-width="0.01" stroke="gray" stroke-dasharray="0.1 0.05"></line><line x1="0" x2="30" y1="18" y2="18" stroke-width="0.01" stroke="gray" stroke-dasharray="0.1 0.05"></line><line x1="0" x2="30" y1="19" y2="19" stroke-width="0.01" stroke="gray" stroke-dasharray="0.1 0.05"></line><line x1="0" x2="30" y1="20" y2="20" stroke-width="0.01" stroke="gray" stroke-dasharray="0.1 0.05"></line><line x1="0" x2="30" y1="21" y2="21" stroke-width="0.01" stroke="gray" stroke-dasharray="0.1 0.05"></line><line x1="0" x2="30" y1="22" y2="22" stroke-width="0.01" stroke="gray" stroke-dasharray="0.1 0.05"></line><line x1="0" x2="30" y1="23" y2="23" stroke-width="0.01" stroke="gray" stroke-dasharray="0.1 0.05"></line></g></g>
      <g id="Curve">
      </g>

      <path id="splinefit" style="fill: none;stroke: green;stroke-width: 0.05px;" p="" d="M 0 12 0.04 12 0.08 12 0.12 12 0.16 12 0.2 12 0.24 12 0.28 12 0.32 12 0.36 12 0.4 12 0.44 12 0.48 12 0.52 9.175652503967285 0.56 9.175652503967285 0.6 9.175652503967285 0.64 9.175652503967285 0.68 9.175652503967285 0.72 9.175652503967285 0.76 9.175652503967285 0.8 9.175652503967285 0.84 9.175652503967285 0.88 9.175652503967285 0.92 9.175652503967285 0.96 9.175652503967285 1 9.175652503967285 1.04 9.175652503967285 1.08 9.175652503967285 1.12 9.175652503967285 1.16 9.175652503967285 1.2 9.175652503967285 1.24 9.175652503967285 1.28 9.175652503967285 1.32 9.175652503967285 1.36 9.175652503967285 1.4000000000000001 9.175652503967285 1.44 9.175652503967285 1.48 9.175652503967285 1.52 8.822608947753906 1.56 8.822608947753906 1.6 8.822608947753906 1.6400000000000001 8.822608947753906 1.68 8.822608947753906 1.72 8.822608947753906 1.76 8.822608947753906 1.8 8.822608947753906 1.84 8.822608947753906 1.8800000000000001 8.822608947753906 1.92 8.822608947753906 1.96 8.822608947753906 2 8.822608947753906 2.04 8.822608947753906 2.08 8.822608947753906 2.12 8.822608947753906 2.16 8.822608947753906 2.2 8.822608947753906 2.24 8.822608947753906 2.2800000000000002 8.822608947753906 2.32 8.822608947753906 2.36 8.822608947753906 2.4 8.822608947753906 2.44 8.822608947753906 2.48 8.822608947753906 2.52 8.066086769104004 2.56 8.066086769104004 2.6 8.066086769104004 2.64 8.066086769104004 2.68 8.066086769104004 2.72 8.066086769104004 2.7600000000000002 8.066086769104004 2.8000000000000003 8.066086769104004 2.84 8.066086769104004 2.88 8.066086769104004 2.92 8.066086769104004 2.96 8.066086769104004 3 8.066086769104004 3.04 8.066086769104004 3.08 8.066086769104004 3.12 8.066086769104004 3.16 8.066086769104004 3.2 8.066086769104004 3.24 8.066086769104004 3.2800000000000002 8.066086769104004 3.3200000000000003 8.066086769104004 3.36 8.066086769104004 3.4 8.066086769104004 3.44 8.066086769104004 3.48 8.066086769104004 3.52 7.813912868499756 3.56 7.813912868499756 3.6 7.813912868499756 3.64 7.813912868499756 3.68 7.813912868499756 3.72 7.813912868499756 3.7600000000000002 7.813912868499756 3.8000000000000003 7.813912868499756 3.84 7.813912868499756 3.88 7.813912868499756 3.92 7.813912868499756 3.96 7.813912868499756 4 7.813912868499756 4.04 7.813912868499756 4.08 7.813912868499756 4.12 7.813912868499756 4.16 7.813912868499756 4.2 7.813912868499756 4.24 7.813912868499756 4.28 7.813912868499756 4.32 7.813912868499756 4.36 7.813912868499756 4.4 7.813912868499756 4.44 7.813912868499756 4.48 7.813912868499756 4.5200000000000005 8.31826114654541 4.5600000000000005 8.31826114654541 4.6000000000000005 8.31826114654541 4.64 8.31826114654541 4.68 8.31826114654541 4.72 8.31826114654541 4.76 8.31826114654541 4.8 8.31826114654541 4.84 8.31826114654541 4.88 8.31826114654541 4.92 8.31826114654541 4.96 8.31826114654541 5 8.31826114654541 5.04 8.31826114654541 5.08 8.31826114654541 5.12 8.31826114654541 5.16 8.31826114654541 5.2 8.31826114654541 5.24 8.31826114654541 5.28 8.31826114654541 5.32 8.31826114654541 5.36 8.31826114654541 5.4 8.31826114654541 5.44 8.31826114654541 5.48 8.31826114654541 5.5200000000000005 9.47826099395752 5.5600000000000005 9.47826099395752 5.6000000000000005 9.47826099395752 5.64 9.47826099395752 5.68 9.47826099395752 5.72 9.47826099395752 5.76 9.47826099395752 5.8 9.47826099395752 5.84 9.47826099395752 5.88 9.47826099395752 5.92 9.47826099395752 5.96 9.47826099395752 6 9.47826099395752 6.04 9.47826099395752 6.08 9.47826099395752 6.12 9.47826099395752 6.16 9.47826099395752 6.2 9.47826099395752 6.24 9.47826099395752 6.28 9.47826099395752 6.32 9.47826099395752 6.36 9.47826099395752 6.4 9.47826099395752 6.44 9.47826099395752 6.48 9.47826099395752 6.5200000000000005 9.982608795166016 6.5600000000000005 9.982608795166016 6.6000000000000005 9.982608795166016 6.640000000000001 9.982608795166016 6.68 9.982608795166016 6.72 9.982608795166016 6.76 9.982608795166016 6.8 9.982608795166016 6.84 9.982608795166016 6.88 9.982608795166016 6.92 9.982608795166016 6.96 9.982608795166016 7 9.982608795166016 7.04 9.982608795166016 7.08 9.982608795166016 7.12 9.982608795166016 7.16 9.982608795166016 7.2 9.982608795166016 7.24 9.982608795166016 7.28 9.982608795166016 7.32 9.982608795166016 7.36 9.982608795166016 7.4 9.982608795166016 7.44 9.982608795166016 7.48 9.982608795166016 7.5200000000000005 9.37417984008789 7.5600000000000005 9.37417984008789 7.6000000000000005 9.37417984008789 7.640000000000001 9.37417984008789 7.68 9.37417984008789 7.72 9.37417984008789 7.76 9.37417984008789 7.8 9.37417984008789 7.84 9.37417984008789 7.88 9.37417984008789 7.92 9.37417984008789 7.96 9.37417984008789 8 9.37417984008789 8.040000000000001 9.37417984008789 8.08 9.37417984008789 8.120000000000001 9.37417984008789 8.16 9.37417984008789 8.2 9.37417984008789 8.24 9.37417984008789 8.28 9.37417984008789 8.32 9.37417984008789 8.36 9.37417984008789 8.4 9.37417984008789 8.44 9.37417984008789 8.48 9.37417984008789 8.52 8.192560195922852 8.56 8.192560195922852 8.6 8.192560195922852 8.64 8.192560195922852 8.68 8.192560195922852 8.72 8.192560195922852 8.76 8.192560195922852 8.8 8.192560195922852 8.84 8.192560195922852 8.88 8.192560195922852 8.92 8.192560195922852 8.96 8.192560195922852 9 8.192560195922852 9.040000000000001 8.192560195922852 9.08 8.192560195922852 9.120000000000001 8.192560195922852 9.16 8.192560195922852 9.200000000000001 8.192560195922852 9.24 8.192560195922852 9.28 8.192560195922852 9.32 8.192560195922852 9.36 8.192560195922852 9.4 8.192560195922852 9.44 8.192560195922852 9.48 8.192560195922852 9.52 9.006564140319824 9.56 9.006564140319824 9.6 9.006564140319824 9.64 9.006564140319824 9.68 9.006564140319824 9.72 9.006564140319824 9.76 9.006564140319824 9.8 9.006564140319824 9.84 9.006564140319824 9.88 9.006564140319824 9.92 9.006564140319824 9.96 9.006564140319824 10 9.006564140319824 10.040000000000001 9.006564140319824 10.08 9.006564140319824 10.120000000000001 9.006564140319824 10.16 9.006564140319824 10.200000000000001 9.006564140319824 10.24 9.006564140319824 10.28 9.006564140319824 10.32 9.006564140319824 10.36 9.006564140319824 10.4 9.006564140319824 10.44 9.006564140319824 10.48 9.006564140319824 10.52 7.851203441619873 10.56 7.851203441619873 10.6 7.851203441619873 10.64 7.851203441619873 10.68 7.851203441619873 10.72 7.851203441619873 10.76 7.851203441619873 10.8 7.851203441619873 10.84 7.851203441619873 10.88 7.851203441619873 10.92 7.851203441619873 10.96 7.851203441619873 11 7.851203441619873 11.040000000000001 7.851203441619873 11.08 7.851203441619873 11.120000000000001 7.851203441619873 11.16 7.851203441619873 11.200000000000001 7.851203441619873 11.24 7.851203441619873 11.28 7.851203441619873 11.32 7.851203441619873 11.36 7.851203441619873 11.4 7.851203441619873 11.44 7.851203441619873 11.48 7.851203441619873 11.52 8.665207862854004 11.56 8.665207862854004 11.6 8.665207862854004 11.64 8.665207862854004 11.68 8.665207862854004 11.72 8.665207862854004 11.76 8.665207862854004 11.8 8.665207862854004 11.84 8.665207862854004 11.88 8.665207862854004 11.92 8.665207862854004 11.96 8.665207862854004 12 8.665207862854004 12.040000000000001 8.665207862854004 12.08 8.665207862854004 12.120000000000001 8.665207862854004 12.16 8.665207862854004 12.200000000000001 8.665207862854004 12.24 8.665207862854004 12.280000000000001 8.665207862854004 12.32 8.665207862854004 12.36 8.665207862854004 12.4 8.665207862854004 12.44 8.665207862854004 12.48 8.665207862854004 12.52 10.004376411437988 12.56 10.004376411437988 12.6 10.004376411437988 12.64 10.004376411437988 12.68 10.004376411437988 12.72 10.004376411437988 12.76 10.004376411437988 12.8 10.004376411437988 12.84 10.004376411437988 12.88 10.004376411437988 12.92 10.004376411437988 12.96 10.004376411437988 13 10.004376411437988 13.040000000000001 10.004376411437988 13.08 10.004376411437988 13.120000000000001 10.004376411437988 13.16 10.004376411437988 13.200000000000001 10.004376411437988 13.24 10.004376411437988 13.280000000000001 10.004376411437988 13.32 10.004376411437988 13.36 10.004376411437988 13.4 10.004376411437988 13.44 10.004376411437988 13.48 10.004376411437988 13.52 8.691466331481934 13.56 8.691466331481934 13.6 8.691466331481934 13.64 8.691466331481934 13.68 8.691466331481934 13.72 8.691466331481934 13.76 8.691466331481934 13.8 8.691466331481934 13.84 8.691466331481934 13.88 8.691466331481934 13.92 8.691466331481934 13.96 8.691466331481934 14 8.691466331481934 14.040000000000001 8.691466331481934 14.08 8.691466331481934 14.120000000000001 8.691466331481934 14.16 8.691466331481934 14.200000000000001 8.691466331481934 14.24 8.691466331481934 14.280000000000001 8.691466331481934 14.32 8.691466331481934 14.36 8.691466331481934 14.4 8.691466331481934 14.44 8.691466331481934 14.48 8.691466331481934 14.52 7.877461910247803 14.56 7.877461910247803 14.6 7.877461910247803 14.64 7.877461910247803 14.68 7.877461910247803 14.72 7.877461910247803 14.76 7.877461910247803 14.8 7.877461910247803 14.84 7.877461910247803 14.88 7.877461910247803 14.92 7.877461910247803 14.96 7.877461910247803 15 7.877461910247803 15.040000000000001 7.877461910247803 15.08 7.877461910247803 15.120000000000001 7.877461910247803 15.16 7.877461910247803 15.200000000000001 7.877461910247803 15.24 7.877461910247803 15.280000000000001 7.877461910247803 15.32 7.877461910247803 15.36 7.877461910247803 15.4 7.877461910247803 15.44 7.877461910247803 15.48 7.877461910247803 15.52 9.347921371459961 15.56 9.347921371459961 15.6 9.347921371459961 15.64 9.347921371459961 15.68 9.347921371459961 15.72 9.347921371459961 15.76 9.347921371459961 15.8 9.347921371459961 15.84 9.347921371459961 15.88 9.347921371459961 15.92 9.347921371459961 15.96 9.347921371459961 16 9.347921371459961 16.04 9.347921371459961 16.080000000000002 9.347921371459961 16.12 9.347921371459961 16.16 9.347921371459961 16.2 9.347921371459961 16.240000000000002 9.347921371459961 16.28 9.347921371459961 16.32 9.347921371459961 16.36 9.347921371459961 16.4 9.347921371459961 16.44 9.347921371459961 16.48 9.347921371459961 16.52 8.533916473388672 16.56 8.533916473388672 16.6 8.533916473388672 16.64 8.533916473388672 16.68 8.533916473388672 16.72 8.533916473388672 16.76 8.533916473388672 16.8 8.533916473388672 16.84 8.533916473388672 16.88 8.533916473388672 16.92 8.533916473388672 16.96 8.533916473388672 17 8.533916473388672 17.04 8.533916473388672 17.080000000000002 8.533916473388672 17.12 8.533916473388672 17.16 8.533916473388672 17.2 8.533916473388672 17.240000000000002 8.533916473388672 17.28 8.533916473388672 17.32 8.533916473388672 17.36 8.533916473388672 17.400000000000002 8.533916473388672 17.44 8.533916473388672 17.48 8.533916473388672 17.52 7.929977893829346 17.56 7.929977893829346 17.6 7.929977893829346 17.64 7.929977893829346 17.68 7.929977893829346 17.72 7.929977893829346 17.76 7.929977893829346 17.8 7.929977893829346 17.84 7.929977893829346 17.88 7.929977893829346 17.92 7.929977893829346 17.96 7.929977893829346 18 7.929977893829346 18.04 7.929977893829346 18.080000000000002 7.929977893829346 18.12 7.929977893829346 18.16 7.929977893829346 18.2 7.929977893829346 18.240000000000002 7.929977893829346 18.28 7.929977893829346 18.32 7.929977893829346 18.36 7.929977893829346 18.400000000000002 7.929977893829346 18.44 7.929977893829346 18.48 7.929977893829346 18.52 6.984682559967041 18.56 6.984682559967041 18.6 6.984682559967041 18.64 6.984682559967041 18.68 6.984682559967041 18.72 6.984682559967041 18.76 6.984682559967041 18.8 6.984682559967041 18.84 6.984682559967041 18.88 6.984682559967041 18.92 6.984682559967041 18.96 6.984682559967041 19 6.984682559967041 19.04 6.984682559967041 19.080000000000002 6.984682559967041 19.12 6.984682559967041 19.16 6.984682559967041 19.2 6.984682559967041 19.240000000000002 6.984682559967041 19.28 6.984682559967041 19.32 6.984682559967041 19.36 6.984682559967041 19.400000000000002 6.984682559967041 19.44 6.984682559967041 19.48 6.984682559967041 19.52 7.460869789123535 19.56 7.460869789123535 19.6 7.460869789123535 19.64 7.460869789123535 19.68 7.460869789123535 19.72 7.460869789123535 19.76 7.460869789123535 19.8 7.460869789123535 19.84 7.460869789123535 19.88 7.460869789123535 19.92 7.460869789123535 19.96 7.460869789123535 20 7.460869789123535 20.04 7.460869789123535 20.080000000000002 7.460869789123535 20.12 7.460869789123535 20.16 7.460869789123535 20.2 7.460869789123535 20.240000000000002 7.460869789123535 20.28 7.460869789123535 20.32 7.460869789123535 20.36 7.460869789123535 20.400000000000002 7.460869789123535 20.44 7.460869789123535 20.48 7.460869789123535 20.52 8.116521835327148 20.56 8.116521835327148 20.6 8.116521835327148 20.64 8.116521835327148 20.68 8.116521835327148 20.72 8.116521835327148 20.76 8.116521835327148 20.8 8.116521835327148 20.84 8.116521835327148 20.88 8.116521835327148 20.92 8.116521835327148 20.96 8.116521835327148 21 8.116521835327148 21.04 8.116521835327148 21.080000000000002 8.116521835327148 21.12 8.116521835327148 21.16 8.116521835327148 21.2 8.116521835327148 21.240000000000002 8.116521835327148 21.28 8.116521835327148 21.32 8.116521835327148 21.36 8.116521835327148 21.400000000000002 8.116521835327148 21.44 8.116521835327148 21.48 8.116521835327148 21.52 9.12521743774414 21.56 9.12521743774414 21.6 9.12521743774414 21.64 9.12521743774414 21.68 9.12521743774414 21.72 9.12521743774414 21.76 9.12521743774414 21.8 9.12521743774414 21.84 9.12521743774414 21.88 9.12521743774414 21.92 9.12521743774414 21.96 9.12521743774414 22 9.12521743774414 22.04 9.12521743774414 22.080000000000002 9.12521743774414 22.12 9.12521743774414 22.16 9.12521743774414 22.2 9.12521743774414 22.240000000000002 9.12521743774414 22.28 9.12521743774414 22.32 9.12521743774414 22.36 9.12521743774414 22.400000000000002 9.12521743774414 22.44 9.12521743774414 22.48 9.12521743774414 22.52 8.671304702758789 22.56 8.671304702758789 22.6 8.671304702758789 22.64 8.671304702758789 22.68 8.671304702758789 22.72 8.671304702758789 22.76 8.671304702758789 22.8 8.671304702758789 22.84 8.671304702758789 22.88 8.671304702758789 22.92 8.671304702758789 22.96 8.671304702758789 23 8.671304702758789 23.04 8.671304702758789 23.080000000000002 8.671304702758789 23.12 8.671304702758789 23.16 8.671304702758789 23.2 8.671304702758789 23.240000000000002 8.671304702758789 23.28 8.671304702758789 23.32 8.671304702758789 23.36 8.671304702758789 23.400000000000002 8.671304702758789 23.44 8.671304702758789 23.48 8.671304702758789 23.52 8.066086769104004 23.56 8.066086769104004 23.6 8.066086769104004 23.64 8.066086769104004 23.68 8.066086769104004 23.72 8.066086769104004 23.76 8.066086769104004 23.8 8.066086769104004 23.84 8.066086769104004 23.88 8.066086769104004 23.92 8.066086769104004 23.96 8.066086769104004 24 8.066086769104004 24.04 8.066086769104004 24.080000000000002 8.066086769104004 24.12 8.066086769104004 24.16 8.066086769104004 24.2 8.066086769104004 24.240000000000002 8.066086769104004 24.28 8.066086769104004 24.32 8.066086769104004 24.36 8.066086769104004 24.400000000000002 8.066086769104004 24.44 8.066086769104004 24.48 8.066086769104004 24.52 7.5113043785095215 24.560000000000002 7.5113043785095215 24.6 7.5113043785095215 24.64 7.5113043785095215 24.68 7.5113043785095215 24.72 7.5113043785095215 24.76 7.5113043785095215 24.8 7.5113043785095215 24.84 7.5113043785095215 24.88 7.5113043785095215 24.92 7.5113043785095215 24.96 7.5113043785095215 25 7.5113043785095215 25.04 7.5113043785095215 25.080000000000002 7.5113043785095215 25.12 7.5113043785095215 25.16 7.5113043785095215 25.2 7.5113043785095215 25.240000000000002 7.5113043785095215 25.28 7.5113043785095215 25.32 7.5113043785095215 25.36 7.5113043785095215 25.400000000000002 7.5113043785095215 25.44 7.5113043785095215 25.48 7.5113043785095215 25.52 7.30956506729126 25.560000000000002 7.30956506729126 25.6 7.30956506729126 25.64 7.30956506729126 25.68 7.30956506729126 25.72 7.30956506729126 25.76 7.30956506729126 25.8 7.30956506729126 25.84 7.30956506729126 25.88 7.30956506729126 25.92 7.30956506729126 25.96 7.30956506729126 26 7.30956506729126 26.04 7.30956506729126 26.080000000000002 7.30956506729126 26.12 7.30956506729126 26.16 7.30956506729126 26.2 7.30956506729126 26.240000000000002 7.30956506729126 26.28 7.30956506729126 26.32 7.30956506729126 26.36 7.30956506729126 26.400000000000002 7.30956506729126 26.44 7.30956506729126 26.48 7.30956506729126 26.52 8.217391014099121 26.560000000000002 8.217391014099121 26.6 8.217391014099121 26.64 8.217391014099121 26.68 8.217391014099121 26.72 8.217391014099121 26.76 8.217391014099121 26.8 8.217391014099121 26.84 8.217391014099121 26.88 8.217391014099121 26.92 8.217391014099121 26.96 8.217391014099121 27 8.217391014099121 27.04 8.217391014099121 27.080000000000002 8.217391014099121 27.12 8.217391014099121 27.16 8.217391014099121 27.2 8.217391014099121 27.240000000000002 8.217391014099121 27.28 8.217391014099121 27.32 8.217391014099121 27.36 8.217391014099121 27.400000000000002 8.217391014099121 27.44 8.217391014099121 27.48 8.217391014099121 27.52 9.680000305175781 27.560000000000002 9.680000305175781 27.6 9.680000305175781 27.64 9.680000305175781 27.68 9.680000305175781 27.72 9.680000305175781 27.76 9.680000305175781 27.8 9.680000305175781 27.84 9.680000305175781 27.88 9.680000305175781 27.92 9.680000305175781 27.96 9.680000305175781 28 9.680000305175781 28.04 9.680000305175781 28.080000000000002 9.680000305175781 28.12 9.680000305175781 28.16 9.680000305175781 28.2 9.680000305175781 28.240000000000002 9.680000305175781 28.28 9.680000305175781 28.32 9.680000305175781 28.36 9.680000305175781 28.400000000000002 9.680000305175781 28.44 9.680000305175781 28.48 9.680000305175781 28.52 12 28.560000000000002 12 28.6 12 28.64 12 28.68 12 28.72 12 28.76 12 28.8 12 28.84 12 28.88 12 28.92 12 28.96 12 29 12"></path>
    <g id="GPoint_0" transform="translate(0,12)" visibility="show"><circle id="Point_0" draggable="true" fill="blue" stroke-width="0.0375" stroke="white" cx="0" cy="0" r="0.15" opacity="1"></circle></g><g id="GPoint_1" transform="translate(1,9.175652503967285)" visibility="show"><circle id="Point_1" draggable="true" fill="blue" stroke-width="0.0375" stroke="white" cx="0" cy="0" r="0.15" opacity="1"></circle></g><g id="GPoint_2" transform="translate(2,8.822608947753906)" visibility="show"><circle id="Point_2" draggable="true" fill="blue" stroke-width="0.0375" stroke="white" cx="0" cy="0" r="0.15" opacity="1"></circle></g><g id="GPoint_3" transform="translate(3,8.066086769104004)" visibility="show"><circle id="Point_3" draggable="true" fill="blue" stroke-width="0.0375" stroke="white" cx="0" cy="0" r="0.15" opacity="1"></circle></g><g id="GPoint_4" transform="translate(4,7.813912868499756)" visibility="show"><circle id="Point_4" draggable="true" fill="blue" stroke-width="0.0375" stroke="white" cx="0" cy="0" r="0.15" opacity="1"></circle></g><g id="GPoint_5" transform="translate(5,8.31826114654541)" visibility="show"><circle id="Point_5" draggable="true" fill="blue" stroke-width="0.0375" stroke="white" cx="0" cy="0" r="0.15" opacity="1"></circle></g><g id="GPoint_6" transform="translate(6,9.47826099395752)" visibility="show"><circle id="Point_6" draggable="true" fill="blue" stroke-width="0.0375" stroke="white" cx="0" cy="0" r="0.15" opacity="1"></circle></g><g id="GPoint_7" transform="translate(7,9.982608795166016)" visibility="show"><circle id="Point_7" draggable="true" fill="blue" stroke-width="0.0375" stroke="white" cx="0" cy="0" r="0.15" opacity="1"></circle></g><g id="GPoint_8" transform="translate(8,9.37417984008789)" visibility="show"><circle id="Point_8" draggable="true" fill="blue" stroke-width="0.0375" stroke="white" cx="0" cy="0" r="0.15" opacity="1"></circle></g><g id="GPoint_9" transform="translate(9,8.192560195922852)" visibility="show"><circle id="Point_9" draggable="true" fill="blue" stroke-width="0.0375" stroke="white" cx="0" cy="0" r="0.15" opacity="1"></circle></g><g id="GPoint_10" transform="translate(10,9.006564140319824)" visibility="show"><circle id="Point_10" draggable="true" fill="blue" stroke-width="0.0375" stroke="white" cx="0" cy="0" r="0.15" opacity="1"></circle></g><g id="GPoint_11" transform="translate(11,7.851203441619873)" visibility="show"><circle id="Point_11" draggable="true" fill="blue" stroke-width="0.0375" stroke="white" cx="0" cy="0" r="0.15" opacity="1"></circle></g><g id="GPoint_12" transform="translate(12,8.665207862854004)" visibility="show"><circle id="Point_12" draggable="true" fill="blue" stroke-width="0.0375" stroke="white" cx="0" cy="0" r="0.15" opacity="1"></circle></g><g id="GPoint_13" transform="translate(13,10.004376411437988)" visibility="show"><circle id="Point_13" draggable="true" fill="blue" stroke-width="0.0375" stroke="white" cx="0" cy="0" r="0.15" opacity="1"></circle></g><g id="GPoint_14" transform="translate(14,8.691466331481934)" visibility="show"><circle id="Point_14" draggable="true" fill="blue" stroke-width="0.0375" stroke="white" cx="0" cy="0" r="0.15" opacity="1"></circle></g><g id="GPoint_15" transform="translate(15,7.877461910247803)" visibility="show"><circle id="Point_15" draggable="true" fill="blue" stroke-width="0.0375" stroke="white" cx="0" cy="0" r="0.15" opacity="1"></circle></g><g id="GPoint_16" transform="translate(16,9.347921371459961)" visibility="show"><circle id="Point_16" draggable="true" fill="blue" stroke-width="0.0375" stroke="white" cx="0" cy="0" r="0.15" opacity="1"></circle></g><g id="GPoint_17" transform="translate(17,8.533916473388672)" visibility="show"><circle id="Point_17" draggable="true" fill="blue" stroke-width="0.0375" stroke="white" cx="0" cy="0" r="0.15" opacity="1"></circle></g><g id="GPoint_18" transform="translate(18,7.929977893829346)" visibility="show"><circle id="Point_18" draggable="true" fill="blue" stroke-width="0.0375" stroke="white" cx="0" cy="0" r="0.15" opacity="1"></circle></g><g id="GPoint_19" transform="translate(19,6.984682559967041)" visibility="show"><circle id="Point_19" draggable="true" fill="blue" stroke-width="0.0375" stroke="white" cx="0" cy="0" r="0.15" opacity="1"></circle></g><g id="GPoint_20" transform="translate(20,7.460869789123535)" visibility="show"><circle id="Point_20" draggable="true" fill="blue" stroke-width="0.0375" stroke="white" cx="0" cy="0" r="0.15" opacity="1"></circle></g><g id="GPoint_21" transform="translate(21,8.116521835327148)" visibility="show"><circle id="Point_21" draggable="true" fill="blue" stroke-width="0.0375" stroke="white" cx="0" cy="0" r="0.15" opacity="1"></circle></g><g id="GPoint_22" transform="translate(22,9.12521743774414)" visibility="show"><circle id="Point_22" draggable="true" fill="blue" stroke-width="0.0375" stroke="white" cx="0" cy="0" r="0.15" opacity="1"></circle></g><g id="GPoint_23" transform="translate(23,8.671304702758789)" visibility="show"><circle id="Point_23" draggable="true" fill="blue" stroke-width="0.0375" stroke="white" cx="0" cy="0" r="0.15" opacity="1"></circle></g><g id="GPoint_24" transform="translate(24,8.066086769104004)" visibility="show"><circle id="Point_24" draggable="true" fill="blue" stroke-width="0.0375" stroke="white" cx="0" cy="0" r="0.15" opacity="1"></circle></g><g id="GPoint_25" transform="translate(25,7.5113043785095215)" visibility="show"><circle id="Point_25" draggable="true" fill="blue" stroke-width="0.0375" stroke="white" cx="0" cy="0" r="0.15" opacity="1"></circle></g><g id="GPoint_26" transform="translate(26,7.30956506729126)" visibility="show"><circle id="Point_26" draggable="true" fill="blue" stroke-width="0.0375" stroke="white" cx="0" cy="0" r="0.15" opacity="1"></circle></g><g id="GPoint_27" transform="translate(27,8.217391014099121)" visibility="show"><circle id="Point_27" draggable="true" fill="blue" stroke-width="0.0375" stroke="white" cx="0" cy="0" r="0.15" opacity="1"></circle></g><g id="GPoint_28" transform="translate(28,9.680000305175781)" visibility="show"><circle id="Point_28" draggable="true" fill="blue" stroke-width="0.0375" stroke="white" cx="0" cy="0" r="0.15" opacity="1"></circle></g><g id="GPoint_29" transform="translate(29,12)" visibility="show"><circle id="Point_29" draggable="true" fill="blue" stroke-width="0.0375" stroke="white" cx="0" cy="0" r="0.15" opacity="1"></circle></g><text x="18" y="8" font-size="0.4" style="font-family: Liberation-Sans-Bold">S0</text></svg>
