<svg id="svg" viewBox="0 6 28 9" style="width: calc(100% - 494px);" xmlns="http://www.w3.org/2000/svg" transform="translate(-10 0)scale(1.5 1.5)">
      <defs>
        <radialGradient id="g1" cx="50%" cy="50%" r="50%" fx="35%" fy="35%">
          <stop stop-color="#a7e0a7" offset="0%"></stop>
          <stop stop-color="#6cc36c" offset="30%"></stop>
          <stop stop-color="#1c711c" offset="90%"></stop>
          <stop stop-color="#014c04" offset="100%"></stop>
        </radialGradient>
        <radialGradient id="g2" cx="50%" cy="50%" r="50%" fx="35%" fy="35%">
          <stop stop-color="#5bb7ff" offset="0%"></stop>
          <stop stop-color="#008eff" offset="30%"></stop>
          <stop stop-color="blue" offset="90%"></stop>
          <stop stop-color="#014c04" offset="100%"></stop>
        </radialGradient>
      </defs>
      <g id="Background">
      <g id="Grid_0"><line x1="0" x2="0" y1="0" y2="24" stroke-width="0.01" stroke="gray" stroke-dasharray="0.1 0.05"></line><line x1="1" x2="1" y1="0" y2="24" stroke-width="0.01" stroke="gray" stroke-dasharray="0.1 0.05"></line><line x1="2" x2="2" y1="0" y2="24" stroke-width="0.01" stroke="gray" stroke-dasharray="0.1 0.05"></line><line x1="3" x2="3" y1="0" y2="24" stroke-width="0.01" stroke="gray" stroke-dasharray="0.1 0.05"></line><line x1="4" x2="4" y1="0" y2="24" stroke-width="0.01" stroke="gray" stroke-dasharray="0.1 0.05"></line><line x1="5" x2="5" y1="0" y2="24" stroke-width="0.01" stroke="gray" stroke-dasharray="0.1 0.05"></line><line x1="6" x2="6" y1="0" y2="24" stroke-width="0.01" stroke="gray" stroke-dasharray="0.1 0.05"></line><line x1="7" x2="7" y1="0" y2="24" stroke-width="0.01" stroke="gray" stroke-dasharray="0.1 0.05"></line><line x1="8" x2="8" y1="0" y2="24" stroke-width="0.01" stroke="gray" stroke-dasharray="0.1 0.05"></line><line x1="9" x2="9" y1="0" y2="24" stroke-width="0.01" stroke="gray" stroke-dasharray="0.1 0.05"></line><line x1="10" x2="10" y1="0" y2="24" stroke-width="0.01" stroke="gray" stroke-dasharray="0.1 0.05"></line><line x1="11" x2="11" y1="0" y2="24" stroke-width="0.01" stroke="gray" stroke-dasharray="0.1 0.05"></line><line x1="12" x2="12" y1="0" y2="24" stroke-width="0.01" stroke="gray" stroke-dasharray="0.1 0.05"></line><line x1="13" x2="13" y1="0" y2="24" stroke-width="0.01" stroke="gray" stroke-dasharray="0.1 0.05"></line><line x1="14" x2="14" y1="0" y2="24" stroke-width="0.01" stroke="gray" stroke-dasharray="0.1 0.05"></line><line x1="15" x2="15" y1="0" y2="24" stroke-width="0.01" stroke="gray" stroke-dasharray="0.1 0.05"></line><line x1="16" x2="16" y1="0" y2="24" stroke-width="0.01" stroke="gray" stroke-dasharray="0.1 0.05"></line><line x1="17" x2="17" y1="0" y2="24" stroke-width="0.01" stroke="gray" stroke-dasharray="0.1 0.05"></line><line x1="18" x2="18" y1="0" y2="24" stroke-width="0.01" stroke="gray" stroke-dasharray="0.1 0.05"></line><line x1="19" x2="19" y1="0" y2="24" stroke-width="0.01" stroke="gray" stroke-dasharray="0.1 0.05"></line><line x1="20" x2="20" y1="0" y2="24" stroke-width="0.01" stroke="gray" stroke-dasharray="0.1 0.05"></line><line x1="21" x2="21" y1="0" y2="24" stroke-width="0.01" stroke="gray" stroke-dasharray="0.1 0.05"></line><line x1="22" x2="22" y1="0" y2="24" stroke-width="0.01" stroke="gray" stroke-dasharray="0.1 0.05"></line><line x1="23" x2="23" y1="0" y2="24" stroke-width="0.01" stroke="gray" stroke-dasharray="0.1 0.05"></line><line x1="24" x2="24" y1="0" y2="24" stroke-width="0.01" stroke="gray" stroke-dasharray="0.1 0.05"></line><line x1="25" x2="25" y1="0" y2="24" stroke-width="0.01" stroke="gray" stroke-dasharray="0.1 0.05"></line><line x1="26" x2="26" y1="0" y2="24" stroke-width="0.01" stroke="gray" stroke-dasharray="0.1 0.05"></line><line x1="27" x2="27" y1="0" y2="24" stroke-width="0.01" stroke="gray" stroke-dasharray="0.1 0.05"></line><line x1="28" x2="28" y1="0" y2="24" stroke-width="0.01" stroke="gray" stroke-dasharray="0.1 0.05"></line><line x1="29" x2="29" y1="0" y2="24" stroke-width="0.01" stroke="gray" stroke-dasharray="0.1 0.05"></line><line x1="0" x2="30" y1="0" y2="0" stroke-width="0.01" stroke="gray" stroke-dasharray="0.1 0.05"></line><line x1="0" x2="30" y1="1" y2="1" stroke-width="0.01" stroke="gray" stroke-dasharray="0.1 0.05"></line><line x1="0" x2="30" y1="2" y2="2" stroke-width="0.01" stroke="gray" stroke-dasharray="0.1 0.05"></line><line x1="0" x2="30" y1="3" y2="3" stroke-width="0.01" stroke="gray" stroke-dasharray="0.1 0.05"></line><line x1="0" x2="30" y1="4" y2="4" stroke-width="0.01" stroke="gray" stroke-dasharray="0.1 0.05"></line><line x1="0" x2="30" y1="5" y2="5" stroke-width="0.01" stroke="gray" stroke-dasharray="0.1 0.05"></line><line x1="0" x2="30" y1="6" y2="6" stroke-width="0.01" stroke="gray" stroke-dasharray="0.1 0.05"></line><line x1="0" x2="30" y1="7" y2="7" stroke-width="0.01" stroke="gray" stroke-dasharray="0.1 0.05"></line><line x1="0" x2="30" y1="8" y2="8" stroke-width="0.01" stroke="gray" stroke-dasharray="0.1 0.05"></line><line x1="0" x2="30" y1="9" y2="9" stroke-width="0.01" stroke="gray" stroke-dasharray="0.1 0.05"></line><line x1="0" x2="30" y1="10" y2="10" stroke-width="0.01" stroke="gray" stroke-dasharray="0.1 0.05"></line><line x1="0" x2="30" y1="11" y2="11" stroke-width="0.01" stroke="gray" stroke-dasharray="0.1 0.05"></line><line x1="0" x2="30" y1="12" y2="12" stroke-width="0.01" stroke="gray" stroke-dasharray="0.1 0.05"></line><line x1="0" x2="30" y1="13" y2="13" stroke-width="0.01" stroke="gray" stroke-dasharray="0.1 0.05"></line><line x1="0" x2="30" y1="14" y2="14" stroke-width="0.01" stroke="gray" stroke-dasharray="0.1 0.05"></line><line x1="0" x2="30" y1="15" y2="15" stroke-width="0.01" stroke="gray" stroke-dasharray="0.1 0.05"></line><line x1="0" x2="30" y1="16" y2="16" stroke-width="0.01" stroke="gray" stroke-dasharray="0.1 0.05"></line><line x1="0" x2="30" y1="17" y2="17" stroke-width="0.01" stroke="gray" stroke-dasharray="0.1 0.05"></line><line x1="0" x2="30" y1="18" y2="18" stroke-width="0.01" stroke="gray" stroke-dasharray="0.1 0.05"></line><line x1="0" x2="30" y1="19" y2="19" stroke-width="0.01" stroke="gray" stroke-dasharray="0.1 0.05"></line><line x1="0" x2="30" y1="20" y2="20" stroke-width="0.01" stroke="gray" stroke-dasharray="0.1 0.05"></line><line x1="0" x2="30" y1="21" y2="21" stroke-width="0.01" stroke="gray" stroke-dasharray="0.1 0.05"></line><line x1="0" x2="30" y1="22" y2="22" stroke-width="0.01" stroke="gray" stroke-dasharray="0.1 0.05"></line><line x1="0" x2="30" y1="23" y2="23" stroke-width="0.01" stroke="gray" stroke-dasharray="0.1 0.05"></line></g></g>
      <g id="Curve">
      </g>
      
      <path id="splinefit" style="fill: none;stroke: green;stroke-width: 0.05px;" p="" d="M 0 12.000002958403266 0.04 11.992100448200937 0.08 11.968491819191073 0.12 11.92946558052037 0.16 11.8754851960659 0.2 11.807174183263008 0.24 11.7253012119332 0.28 11.630765203112086 0.32 11.524580427877252 0.36 11.407861606176207 0.4 11.281809005654246 0.44 11.147693540482393 0.48 11.006841870185301 0.52 10.860621498469147 0.56 10.710425872049543 0.6 10.557659479479469 0.64 10.403722949977134 0.68 10.249998152253934 0.72 10.097833293342326 0.76 9.948528017423737 0.8 9.8033185046565 0.84 9.663362570003725 0.88 9.529724762061235 0.92 9.403361461885453 0.96 9.285105981821333 1 9.175653664330241 1.04 9.075547194104821 1.08 8.985167455644243 1.12 8.9047384677674 1.16 8.834337863586539 1.2 8.773907583767786 1.24 8.723264569791711 1.28 8.682111457213889 1.32 8.650047268925421 1.36 8.626578108413518 1.4000000000000001 8.611127853022024 1.44 8.60304884721198 1.48 8.601632595822178 1.52 8.606120457329697 1.56 8.615714337110463 1.6 8.629587380699807 1.6400000000000001 8.64689466705299 1.68 8.66678390180579 1.72 8.688406110535018 1.76 8.710926332019085 1.8 8.733534311498559 1.84 8.755455193936688 1.8800000000000001 8.775960217279996 1.92 8.79437740571878 1.96 8.8101022629477 2 8.822608465426317 2.04 8.831458416981551 2.08 8.836310198299914 2.12 8.836915364986009 2.16 8.833113140510827 2.2 8.824824470501916 2.24 8.812046077033596 2.2800000000000002 8.79484451291711 2.32 8.773350215990845 2.36 8.747751563410514 2.4 8.718288925939325 2.44 8.685248722238189 2.48 8.648957473155914 2.52 8.609775856019366 2.56 8.568092758923687 2.6 8.524319335022469 2.64 8.478883056817933 2.68 8.432221770451143 2.72 8.38477774999218 2.7600000000000002 8.33699175173032 2.8000000000000003 8.289297068464244 2.84 8.242113583792207 2.88 8.195841826402244 2.92 8.15085702436235 2.96 8.10750315941066 3 8.066087021245654 3.04 8.026872335923002 3.08 7.9900758210258385 3.12 7.9558681318751585 3.16 7.924376734513689 3.2 7.895688852796352 3.24 7.8698544154807815 3.2800000000000002 7.846889003317813 3.3200000000000003 7.8267767961419885 3.36 7.809473519962049 3.4 7.794909394051433 3.44 7.782992078038775 3.48 7.77360961899841 3.52 7.766633398540861 3.56 7.761921079903338 3.6 7.759319555040257 3.64 7.758667891713698 3.68 7.759800280583945 3.72 7.762548982299956 3.7600000000000002 7.766747274589874 3.8000000000000003 7.772232399351518 3.84 7.77884850974289 3.88 7.786449617272661 3.92 7.794902538890682 3.96 7.8040898440784705 4 7.813912801939719 4.04 7.824294288162146 4.08 7.8351806486348545 4.12 7.846540914575723 4.16 7.858364974314315 4.2 7.870661704946111 4.24 7.883457103986791 4.28 7.896792421026459 4.32 7.9107222893839175 4.36 7.925312857760922 4.4 7.940639921896421 4.44 7.956787056220826 4.48 7.973843745510251 4.5200000000000005 7.991903516540785 4.5600000000000005 8.011062069742733 4.6000000000000005 8.031415410854873 4.64 8.053057982578714 4.68 8.076080796232748 4.72 8.100569563406706 4.76 8.126602827615804 4.8 8.154250095955012 4.84 8.183569970753304 4.88 8.214608281227902 4.92 8.247396215138544 4.96 8.281948450441725 5 8.31826128694497 5.04 8.356310807552047 5.08 8.396051808873464 5.12 8.437418684841147 5.16 8.48032707968836 5.2 8.524675570520621 5.24 8.57034734988662 5.28 8.617211908349104 5.32 8.665126717055795 5.36 8.713938910310324 5.4 8.763486968143093 5.44 8.813602398882214 5.48 8.864111421724415 5.5200000000000005 8.914836649305942 5.5600000000000005 8.965598770273466 5.6000000000000005 9.016218231854998 5.64 9.066516922430791 5.68 9.116319854104258 5.72 9.16545684527286 5.76 9.21376420319904 5.8 9.261086406581107 5.84 9.30727778812417 5.88 9.35220421711102 5.92 9.395744781973065 5.96 9.437793472861207 6 9.47826086421678 6.04 9.517075769569333 6.08 9.554186174233585 6.12 9.589558334981186 6.16 9.623175157611598 6.2 9.655034546749896 6.24 9.685147755644556 6.28 9.713537735965255 6.32 9.740237487600657 6.36 9.765288408456207 6.4 9.788738644251925 6.44 9.81064143832018 6.48 9.831053481403512 6.5200000000000005 9.850033261452406 6.5600000000000005 9.867639413423083 6.6000000000000005 9.883929069075302 6.640000000000001 9.898956206770144 6.68 9.912770001267798 6.72 9.925413173525376 6.76 9.936920340494675 6.8 9.94731636491999 6.84 9.956614705135909 6.88 9.964815764865078 6.92 9.971905243016028 6.96 9.977852483480936 7 9.98260882493344 7.04 9.986105988172953 7.08 9.988255439678927 7.12 9.988950233236428 7.16 9.988067827771697 7.2 9.985472942734164 7.24 9.981020413478543 7.28 9.97455804664687 7.32 9.965929475550567 7.36 9.95497701555251 7.4 9.941544519449064 7.44 9.925480232852165 7.48 9.906639649571364 7.5200000000000005 9.884888366995893 7.5600000000000005 9.860104941476724 7.6000000000000005 9.832183743708619 7.640000000000001 9.8010378141122 7.68 9.766601718215991 7.72 9.728834402038498 7.76 9.687722047470244 7.8 9.643280927655853 7.84 9.595560262376084 7.88 9.544645073429901 7.92 9.490659040016542 7.96 9.433767354117547 8 9.374179575878856 8.040000000000001 9.312152419751289 8.08 9.24799074035116 8.120000000000001 9.182043948379368 8.16 9.114700626260648 8.2 9.046383074541176 8.24 8.977541858286257 8.28 8.908650353477967 8.32 8.840199293412798 8.36 8.772691315099351 8.4 8.706635505655937 8.44 8.64254194870828 8.48 8.580916270787151 8.52 8.522254187726015 8.56 8.467036051058706 8.6 8.415721394417078 8.64 8.36874347992864 8.68 8.326503844614237 8.72 8.289366846785699 8.76 8.257654212443484 8.8 8.231639581674342 8.84 8.21154305504898 8.88 8.19752574001969 8.92 8.189684297318042 8.96 8.188045487352502 9 8.192560716606113 9.040000000000001 8.203100689886003 9.08 8.219452814721315 9.120000000000001 8.241325591984044 9.16 8.26835575865828 9.200000000000001 8.300115536461332 9.24 8.336119880464807 9.28 8.375833727715747 9.32 8.41867924585774 9.36 8.464043081752004 9.4 8.511283610098516 9.44 8.559738182057114 9.48 8.60873037386862 9.52 8.657577235475925 9.56 8.705596539145123 9.6 8.752114028086604 9.64 8.796470665076168 9.68 8.838029881076137 9.72 8.876184823856473 9.76 8.910365606615857 9.8 8.940046556602837 9.84 8.96475346373691 9.88 8.984070829229644 9.92 8.997649114205785 9.96 9.005211988324362 10 9.006563578399803 10.040000000000001 9.001595603796964 10.08 8.990291567948347 10.120000000000001 8.972723476950554 10.16 8.949045614282992 10.200000000000001 8.919488202300428 10.24 8.884351063725585 10.28 8.84399728314172 10.32 8.798846868485208 10.36 8.749370412538147 10.4 8.696082754420905 10.44 8.639536641084739 10.48 8.580316388804357 10.52 8.519031544670524 10.56 8.45631054808261 10.6 8.39279439224123 10.64 8.329130285640765 10.68 8.265965313562 10.72 8.203940099564678 10.76 8.14368246698009 10.8 8.085801100403666 10.84 8.03087920718756 10.88 7.979468178933219 10.92 7.932081252983995 10.96 7.889187173917693 11 7.851203855039193 11.040000000000001 7.818492115515197 11.08 7.791351384206005 11.120000000000001 7.7700203958818825 11.16 7.754679854136448 11.200000000000001 7.745455169942215 11.24 7.742419200206165 11.28 7.7455949863252975 11.32 7.75495849274219 11.36 7.770441345500561 11.4 7.791933570800825 11.44 7.81928633355564 11.48 7.852314675945504 11.52 7.89080025597426 11.56 7.934494086024699 11.6 7.983119271414099 11.64 8.036373748949785 11.68 8.09393302548469 11.72 8.155452916472923 11.76 8.2205722845253 11.8 8.288915777964936 11.84 8.360096569382783 11.88 8.4337190941932 11.92 8.509381789189499 11.96 8.586679831099516 12 8.665207875141158 12.040000000000001 8.744562777942598 12.08 8.824345913942407 12.120000000000001 8.904164459854321 12.16 8.983632272611956 12.200000000000001 9.062370751678161 12.24 9.140009701354371 12.280000000000001 9.216188193089938 12.32 9.290555427791475 12.36 9.362771598132227 12.4 9.43250875086139 12.44 9.499451649113453 12.48 9.56329863471759 12.52 9.623762490506932 12.56 9.680571302627984 12.6 9.733469322849919 12.64 9.782217830873956 12.68 9.826595996642679 12.72 9.86640174264942 12.76 9.901452606247556 12.8 9.931586601959896 12.84 9.956663083788008 12.88 9.97656360752156 12.92 9.991192793047686 12.96 10.000479186660304 13 10.00437612336948 13.040000000000001 10.002862575671744 13.08 9.995943650305492 13.120000000000001 9.983650191430156 13.16 9.96603803179049 13.200000000000001 9.94318723034177 13.24 9.91520130987507 13.280000000000001 9.88220649464246 13.32 9.84435094798228 13.36 9.801804009944345 13.4 9.754755434915193 13.44 9.703414629243321 13.48 9.648009888864431 13.52 9.58878763692664 13.56 9.526011661415735 13.6 9.459962352780424 13.64 9.390935941557524 13.68 9.319243735997249 13.72 9.245211359688414 13.76 9.16917798918368 13.8 9.091495591624788 13.84 9.012528162367817 13.88 8.932650962608363 13.92 8.852249757006854 13.96 8.771720051313709 14 8.69146632999463 14.040000000000001 8.611901276061113 14.08 8.533444528238965 14.120000000000001 8.45652026368695 14.16 8.381554318053482 14.200000000000001 8.308971287738494 14.24 8.239191632155448 14.280000000000001 8.172628775993227 14.32 8.1096862114781 14.36 8.050754600635663 14.4 7.99620887755276 14.44 7.946405350639446 14.48 7.9016788048909214 14.52 7.862339604149469 14.56 7.828670793366393 14.6 7.800925200863977 14.64 7.779322540597396 14.68 7.764046514416689 14.72 7.755241914328676 14.76 7.75301172475891 14.8 7.757414224813612 14.84 7.768460090541626 14.88 7.786109497196336 14.92 7.810269221497636 14.96 7.8407897438938425 15 7.877462350823653 15.040000000000001 7.9200163107901815 15.08 7.968117969549465 15.120000000000001 8.021374716897263 15.16 8.079340872570338 15.200000000000001 8.141523645959824 15.24 8.207389095824583 15.280000000000001 8.276368090004604 15.32 8.347862265134344 15.36 8.421249986356123 15.4 8.495892307033477 15.44 8.571138928464519 15.48 8.646334159595359 15.52 8.720822876733408 15.56 8.793956483260795 15.6 8.865098869347719 15.64 8.933632371665826 15.68 8.998963733101565 15.72 9.060530062469592 15.76 9.117804794226092 15.8 9.170303648182198 15.84 9.217590589217325 15.88 9.259283786992555 15.92 9.295061575664013 15.96 9.324668413596227 16 9.347920843075501 16.04 9.364713349959825 16.080000000000002 9.375021621678663 16.12 9.378899201043998 16.16 9.376471538411291 16.2 9.367929943776929 16.240000000000002 9.353525538875722 16.28 9.333563209278358 16.32 9.308395556488888 16.36 9.278416850042198 16.4 9.244056979601472 16.44 9.205775407055683 16.48 9.164055118617053 16.52 9.119396576918533 16.56 9.072311673111276 16.6 9.023317678962103 16.64 8.972931198950993 16.68 8.921662122368536 16.72 8.870007575413426 16.76 8.818445873289917 16.8 8.767430472305312 16.84 8.71738392196743 16.88 8.668691817082069 16.92 8.621696749850495 16.96 8.576692261966926 17 8.533916796715962 17.04 8.493547742198642 17.080000000000002 8.455697843900305 17.12 8.420417631741786 17.16 8.387700216472433 17.2 8.35748617719171 17.240000000000002 8.329668448870775 17.28 8.304097209874083 17.32 8.280584769480935 17.36 8.258910455407108 17.400000000000002 8.238825501326394 17.44 8.220057934392235 17.48 8.202317462759261 17.52 8.185300363104904 17.56 8.168694368150977 17.6 8.152183554185248 17.64 8.135453228583053 17.68 8.118194817328842 17.72 8.100110752537802 17.76 8.080919359977411 17.8 8.060359746589048 17.84 8.038196688009569 17.88 8.014225516092873 17.92 7.988277006431525 17.96 7.9602222658783175 18 7.92997762006785 18.04 7.897509425266162 18.080000000000002 7.862836912749192 18.12 7.826030038831394 18.16 7.787205367423198 18.2 7.746521876916501 18.240000000000002 7.704176767070165 18.28 7.6604012658955245 18.32 7.615456436541855 18.36 7.5696289841818905 18.400000000000002 7.5232270628973 18.44 7.4765760825642085 18.48 7.430014515738663 18.52 7.383889704542138 18.56 7.338553667547041 18.6 7.294358906662184 18.64 7.251654214018317 18.68 7.2107804788535725 18.72 7.172066494398997 18.76 7.135824764764032 18.8 7.102347311822015 18.84 7.071901482095673 18.88 7.044725753642602 18.92 7.021025542940784 18.96 7.000969011774076 19 6.984682874117693 19.04 6.972248267937236 19.080000000000002 6.963698314739262 19.12 6.9590199634142875 19.16 6.958157521831337 19.2 6.961016253346023 19.240000000000002 6.967465973308629 19.28 6.977344645572178 19.32 6.990461979000521 19.36 7.006603023976406 19.400000000000002 7.025531768909559 19.44 7.046994736744764 19.48 7.070724581469935 19.52 7.096443684624202 19.56 7.123867751805984 19.6 7.152709409181065 19.64 7.182681799990676 19.68 7.213502181059568 19.72 7.244895519304101 19.76 7.276598088240305 19.8 7.308361064491963 19.84 7.339954124298708 19.88 7.371169040024068 19.92 7.401823276663577 19.96 7.431763588352819 20 7.460869614875536 20.04 7.48905742192963 20.080000000000002 7.516281579099547 20.12 7.542533525852523 20.16 7.567838475241222 20.2 7.59225226136427 20.240000000000002 7.615858186826833 20.28 7.6387638702011555 20.32 7.661098093487128 20.36 7.683007649572851 20.400000000000002 7.704654189695176 20.44 7.726211070900276 20.48 7.747860203504189 20.52 7.769788898553395 20.56 7.792186715285359 20.6 7.815242308589088 20.64 7.839140276465697 20.68 7.8640580074889535 20.72 7.890162528265852 20.76 7.917607350897154 20.8 7.946529320437953 20.84 7.977045462358238 20.88 8.009249830003435 20.92 8.043210352054986 20.96 8.078965679990883 21 8.116522035546236 21.04 8.155850109848206 21.080000000000002 8.196883306084514 21.12 8.239519392680279 21.16 8.283623500008497 21.2 8.32903116877482 21.240000000000002 8.375551398402399 21.28 8.422969695416654 21.32 8.471051121830126 21.36 8.519543343527282 21.400000000000002 8.568179678649308 21.44 8.61668214597894 21.48 8.66476451332526 21.52 8.712135345908537 21.56 8.758501054745008 21.6 8.8035689450317 21.64 8.847050264531257 21.68 8.88866325195673 21.72 8.92813618535641 21.76 8.965210430498624 21.8 8.999643489256547 21.84 9.03121204799304 21.88 9.05971502594543 21.92 9.084976623610336 21.96 9.106849371128485 22 9.12521717666952 22.04 9.139998329872542 22.080000000000002 9.151147336735727 22.12 9.158653788184296 22.16 9.162540060087577 22.2 9.162858968331763 22.240000000000002 9.159691423892722 22.28 9.153144087908741 22.32 9.14334702675333 22.36 9.130451367107991 22.400000000000002 9.114626951034998 22.44 9.09605999105018 22.48 9.074950725195684 22.52 9.051511072112783 22.56 9.025962286114623 22.6 8.99853261225902 22.64 8.969454941421251 22.68 8.938964465366794 22.72 8.90729633182415 22.76 8.874683299557582 22.8 8.841353393439936 22.84 8.807527559525388 22.88 8.773417320122228 22.92 8.739222428865645 22.96 8.70512852579052 23 8.67130479240417 23.04 8.637901634732218 23.080000000000002 8.605049093663991 23.12 8.572857101519972 23.16 8.54141646591877 23.2 8.510799881617217 23.240000000000002 8.481062942350407 23.28 8.452245152671786 23.32 8.424370939793194 23.36 8.397450665424948 23.400000000000002 8.371481637615894 23.44 8.346449122593489 23.48 8.322327356603845 23.52 8.299080557751811 23.56 8.276663937841032 23.6 8.255024714214006 23.64 8.234103121592177 23.68 8.213833423915961 23.72 8.194144926184844 23.76 8.174962986297427 23.8 8.156210026891506 23.84 8.137806547184123 23.88 8.119672134811642 23.92 8.101726477669807 23.96 8.083890375753821 24 8.066086752998393 24.04 8.048241663132648 24.080000000000002 8.03028513992096 24.12 8.012151652383354 24.16 7.99378040440186 24.2 7.975115628341662 24.240000000000002 7.956106878672294 24.28 7.9367093255888035 24.32 7.916884048632926 24.36 7.896598330314264 24.400000000000002 7.875825949731449 24.44 7.854547476193342 24.48 7.832750562840173 24.52 7.810430240264744 24.560000000000002 7.787589210133584 24.6 7.764238138808141 24.64 7.740395950965937 24.68 7.716090123221754 24.72 7.691356977748811 24.76 7.66624197589992 24.8 7.64080001182869 24.84 7.615095706110676 24.88 7.589203699364552 24.92 7.563208945873311 24.96 7.537207007205417 25 7.511304345835981 25.04 7.485618602803222 25.080000000000002 7.460278460282243 25.12 7.435422450487382 25.16 7.411197349491889 25.2 7.387756555082872 25.240000000000002 7.365258464616262 25.28 7.343864852871768 25.32 7.323739249907819 25.36 7.3050453189165365 25.400000000000002 7.287945234078674 25.44 7.2725980584185885 25.48 7.259158121659177 25.52 7.247773398076844 25.560000000000002 7.2385838843564505 25.6 7.231719977446278 25.64 7.227300852412973 25.68 7.225432840296496 25.72 7.226207805965106 25.76 7.229701525970278 25.8 7.235972066401688 25.84 7.245058160742146 25.88 7.256977587722566 25.92 7.271725549176916 25.96 7.2892730478971695 26 7.309565265488263 26.04 7.332519980175124 26.080000000000002 7.3580270233634835 26.12 7.385950373037241 26.16 7.416131285909638 26.2 7.448391469526478 26.240000000000002 7.482536254369367 26.28 7.518357765958928 26.32 7.555638096958054 26.36 7.594152479275125 26.400000000000002 7.633672456167241 26.44 7.67396905434345 26.48 7.71481595606799 26.52 7.755992671263509 26.560000000000002 7.797287709614303 26.6 7.83850175266954 26.64 7.879450825946495 26.68 7.919969471033783 26.72 7.959913917694586 26.76 7.999165255969893 26.8 8.037632608281706 26.84 8.075256301536308 26.88 8.11201103922746 26.92 8.147909073539658 26.96 8.183003377451344 27 8.217390816838146 27.04 8.25121524822471 27.080000000000002 8.284668683400064 27.12 8.317987546840394 27.16 8.351446999995428 27.2 8.385355191223331 27.240000000000002 8.420047505725647 27.28 8.455880815482239 27.32 8.493227729186222 27.36 8.532470842178899 27.400000000000002 8.573996986384687 27.44 8.618191480246047 27.48 8.665432378658444 27.52 8.716084722905245 27.560000000000002 8.77049479059269 27.6 8.828984345584782 27.64 8.89184488793827 27.68 8.959331903837539 27.72 9.031659115529576 27.76 9.108992731258898 27.8 9.191445695202445 27.84 9.279071937404582 27.88 9.371860623711985 27.92 9.469730405708601 27.96 9.572523670650543 28 9.68000079140107 28.04 9.791834496564697 28.080000000000002 9.907607365800342 28.12 10.026817258281218 28.16 10.148885866333815 28.2 10.273167389275992 28.240000000000002 10.39895720725513 28.28 10.525500555086206 28.32 10.652001196089993 28.36 10.777630095931151 28.400000000000002 10.901534096456368 28.44 11.022844589532443 28.48 11.140686190884486 28.52 11.254185413934005 28.560000000000002 11.362479343637046 28.6 11.46472431032229 28.64 11.560104563529238 28.68 11.647840945846285 28.72 11.727199566748894 28.76 11.797500476437689 28.8 11.858126339676584 28.84 11.908531109630946 28.88 11.948248701705685 28.92 11.976901667383416 28.96 11.994209868062542 29 11.99999914889543"></path>
    <g id="GPoint_0" transform="translate(0,12)" visibility="show"><circle id="Point_0" draggable="true" fill="blue" stroke-width="0.0375" stroke="white" cx="0" cy="0" r="0.15" opacity="1"></circle></g><g id="GPoint_1" transform="translate(1,9.175652503967285)" visibility="show"><circle id="Point_1" draggable="true" fill="blue" stroke-width="0.0375" stroke="white" cx="0" cy="0" r="0.15" opacity="1"></circle></g><g id="GPoint_2" transform="translate(2,8.822608947753906)" visibility="show"><circle id="Point_2" draggable="true" fill="blue" stroke-width="0.0375" stroke="white" cx="0" cy="0" r="0.15" opacity="1"></circle></g><g id="GPoint_3" transform="translate(3,8.066086769104004)" visibility="show"><circle id="Point_3" draggable="true" fill="blue" stroke-width="0.0375" stroke="white" cx="0" cy="0" r="0.15" opacity="1"></circle></g><g id="GPoint_4" transform="translate(4,7.813912868499756)" visibility="show"><circle id="Point_4" draggable="true" fill="blue" stroke-width="0.0375" stroke="white" cx="0" cy="0" r="0.15" opacity="1"></circle></g><g id="GPoint_5" transform="translate(5,8.31826114654541)" visibility="show"><circle id="Point_5" draggable="true" fill="blue" stroke-width="0.0375" stroke="white" cx="0" cy="0" r="0.15" opacity="1"></circle></g><g id="GPoint_6" transform="translate(6,9.47826099395752)" visibility="show"><circle id="Point_6" draggable="true" fill="blue" stroke-width="0.0375" stroke="white" cx="0" cy="0" r="0.15" opacity="1"></circle></g><g id="GPoint_7" transform="translate(7,9.982608795166016)" visibility="show"><circle id="Point_7" draggable="true" fill="blue" stroke-width="0.0375" stroke="white" cx="0" cy="0" r="0.15" opacity="1"></circle></g><g id="GPoint_8" transform="translate(8,9.37417984008789)" visibility="show"><circle id="Point_8" draggable="true" fill="blue" stroke-width="0.0375" stroke="white" cx="0" cy="0" r="0.15" opacity="1"></circle></g><g id="GPoint_9" transform="translate(9,8.192560195922852)" visibility="show"><circle id="Point_9" draggable="true" fill="blue" stroke-width="0.0375" stroke="white" cx="0" cy="0" r="0.15" opacity="1"></circle></g><g id="GPoint_10" transform="translate(10,9.006564140319824)" visibility="show"><circle id="Point_10" draggable="true" fill="blue" stroke-width="0.0375" stroke="white" cx="0" cy="0" r="0.15" opacity="1"></circle></g><g id="GPoint_11" transform="translate(11,7.851203441619873)" visibility="show"><circle id="Point_11" draggable="true" fill="blue" stroke-width="0.0375" stroke="white" cx="0" cy="0" r="0.15" opacity="1"></circle></g><g id="GPoint_12" transform="translate(12,8.665207862854004)" visibility="show"><circle id="Point_12" draggable="true" fill="blue" stroke-width="0.0375" stroke="white" cx="0" cy="0" r="0.15" opacity="1"></circle></g><g id="GPoint_13" transform="translate(13,10.004376411437988)" visibility="show"><circle id="Point_13" draggable="true" fill="blue" stroke-width="0.0375" stroke="white" cx="0" cy="0" r="0.15" opacity="1"></circle></g><g id="GPoint_14" transform="translate(14,8.691466331481934)" visibility="show"><circle id="Point_14" draggable="true" fill="blue" stroke-width="0.0375" stroke="white" cx="0" cy="0" r="0.15" opacity="1"></circle></g><g id="GPoint_15" transform="translate(15,7.877461910247803)" visibility="show"><circle id="Point_15" draggable="true" fill="blue" stroke-width="0.0375" stroke="white" cx="0" cy="0" r="0.15" opacity="1"></circle></g><g id="GPoint_16" transform="translate(16,9.347921371459961)" visibility="show"><circle id="Point_16" draggable="true" fill="blue" stroke-width="0.0375" stroke="white" cx="0" cy="0" r="0.15" opacity="1"></circle></g><g id="GPoint_17" transform="translate(17,8.533916473388672)" visibility="show"><circle id="Point_17" draggable="true" fill="blue" stroke-width="0.0375" stroke="white" cx="0" cy="0" r="0.15" opacity="1"></circle></g><g id="GPoint_18" transform="translate(18,7.929977893829346)" visibility="show"><circle id="Point_18" draggable="true" fill="blue" stroke-width="0.0375" stroke="white" cx="0" cy="0" r="0.15" opacity="1"></circle></g><g id="GPoint_19" transform="translate(19,6.984682559967041)" visibility="show"><circle id="Point_19" draggable="true" fill="blue" stroke-width="0.0375" stroke="white" cx="0" cy="0" r="0.15" opacity="1"></circle></g><g id="GPoint_20" transform="translate(20,7.460869789123535)" visibility="show"><circle id="Point_20" draggable="true" fill="blue" stroke-width="0.0375" stroke="white" cx="0" cy="0" r="0.15" opacity="1"></circle></g><g id="GPoint_21" transform="translate(21,8.116521835327148)" visibility="show"><circle id="Point_21" draggable="true" fill="blue" stroke-width="0.0375" stroke="white" cx="0" cy="0" r="0.15" opacity="1"></circle></g><g id="GPoint_22" transform="translate(22,9.12521743774414)" visibility="show"><circle id="Point_22" draggable="true" fill="blue" stroke-width="0.0375" stroke="white" cx="0" cy="0" r="0.15" opacity="1"></circle></g><g id="GPoint_23" transform="translate(23,8.671304702758789)" visibility="show"><circle id="Point_23" draggable="true" fill="blue" stroke-width="0.0375" stroke="white" cx="0" cy="0" r="0.15" opacity="1"></circle></g><g id="GPoint_24" transform="translate(24,8.066086769104004)" visibility="show"><circle id="Point_24" draggable="true" fill="blue" stroke-width="0.0375" stroke="white" cx="0" cy="0" r="0.15" opacity="1"></circle></g><g id="GPoint_25" transform="translate(25,7.5113043785095215)" visibility="show"><circle id="Point_25" draggable="true" fill="blue" stroke-width="0.0375" stroke="white" cx="0" cy="0" r="0.15" opacity="1"></circle></g><g id="GPoint_26" transform="translate(26,7.30956506729126)" visibility="show"><circle id="Point_26" draggable="true" fill="blue" stroke-width="0.0375" stroke="white" cx="0" cy="0" r="0.15" opacity="1"></circle></g><g id="GPoint_27" transform="translate(27,8.217391014099121)" visibility="show"><circle id="Point_27" draggable="true" fill="blue" stroke-width="0.0375" stroke="white" cx="0" cy="0" r="0.15" opacity="1"></circle></g><g id="GPoint_28" transform="translate(28,9.680000305175781)" visibility="show"><circle id="Point_28" draggable="true" fill="blue" stroke-width="0.0375" stroke="white" cx="0" cy="0" r="0.15" opacity="1"></circle></g><g id="GPoint_29" transform="translate(29,12)" visibility="show"><circle id="Point_29" draggable="true" fill="blue" stroke-width="0.0375" stroke="white" cx="0" cy="0" r="0.15" opacity="1"></circle></g></svg>