<svg id="svg" viewBox="0 6 28 9" style="width: calc(100% - 494px);" xmlns="http://www.w3.org/2000/svg" transform="translate(-10 0)scale(1.5 1.5)">
      <defs>
        <radialGradient id="g1" cx="50%" cy="50%" r="50%" fx="35%" fy="35%">
          <stop stop-color="#a7e0a7" offset="0%"></stop>
          <stop stop-color="#6cc36c" offset="30%"></stop>
          <stop stop-color="#1c711c" offset="90%"></stop>
          <stop stop-color="#014c04" offset="100%"></stop>
        </radialGradient>
        <radialGradient id="g2" cx="50%" cy="50%" r="50%" fx="35%" fy="35%">
          <stop stop-color="#5bb7ff" offset="0%"></stop>
          <stop stop-color="#008eff" offset="30%"></stop>
          <stop stop-color="blue" offset="90%"></stop>
          <stop stop-color="#014c04" offset="100%"></stop>
        </radialGradient>
      </defs>
      <g id="Background">
      <g id="Grid_0"><line x1="0" x2="0" y1="0" y2="24" stroke-width="0.01" stroke="gray" stroke-dasharray="0.1 0.05"></line><line x1="1" x2="1" y1="0" y2="24" stroke-width="0.01" stroke="gray" stroke-dasharray="0.1 0.05"></line><line x1="2" x2="2" y1="0" y2="24" stroke-width="0.01" stroke="gray" stroke-dasharray="0.1 0.05"></line><line x1="3" x2="3" y1="0" y2="24" stroke-width="0.01" stroke="gray" stroke-dasharray="0.1 0.05"></line><line x1="4" x2="4" y1="0" y2="24" stroke-width="0.01" stroke="gray" stroke-dasharray="0.1 0.05"></line><line x1="5" x2="5" y1="0" y2="24" stroke-width="0.01" stroke="gray" stroke-dasharray="0.1 0.05"></line><line x1="6" x2="6" y1="0" y2="24" stroke-width="0.01" stroke="gray" stroke-dasharray="0.1 0.05"></line><line x1="7" x2="7" y1="0" y2="24" stroke-width="0.01" stroke="gray" stroke-dasharray="0.1 0.05"></line><line x1="8" x2="8" y1="0" y2="24" stroke-width="0.01" stroke="gray" stroke-dasharray="0.1 0.05"></line><line x1="9" x2="9" y1="0" y2="24" stroke-width="0.01" stroke="gray" stroke-dasharray="0.1 0.05"></line><line x1="10" x2="10" y1="0" y2="24" stroke-width="0.01" stroke="gray" stroke-dasharray="0.1 0.05"></line><line x1="11" x2="11" y1="0" y2="24" stroke-width="0.01" stroke="gray" stroke-dasharray="0.1 0.05"></line><line x1="12" x2="12" y1="0" y2="24" stroke-width="0.01" stroke="gray" stroke-dasharray="0.1 0.05"></line><line x1="13" x2="13" y1="0" y2="24" stroke-width="0.01" stroke="gray" stroke-dasharray="0.1 0.05"></line><line x1="14" x2="14" y1="0" y2="24" stroke-width="0.01" stroke="gray" stroke-dasharray="0.1 0.05"></line><line x1="15" x2="15" y1="0" y2="24" stroke-width="0.01" stroke="gray" stroke-dasharray="0.1 0.05"></line><line x1="16" x2="16" y1="0" y2="24" stroke-width="0.01" stroke="gray" stroke-dasharray="0.1 0.05"></line><line x1="17" x2="17" y1="0" y2="24" stroke-width="0.01" stroke="gray" stroke-dasharray="0.1 0.05"></line><line x1="18" x2="18" y1="0" y2="24" stroke-width="0.01" stroke="gray" stroke-dasharray="0.1 0.05"></line><line x1="19" x2="19" y1="0" y2="24" stroke-width="0.01" stroke="gray" stroke-dasharray="0.1 0.05"></line><line x1="20" x2="20" y1="0" y2="24" stroke-width="0.01" stroke="gray" stroke-dasharray="0.1 0.05"></line><line x1="21" x2="21" y1="0" y2="24" stroke-width="0.01" stroke="gray" stroke-dasharray="0.1 0.05"></line><line x1="22" x2="22" y1="0" y2="24" stroke-width="0.01" stroke="gray" stroke-dasharray="0.1 0.05"></line><line x1="23" x2="23" y1="0" y2="24" stroke-width="0.01" stroke="gray" stroke-dasharray="0.1 0.05"></line><line x1="24" x2="24" y1="0" y2="24" stroke-width="0.01" stroke="gray" stroke-dasharray="0.1 0.05"></line><line x1="25" x2="25" y1="0" y2="24" stroke-width="0.01" stroke="gray" stroke-dasharray="0.1 0.05"></line><line x1="26" x2="26" y1="0" y2="24" stroke-width="0.01" stroke="gray" stroke-dasharray="0.1 0.05"></line><line x1="27" x2="27" y1="0" y2="24" stroke-width="0.01" stroke="gray" stroke-dasharray="0.1 0.05"></line><line x1="28" x2="28" y1="0" y2="24" stroke-width="0.01" stroke="gray" stroke-dasharray="0.1 0.05"></line><line x1="29" x2="29" y1="0" y2="24" stroke-width="0.01" stroke="gray" stroke-dasharray="0.1 0.05"></line><line x1="0" x2="30" y1="0" y2="0" stroke-width="0.01" stroke="gray" stroke-dasharray="0.1 0.05"></line><line x1="0" x2="30" y1="1" y2="1" stroke-width="0.01" stroke="gray" stroke-dasharray="0.1 0.05"></line><line x1="0" x2="30" y1="2" y2="2" stroke-width="0.01" stroke="gray" stroke-dasharray="0.1 0.05"></line><line x1="0" x2="30" y1="3" y2="3" stroke-width="0.01" stroke="gray" stroke-dasharray="0.1 0.05"></line><line x1="0" x2="30" y1="4" y2="4" stroke-width="0.01" stroke="gray" stroke-dasharray="0.1 0.05"></line><line x1="0" x2="30" y1="5" y2="5" stroke-width="0.01" stroke="gray" stroke-dasharray="0.1 0.05"></line><line x1="0" x2="30" y1="6" y2="6" stroke-width="0.01" stroke="gray" stroke-dasharray="0.1 0.05"></line><line x1="0" x2="30" y1="7" y2="7" stroke-width="0.01" stroke="gray" stroke-dasharray="0.1 0.05"></line><line x1="0" x2="30" y1="8" y2="8" stroke-width="0.01" stroke="gray" stroke-dasharray="0.1 0.05"></line><line x1="0" x2="30" y1="9" y2="9" stroke-width="0.01" stroke="gray" stroke-dasharray="0.1 0.05"></line><line x1="0" x2="30" y1="10" y2="10" stroke-width="0.01" stroke="gray" stroke-dasharray="0.1 0.05"></line><line x1="0" x2="30" y1="11" y2="11" stroke-width="0.01" stroke="gray" stroke-dasharray="0.1 0.05"></line><line x1="0" x2="30" y1="12" y2="12" stroke-width="0.01" stroke="gray" stroke-dasharray="0.1 0.05"></line><line x1="0" x2="30" y1="13" y2="13" stroke-width="0.01" stroke="gray" stroke-dasharray="0.1 0.05"></line><line x1="0" x2="30" y1="14" y2="14" stroke-width="0.01" stroke="gray" stroke-dasharray="0.1 0.05"></line><line x1="0" x2="30" y1="15" y2="15" stroke-width="0.01" stroke="gray" stroke-dasharray="0.1 0.05"></line><line x1="0" x2="30" y1="16" y2="16" stroke-width="0.01" stroke="gray" stroke-dasharray="0.1 0.05"></line><line x1="0" x2="30" y1="17" y2="17" stroke-width="0.01" stroke="gray" stroke-dasharray="0.1 0.05"></line><line x1="0" x2="30" y1="18" y2="18" stroke-width="0.01" stroke="gray" stroke-dasharray="0.1 0.05"></line><line x1="0" x2="30" y1="19" y2="19" stroke-width="0.01" stroke="gray" stroke-dasharray="0.1 0.05"></line><line x1="0" x2="30" y1="20" y2="20" stroke-width="0.01" stroke="gray" stroke-dasharray="0.1 0.05"></line><line x1="0" x2="30" y1="21" y2="21" stroke-width="0.01" stroke="gray" stroke-dasharray="0.1 0.05"></line><line x1="0" x2="30" y1="22" y2="22" stroke-width="0.01" stroke="gray" stroke-dasharray="0.1 0.05"></line><line x1="0" x2="30" y1="23" y2="23" stroke-width="0.01" stroke="gray" stroke-dasharray="0.1 0.05"></line></g></g>
      <g id="Curve">
      </g>
      
      <path id="splinefit" style="fill: none;stroke: green;stroke-width: 0.05px;" p="" d="M 0 12.000003123667451 0.04 11.990451323270008 0.08 11.962634728645336 0.12 11.917811549644908 0.16 11.857239996120208 0.2 11.78217827792272 0.24 11.693884604903923 0.28 11.593617186915298 0.32 11.482634233808321 0.36 11.362193955434476 0.4 11.233554561645247 0.44 11.097974262292114 0.48 10.956711267226554 0.52 10.81102378630005 0.56 10.662170029364079 0.6 10.511408206270128 0.64 10.35999652686967 0.68 10.209193201014193 0.72 10.060256438555179 0.76 9.9144444493441 0.8 9.773015443232442 0.84 9.637227630071687 0.88 9.508339219713312 0.92 9.3876084220088 0.96 9.27629344680963 1 9.175652503967285 1.04 9.086624677296975 1.08 9.008872546468837 1.12 8.941739565116736 1.16 8.88456918687454 1.2 8.836704865376115 1.24 8.797490054255325 1.28 8.766268207146041 1.32 8.742382777682126 1.36 8.72517721949745 1.4000000000000001 8.713994986225876 1.44 8.70817953150127 1.48 8.707074308957504 1.52 8.71002277222844 1.56 8.716368374947942 1.6 8.725454570749882 1.6400000000000001 8.736624813268126 1.68 8.749222556136537 1.72 8.762591252988987 1.76 8.776074357459336 1.8 8.789015323181456 1.84 8.800757603789208 1.8800000000000001 8.810644652916464 1.92 8.818019924197088 1.96 8.822226871264945 2 8.822608947753906 2.04 8.8186630413438 2.08 8.810499775898318 2.12 8.798383209327124 2.16 8.782577399539871 2.2 8.763346404446223 2.24 8.740954281955835 2.2800000000000002 8.715665089978364 2.32 8.687742886423475 2.36 8.65745172920082 2.4 8.625055676220063 2.44 8.590818785390859 2.48 8.555005114622867 2.52 8.517878721825747 2.56 8.479703664909156 2.6 8.440744001782754 2.64 8.4012637903562 2.68 8.361527088539148 2.72 8.321797954241266 2.7600000000000002 8.282340445372204 2.8000000000000003 8.243418619841623 2.84 8.205296535559185 2.88 8.168238250434545 2.92 8.132507822377361 2.96 8.098369309297295 3 8.066086769104002 3.04 8.035871736765081 3.08 8.007725655479877 3.12 7.981597445505674 3.16 7.957436027099759 3.2 7.935190320519414 3.24 7.914809246021922 3.2800000000000002 7.896241723864569 3.3200000000000003 7.879436674304635 3.36 7.864343017599412 3.4 7.850909674006177 3.44 7.839085563782218 3.48 7.828819607184818 3.52 7.8200607244712605 3.56 7.81275783589883 3.6 7.80685986172481 3.64 7.802315722206487 3.68 7.799074337601143 3.72 7.797084628166063 3.7600000000000002 7.796295514158531 3.8000000000000003 7.7966559158358315 3.84 7.798114753455247 3.88 7.800620947274062 3.92 7.8041234175495635 3.96 7.808571084539032 4 7.813912868499755 4.04 7.820112385619305 4.08 7.827192035806431 4.12 7.835188914900165 4.16 7.844140118739548 4.2 7.854082743163616 4.24 7.865053884011403 4.28 7.87709063712195 4.32 7.89023009833429 4.36 7.904509363487463 4.4 7.919965528420505 4.44 7.936635688972452 4.48 7.954556940982339 4.5200000000000005 7.973766380289207 4.5600000000000005 7.9943011027320905 4.6000000000000005 8.016198204150028 4.64 8.039494780382054 4.68 8.064227927267208 4.72 8.090434740644524 4.76 8.11815231635304 4.8 8.147417750231794 4.84 8.178268138119822 4.88 8.21074057585616 4.92 8.244872159279847 4.96 8.280699984229916 5 8.31826114654541 5.04 8.35756388643762 5.08 8.398501021606895 5.12 8.440936514125832 5.16 8.484734326067041 5.2 8.529758419503121 5.24 8.575872756506676 5.28 8.622941299150314 5.32 8.670828009506634 5.36 8.719396849648241 5.4 8.768511781647739 5.44 8.81803676757773 5.48 8.867835769510819 5.5200000000000005 8.91777274951961 5.5600000000000005 8.967711669676707 5.6000000000000005 9.01751649205471 5.64 9.067051178726226 5.68 9.116179691763858 5.72 9.164765993240213 5.76 9.212674045227885 5.8 9.259767809799488 5.84 9.30591124902762 5.88 9.350968324984883 5.92 9.394802999743888 5.96 9.43727923537723 6 9.47826099395752 6.04 9.517635496425617 6.08 9.555382999195432 6.12 9.591507017549134 6.16 9.626011066768896 6.2 9.658898662136885 6.24 9.690173318935273 6.28 9.719838552446223 6.32 9.747897877951912 6.36 9.774354810734511 6.4 9.799212866076187 6.44 9.822475559259109 6.48 9.844146405565445 6.5200000000000005 9.864228920277368 6.5600000000000005 9.882726618677049 6.6000000000000005 9.899643016046653 6.640000000000001 9.914981627668356 6.68 9.928745968824321 6.72 9.940939554796728 6.76 9.951565900867735 6.8 9.96062852231952 6.84 9.96813093443425 6.88 9.974076652494093 6.92 9.978469191781222 6.96 9.981312067577807 7 9.982608795166016 7.04 9.982353377432664 7.08 9.980501767683151 7.12 9.977000406827525 7.16 9.971795735775826 7.2 9.964834195438105 7.24 9.956062226724402 7.28 9.945426270544766 7.32 9.932872767809238 7.36 9.918348159427868 7.4 9.901798886310699 7.44 9.883171389367776 7.48 9.862412109509137 7.5200000000000005 9.83946748764484 7.5600000000000005 9.814283964684922 7.6000000000000005 9.78680798153943 7.640000000000001 9.756985979118411 7.68 9.724764398331908 7.72 9.690089680089969 7.76 9.652908265302633 7.8 9.61316659487995 7.84 9.570811109731963 7.88 9.525788250768718 7.92 9.478044458900262 7.96 9.427526175036638 8 9.374179840087892 8.040000000000001 9.318030475166966 8.08 9.259417422198421 8.120000000000001 9.198758603309706 8.16 9.136471940628278 8.2 9.07297535628159 8.24 9.008686772397093 8.28 8.944024111102248 8.32 8.879405294524503 8.36 8.81524824479132 8.4 8.751970884030143 8.44 8.689991134368436 8.48 8.629726917933645 8.52 8.571596156853232 8.56 8.516016773254645 8.6 8.463406689265346 8.64 8.41418382701278 8.68 8.368766108624406 8.72 8.327571456227679 8.76 8.291017791950054 8.8 8.259523037918981 8.84 8.23350511626192 8.88 8.213381949106322 8.92 8.199571458579642 8.96 8.192491566809334 9 8.192560195922852 9.040000000000001 8.200020330236866 9.08 8.214415202824917 9.120000000000001 8.235113108949758 9.16 8.261482343874146 9.200000000000001 8.292891202860831 9.24 8.32870798117257 9.28 8.36830097407212 9.32 8.411038476822235 9.36 8.456288784685666 9.4 8.503420192925176 9.44 8.55180099680351 9.48 8.600799491583427 9.52 8.649783972527683 9.56 8.69812273489903 9.6 8.745184073960225 9.64 8.790336284974023 9.68 8.832947663203175 9.72 8.872386503910441 9.76 8.908021102358575 9.8 8.939219753810328 9.84 8.965350753528456 9.88 8.985782396775715 9.92 8.99988297881486 9.96 9.007020794908644 10 9.006564140319822 10.040000000000001 8.998084317990786 10.08 8.981964661582472 10.120000000000001 8.958791512435443 10.16 8.929151211890275 10.200000000000001 8.893630101287533 10.24 8.85281452196779 10.28 8.807290815271616 10.32 8.757645322539576 10.36 8.704464385112246 10.4 8.648334344330191 10.44 8.589841541533982 10.48 8.529572318064186 10.52 8.468113015261379 10.56 8.406049974466123 10.6 8.343969537018996 10.64 8.282458044260558 10.68 8.222101837531387 10.72 8.163487258172047 10.76 8.107200647523115 10.8 8.053828346925153 10.84 8.003956697718733 10.88 7.958172041244424 10.92 7.9170607188428 10.96 7.881209071854425 11 7.851203441619871 11.040000000000001 7.827498914523608 11.08 7.810025557125707 11.120000000000001 7.798582181030138 11.16 7.792967597840869 11.200000000000001 7.792980619161876 11.24 7.7984200565971245 11.28 7.809084721750586 11.32 7.824773426226234 11.36 7.845284981628038 11.4 7.8704181995599685 11.44 7.899971891625992 11.48 7.933744869430085 11.52 7.971535944576216 11.56 8.013143928668354 11.6 8.058367633310471 11.64 8.107005870106537 11.68 8.158857450660523 11.72 8.2137211865764 11.76 8.271395889458137 11.8 8.331680370909709 11.84 8.39437344253508 11.88 8.459273915938226 11.92 8.526180602723112 11.96 8.594892314493718 12 8.665207862854002 12.040000000000001 8.736903563984349 12.08 8.809665752370746 12.120000000000001 8.883158267075592 12.16 8.957044947161275 12.200000000000001 9.030989631690202 12.24 9.104656159724756 12.280000000000001 9.177708370327347 12.32 9.249810102560357 12.36 9.320625195486187 12.4 9.389817488167239 12.44 9.457050819665897 12.48 9.521989029044569 12.52 9.584295955365638 12.56 9.643635437691511 12.6 9.699671315084576 12.64 9.752067426607232 12.68 9.80048761132187 12.72 9.844595708290896 12.76 9.884055556576696 12.8 9.918530995241673 12.84 9.947685863348212 12.88 9.971183999958722 12.92 9.988689244135589 12.96 9.999865434941213 13 10.004376411437987 13.040000000000001 10.00199633466594 13.08 9.992940653575625 13.120000000000001 9.977535139095227 13.16 9.956105562152933 13.200000000000001 9.928977693676924 13.24 9.89647730459539 13.280000000000001 9.85893016583651 13.32 9.816662048328473 13.36 9.769998722999464 13.4 9.719265960777669 13.44 9.664789532591266 13.48 9.606895209368446 13.52 9.545908762037397 13.56 9.482155961526294 13.6 9.415962578763335 13.64 9.34765438467669 13.68 9.277557150194559 13.72 9.205996646245115 13.76 9.13329864375655 13.8 9.059788913657044 13.84 8.98579322687479 13.88 8.911637354337962 13.92 8.837647066974759 13.96 8.76414813571335 14 8.691466331481932 14.040000000000001 8.619913639252514 14.08 8.549746900172446 14.120000000000001 8.481209169432892 14.16 8.414543502225028 14.200000000000001 8.349992953740028 14.24 8.287800579169069 14.280000000000001 8.228209433703315 14.32 8.171462572533944 14.36 8.117803050852132 14.4 8.067473923849045 14.44 8.02071824671586 14.48 7.977779074643751 14.52 7.938899462823889 14.56 7.904322466447445 14.6 7.8742911407055995 14.64 7.849048540789513 14.68 7.8288377218903715 14.72 7.81390173919934 14.76 7.804483647907595 14.8 7.800826503206308 14.84 7.803173360286653 14.88 7.811767274339802 14.92 7.8268513005569265 14.96 7.848668494129203 15 7.877461910247801 15.040000000000001 7.913332038682874 15.08 7.9558091075204755 15.120000000000001 8.004280779425642 15.16 8.0581347170634 15.200000000000001 8.11675858309879 15.24 8.179540040196839 15.280000000000001 8.24586675102259 15.32 8.315126378241064 15.36 8.3867065845173 15.4 8.459995032516339 15.44 8.5343793849032 15.48 8.609247304342926 15.52 8.683986453500546 15.56 8.757984495041098 15.6 8.830629091629609 15.64 8.901307905931116 15.68 8.96940860061065 15.72 9.034318838333249 15.76 9.095426281763942 15.8 9.152118593567765 15.84 9.203783436409745 15.88 9.249808472954923 15.92 9.28958136586833 15.96 9.322489777814999 16 9.347921371459961 16.04 9.365441169974725 16.080000000000002 9.375323638556686 16.12 9.378020602909714 16.16 9.373983888737682 16.2 9.363665321744454 16.240000000000002 9.3475167276339 16.28 9.325989932109897 16.32 9.299536760876308 16.36 9.268609039637006 16.4 9.233658594095859 16.44 9.195137249956735 16.48 9.153496832923508 16.52 9.109189168700045 16.56 9.062666082990216 16.6 9.014379401497887 16.64 8.964780949926935 16.68 8.91432255398123 16.72 8.863456039364632 16.76 8.812633231781016 16.8 8.762305956934256 16.84 8.712926040528217 16.88 8.66494530826677 16.92 8.61881558585378 16.96 8.574988698993124 17 8.53391647338867 17.04 8.495935919510268 17.080000000000002 8.460924786891695 17.12 8.428646009832717 17.16 8.398862522633094 17.2 8.371337259592588 17.240000000000002 8.345833155010952 17.28 8.322113143187963 17.32 8.299940158423372 17.36 8.279077135016943 17.400000000000002 8.259287007268433 17.44 8.240332709477613 17.48 8.221977175944238 17.52 8.203983340968067 17.56 8.186114138848867 17.6 8.168132503886394 17.64 8.149801370380414 17.68 8.130883672630688 17.72 8.111142344936976 17.76 8.090340321599038 17.8 8.06824053691664 17.84 8.044605925189538 17.88 8.019199420717497 17.92 7.991783957800275 17.96 7.962122470737638 18 7.929977893829344 18.04 7.895200120764717 18.080000000000002 7.857986882791316 18.12 7.818622870546271 18.16 7.777392774666703 18.2 7.734581285789737 18.240000000000002 7.690473094552488 18.28 7.645352891592093 18.32 7.599505367545669 18.36 7.553215213050342 18.400000000000002 7.5067671187432286 18.44 7.460445775261462 18.48 7.414535873242163 18.52 7.369322103322454 18.56 7.325089156139459 18.6 7.2821217223303 18.64 7.240704492532104 18.68 7.201122157381994 18.72 7.163659407517095 18.76 7.128600933574525 18.8 7.096231426191415 18.84 7.066835576004884 18.88 7.040698073652058 18.92 7.0181036097700575 18.96 6.999336874996011 19 6.984682559967039 19.04 6.974340445789013 19.080000000000002 6.96817067544278 19.12 6.965948482377938 19.16 6.967449100044079 19.2 6.972447761890801 19.240000000000002 6.980719701367696 19.28 6.992040151924364 19.32 7.006184347010395 19.36 7.022927520075388 19.400000000000002 7.042044904568938 19.44 7.063311733940635 19.48 7.08650324164008 19.52 7.111394661116865 19.56 7.137761225820587 19.6 7.165378169200841 19.64 7.1940207247072205 19.68 7.223464125789322 19.72 7.25348360589674 19.76 7.283854398479073 19.8 7.31435173698591 19.84 7.344750854866849 19.88 7.374826985571486 19.92 7.404355362549419 19.96 7.433111219250235 20 7.460869789123533 20.04 7.487466673502321 20.080000000000002 7.512978945253228 20.12 7.537544045126299 20.16 7.5612994138715734 20.2 7.584382492239097 20.240000000000002 7.606930720978912 20.28 7.629081540841059 20.32 7.65097239257558 20.36 7.672740716932523 20.400000000000002 7.6945239546619275 20.44 7.716459546513833 20.48 7.738684933238281 20.52 7.76133755558532 20.56 7.78455485430499 20.6 7.808474270147335 20.64 7.833233243862393 20.68 7.858969216200209 20.72 7.885819627910827 20.76 7.913921919744291 20.8 7.943413532450637 20.84 7.974431906779912 20.88 8.007114483482157 20.92 8.041598703307418 20.96 8.078022007005734 21 8.116521835327147 21.04 8.157169665194374 21.080000000000002 8.199773118220818 21.12 8.24407385219255 21.16 8.289813524895647 21.2 8.336733794116183 21.240000000000002 8.384576317640237 21.28 8.433082753253876 21.32 8.481994758743175 21.36 8.531053991894217 21.400000000000002 8.580002110493073 21.44 8.628580772325815 21.48 8.676531635178517 21.52 8.723596356837254 21.56 8.769516595088103 21.6 8.814034007717142 21.64 8.856890252510437 21.68 8.897826987254069 21.72 8.936585869734108 21.76 8.972908557736636 21.8 9.00653670904772 21.84 9.037211981453439 21.88 9.064676032739865 21.92 9.088670520693075 21.96 9.10893710309914 22 9.12521743774414 22.04 9.137329359079551 22.080000000000002 9.145395408218482 22.12 9.149614302939439 22.16 9.150184761020933 22.2 9.147305500241476 22.240000000000002 9.141175238379578 22.28 9.131992693213752 22.32 9.119956582522505 22.36 9.10526562408435 22.400000000000002 9.088118535677795 22.44 9.068714035081353 22.48 9.04725084007353 22.52 9.023927668432846 22.56 8.998943237937802 22.6 8.97249626636691 22.64 8.944785471498685 22.68 8.916009571111633 22.72 8.88636728298427 22.76 8.856057324895097 22.8 8.825278414622636 22.84 8.794229269945392 22.88 8.763108608641874 22.92 8.73211514849059 22.96 8.70144760727006 23 8.671304702758787 23.04 8.64184653502306 23.080000000000002 8.613078733280256 23.12 8.584968309035537 23.16 8.557482273794058 23.2 8.530587639060975 23.240000000000002 8.504251416341441 23.28 8.478440617140624 23.32 8.453122252963672 23.36 8.428263335315743 23.400000000000002 8.403830875701994 23.44 8.379791885627581 23.48 8.356113376597664 23.52 8.332762360117398 23.56 8.309705847691939 23.6 8.286910850826441 23.64 8.264344381026067 23.68 8.241973449795971 23.72 8.219765068641308 23.76 8.197686249067235 23.8 8.175704002578913 23.84 8.153785340681493 23.88 8.131897274880137 23.92 8.110006816679997 23.96 8.088080977586236 24 8.066086769104002 24.04 8.043998484928547 24.080000000000002 8.021819547515465 24.12 7.999560661510448 24.16 7.977232531559179 24.2 7.954845862307344 24.240000000000002 7.93241135840063 24.28 7.909939724484727 24.32 7.887441665205317 24.36 7.8649278852080915 24.400000000000002 7.842409089138732 24.44 7.819895981642929 24.48 7.797399267366369 24.52 7.7749296509547365 24.560000000000002 7.752497837053716 24.6 7.7301145303090015 24.64 7.707790435366274 24.68 7.685536256871224 24.72 7.663362699469534 24.76 7.641280467806891 24.8 7.619300266528986 24.84 7.597432800281503 24.88 7.575688773710128 24.92 7.554078891460547 24.96 7.5326138581784505 25 7.511304378509521 25.04 7.490177101526173 25.080000000000002 7.46932245400772 25.12 7.448846807160209 25.16 7.428856532189678 25.2 7.409458000302171 25.240000000000002 7.390757582703725 25.28 7.37286165060039 25.32 7.355876575198201 25.36 7.339908727703202 25.400000000000002 7.325064479321435 25.44 7.3114502012589435 25.48 7.2991722647217685 25.52 7.288337040915949 25.560000000000002 7.279050901047529 25.6 7.271420216322551 25.64 7.265551357947056 25.68 7.2615506971270865 25.72 7.259524605068685 25.76 7.25957945297789 25.8 7.261821612060749 25.84 7.266357453523296 25.88 7.273293348571581 25.92 7.282735668411643 25.96 7.294790784249521 26 7.30956506729126 26.04 7.327122879383017 26.080000000000002 7.347360544931425 26.12 7.370132378983229 26.16 7.395292696585177 26.2 7.422695812784017 26.240000000000002 7.452196042626498 26.28 7.483647701159363 26.32 7.516905103429362 26.36 7.551822564483243 26.400000000000002 7.588254399367754 26.44 7.62605492312964 26.48 7.66507845081565 26.52 7.7051792974725295 26.560000000000002 7.746211778147032 26.6 7.788030207885896 26.64 7.830488901735875 26.68 7.873442174743713 26.72 7.916744341956161 26.76 7.960249718419968 26.8 8.003812619181875 26.84 8.047287359288633 26.88 8.090528253786987 26.92 8.133389617723692 26.96 8.175725766145487 27 8.21739101409912 27.04 8.258307846182232 27.080000000000002 8.298671425196021 27.12 8.338745083492567 27.16 8.378792153423955 27.2 8.419075967342273 27.240000000000002 8.45985985759961 27.28 8.501407156548048 27.32 8.54398119653967 27.36 8.587845309926566 27.400000000000002 8.633262829060822 27.44 8.680497086294519 27.48 8.729811413979746 27.52 8.781469144468586 27.560000000000002 8.835733610113131 27.6 8.892868143265458 27.64 8.953136076277657 27.68 9.016800741501811 27.72 9.08412547129001 27.76 9.15537359799434 27.8 9.23080845396688 27.84 9.310693371559719 27.88 9.39529168312494 27.92 9.484866721014642 27.96 9.57968181758089 28 9.680000305175781 28.04 9.78590972020201 28.080000000000002 9.896794415264724 28.12 10.011862947019658 28.16 10.130323872122569 28.2 10.251385747229206 28.240000000000002 10.37425712899533 28.28 10.498146574076674 28.32 10.622262639128994 28.36 10.745813880808043 28.400000000000002 10.868008855769583 28.44 10.98805612066934 28.48 11.105164232163073 28.52 11.218541746906537 28.560000000000002 11.327397221555486 28.6 11.43093921276566 28.64 11.528376277192807 28.68 11.618916971492686 28.72 11.701769852321046 28.76 11.77614347633364 28.8 11.84124640018621 28.84 11.896287180534504 28.88 11.940474374034283 28.92 11.973016537341294 28.96 11.993122227111282 29 12"></path>
    <g id="GPoint_0" transform="translate(0,12)" visibility="show"><circle id="Point_0" draggable="true" fill="blue" stroke-width="0.0375" stroke="white" cx="0" cy="0" r="0.15" opacity="1"></circle></g><g id="GPoint_1" transform="translate(1,9.175652503967285)" visibility="show"><circle id="Point_1" draggable="true" fill="blue" stroke-width="0.0375" stroke="white" cx="0" cy="0" r="0.15" opacity="1"></circle></g><g id="GPoint_2" transform="translate(2,8.822608947753906)" visibility="show"><circle id="Point_2" draggable="true" fill="blue" stroke-width="0.0375" stroke="white" cx="0" cy="0" r="0.15" opacity="1"></circle></g><g id="GPoint_3" transform="translate(3,8.066086769104004)" visibility="show"><circle id="Point_3" draggable="true" fill="blue" stroke-width="0.0375" stroke="white" cx="0" cy="0" r="0.15" opacity="1"></circle></g><g id="GPoint_4" transform="translate(4,7.813912868499756)" visibility="show"><circle id="Point_4" draggable="true" fill="blue" stroke-width="0.0375" stroke="white" cx="0" cy="0" r="0.15" opacity="1"></circle></g><g id="GPoint_5" transform="translate(5,8.31826114654541)" visibility="show"><circle id="Point_5" draggable="true" fill="blue" stroke-width="0.0375" stroke="white" cx="0" cy="0" r="0.15" opacity="1"></circle></g><g id="GPoint_6" transform="translate(6,9.47826099395752)" visibility="show"><circle id="Point_6" draggable="true" fill="blue" stroke-width="0.0375" stroke="white" cx="0" cy="0" r="0.15" opacity="1"></circle></g><g id="GPoint_7" transform="translate(7,9.982608795166016)" visibility="show"><circle id="Point_7" draggable="true" fill="blue" stroke-width="0.0375" stroke="white" cx="0" cy="0" r="0.15" opacity="1"></circle></g><g id="GPoint_8" transform="translate(8,9.37417984008789)" visibility="show"><circle id="Point_8" draggable="true" fill="blue" stroke-width="0.0375" stroke="white" cx="0" cy="0" r="0.15" opacity="1"></circle></g><g id="GPoint_9" transform="translate(9,8.192560195922852)" visibility="show"><circle id="Point_9" draggable="true" fill="blue" stroke-width="0.0375" stroke="white" cx="0" cy="0" r="0.15" opacity="1"></circle></g><g id="GPoint_10" transform="translate(10,9.006564140319824)" visibility="show"><circle id="Point_10" draggable="true" fill="blue" stroke-width="0.0375" stroke="white" cx="0" cy="0" r="0.15" opacity="1"></circle></g><g id="GPoint_11" transform="translate(11,7.851203441619873)" visibility="show"><circle id="Point_11" draggable="true" fill="blue" stroke-width="0.0375" stroke="white" cx="0" cy="0" r="0.15" opacity="1"></circle></g><g id="GPoint_12" transform="translate(12,8.665207862854004)" visibility="show"><circle id="Point_12" draggable="true" fill="blue" stroke-width="0.0375" stroke="white" cx="0" cy="0" r="0.15" opacity="1"></circle></g><g id="GPoint_13" transform="translate(13,10.004376411437988)" visibility="show"><circle id="Point_13" draggable="true" fill="blue" stroke-width="0.0375" stroke="white" cx="0" cy="0" r="0.15" opacity="1"></circle></g><g id="GPoint_14" transform="translate(14,8.691466331481934)" visibility="show"><circle id="Point_14" draggable="true" fill="blue" stroke-width="0.0375" stroke="white" cx="0" cy="0" r="0.15" opacity="1"></circle></g><g id="GPoint_15" transform="translate(15,7.877461910247803)" visibility="show"><circle id="Point_15" draggable="true" fill="blue" stroke-width="0.0375" stroke="white" cx="0" cy="0" r="0.15" opacity="1"></circle></g><g id="GPoint_16" transform="translate(16,9.347921371459961)" visibility="show"><circle id="Point_16" draggable="true" fill="blue" stroke-width="0.0375" stroke="white" cx="0" cy="0" r="0.15" opacity="1"></circle></g><g id="GPoint_17" transform="translate(17,8.533916473388672)" visibility="show"><circle id="Point_17" draggable="true" fill="blue" stroke-width="0.0375" stroke="white" cx="0" cy="0" r="0.15" opacity="1"></circle></g><g id="GPoint_18" transform="translate(18,7.929977893829346)" visibility="show"><circle id="Point_18" draggable="true" fill="blue" stroke-width="0.0375" stroke="white" cx="0" cy="0" r="0.15" opacity="1"></circle></g><g id="GPoint_19" transform="translate(19,6.984682559967041)" visibility="show"><circle id="Point_19" draggable="true" fill="blue" stroke-width="0.0375" stroke="white" cx="0" cy="0" r="0.15" opacity="1"></circle></g><g id="GPoint_20" transform="translate(20,7.460869789123535)" visibility="show"><circle id="Point_20" draggable="true" fill="blue" stroke-width="0.0375" stroke="white" cx="0" cy="0" r="0.15" opacity="1"></circle></g><g id="GPoint_21" transform="translate(21,8.116521835327148)" visibility="show"><circle id="Point_21" draggable="true" fill="blue" stroke-width="0.0375" stroke="white" cx="0" cy="0" r="0.15" opacity="1"></circle></g><g id="GPoint_22" transform="translate(22,9.12521743774414)" visibility="show"><circle id="Point_22" draggable="true" fill="blue" stroke-width="0.0375" stroke="white" cx="0" cy="0" r="0.15" opacity="1"></circle></g><g id="GPoint_23" transform="translate(23,8.671304702758789)" visibility="show"><circle id="Point_23" draggable="true" fill="blue" stroke-width="0.0375" stroke="white" cx="0" cy="0" r="0.15" opacity="1"></circle></g><g id="GPoint_24" transform="translate(24,8.066086769104004)" visibility="show"><circle id="Point_24" draggable="true" fill="blue" stroke-width="0.0375" stroke="white" cx="0" cy="0" r="0.15" opacity="1"></circle></g><g id="GPoint_25" transform="translate(25,7.5113043785095215)" visibility="show"><circle id="Point_25" draggable="true" fill="blue" stroke-width="0.0375" stroke="white" cx="0" cy="0" r="0.15" opacity="1"></circle></g><g id="GPoint_26" transform="translate(26,7.30956506729126)" visibility="show"><circle id="Point_26" draggable="true" fill="blue" stroke-width="0.0375" stroke="white" cx="0" cy="0" r="0.15" opacity="1"></circle></g><g id="GPoint_27" transform="translate(27,8.217391014099121)" visibility="show"><circle id="Point_27" draggable="true" fill="blue" stroke-width="0.0375" stroke="white" cx="0" cy="0" r="0.15" opacity="1"></circle></g><g id="GPoint_28" transform="translate(28,9.680000305175781)" visibility="show"><circle id="Point_28" draggable="true" fill="blue" stroke-width="0.0375" stroke="white" cx="0" cy="0" r="0.15" opacity="1"></circle></g><g id="GPoint_29" transform="translate(29,12)" visibility="show"><circle id="Point_29" draggable="true" fill="blue" stroke-width="0.0375" stroke="white" cx="0" cy="0" r="0.15" opacity="1"></circle></g></svg>