<svg id="svg" viewBox="0 6 28 9" style="width: calc(100% - 494px);" xmlns="http://www.w3.org/2000/svg" transform="translate(-10 0)scale(1.5 1.5)">
      <defs>
        <radialGradient id="g1" cx="50%" cy="50%" r="50%" fx="35%" fy="35%">
          <stop stop-color="#a7e0a7" offset="0%"></stop>
          <stop stop-color="#6cc36c" offset="30%"></stop>
          <stop stop-color="#1c711c" offset="90%"></stop>
          <stop stop-color="#014c04" offset="100%"></stop>
        </radialGradient>
        <radialGradient id="g2" cx="50%" cy="50%" r="50%" fx="35%" fy="35%">
          <stop stop-color="#5bb7ff" offset="0%"></stop>
          <stop stop-color="#008eff" offset="30%"></stop>
          <stop stop-color="blue" offset="90%"></stop>
          <stop stop-color="#014c04" offset="100%"></stop>
        </radialGradient>
      </defs>
      <g id="Background">
      <g id="Grid_0"><line x1="0" x2="0" y1="0" y2="24" stroke-width="0.01" stroke="gray" stroke-dasharray="0.1 0.05"></line><line x1="1" x2="1" y1="0" y2="24" stroke-width="0.01" stroke="gray" stroke-dasharray="0.1 0.05"></line><line x1="2" x2="2" y1="0" y2="24" stroke-width="0.01" stroke="gray" stroke-dasharray="0.1 0.05"></line><line x1="3" x2="3" y1="0" y2="24" stroke-width="0.01" stroke="gray" stroke-dasharray="0.1 0.05"></line><line x1="4" x2="4" y1="0" y2="24" stroke-width="0.01" stroke="gray" stroke-dasharray="0.1 0.05"></line><line x1="5" x2="5" y1="0" y2="24" stroke-width="0.01" stroke="gray" stroke-dasharray="0.1 0.05"></line><line x1="6" x2="6" y1="0" y2="24" stroke-width="0.01" stroke="gray" stroke-dasharray="0.1 0.05"></line><line x1="7" x2="7" y1="0" y2="24" stroke-width="0.01" stroke="gray" stroke-dasharray="0.1 0.05"></line><line x1="8" x2="8" y1="0" y2="24" stroke-width="0.01" stroke="gray" stroke-dasharray="0.1 0.05"></line><line x1="9" x2="9" y1="0" y2="24" stroke-width="0.01" stroke="gray" stroke-dasharray="0.1 0.05"></line><line x1="10" x2="10" y1="0" y2="24" stroke-width="0.01" stroke="gray" stroke-dasharray="0.1 0.05"></line><line x1="11" x2="11" y1="0" y2="24" stroke-width="0.01" stroke="gray" stroke-dasharray="0.1 0.05"></line><line x1="12" x2="12" y1="0" y2="24" stroke-width="0.01" stroke="gray" stroke-dasharray="0.1 0.05"></line><line x1="13" x2="13" y1="0" y2="24" stroke-width="0.01" stroke="gray" stroke-dasharray="0.1 0.05"></line><line x1="14" x2="14" y1="0" y2="24" stroke-width="0.01" stroke="gray" stroke-dasharray="0.1 0.05"></line><line x1="15" x2="15" y1="0" y2="24" stroke-width="0.01" stroke="gray" stroke-dasharray="0.1 0.05"></line><line x1="16" x2="16" y1="0" y2="24" stroke-width="0.01" stroke="gray" stroke-dasharray="0.1 0.05"></line><line x1="17" x2="17" y1="0" y2="24" stroke-width="0.01" stroke="gray" stroke-dasharray="0.1 0.05"></line><line x1="18" x2="18" y1="0" y2="24" stroke-width="0.01" stroke="gray" stroke-dasharray="0.1 0.05"></line><line x1="19" x2="19" y1="0" y2="24" stroke-width="0.01" stroke="gray" stroke-dasharray="0.1 0.05"></line><line x1="20" x2="20" y1="0" y2="24" stroke-width="0.01" stroke="gray" stroke-dasharray="0.1 0.05"></line><line x1="21" x2="21" y1="0" y2="24" stroke-width="0.01" stroke="gray" stroke-dasharray="0.1 0.05"></line><line x1="22" x2="22" y1="0" y2="24" stroke-width="0.01" stroke="gray" stroke-dasharray="0.1 0.05"></line><line x1="23" x2="23" y1="0" y2="24" stroke-width="0.01" stroke="gray" stroke-dasharray="0.1 0.05"></line><line x1="24" x2="24" y1="0" y2="24" stroke-width="0.01" stroke="gray" stroke-dasharray="0.1 0.05"></line><line x1="25" x2="25" y1="0" y2="24" stroke-width="0.01" stroke="gray" stroke-dasharray="0.1 0.05"></line><line x1="26" x2="26" y1="0" y2="24" stroke-width="0.01" stroke="gray" stroke-dasharray="0.1 0.05"></line><line x1="27" x2="27" y1="0" y2="24" stroke-width="0.01" stroke="gray" stroke-dasharray="0.1 0.05"></line><line x1="28" x2="28" y1="0" y2="24" stroke-width="0.01" stroke="gray" stroke-dasharray="0.1 0.05"></line><line x1="29" x2="29" y1="0" y2="24" stroke-width="0.01" stroke="gray" stroke-dasharray="0.1 0.05"></line><line x1="0" x2="30" y1="0" y2="0" stroke-width="0.01" stroke="gray" stroke-dasharray="0.1 0.05"></line><line x1="0" x2="30" y1="1" y2="1" stroke-width="0.01" stroke="gray" stroke-dasharray="0.1 0.05"></line><line x1="0" x2="30" y1="2" y2="2" stroke-width="0.01" stroke="gray" stroke-dasharray="0.1 0.05"></line><line x1="0" x2="30" y1="3" y2="3" stroke-width="0.01" stroke="gray" stroke-dasharray="0.1 0.05"></line><line x1="0" x2="30" y1="4" y2="4" stroke-width="0.01" stroke="gray" stroke-dasharray="0.1 0.05"></line><line x1="0" x2="30" y1="5" y2="5" stroke-width="0.01" stroke="gray" stroke-dasharray="0.1 0.05"></line><line x1="0" x2="30" y1="6" y2="6" stroke-width="0.01" stroke="gray" stroke-dasharray="0.1 0.05"></line><line x1="0" x2="30" y1="7" y2="7" stroke-width="0.01" stroke="gray" stroke-dasharray="0.1 0.05"></line><line x1="0" x2="30" y1="8" y2="8" stroke-width="0.01" stroke="gray" stroke-dasharray="0.1 0.05"></line><line x1="0" x2="30" y1="9" y2="9" stroke-width="0.01" stroke="gray" stroke-dasharray="0.1 0.05"></line><line x1="0" x2="30" y1="10" y2="10" stroke-width="0.01" stroke="gray" stroke-dasharray="0.1 0.05"></line><line x1="0" x2="30" y1="11" y2="11" stroke-width="0.01" stroke="gray" stroke-dasharray="0.1 0.05"></line><line x1="0" x2="30" y1="12" y2="12" stroke-width="0.01" stroke="gray" stroke-dasharray="0.1 0.05"></line><line x1="0" x2="30" y1="13" y2="13" stroke-width="0.01" stroke="gray" stroke-dasharray="0.1 0.05"></line><line x1="0" x2="30" y1="14" y2="14" stroke-width="0.01" stroke="gray" stroke-dasharray="0.1 0.05"></line><line x1="0" x2="30" y1="15" y2="15" stroke-width="0.01" stroke="gray" stroke-dasharray="0.1 0.05"></line><line x1="0" x2="30" y1="16" y2="16" stroke-width="0.01" stroke="gray" stroke-dasharray="0.1 0.05"></line><line x1="0" x2="30" y1="17" y2="17" stroke-width="0.01" stroke="gray" stroke-dasharray="0.1 0.05"></line><line x1="0" x2="30" y1="18" y2="18" stroke-width="0.01" stroke="gray" stroke-dasharray="0.1 0.05"></line><line x1="0" x2="30" y1="19" y2="19" stroke-width="0.01" stroke="gray" stroke-dasharray="0.1 0.05"></line><line x1="0" x2="30" y1="20" y2="20" stroke-width="0.01" stroke="gray" stroke-dasharray="0.1 0.05"></line><line x1="0" x2="30" y1="21" y2="21" stroke-width="0.01" stroke="gray" stroke-dasharray="0.1 0.05"></line><line x1="0" x2="30" y1="22" y2="22" stroke-width="0.01" stroke="gray" stroke-dasharray="0.1 0.05"></line><line x1="0" x2="30" y1="23" y2="23" stroke-width="0.01" stroke="gray" stroke-dasharray="0.1 0.05"></line></g></g>
      <g id="Curve">
      </g>
      
      <path id="splinefit" style="fill: none;stroke: green;stroke-width: 0.05px;" p="" d="M 0 11.998881990922477 0.04 11.99102853600567 0.08 11.96754045883067 0.12 11.928634622123765 0.16 11.874672463762082 0.2 11.806159996773623 0.24 11.723747809337231 0.28 11.628231064782607 0.32 11.520549501590304 0.36 11.401787433391736 0.4 11.273173748969164 0.44 11.136081912255706 0.48 10.992029962335344 0.52 10.842679838450962 0.56 10.689786080617099 0.6 10.535040581474215 0.64 10.38002128690143 0.68 10.226191521024596 0.72 10.074899986216264 0.76 9.927380763095728 0.8 9.784753310528982 0.84 9.64802246562875 0.88 9.518078443754478 0.92 9.395696838512318 0.96 9.281538621755153 1 9.176150143582587 1.04 9.07996313234094 1.08 8.993294694623245 1.12 8.916347315269268 1.16 8.849208857365488 1.2 8.791852562245094 1.24 8.74413704948802 1.28 8.705806316920887 1.32 8.676489740617066 1.36 8.65570207489663 1.4000000000000001 8.642843452326373 1.44 8.637199383719818 1.48 8.637940758137193 1.52 8.644124302982105 1.56 8.65472755134641 1.6 8.668754664238225 1.6400000000000001 8.68527139792681 1.68 8.70340556403921 1.72 8.722347029560282 1.76 8.741347716832657 1.8 8.759721603556763 1.84 8.776844722790827 1.8800000000000001 8.79215516295086 1.92 8.80515306781067 1.96 8.815400636501856 2 8.822522123513812 2.04 8.826203838693718 2.08 8.826194147246554 2.12 8.822303469735086 2.16 8.814404282079876 2.2 8.802431115559278 2.24 8.786380556809437 2.2800000000000002 8.766311247824293 2.32 8.742343885955574 2.36 8.714661223912804 2.4 8.683508069763297 2.44 8.649191286932163 2.48 8.612079794202298 2.52 8.572604335503009 2.56 8.531239983844353 2.6 8.488453192697452 2.64 8.444684299928824 2.68 8.40034729758902 2.72 8.355829831912606 2.7600000000000002 8.311493203318172 2.8000000000000003 8.26767236640832 2.84 8.224675929969687 2.88 8.182786156972911 2.92 8.14225896457267 2.96 8.103323924107652 3 8.066184261100569 3.04 8.03101685525815 3.08 7.997972240471149 3.12 7.967174604814337 3.16 7.938721790546509 3.2 7.912685294110477 3.24 7.889110266133077 3.2800000000000002 7.86801551142516 3.3200000000000003 7.849393488981606 3.36 7.8332103119813095 3.4 7.8194057477871866 3.44 7.807893217946172 3.48 7.798559798189228 3.52 7.791266315359585 3.56 7.785854713960251 3.6 7.782170349652992 3.64 7.78006935580583 3.68 7.779418740421303 3.72 7.780096386136455 3.7600000000000002 7.7819910502228495 3.8000000000000003 7.785002364586555 3.84 7.789040835768157 3.88 7.79402784494275 3.92 7.799895647919944 3.96 7.806587375143856 4 7.814057031693122 4.04 7.822269497280885 4.08 7.8312005262548015 4.12 7.840836747597041 4.16 7.851175664924283 4.2 7.862225656487722 4.24 7.8740059751730636 4.28 7.886546748500524 4.32 7.899888978624833 4.36 7.9140845423352335 4.4 7.929196191055479 4.44 7.9452975508438355 4.48 7.96247312239308 4.5200000000000005 7.980818221229151 4.5600000000000005 8.000434432808278 4.6000000000000005 8.021415858205687 4.64 8.043844569212734 4.68 8.067790548535553 4.72 8.093311689795057 4.76 8.120453797526928 4.8 8.149250587181626 4.84 8.179723685124392 4.88 8.211882628635248 4.92 8.245724865908985 4.96 8.281235756055167 5 8.31838856909815 5.04 8.357144485977054 5.08 8.397452598545778 5.12 8.439249909572998 5.16 8.482461332742174 5.2 8.526999692651533 5.24 8.572765724814078 5.28 8.619648075657599 5.32 8.667523302524653 5.36 8.716255873672583 5.4 8.7656981682735 5.44 8.815690476414298 5.48 8.86606099909664 5.5200000000000005 8.916625907142224 5.5600000000000005 8.967193817991522 5.6000000000000005 9.017579343910594 5.64 9.067607568789828 5.68 9.11711410704921 5.72 9.165945103638306 5.76 9.21395723403626 5.8 9.261017704251813 5.84 9.307004250823292 5.88 9.3518051408186 5.92 9.395319171835235 5.96 9.43745567200028 6 9.478134499970398 6.04 9.517286044931845 6.08 9.55485122660046 6.12 9.590781495221666 6.16 9.625038831570475 6.2 9.657595746951484 6.24 9.688435283198878 6.28 9.717551012676418 6.32 9.744947038277466 6.36 9.770637993424963 6.4 9.794649042071432 6.44 9.817015878698987 6.48 9.837784728319328 6.5200000000000005 9.85701229485031 6.5600000000000005 9.87476183773535 6.6000000000000005 9.89109129855481 6.640000000000001 9.906049377645383 6.68 9.91967548247668 6.72 9.931999727651231 6.76 9.94304293490447 6.8 9.952816633104748 6.84 9.961323058253328 6.88 9.968555153484397 6.92 9.974496569065037 6.96 9.979121662395263 7 9.982395498007987 7.04 9.984273847569048 7.08 9.984703189877187 7.12 9.983620710864066 7.16 9.98095430359426 7.2 9.976622568265254 7.24 9.970534812207449 7.28 9.962591049884157 7.32 9.95268200289161 7.36 9.940689099958941 7.4 9.926484476948218 7.44 9.909930976854397 7.48 9.890882149805364 7.5200000000000005 9.869182359150242 7.5600000000000005 9.844674844172273 7.6000000000000005 9.81722612040413 7.640000000000001 9.78673404234078 7.68 9.753127909527832 7.72 9.716368466561516 7.76 9.676447903088704 7.8 9.633389853806895 7.84 9.587249398464214 7.88 9.53811306185943 7.92 9.486098813841934 7.96 9.431356069311754 8 9.374065688219549 8.040000000000001 9.3144399755666 8.08 9.252722681404842 8.120000000000001 9.189189000836818 8.16 9.124145574015715 8.2 9.057930486145352 8.24 8.99091326748017 8.28 8.92349489332526 8.32 8.856107784036322 8.36 8.789215805019712 8.4 8.723314266732393 8.44 8.658929924681981 8.48 8.596620979426707 8.52 8.536976836648885 8.56 8.48059987273601 8.6 8.428050251671044 8.64 8.379827690613514 8.68 8.336371219972978 8.72 8.298059183409006 8.76 8.265209237831177 8.8 8.238078353399096 8.84 8.216862813522381 8.88 8.201698214860665 8.92 8.192659467323603 8.96 8.189760794070862 9 8.192955731512127 9.040000000000001 8.202137129307099 9.08 8.21713715036549 9.120000000000001 8.237727270847046 9.16 8.263618280161507 9.200000000000001 8.29446028096865 9.24 8.329842689178253 9.28 8.369294233950118 9.32 8.412282957694064 9.36 8.458216216069925 9.4 8.50644067798755 9.44 8.556242325606807 9.48 8.606846454337584 9.52 8.657418009184184 9.56 8.707087146920507 9.6 8.755026595304322 9.64 8.800477215252446 9.68 8.84274833718512 9.72 8.881217761026058 9.76 8.915331756202399 9.8 8.944605061644738 9.84 8.96862088578711 9.88 8.987030906567 9.92 8.999555271425342 9.96 9.005982597306504 10 9.006169970658316 10.040000000000001 9.000042947432037 10.08 8.987595553082388 10.120000000000001 8.96889028256752 10.16 8.944058100349043 10.200000000000001 8.913298440392005 10.24 8.876879206164908 10.28 8.835136770639687 10.32 8.788475976291732 10.36 8.737370135099884 10.4 8.682361028546412 10.44 8.624058907617052 10.48 8.563142492800967 10.52 8.500358679256038 10.56 8.436500129368277 10.6 8.372337460760694 10.64 8.308596838852715 10.68 8.24595968202547 10.72 8.185062661621759 10.76 8.126497701946073 10.8 8.070811980264589 10.84 8.018507926805167 10.88 7.970043224757355 10.92 7.925830810272391 10.96 7.886238872463184 11 7.851590853404345 11.040000000000001 7.82216544813216 11.08 7.798196604644604 11.120000000000001 7.779873523901336 11.16 7.767340659823705 11.200000000000001 7.760697719294739 11.24 7.759999662159157 11.28 7.765256701223359 11.32 7.776434302255434 11.36 7.793453183985155 11.4 7.816189318103979 11.44 7.844473929265053 11.48 7.8780934950832044 11.52 7.916789856920073 11.56 7.960268639553553 11.6 8.008224731756373 11.64 8.06035070596555 11.68 8.116336929067495 11.72 8.175871562398042 11.76 8.238640561742411 11.8 8.304327677335245 11.84 8.37261445386058 11.88 8.44318023045187 11.92 8.515702140691962 11.96 8.589855112613122 12 8.665311868697009 12.040000000000001 8.741742925874702 12.08 8.818816595526666 12.120000000000001 8.896198983482797 12.16 8.973553990022376 12.200000000000001 9.050543309874103 12.24 9.126826432216072 12.280000000000001 9.202060640675798 12.32 9.275901013330184 12.36 9.348000422705555 12.4 9.418009535777633 12.44 9.485576813971548 12.48 9.550348513161838 12.52 9.611968762628324 12.56 9.6700855657029 12.6 9.724368959621671 12.64 9.77451701617175 12.68 9.820255920647115 12.72 9.861339971848638 12.76 9.89755158208406 12.8 9.928701277168006 12.84 9.954627696421973 12.88 9.975197592674355 12.92 9.990305832260404 12.96 9.999875395022267 13 10.003857374308959 13.040000000000001 10.002230976976389 13.08 9.995003523387329 13.120000000000001 9.982210447411438 13.16 9.963915296425254 13.200000000000001 9.940209731312194 13.24 9.911213526462562 13.280000000000001 9.877074569773525 13.32 9.837968862649138 13.36 9.794100520000343 13.4 9.745701770244946 13.44 9.693032955307645 13.48 9.636382530620011 13.52 9.576066992288625 13.56 9.512425341872737 13.6 9.445802335053536 13.64 9.376542946411803 13.68 9.304992296596057 13.72 9.231495652322534 13.76 9.156398426375203 13.8 9.080046177605752 13.84 9.002784610933608 13.88 8.924959577345914 13.92 8.84691707389755 13.96 8.769003243711117 14 8.691564375976943 14.040000000000001 8.614946905953087 14.08 8.539497414965329 14.120000000000001 8.465562630407177 14.16 8.393489425739878 14.200000000000001 8.323624820492391 14.24 8.256315980261409 14.280000000000001 8.191910216711348 14.32 8.130754987574358 14.36 8.073197896650312 14.4 8.019586693806806 14.44 7.970269274979174 14.48 7.925593682170464 14.52 7.885907980749177 14.56 7.851550934075686 14.6 7.8228237819769655 14.64 7.799980915373025 14.68 7.783229753574626 14.72 7.772730744283277 14.76 7.768597363591241 14.8 7.770896115981527 14.84 7.779646534327895 14.88 7.794821179894864 14.92 7.816345642337692 14.96 7.844098539702391 15 7.877911518425727 15.040000000000001 7.917569253335217 15.08 7.962809447649118 15.120000000000001 8.013322832976455 15.16 8.06875316931698 15.200000000000001 8.128697245061222 15.24 8.192704876990438 15.280000000000001 8.260278910276655 15.32 8.330875218482626 15.36 8.40390270356188 15.4 8.478723295858684 15.44 8.55465195410805 15.48 8.630956665435756 15.52 8.706858724104439 15.56 8.781553916219297 15.6 8.854276631337314 15.64 8.924321047172937 15.68 8.991041408344204 15.72 9.053852026372747 15.76 9.112227279683776 15.8 9.165701613606096 15.84 9.213869540372103 15.88 9.256385639117784 15.92 9.29296455588271 15.96 9.323381003610043 16 9.347469762146535 16.04 9.365125678242526 16.080000000000002 9.376303665551946 16.12 9.381018704632318 16.16 9.379345842944744 16.2 9.371420194853929 16.240000000000002 9.357436941628151 16.28 9.337651331439295 16.32 9.312378679362823 16.36 9.28199436737779 16.4 9.24693384436684 16.44 9.207692626116202 16.48 9.164826295315708 16.52 9.118950230644097 16.56 9.07071901725445 16.6 9.02076413640109 16.64 8.969673375924986 16.68 8.9179905593391 16.72 8.866215545828371 16.76 8.814804230249722 16.8 8.764168543132074 16.84 8.714676450676317 16.88 8.666651954755338 16.92 8.620375092913998 16.96 8.576081938369162 17 8.533964600009663 17.04 8.494171222396325 17.080000000000002 8.456805985761955 17.12 8.421929106011351 17.16 8.389556834721292 17.2 8.359661459140543 17.240000000000002 8.33217130218985 17.28 8.306970722461955 17.32 8.283900114221574 17.36 8.262755907405415 17.400000000000002 8.243290567622168 17.44 8.225212596152511 17.48 8.208186529949103 17.52 8.19183314640237 17.56 8.175745025539317 17.6 8.159533646151589 17.64 8.142844947994293 17.68 8.125359536551766 17.72 8.106792683037584 17.76 8.086894324394555 17.8 8.065449063294738 17.84 8.042276168139406 17.88 8.017229573059085 17.92 7.990197877913526 17.96 7.961104348291726 18 7.9299069155119115 18.04 7.896598176621544 18.080000000000002 7.861205394397321 18.12 7.823790497345186 18.16 7.784450079700306 18.2 7.743315401427087 18.240000000000002 7.700552388219171 18.28 7.656361631499443 18.32 7.610978388420016 18.36 7.564672581862242 18.400000000000002 7.517748800436703 18.44 7.470546298483231 18.48 7.423438996070881 18.52 7.37683530498817 18.56 7.331164903999942 18.6 7.286838716598421 18.64 7.244235686260095 18.68 7.203702602435908 18.72 7.165554100551289 18.76 7.130072662006132 18.8 7.097508614174817 18.84 7.068080130406185 18.88 7.041973230023559 18.92 7.019341778324725 18.96 7.000307486581961 19 6.984959912042001 19.04 6.9733564579260605 19.080000000000002 6.965522373429825 19.12 6.961450753723462 19.16 6.9611025399515984 19.2 6.964406519233347 19.240000000000002 6.971259324662289 19.28 6.981525435306481 19.32 6.9950371762084504 19.36 7.011594718385202 19.400000000000002 7.030966078828212 19.44 7.052887120503426 19.48 7.077061552351272 19.52 7.103161077369798 19.56 7.13083664693418 19.6 7.159752519921545 19.64 7.18959751703046 19.68 7.220085168864099 19.72 7.250953715930237 19.76 7.28196610864125 19.8 7.312910007314111 19.84 7.343597782170395 19.88 7.37386651333628 19.92 7.403577990842545 19.96 7.432618714624567 20 7.460899894522323 20.04 7.488357450280398 20.080000000000002 7.51495201154797 20.12 7.540668917878817 20.16 7.565518218731325 20.2 7.589534673468475 20.240000000000002 7.612777751357854 20.28 7.635331631571642 20.32 7.657305203186624 20.36 7.67883206518419 20.400000000000002 7.700070526450326 20.44 7.7212036057756155 20.48 7.742439031855252 20.52 7.764009113477547 20.56 7.786160873852107 20.6 7.809126193971333 20.64 7.833111946938584 20.68 7.858299868156704 20.72 7.884846555328027 20.76 7.912883468454366 20.8 7.942516929837023 20.84 7.97382812407678 20.88 8.006873098073914 20.92 8.041682761028177 20.96 8.07826288443881 21 8.116594102104541 21.04 8.156631910123581 21.080000000000002 8.198306666893629 21.12 8.241523593111863 21.16 8.286162771774947 21.2 8.33207914817904 21.240000000000002 8.37910252991978 21.28 8.427037586892284 21.32 8.475663851291158 21.36 8.5247357176105 21.400000000000002 8.573982442643889 21.44 8.62310814548438 21.48 8.671791807524524 21.52 8.719687406324919 21.56 8.7664340896248 21.6 8.811686965110963 21.64 8.855127274428352 21.68 8.896462527048625 21.72 8.935426500270173 21.76 8.971779239218082 21.8 9.00530705684416 21.84 9.035822533926927 21.88 9.063164519071625 21.92 9.08719812871021 21.96 9.107814747101338 22 9.1249320263304 22.04 9.138493886309494 22.080000000000002 9.148470514777431 22.12 9.154858367299736 22.16 9.157680167268651 22.2 9.156984905903137 22.240000000000002 9.152847842248862 22.28 9.145370503178214 22.32 9.134680683390295 22.36 9.120932445410922 22.400000000000002 9.104306119592627 22.44 9.085008304114657 22.48 9.06327186498297 22.52 9.039355830389706 22.56 9.013537362031894 22.6 8.986087457786573 22.64 8.957262923029525 22.68 8.927306264994716 22.72 8.896445692774304 22.76 8.864895117318639 22.8 8.832854151436266 22.84 8.800508109793924 22.88 8.768028008916538 22.92 8.735570567187226 22.96 8.703278204847303 23 8.671279043996277 23.04 8.63968690859184 23.080000000000002 8.608601324449873 23.12 8.578107519244474 23.16 8.548276422507902 23.2 8.519164665630624 23.240000000000002 8.490814581861295 23.28 8.463254206306773 23.32 8.43649727593209 23.36 8.410543229560483 23.400000000000002 8.385377207873375 23.44 8.360970053410384 23.48 8.337278310569321 23.52 8.31424427041345 23.56 8.291799376023873 23.6 8.269874528171153 23.64 8.2484034906677 23.68 8.227322935175012 23.72 8.206572441203711 23.76 8.186094496113505 23.8 8.165834495113224 23.84 8.145740741260791 23.88 8.125764445463243 23.92 8.105859726476707 23.96 8.085983610906435 24 8.066096033206767 24.04 8.046159835681157 24.080000000000002 8.026140768482158 24.12 8.006007489611436 24.16 7.985731564919752 24.2 7.965287468106979 24.240000000000002 7.944652580722088 24.28 7.9238071921631645 24.32 7.90273449967739 24.36 7.881420608361056 24.400000000000002 7.859854531159554 24.44 7.838028188867388 24.48 7.81593641012816 24.52 7.793576941270516 24.560000000000002 7.770951193839431 24.6 7.748066506861954 24.64 7.7249368943784775 24.68 7.701583055278692 24.72 7.678032373301579 24.76 7.654318917035403 24.8 7.630483439917736 24.84 7.60657338023543 24.88 7.58264286112463 24.92 7.558752690570776 24.96 7.534970361408597 25 7.511370051322117 25.04 7.488032622844646 25.080000000000002 7.465045623358788 25.12 7.442503285096441 25.16 7.420506525138793 25.2 7.3991629454163235 25.240000000000002 7.378586832708801 25.28 7.3588991586452925 25.32 7.340227579704148 25.36 7.322706437213017 25.400000000000002 7.306476757348833 25.44 7.291686251137828 25.48 7.278489314455523 25.52 7.267046965097601 25.560000000000002 7.257522060166116 25.6 7.250064822369889 25.64 7.244808057410691 25.68 7.24186709105414 25.72 7.241339769129691 25.76 7.24330645753063 25.8 7.2478300422140896 25.84 7.25495592920103 25.88 7.264712044576256 25.92 7.277108834488406 25.96 7.292139265149956 26 7.309778822837222 26.04 7.3299855138903505 26.080000000000002 7.352699864713338 26.12 7.3778449217740025 26.16 7.40532625160401 26.2 7.4350319407988605 26.240000000000002 7.466832596017893 26.28 7.500581343984281 26.32 7.536113831485031 26.36 7.573248225371001 26.400000000000002 7.611785212556878 26.44 7.6515080000211775 26.48 7.692182314806265 26.52 7.733556527829838 26.560000000000002 7.7753710635586675 26.6 7.81738687665283 26.64 7.85939486163946 26.68 7.901215976724227 26.72 7.942701243791361 26.76 7.9837317484036285 26.8 8.024218639802344 26.84 8.064103130907366 26.88 8.103356498317108 26.92 8.141980082308532 26.96 8.18000528683713 27 8.217493579536956 27.04 8.254536491720609 27.080000000000002 8.29125561837923 27.12 8.327802618182506 27.16 8.364359213478672 27.2 8.401137190294516 27.240000000000002 8.438378398335365 27.28 8.476354750985097 27.32 8.51536822530613 27.36 8.555750862039439 27.400000000000002 8.59786476560454 27.44 8.642102104099491 27.48 8.688885109300907 27.52 8.7386658325094 27.560000000000002 8.79190758880429 27.6 8.849028801498623 27.64 8.910384446393875 27.68 8.97626580762541 27.72 9.046900477662485 27.76 9.122452357308239 27.8 9.203021655699692 27.84 9.288644890307758 27.88 9.379294886937243 27.92 9.47488077972684 27.96 9.575248011149107 28 9.680178332010518 28.04 9.789389801451417 28.080000000000002 9.902536786946056 28.12 10.019209964302537 28.16 10.138936317662878 28.2 10.261179139502982 28.240000000000002 10.385338030632642 28.28 10.51074890019551 28.32 10.636683965669153 28.36 10.762351752865024 28.400000000000002 10.886897095928465 28.44 11.009401137338674 28.48 11.128881327908772 28.52 11.24429182388541 28.560000000000002 11.354553666522596 28.6 11.458646115002376 28.64 11.555636826008703 28.68 11.644682250827044 28.72 11.725027635344407 28.76 11.796007020049322 28.8 11.857043240031839 28.84 11.907647924983547 28.88 11.94742149919757 28.92 11.976053181568556 28.96 11.993320985592671 29 11.999091719367634"></path>
    <g id="GPoint_0" transform="translate(0,12)" visibility="show"><circle id="Point_0" draggable="true" fill="blue" stroke-width="0.0375" stroke="white" cx="0" cy="0" r="0.15" opacity="1"></circle></g><g id="GPoint_1" transform="translate(1,9.175652503967285)" visibility="show"><circle id="Point_1" draggable="true" fill="blue" stroke-width="0.0375" stroke="white" cx="0" cy="0" r="0.15" opacity="1"></circle></g><g id="GPoint_2" transform="translate(2,8.822608947753906)" visibility="show"><circle id="Point_2" draggable="true" fill="blue" stroke-width="0.0375" stroke="white" cx="0" cy="0" r="0.15" opacity="1"></circle></g><g id="GPoint_3" transform="translate(3,8.066086769104004)" visibility="show"><circle id="Point_3" draggable="true" fill="blue" stroke-width="0.0375" stroke="white" cx="0" cy="0" r="0.15" opacity="1"></circle></g><g id="GPoint_4" transform="translate(4,7.813912868499756)" visibility="show"><circle id="Point_4" draggable="true" fill="blue" stroke-width="0.0375" stroke="white" cx="0" cy="0" r="0.15" opacity="1"></circle></g><g id="GPoint_5" transform="translate(5,8.31826114654541)" visibility="show"><circle id="Point_5" draggable="true" fill="blue" stroke-width="0.0375" stroke="white" cx="0" cy="0" r="0.15" opacity="1"></circle></g><g id="GPoint_6" transform="translate(6,9.47826099395752)" visibility="show"><circle id="Point_6" draggable="true" fill="blue" stroke-width="0.0375" stroke="white" cx="0" cy="0" r="0.15" opacity="1"></circle></g><g id="GPoint_7" transform="translate(7,9.982608795166016)" visibility="show"><circle id="Point_7" draggable="true" fill="blue" stroke-width="0.0375" stroke="white" cx="0" cy="0" r="0.15" opacity="1"></circle></g><g id="GPoint_8" transform="translate(8,9.37417984008789)" visibility="show"><circle id="Point_8" draggable="true" fill="blue" stroke-width="0.0375" stroke="white" cx="0" cy="0" r="0.15" opacity="1"></circle></g><g id="GPoint_9" transform="translate(9,8.192560195922852)" visibility="show"><circle id="Point_9" draggable="true" fill="blue" stroke-width="0.0375" stroke="white" cx="0" cy="0" r="0.15" opacity="1"></circle></g><g id="GPoint_10" transform="translate(10,9.006564140319824)" visibility="show"><circle id="Point_10" draggable="true" fill="blue" stroke-width="0.0375" stroke="white" cx="0" cy="0" r="0.15" opacity="1"></circle></g><g id="GPoint_11" transform="translate(11,7.851203441619873)" visibility="show"><circle id="Point_11" draggable="true" fill="blue" stroke-width="0.0375" stroke="white" cx="0" cy="0" r="0.15" opacity="1"></circle></g><g id="GPoint_12" transform="translate(12,8.665207862854004)" visibility="show"><circle id="Point_12" draggable="true" fill="blue" stroke-width="0.0375" stroke="white" cx="0" cy="0" r="0.15" opacity="1"></circle></g><g id="GPoint_13" transform="translate(13,10.004376411437988)" visibility="show"><circle id="Point_13" draggable="true" fill="blue" stroke-width="0.0375" stroke="white" cx="0" cy="0" r="0.15" opacity="1"></circle></g><g id="GPoint_14" transform="translate(14,8.691466331481934)" visibility="show"><circle id="Point_14" draggable="true" fill="blue" stroke-width="0.0375" stroke="white" cx="0" cy="0" r="0.15" opacity="1"></circle></g><g id="GPoint_15" transform="translate(15,7.877461910247803)" visibility="show"><circle id="Point_15" draggable="true" fill="blue" stroke-width="0.0375" stroke="white" cx="0" cy="0" r="0.15" opacity="1"></circle></g><g id="GPoint_16" transform="translate(16,9.347921371459961)" visibility="show"><circle id="Point_16" draggable="true" fill="blue" stroke-width="0.0375" stroke="white" cx="0" cy="0" r="0.15" opacity="1"></circle></g><g id="GPoint_17" transform="translate(17,8.533916473388672)" visibility="show"><circle id="Point_17" draggable="true" fill="blue" stroke-width="0.0375" stroke="white" cx="0" cy="0" r="0.15" opacity="1"></circle></g><g id="GPoint_18" transform="translate(18,7.929977893829346)" visibility="show"><circle id="Point_18" draggable="true" fill="blue" stroke-width="0.0375" stroke="white" cx="0" cy="0" r="0.15" opacity="1"></circle></g><g id="GPoint_19" transform="translate(19,6.984682559967041)" visibility="show"><circle id="Point_19" draggable="true" fill="blue" stroke-width="0.0375" stroke="white" cx="0" cy="0" r="0.15" opacity="1"></circle></g><g id="GPoint_20" transform="translate(20,7.460869789123535)" visibility="show"><circle id="Point_20" draggable="true" fill="blue" stroke-width="0.0375" stroke="white" cx="0" cy="0" r="0.15" opacity="1"></circle></g><g id="GPoint_21" transform="translate(21,8.116521835327148)" visibility="show"><circle id="Point_21" draggable="true" fill="blue" stroke-width="0.0375" stroke="white" cx="0" cy="0" r="0.15" opacity="1"></circle></g><g id="GPoint_22" transform="translate(22,9.12521743774414)" visibility="show"><circle id="Point_22" draggable="true" fill="blue" stroke-width="0.0375" stroke="white" cx="0" cy="0" r="0.15" opacity="1"></circle></g><g id="GPoint_23" transform="translate(23,8.671304702758789)" visibility="show"><circle id="Point_23" draggable="true" fill="blue" stroke-width="0.0375" stroke="white" cx="0" cy="0" r="0.15" opacity="1"></circle></g><g id="GPoint_24" transform="translate(24,8.066086769104004)" visibility="show"><circle id="Point_24" draggable="true" fill="blue" stroke-width="0.0375" stroke="white" cx="0" cy="0" r="0.15" opacity="1"></circle></g><g id="GPoint_25" transform="translate(25,7.5113043785095215)" visibility="show"><circle id="Point_25" draggable="true" fill="blue" stroke-width="0.0375" stroke="white" cx="0" cy="0" r="0.15" opacity="1"></circle></g><g id="GPoint_26" transform="translate(26,7.30956506729126)" visibility="show"><circle id="Point_26" draggable="true" fill="blue" stroke-width="0.0375" stroke="white" cx="0" cy="0" r="0.15" opacity="1"></circle></g><g id="GPoint_27" transform="translate(27,8.217391014099121)" visibility="show"><circle id="Point_27" draggable="true" fill="blue" stroke-width="0.0375" stroke="white" cx="0" cy="0" r="0.15" opacity="1"></circle></g><g id="GPoint_28" transform="translate(28,9.680000305175781)" visibility="show"><circle id="Point_28" draggable="true" fill="blue" stroke-width="0.0375" stroke="white" cx="0" cy="0" r="0.15" opacity="1"></circle></g><g id="GPoint_29" transform="translate(29,12)" visibility="show"><circle id="Point_29" draggable="true" fill="blue" stroke-width="0.0375" stroke="white" cx="0" cy="0" r="0.15" opacity="1"></circle></g></svg>