<svg id="svg" viewBox="0 6 28 9" style="width: calc(100% - 494px);" xmlns="http://www.w3.org/2000/svg" transform="translate(-10 0)scale(1.5 1.5)">
      <defs>
        <radialGradient id="g1" cx="50%" cy="50%" r="50%" fx="35%" fy="35%">
          <stop stop-color="#a7e0a7" offset="0%"></stop>
          <stop stop-color="#6cc36c" offset="30%"></stop>
          <stop stop-color="#1c711c" offset="90%"></stop>
          <stop stop-color="#014c04" offset="100%"></stop>
        </radialGradient>
        <radialGradient id="g2" cx="50%" cy="50%" r="50%" fx="35%" fy="35%">
          <stop stop-color="#5bb7ff" offset="0%"></stop>
          <stop stop-color="#008eff" offset="30%"></stop>
          <stop stop-color="blue" offset="90%"></stop>
          <stop stop-color="#014c04" offset="100%"></stop>
        </radialGradient>
      </defs>
      <g id="Background">
      <g id="Grid_0"><line x1="0" x2="0" y1="0" y2="24" stroke-width="0.01" stroke="gray" stroke-dasharray="0.1 0.05"></line><line x1="1" x2="1" y1="0" y2="24" stroke-width="0.01" stroke="gray" stroke-dasharray="0.1 0.05"></line><line x1="2" x2="2" y1="0" y2="24" stroke-width="0.01" stroke="gray" stroke-dasharray="0.1 0.05"></line><line x1="3" x2="3" y1="0" y2="24" stroke-width="0.01" stroke="gray" stroke-dasharray="0.1 0.05"></line><line x1="4" x2="4" y1="0" y2="24" stroke-width="0.01" stroke="gray" stroke-dasharray="0.1 0.05"></line><line x1="5" x2="5" y1="0" y2="24" stroke-width="0.01" stroke="gray" stroke-dasharray="0.1 0.05"></line><line x1="6" x2="6" y1="0" y2="24" stroke-width="0.01" stroke="gray" stroke-dasharray="0.1 0.05"></line><line x1="7" x2="7" y1="0" y2="24" stroke-width="0.01" stroke="gray" stroke-dasharray="0.1 0.05"></line><line x1="8" x2="8" y1="0" y2="24" stroke-width="0.01" stroke="gray" stroke-dasharray="0.1 0.05"></line><line x1="9" x2="9" y1="0" y2="24" stroke-width="0.01" stroke="gray" stroke-dasharray="0.1 0.05"></line><line x1="10" x2="10" y1="0" y2="24" stroke-width="0.01" stroke="gray" stroke-dasharray="0.1 0.05"></line><line x1="11" x2="11" y1="0" y2="24" stroke-width="0.01" stroke="gray" stroke-dasharray="0.1 0.05"></line><line x1="12" x2="12" y1="0" y2="24" stroke-width="0.01" stroke="gray" stroke-dasharray="0.1 0.05"></line><line x1="13" x2="13" y1="0" y2="24" stroke-width="0.01" stroke="gray" stroke-dasharray="0.1 0.05"></line><line x1="14" x2="14" y1="0" y2="24" stroke-width="0.01" stroke="gray" stroke-dasharray="0.1 0.05"></line><line x1="15" x2="15" y1="0" y2="24" stroke-width="0.01" stroke="gray" stroke-dasharray="0.1 0.05"></line><line x1="16" x2="16" y1="0" y2="24" stroke-width="0.01" stroke="gray" stroke-dasharray="0.1 0.05"></line><line x1="17" x2="17" y1="0" y2="24" stroke-width="0.01" stroke="gray" stroke-dasharray="0.1 0.05"></line><line x1="18" x2="18" y1="0" y2="24" stroke-width="0.01" stroke="gray" stroke-dasharray="0.1 0.05"></line><line x1="19" x2="19" y1="0" y2="24" stroke-width="0.01" stroke="gray" stroke-dasharray="0.1 0.05"></line><line x1="20" x2="20" y1="0" y2="24" stroke-width="0.01" stroke="gray" stroke-dasharray="0.1 0.05"></line><line x1="21" x2="21" y1="0" y2="24" stroke-width="0.01" stroke="gray" stroke-dasharray="0.1 0.05"></line><line x1="22" x2="22" y1="0" y2="24" stroke-width="0.01" stroke="gray" stroke-dasharray="0.1 0.05"></line><line x1="23" x2="23" y1="0" y2="24" stroke-width="0.01" stroke="gray" stroke-dasharray="0.1 0.05"></line><line x1="24" x2="24" y1="0" y2="24" stroke-width="0.01" stroke="gray" stroke-dasharray="0.1 0.05"></line><line x1="25" x2="25" y1="0" y2="24" stroke-width="0.01" stroke="gray" stroke-dasharray="0.1 0.05"></line><line x1="26" x2="26" y1="0" y2="24" stroke-width="0.01" stroke="gray" stroke-dasharray="0.1 0.05"></line><line x1="27" x2="27" y1="0" y2="24" stroke-width="0.01" stroke="gray" stroke-dasharray="0.1 0.05"></line><line x1="28" x2="28" y1="0" y2="24" stroke-width="0.01" stroke="gray" stroke-dasharray="0.1 0.05"></line><line x1="29" x2="29" y1="0" y2="24" stroke-width="0.01" stroke="gray" stroke-dasharray="0.1 0.05"></line><line x1="0" x2="30" y1="0" y2="0" stroke-width="0.01" stroke="gray" stroke-dasharray="0.1 0.05"></line><line x1="0" x2="30" y1="1" y2="1" stroke-width="0.01" stroke="gray" stroke-dasharray="0.1 0.05"></line><line x1="0" x2="30" y1="2" y2="2" stroke-width="0.01" stroke="gray" stroke-dasharray="0.1 0.05"></line><line x1="0" x2="30" y1="3" y2="3" stroke-width="0.01" stroke="gray" stroke-dasharray="0.1 0.05"></line><line x1="0" x2="30" y1="4" y2="4" stroke-width="0.01" stroke="gray" stroke-dasharray="0.1 0.05"></line><line x1="0" x2="30" y1="5" y2="5" stroke-width="0.01" stroke="gray" stroke-dasharray="0.1 0.05"></line><line x1="0" x2="30" y1="6" y2="6" stroke-width="0.01" stroke="gray" stroke-dasharray="0.1 0.05"></line><line x1="0" x2="30" y1="7" y2="7" stroke-width="0.01" stroke="gray" stroke-dasharray="0.1 0.05"></line><line x1="0" x2="30" y1="8" y2="8" stroke-width="0.01" stroke="gray" stroke-dasharray="0.1 0.05"></line><line x1="0" x2="30" y1="9" y2="9" stroke-width="0.01" stroke="gray" stroke-dasharray="0.1 0.05"></line><line x1="0" x2="30" y1="10" y2="10" stroke-width="0.01" stroke="gray" stroke-dasharray="0.1 0.05"></line><line x1="0" x2="30" y1="11" y2="11" stroke-width="0.01" stroke="gray" stroke-dasharray="0.1 0.05"></line><line x1="0" x2="30" y1="12" y2="12" stroke-width="0.01" stroke="gray" stroke-dasharray="0.1 0.05"></line><line x1="0" x2="30" y1="13" y2="13" stroke-width="0.01" stroke="gray" stroke-dasharray="0.1 0.05"></line><line x1="0" x2="30" y1="14" y2="14" stroke-width="0.01" stroke="gray" stroke-dasharray="0.1 0.05"></line><line x1="0" x2="30" y1="15" y2="15" stroke-width="0.01" stroke="gray" stroke-dasharray="0.1 0.05"></line><line x1="0" x2="30" y1="16" y2="16" stroke-width="0.01" stroke="gray" stroke-dasharray="0.1 0.05"></line><line x1="0" x2="30" y1="17" y2="17" stroke-width="0.01" stroke="gray" stroke-dasharray="0.1 0.05"></line><line x1="0" x2="30" y1="18" y2="18" stroke-width="0.01" stroke="gray" stroke-dasharray="0.1 0.05"></line><line x1="0" x2="30" y1="19" y2="19" stroke-width="0.01" stroke="gray" stroke-dasharray="0.1 0.05"></line><line x1="0" x2="30" y1="20" y2="20" stroke-width="0.01" stroke="gray" stroke-dasharray="0.1 0.05"></line><line x1="0" x2="30" y1="21" y2="21" stroke-width="0.01" stroke="gray" stroke-dasharray="0.1 0.05"></line><line x1="0" x2="30" y1="22" y2="22" stroke-width="0.01" stroke="gray" stroke-dasharray="0.1 0.05"></line><line x1="0" x2="30" y1="23" y2="23" stroke-width="0.01" stroke="gray" stroke-dasharray="0.1 0.05"></line></g></g>
      <g id="Curve">
      </g>
      
      <path id="splinefit" style="fill: none;stroke: green;stroke-width: 0.05px;" p="" d="M 0 12 0.04 11.88702610015869 0.08 11.774052200317383 0.12 11.661078300476074 0.16 11.548104400634767 0.2 11.435130500793457 0.24 11.32215660095215 0.28 11.20918270111084 0.32 11.096208801269531 0.36 10.983234901428222 0.4 10.870261001586913 0.44 10.757287101745606 0.48 10.644313201904296 0.52 10.531339302062989 0.56 10.41836540222168 0.6 10.30539150238037 0.64 10.192417602539063 0.68 10.079443702697754 0.72 9.966469802856444 0.76 9.853495903015137 0.8 9.740522003173828 0.84 9.62754810333252 0.88 9.514574203491211 0.92 9.401600303649902 0.96 9.288626403808594 1 9.175652503967285 1.04 9.161530761718751 1.08 9.147409019470214 1.12 9.13328727722168 1.16 9.119165534973146 1.2 9.10504379272461 1.24 9.090922050476074 1.28 9.07680030822754 1.32 9.062678565979004 1.36 9.048556823730468 1.4000000000000001 9.034435081481934 1.44 9.020313339233399 1.48 9.006191596984863 1.52 8.992069854736329 1.56 8.977948112487793 1.6 8.963826370239257 1.6400000000000001 8.949704627990723 1.68 8.935582885742187 1.72 8.921461143493651 1.76 8.907339401245117 1.8 8.893217658996582 1.84 8.879095916748048 1.8800000000000001 8.864974174499512 1.92 8.850852432250978 1.96 8.83673069000244 2 8.822608947753906 2.04 8.79234806060791 2.08 8.762087173461914 2.12 8.731826286315918 2.16 8.701565399169922 2.2 8.671304512023925 2.24 8.641043624877929 2.2800000000000002 8.610782737731935 2.32 8.580521850585939 2.36 8.550260963439943 2.4 8.520000076293945 2.44 8.489739189147949 2.48 8.459478302001953 2.52 8.429217414855957 2.56 8.398956527709961 2.6 8.368695640563965 2.64 8.33843475341797 2.68 8.308173866271972 2.72 8.277912979125976 2.7600000000000002 8.24765209197998 2.8000000000000003 8.217391204833984 2.84 8.18713031768799 2.88 8.156869430541992 2.92 8.126608543395996 2.96 8.09634765625 3 8.066086769104004 3.04 8.055999813079834 3.08 8.045912857055665 3.12 8.035825901031494 3.16 8.025738945007324 3.2 8.015651988983153 3.24 8.005565032958984 3.2800000000000002 7.995478076934814 3.3200000000000003 7.985391120910645 3.36 7.975304164886475 3.4 7.965217208862304 3.44 7.955130252838135 3.48 7.9450432968139655 3.52 7.934956340789794 3.56 7.924869384765625 3.6 7.9147824287414545 3.64 7.904695472717285 3.68 7.894608516693115 3.72 7.884521560668945 3.7600000000000002 7.874434604644776 3.8000000000000003 7.864347648620605 3.84 7.854260692596435 3.88 7.844173736572265 3.92 7.834086780548096 3.96 7.823999824523925 4 7.813912868499756 4.04 7.8340867996215815 4.08 7.854260730743408 4.12 7.874434661865234 4.16 7.894608592987061 4.2 7.914782524108887 4.24 7.934956455230713 4.28 7.955130386352539 4.32 7.975304317474366 4.36 7.995478248596191 4.4 8.015652179718018 4.44 8.035826110839844 4.48 8.05600004196167 4.5200000000000005 8.076173973083495 4.5600000000000005 8.096347904205322 4.6000000000000005 8.116521835327148 4.64 8.136695766448973 4.68 8.156869697570801 4.72 8.177043628692626 4.76 8.197217559814453 4.8 8.21739149093628 4.84 8.237565422058106 4.88 8.25773935317993 4.92 8.277913284301759 4.96 8.298087215423584 5 8.31826114654541 5.04 8.364661140441894 5.08 8.411061134338379 5.12 8.457461128234863 5.16 8.503861122131347 5.2 8.550261116027832 5.24 8.596661109924316 5.28 8.643061103820802 5.32 8.689461097717286 5.36 8.735861091613769 5.4 8.782261085510253 5.44 8.82866107940674 5.48 8.875061073303224 5.5200000000000005 8.921461067199708 5.5600000000000005 8.967861061096192 5.6000000000000005 9.014261054992676 5.64 9.060661048889159 5.68 9.107061042785645 5.72 9.153461036682128 5.76 9.199861030578614 5.8 9.246261024475098 5.84 9.292661018371582 5.88 9.339061012268067 5.92 9.385461006164551 5.96 9.431861000061035 6 9.47826099395752 6.04 9.49843490600586 6.08 9.518608818054199 6.12 9.53878273010254 6.16 9.558956642150878 6.2 9.579130554199219 6.24 9.599304466247558 6.28 9.619478378295899 6.32 9.63965229034424 6.36 9.659826202392578 6.4 9.680000114440919 6.44 9.700174026489258 6.48 9.720347938537596 6.5200000000000005 9.740521850585939 6.5600000000000005 9.760695762634278 6.6000000000000005 9.780869674682618 6.640000000000001 9.801043586730957 6.68 9.821217498779296 6.72 9.841391410827637 6.76 9.861565322875975 6.8 9.881739234924316 6.84 9.901913146972657 6.88 9.922087059020996 6.92 9.942260971069336 6.96 9.962434883117675 7 9.982608795166016 7.04 9.95827163696289 7.08 9.933934478759767 7.12 9.90959732055664 7.16 9.885260162353514 7.2 9.86092300415039 7.24 9.836585845947265 7.28 9.812248687744141 7.32 9.787911529541015 7.36 9.76357437133789 7.4 9.739237213134766 7.44 9.71490005493164 7.48 9.690562896728515 7.5200000000000005 9.666225738525391 7.5600000000000005 9.641888580322266 7.6000000000000005 9.61755142211914 7.640000000000001 9.593214263916014 7.68 9.568877105712891 7.72 9.544539947509765 7.76 9.52020278930664 7.8 9.495865631103516 7.84 9.47152847290039 7.88 9.447191314697266 7.92 9.42285415649414 7.96 9.398516998291017 8 9.37417984008789 8.040000000000001 9.326915054321288 8.08 9.279650268554686 8.120000000000001 9.232385482788084 8.16 9.185120697021484 8.2 9.137855911254883 8.24 9.090591125488281 8.28 9.04332633972168 8.32 8.996061553955078 8.36 8.948796768188476 8.4 8.901531982421874 8.44 8.854267196655274 8.48 8.807002410888671 8.52 8.75973762512207 8.56 8.712472839355467 8.6 8.665208053588868 8.64 8.617943267822264 8.68 8.570678482055664 8.72 8.523413696289062 8.76 8.476148910522461 8.8 8.428884124755859 8.84 8.381619338989257 8.88 8.334354553222656 8.92 8.287089767456054 8.96 8.239824981689452 9 8.192560195922852 9.040000000000001 8.225120353698731 9.08 8.257680511474609 9.120000000000001 8.290240669250489 9.16 8.322800827026366 9.200000000000001 8.355360984802248 9.24 8.387921142578126 9.28 8.420481300354004 9.32 8.453041458129883 9.36 8.485601615905761 9.4 8.51816177368164 9.44 8.550721931457518 9.48 8.5832820892334 9.52 8.615842247009278 9.56 8.648402404785157 9.6 8.680962562561035 9.64 8.713522720336915 9.68 8.746082878112793 9.72 8.778643035888672 9.76 8.81120319366455 9.8 8.84376335144043 9.84 8.876323509216308 9.88 8.908883666992189 9.92 8.941443824768065 9.96 8.974003982543946 10 9.006564140319824 10.040000000000001 8.960349712371825 10.08 8.914135284423828 10.120000000000001 8.867920856475829 10.16 8.821706428527833 10.200000000000001 8.775492000579833 10.24 8.729277572631835 10.28 8.683063144683839 10.32 8.636848716735841 10.36 8.590634288787843 10.4 8.544419860839843 10.44 8.498205432891847 10.48 8.451991004943848 10.52 8.40577657699585 10.56 8.359562149047852 10.6 8.313347721099854 10.64 8.267133293151854 10.68 8.220918865203858 10.72 8.174704437255858 10.76 8.12849000930786 10.8 8.082275581359863 10.84 8.036061153411865 10.88 7.989846725463866 10.92 7.943632297515869 10.96 7.89741786956787 11 7.851203441619873 11.040000000000001 7.8837636184692395 11.08 7.916323795318603 11.120000000000001 7.94888397216797 11.16 7.981444149017334 11.200000000000001 8.0140043258667 11.24 8.046564502716064 11.28 8.07912467956543 11.32 8.111684856414795 11.36 8.14424503326416 11.4 8.176805210113525 11.44 8.20936538696289 11.48 8.241925563812256 11.52 8.274485740661621 11.56 8.307045917510987 11.6 8.33960609436035 11.64 8.372166271209718 11.68 8.404726448059083 11.72 8.437286624908447 11.76 8.469846801757813 11.8 8.502406978607178 11.84 8.534967155456542 11.88 8.56752733230591 11.92 8.600087509155273 11.96 8.632647686004638 12 8.665207862854004 12.040000000000001 8.718774604797366 12.08 8.772341346740722 12.120000000000001 8.825908088684084 12.16 8.87947483062744 12.200000000000001 8.9330415725708 12.24 8.98660831451416 12.280000000000001 9.040175056457521 12.32 9.09374179840088 12.36 9.147308540344238 12.4 9.200875282287598 12.44 9.254442024230958 12.48 9.308008766174318 12.52 9.361575508117674 12.56 9.415142250061036 12.6 9.468708992004395 12.64 9.522275733947755 12.68 9.575842475891113 12.72 9.629409217834473 12.76 9.682975959777831 12.8 9.736542701721191 12.84 9.79010944366455 12.88 9.843676185607912 12.92 9.89724292755127 12.96 9.95080966949463 13 10.004376411437988 13.040000000000001 9.951860008239745 13.08 9.899343605041505 13.120000000000001 9.846827201843261 13.16 9.79431079864502 13.200000000000001 9.741794395446775 13.24 9.689277992248535 13.280000000000001 9.636761589050291 13.32 9.58424518585205 13.36 9.53172878265381 13.4 9.479212379455566 13.44 9.426695976257324 13.48 9.374179573059081 13.52 9.321663169860841 13.56 9.269146766662598 13.6 9.216630363464356 13.64 9.164113960266112 13.68 9.11159755706787 13.72 9.059081153869627 13.76 9.006564750671387 13.8 8.954048347473144 13.84 8.901531944274902 13.88 8.849015541076659 13.92 8.796499137878417 13.96 8.743982734680175 14 8.691466331481934 14.040000000000001 8.658906154632568 14.08 8.626345977783203 14.120000000000001 8.593785800933837 14.16 8.561225624084473 14.200000000000001 8.528665447235106 14.24 8.496105270385742 14.280000000000001 8.463545093536377 14.32 8.430984916687011 14.36 8.398424739837647 14.4 8.365864562988282 14.44 8.333304386138916 14.48 8.300744209289551 14.52 8.268184032440185 14.56 8.23562385559082 14.6 8.203063678741456 14.64 8.170503501892089 14.68 8.137943325042725 14.72 8.105383148193358 14.76 8.072822971343994 14.8 8.040262794494629 14.84 8.007702617645265 14.88 7.975142440795898 14.92 7.942582263946534 14.96 7.910022087097167 15 7.877461910247803 15.040000000000001 7.93628028869629 15.08 7.9950986671447755 15.120000000000001 8.053917045593263 15.16 8.112735424041748 15.200000000000001 8.171553802490237 15.24 8.230372180938721 15.280000000000001 8.289190559387208 15.32 8.348008937835694 15.36 8.40682731628418 15.4 8.465645694732666 15.44 8.524464073181152 15.48 8.583282451629639 15.52 8.642100830078125 15.56 8.700919208526612 15.6 8.759737586975097 15.64 8.818555965423585 15.68 8.87737434387207 15.72 8.936192722320557 15.76 8.995011100769043 15.8 9.05382947921753 15.84 9.112647857666015 15.88 9.171466236114503 15.92 9.230284614562988 15.96 9.289102993011477 16 9.347921371459961 16.04 9.315361175537111 16.080000000000002 9.282800979614258 16.12 9.250240783691405 16.16 9.217680587768553 16.2 9.185120391845704 16.240000000000002 9.15256019592285 16.28 9.12 16.32 9.087439804077148 16.36 9.054879608154298 16.4 9.022319412231447 16.44 8.989759216308592 16.48 8.95719902038574 16.52 8.924638824462892 16.56 8.892078628540041 16.6 8.859518432617186 16.64 8.826958236694335 16.68 8.794398040771483 16.72 8.761837844848634 16.76 8.72927764892578 16.8 8.696717453002929 16.84 8.664157257080078 16.88 8.631597061157228 16.92 8.599036865234373 16.96 8.566476669311522 17 8.533916473388672 17.04 8.5097589302063 17.080000000000002 8.485601387023925 17.12 8.461443843841552 17.16 8.43728630065918 17.2 8.413128757476807 17.240000000000002 8.388971214294433 17.28 8.36481367111206 17.32 8.340656127929687 17.36 8.316498584747315 17.400000000000002 8.29234104156494 17.44 8.268183498382568 17.48 8.244025955200195 17.52 8.219868412017822 17.56 8.19571086883545 17.6 8.171553325653075 17.64 8.147395782470703 17.68 8.12323823928833 17.72 8.099080696105958 17.76 8.074923152923583 17.8 8.05076560974121 17.84 8.026608066558838 17.88 8.002450523376465 17.92 7.978292980194091 17.96 7.954135437011717 18 7.929977893829346 18.04 7.892166080474854 18.080000000000002 7.8543542671203594 18.12 7.8165424537658685 18.16 7.778730640411377 18.2 7.740918827056886 18.240000000000002 7.703107013702391 18.28 7.6652952003479 18.32 7.627483386993408 18.36 7.589671573638917 18.400000000000002 7.551859760284422 18.44 7.51404794692993 18.48 7.476236133575439 18.52 7.438424320220948 18.56 7.400612506866456 18.6 7.362800693511961 18.64 7.32498888015747 18.68 7.287177066802979 18.72 7.249365253448487 18.76 7.211553440093993 18.8 7.173741626739501 18.84 7.13592981338501 18.88 7.098118000030518 18.92 7.060306186676024 18.96 7.022494373321532 19 6.984682559967041 19.04 7.0037300491333 19.080000000000002 7.022777538299561 19.12 7.041825027465821 19.16 7.06087251663208 19.2 7.079920005798339 19.240000000000002 7.0989674949646 19.28 7.118014984130859 19.32 7.137062473297119 19.36 7.156109962463378 19.400000000000002 7.175157451629639 19.44 7.194204940795899 19.48 7.213252429962159 19.52 7.232299919128417 19.56 7.251347408294677 19.6 7.270394897460939 19.64 7.289442386627197 19.68 7.308489875793457 19.72 7.327537364959716 19.76 7.346584854125977 19.8 7.365632343292237 19.84 7.384679832458496 19.88 7.403727321624755 19.92 7.422774810791016 19.96 7.441822299957276 20 7.460869789123535 20.04 7.48709587097168 20.080000000000002 7.513321952819826 20.12 7.539548034667969 20.16 7.565774116516113 20.2 7.592000198364257 20.240000000000002 7.618226280212404 20.28 7.644452362060547 20.32 7.670678443908692 20.36 7.696904525756835 20.400000000000002 7.723130607604983 20.44 7.749356689453125 20.48 7.77558277130127 20.52 7.801808853149414 20.56 7.828034934997557 20.6 7.8542610168457045 20.64 7.880487098693848 20.68 7.906713180541992 20.72 7.932939262390136 20.76 7.959165344238283 20.8 7.985391426086426 20.84 8.01161750793457 20.88 8.037843589782714 20.92 8.064069671630861 20.96 8.090295753479005 21 8.116521835327148 21.04 8.156869659423826 21.080000000000002 8.19721748352051 21.12 8.237565307617189 21.16 8.277913131713866 21.2 8.318260955810546 21.240000000000002 8.358608779907229 21.28 8.398956604003907 21.32 8.439304428100586 21.36 8.479652252197265 21.400000000000002 8.520000076293949 21.44 8.560347900390626 21.48 8.600695724487306 21.52 8.641043548583983 21.56 8.681391372680663 21.6 8.721739196777346 21.64 8.762087020874024 21.68 8.802434844970703 21.72 8.842782669067383 21.76 8.883130493164064 21.8 8.923478317260743 21.84 8.963826141357423 21.88 9.0041739654541 21.92 9.044521789550783 21.96 9.084869613647461 22 9.12521743774414 22.04 9.107060928344726 22.080000000000002 9.088904418945312 22.12 9.070747909545897 22.16 9.052591400146484 22.2 9.03443489074707 22.240000000000002 9.016278381347655 22.28 8.998121871948243 22.32 8.979965362548828 22.36 8.961808853149414 22.400000000000002 8.94365234375 22.44 8.925495834350585 22.48 8.907339324951172 22.52 8.889182815551758 22.56 8.871026306152345 22.6 8.85286979675293 22.64 8.834713287353516 22.68 8.816556777954101 22.72 8.798400268554687 22.76 8.780243759155272 22.8 8.762087249755858 22.84 8.743930740356445 22.88 8.725774230957033 22.92 8.707617721557616 22.96 8.689461212158204 23 8.671304702758789 23.04 8.6470959854126 23.080000000000002 8.622887268066405 23.12 8.598678550720214 23.16 8.574469833374023 23.2 8.550261116027832 23.240000000000002 8.526052398681639 23.28 8.501843681335448 23.32 8.477634963989257 23.36 8.453426246643065 23.400000000000002 8.429217529296874 23.44 8.405008811950683 23.48 8.380800094604492 23.52 8.356591377258301 23.56 8.33238265991211 23.6 8.308173942565917 23.64 8.283965225219726 23.68 8.259756507873535 23.72 8.235547790527345 23.76 8.21133907318115 23.8 8.18713035583496 23.84 8.16292163848877 23.88 8.138712921142579 23.92 8.114504203796386 23.96 8.090295486450195 24 8.066086769104004 24.04 8.043895473480225 24.080000000000002 8.021704177856444 24.12 7.999512882232666 24.16 7.977321586608888 24.2 7.955130290985108 24.240000000000002 7.932938995361327 24.28 7.9107476997375485 24.32 7.8885564041137695 24.36 7.86636510848999 24.400000000000002 7.8441738128662095 24.44 7.821982517242431 24.48 7.799791221618653 24.52 7.777599925994873 24.560000000000002 7.755408630371092 24.6 7.733217334747313 24.64 7.711026039123535 24.68 7.688834743499756 24.72 7.666643447875977 24.76 7.644452152252196 24.8 7.622260856628417 24.84 7.60006956100464 24.88 7.57787826538086 24.92 7.555686969757079 24.96 7.533495674133301 25 7.5113043785095215 25.04 7.503234806060791 25.080000000000002 7.4951652336120596 25.12 7.48709566116333 25.16 7.4790260887146 25.2 7.470956516265869 25.240000000000002 7.462886943817138 25.28 7.454817371368407 25.32 7.446747798919677 25.36 7.438678226470948 25.400000000000002 7.430608654022215 25.44 7.422539081573486 25.48 7.414469509124755 25.52 7.406399936676026 25.560000000000002 7.398330364227294 25.6 7.390260791778564 25.64 7.382191219329834 25.68 7.374121646881104 25.72 7.366052074432373 25.76 7.357982501983642 25.8 7.349912929534912 25.84 7.341843357086182 25.88 7.333773784637451 25.92 7.325704212188721 25.96 7.31763463973999 26 7.30956506729126 26.04 7.345878105163574 26.080000000000002 7.38219114303589 26.12 7.4185041809082035 26.16 7.4548172187805175 26.2 7.4911302566528315 26.240000000000002 7.527443294525148 26.28 7.563756332397462 26.32 7.600069370269775 26.36 7.63638240814209 26.400000000000002 7.672695446014406 26.44 7.70900848388672 26.48 7.745321521759033 26.52 7.781634559631347 26.560000000000002 7.8179475975036645 26.6 7.854260635375978 26.64 7.890573673248291 26.68 7.926886711120606 26.72 7.963199748992919 26.76 7.999512786865236 26.8 8.035825824737548 26.84 8.072138862609863 26.88 8.108451900482176 26.92 8.144764938354493 26.96 8.181077976226808 27 8.217391014099121 27.04 8.275895385742187 27.080000000000002 8.334399757385256 27.12 8.392904129028322 27.16 8.451408500671388 27.2 8.509912872314452 27.240000000000002 8.568417243957523 27.28 8.626921615600587 27.32 8.685425987243653 27.36 8.743930358886718 27.400000000000002 8.80243473052979 27.44 8.860939102172853 27.48 8.919443473815917 27.52 8.977947845458983 27.560000000000002 9.036452217102054 27.6 9.09495658874512 27.64 9.153460960388184 27.68 9.21196533203125 27.72 9.270469703674316 27.76 9.328974075317385 27.8 9.38747844696045 27.84 9.445982818603516 27.88 9.504487190246582 27.92 9.562991561889651 27.96 9.621495933532715 28 9.680000305175781 28.04 9.772800292968748 28.080000000000002 9.865600280761724 28.12 9.95840026855469 28.16 10.051200256347657 28.2 10.144000244140624 28.240000000000002 10.236800231933598 28.28 10.329600219726565 28.32 10.422400207519532 28.36 10.515200195312499 28.400000000000002 10.608000183105474 28.44 10.70080017089844 28.48 10.793600158691408 28.52 10.886400146484373 28.560000000000002 10.979200134277349 28.6 11.072000122070316 28.64 11.164800109863283 28.68 11.25760009765625 28.72 11.350400085449216 28.76 11.443200073242192 28.8 11.536000061035157 28.84 11.628800048828126 28.88 11.72160003662109 28.92 11.814400024414066 28.96 11.907200012207033 29 12"></path>
    <g id="GPoint_0" transform="translate(0,12)" visibility="show"><circle id="Point_0" draggable="true" fill="blue" stroke-width="0.0375" stroke="white" cx="0" cy="0" r="0.15" opacity="1"></circle></g><g id="GPoint_1" transform="translate(1,9.175652503967285)" visibility="show"><circle id="Point_1" draggable="true" fill="blue" stroke-width="0.0375" stroke="white" cx="0" cy="0" r="0.15" opacity="1"></circle></g><g id="GPoint_2" transform="translate(2,8.822608947753906)" visibility="show"><circle id="Point_2" draggable="true" fill="blue" stroke-width="0.0375" stroke="white" cx="0" cy="0" r="0.15" opacity="1"></circle></g><g id="GPoint_3" transform="translate(3,8.066086769104004)" visibility="show"><circle id="Point_3" draggable="true" fill="blue" stroke-width="0.0375" stroke="white" cx="0" cy="0" r="0.15" opacity="1"></circle></g><g id="GPoint_4" transform="translate(4,7.813912868499756)" visibility="show"><circle id="Point_4" draggable="true" fill="blue" stroke-width="0.0375" stroke="white" cx="0" cy="0" r="0.15" opacity="1"></circle></g><g id="GPoint_5" transform="translate(5,8.31826114654541)" visibility="show"><circle id="Point_5" draggable="true" fill="blue" stroke-width="0.0375" stroke="white" cx="0" cy="0" r="0.15" opacity="1"></circle></g><g id="GPoint_6" transform="translate(6,9.47826099395752)" visibility="show"><circle id="Point_6" draggable="true" fill="blue" stroke-width="0.0375" stroke="white" cx="0" cy="0" r="0.15" opacity="1"></circle></g><g id="GPoint_7" transform="translate(7,9.982608795166016)" visibility="show"><circle id="Point_7" draggable="true" fill="blue" stroke-width="0.0375" stroke="white" cx="0" cy="0" r="0.15" opacity="1"></circle></g><g id="GPoint_8" transform="translate(8,9.37417984008789)" visibility="show"><circle id="Point_8" draggable="true" fill="blue" stroke-width="0.0375" stroke="white" cx="0" cy="0" r="0.15" opacity="1"></circle></g><g id="GPoint_9" transform="translate(9,8.192560195922852)" visibility="show"><circle id="Point_9" draggable="true" fill="blue" stroke-width="0.0375" stroke="white" cx="0" cy="0" r="0.15" opacity="1"></circle></g><g id="GPoint_10" transform="translate(10,9.006564140319824)" visibility="show"><circle id="Point_10" draggable="true" fill="blue" stroke-width="0.0375" stroke="white" cx="0" cy="0" r="0.15" opacity="1"></circle></g><g id="GPoint_11" transform="translate(11,7.851203441619873)" visibility="show"><circle id="Point_11" draggable="true" fill="blue" stroke-width="0.0375" stroke="white" cx="0" cy="0" r="0.15" opacity="1"></circle></g><g id="GPoint_12" transform="translate(12,8.665207862854004)" visibility="show"><circle id="Point_12" draggable="true" fill="blue" stroke-width="0.0375" stroke="white" cx="0" cy="0" r="0.15" opacity="1"></circle></g><g id="GPoint_13" transform="translate(13,10.004376411437988)" visibility="show"><circle id="Point_13" draggable="true" fill="blue" stroke-width="0.0375" stroke="white" cx="0" cy="0" r="0.15" opacity="1"></circle></g><g id="GPoint_14" transform="translate(14,8.691466331481934)" visibility="show"><circle id="Point_14" draggable="true" fill="blue" stroke-width="0.0375" stroke="white" cx="0" cy="0" r="0.15" opacity="1"></circle></g><g id="GPoint_15" transform="translate(15,7.877461910247803)" visibility="show"><circle id="Point_15" draggable="true" fill="blue" stroke-width="0.0375" stroke="white" cx="0" cy="0" r="0.15" opacity="1"></circle></g><g id="GPoint_16" transform="translate(16,9.347921371459961)" visibility="show"><circle id="Point_16" draggable="true" fill="blue" stroke-width="0.0375" stroke="white" cx="0" cy="0" r="0.15" opacity="1"></circle></g><g id="GPoint_17" transform="translate(17,8.533916473388672)" visibility="show"><circle id="Point_17" draggable="true" fill="blue" stroke-width="0.0375" stroke="white" cx="0" cy="0" r="0.15" opacity="1"></circle></g><g id="GPoint_18" transform="translate(18,7.929977893829346)" visibility="show"><circle id="Point_18" draggable="true" fill="blue" stroke-width="0.0375" stroke="white" cx="0" cy="0" r="0.15" opacity="1"></circle></g><g id="GPoint_19" transform="translate(19,6.984682559967041)" visibility="show"><circle id="Point_19" draggable="true" fill="blue" stroke-width="0.0375" stroke="white" cx="0" cy="0" r="0.15" opacity="1"></circle></g><g id="GPoint_20" transform="translate(20,7.460869789123535)" visibility="show"><circle id="Point_20" draggable="true" fill="blue" stroke-width="0.0375" stroke="white" cx="0" cy="0" r="0.15" opacity="1"></circle></g><g id="GPoint_21" transform="translate(21,8.116521835327148)" visibility="show"><circle id="Point_21" draggable="true" fill="blue" stroke-width="0.0375" stroke="white" cx="0" cy="0" r="0.15" opacity="1"></circle></g><g id="GPoint_22" transform="translate(22,9.12521743774414)" visibility="show"><circle id="Point_22" draggable="true" fill="blue" stroke-width="0.0375" stroke="white" cx="0" cy="0" r="0.15" opacity="1"></circle></g><g id="GPoint_23" transform="translate(23,8.671304702758789)" visibility="show"><circle id="Point_23" draggable="true" fill="blue" stroke-width="0.0375" stroke="white" cx="0" cy="0" r="0.15" opacity="1"></circle></g><g id="GPoint_24" transform="translate(24,8.066086769104004)" visibility="show"><circle id="Point_24" draggable="true" fill="blue" stroke-width="0.0375" stroke="white" cx="0" cy="0" r="0.15" opacity="1"></circle></g><g id="GPoint_25" transform="translate(25,7.5113043785095215)" visibility="show"><circle id="Point_25" draggable="true" fill="blue" stroke-width="0.0375" stroke="white" cx="0" cy="0" r="0.15" opacity="1"></circle></g><g id="GPoint_26" transform="translate(26,7.30956506729126)" visibility="show"><circle id="Point_26" draggable="true" fill="blue" stroke-width="0.0375" stroke="white" cx="0" cy="0" r="0.15" opacity="1"></circle></g><g id="GPoint_27" transform="translate(27,8.217391014099121)" visibility="show"><circle id="Point_27" draggable="true" fill="blue" stroke-width="0.0375" stroke="white" cx="0" cy="0" r="0.15" opacity="1"></circle></g><g id="GPoint_28" transform="translate(28,9.680000305175781)" visibility="show"><circle id="Point_28" draggable="true" fill="blue" stroke-width="0.0375" stroke="white" cx="0" cy="0" r="0.15" opacity="1"></circle></g><g id="GPoint_29" transform="translate(29,12)" visibility="show"><circle id="Point_29" draggable="true" fill="blue" stroke-width="0.0375" stroke="white" cx="0" cy="0" r="0.15" opacity="1"></circle></g></svg>