<svg id="svg" viewBox="0 6 28 9" style="width: calc(100% - 494px);" xmlns="http://www.w3.org/2000/svg" transform="translate(-10 0)scale(1.5 1.5)">
      <defs>
        <radialGradient id="g1" cx="50%" cy="50%" r="50%" fx="35%" fy="35%">
          <stop stop-color="#a7e0a7" offset="0%"></stop>
          <stop stop-color="#6cc36c" offset="30%"></stop>
          <stop stop-color="#1c711c" offset="90%"></stop>
          <stop stop-color="#014c04" offset="100%"></stop>
        </radialGradient>
        <radialGradient id="g2" cx="50%" cy="50%" r="50%" fx="35%" fy="35%">
          <stop stop-color="#5bb7ff" offset="0%"></stop>
          <stop stop-color="#008eff" offset="30%"></stop>
          <stop stop-color="blue" offset="90%"></stop>
          <stop stop-color="#014c04" offset="100%"></stop>
        </radialGradient>
      </defs>
      <g id="Background">
      <g id="Grid_0"><line x1="0" x2="0" y1="0" y2="24" stroke-width="0.01" stroke="gray" stroke-dasharray="0.1 0.05"></line><line x1="1" x2="1" y1="0" y2="24" stroke-width="0.01" stroke="gray" stroke-dasharray="0.1 0.05"></line><line x1="2" x2="2" y1="0" y2="24" stroke-width="0.01" stroke="gray" stroke-dasharray="0.1 0.05"></line><line x1="3" x2="3" y1="0" y2="24" stroke-width="0.01" stroke="gray" stroke-dasharray="0.1 0.05"></line><line x1="4" x2="4" y1="0" y2="24" stroke-width="0.01" stroke="gray" stroke-dasharray="0.1 0.05"></line><line x1="5" x2="5" y1="0" y2="24" stroke-width="0.01" stroke="gray" stroke-dasharray="0.1 0.05"></line><line x1="6" x2="6" y1="0" y2="24" stroke-width="0.01" stroke="gray" stroke-dasharray="0.1 0.05"></line><line x1="7" x2="7" y1="0" y2="24" stroke-width="0.01" stroke="gray" stroke-dasharray="0.1 0.05"></line><line x1="8" x2="8" y1="0" y2="24" stroke-width="0.01" stroke="gray" stroke-dasharray="0.1 0.05"></line><line x1="9" x2="9" y1="0" y2="24" stroke-width="0.01" stroke="gray" stroke-dasharray="0.1 0.05"></line><line x1="10" x2="10" y1="0" y2="24" stroke-width="0.01" stroke="gray" stroke-dasharray="0.1 0.05"></line><line x1="11" x2="11" y1="0" y2="24" stroke-width="0.01" stroke="gray" stroke-dasharray="0.1 0.05"></line><line x1="12" x2="12" y1="0" y2="24" stroke-width="0.01" stroke="gray" stroke-dasharray="0.1 0.05"></line><line x1="13" x2="13" y1="0" y2="24" stroke-width="0.01" stroke="gray" stroke-dasharray="0.1 0.05"></line><line x1="14" x2="14" y1="0" y2="24" stroke-width="0.01" stroke="gray" stroke-dasharray="0.1 0.05"></line><line x1="15" x2="15" y1="0" y2="24" stroke-width="0.01" stroke="gray" stroke-dasharray="0.1 0.05"></line><line x1="16" x2="16" y1="0" y2="24" stroke-width="0.01" stroke="gray" stroke-dasharray="0.1 0.05"></line><line x1="17" x2="17" y1="0" y2="24" stroke-width="0.01" stroke="gray" stroke-dasharray="0.1 0.05"></line><line x1="18" x2="18" y1="0" y2="24" stroke-width="0.01" stroke="gray" stroke-dasharray="0.1 0.05"></line><line x1="19" x2="19" y1="0" y2="24" stroke-width="0.01" stroke="gray" stroke-dasharray="0.1 0.05"></line><line x1="20" x2="20" y1="0" y2="24" stroke-width="0.01" stroke="gray" stroke-dasharray="0.1 0.05"></line><line x1="21" x2="21" y1="0" y2="24" stroke-width="0.01" stroke="gray" stroke-dasharray="0.1 0.05"></line><line x1="22" x2="22" y1="0" y2="24" stroke-width="0.01" stroke="gray" stroke-dasharray="0.1 0.05"></line><line x1="23" x2="23" y1="0" y2="24" stroke-width="0.01" stroke="gray" stroke-dasharray="0.1 0.05"></line><line x1="24" x2="24" y1="0" y2="24" stroke-width="0.01" stroke="gray" stroke-dasharray="0.1 0.05"></line><line x1="25" x2="25" y1="0" y2="24" stroke-width="0.01" stroke="gray" stroke-dasharray="0.1 0.05"></line><line x1="26" x2="26" y1="0" y2="24" stroke-width="0.01" stroke="gray" stroke-dasharray="0.1 0.05"></line><line x1="27" x2="27" y1="0" y2="24" stroke-width="0.01" stroke="gray" stroke-dasharray="0.1 0.05"></line><line x1="28" x2="28" y1="0" y2="24" stroke-width="0.01" stroke="gray" stroke-dasharray="0.1 0.05"></line><line x1="29" x2="29" y1="0" y2="24" stroke-width="0.01" stroke="gray" stroke-dasharray="0.1 0.05"></line><line x1="0" x2="30" y1="0" y2="0" stroke-width="0.01" stroke="gray" stroke-dasharray="0.1 0.05"></line><line x1="0" x2="30" y1="1" y2="1" stroke-width="0.01" stroke="gray" stroke-dasharray="0.1 0.05"></line><line x1="0" x2="30" y1="2" y2="2" stroke-width="0.01" stroke="gray" stroke-dasharray="0.1 0.05"></line><line x1="0" x2="30" y1="3" y2="3" stroke-width="0.01" stroke="gray" stroke-dasharray="0.1 0.05"></line><line x1="0" x2="30" y1="4" y2="4" stroke-width="0.01" stroke="gray" stroke-dasharray="0.1 0.05"></line><line x1="0" x2="30" y1="5" y2="5" stroke-width="0.01" stroke="gray" stroke-dasharray="0.1 0.05"></line><line x1="0" x2="30" y1="6" y2="6" stroke-width="0.01" stroke="gray" stroke-dasharray="0.1 0.05"></line><line x1="0" x2="30" y1="7" y2="7" stroke-width="0.01" stroke="gray" stroke-dasharray="0.1 0.05"></line><line x1="0" x2="30" y1="8" y2="8" stroke-width="0.01" stroke="gray" stroke-dasharray="0.1 0.05"></line><line x1="0" x2="30" y1="9" y2="9" stroke-width="0.01" stroke="gray" stroke-dasharray="0.1 0.05"></line><line x1="0" x2="30" y1="10" y2="10" stroke-width="0.01" stroke="gray" stroke-dasharray="0.1 0.05"></line><line x1="0" x2="30" y1="11" y2="11" stroke-width="0.01" stroke="gray" stroke-dasharray="0.1 0.05"></line><line x1="0" x2="30" y1="12" y2="12" stroke-width="0.01" stroke="gray" stroke-dasharray="0.1 0.05"></line><line x1="0" x2="30" y1="13" y2="13" stroke-width="0.01" stroke="gray" stroke-dasharray="0.1 0.05"></line><line x1="0" x2="30" y1="14" y2="14" stroke-width="0.01" stroke="gray" stroke-dasharray="0.1 0.05"></line><line x1="0" x2="30" y1="15" y2="15" stroke-width="0.01" stroke="gray" stroke-dasharray="0.1 0.05"></line><line x1="0" x2="30" y1="16" y2="16" stroke-width="0.01" stroke="gray" stroke-dasharray="0.1 0.05"></line><line x1="0" x2="30" y1="17" y2="17" stroke-width="0.01" stroke="gray" stroke-dasharray="0.1 0.05"></line><line x1="0" x2="30" y1="18" y2="18" stroke-width="0.01" stroke="gray" stroke-dasharray="0.1 0.05"></line><line x1="0" x2="30" y1="19" y2="19" stroke-width="0.01" stroke="gray" stroke-dasharray="0.1 0.05"></line><line x1="0" x2="30" y1="20" y2="20" stroke-width="0.01" stroke="gray" stroke-dasharray="0.1 0.05"></line><line x1="0" x2="30" y1="21" y2="21" stroke-width="0.01" stroke="gray" stroke-dasharray="0.1 0.05"></line><line x1="0" x2="30" y1="22" y2="22" stroke-width="0.01" stroke="gray" stroke-dasharray="0.1 0.05"></line><line x1="0" x2="30" y1="23" y2="23" stroke-width="0.01" stroke="gray" stroke-dasharray="0.1 0.05"></line></g></g>
      <g id="Curve">
      </g>
      
      <path id="splinefit" style="fill: none;stroke: green;stroke-width: 0.05px;" p="" d="M 0 11.999997178819639 0.04 11.992286454577906 0.08 11.969232986744945 0.12 11.931072027580624 0.16 11.878192789462036 0.2 11.81113413279944 0.24 11.73057852911857 0.28 11.637344299309348 0.32 11.532376127040965 0.36 11.416733847343343 0.4 11.291579510354955 0.44 11.158162720237055 0.48 11.01780424925428 0.52 10.871877927091782 0.56 10.721790856091626 0.6 10.56896269250059 0.64 10.414805646740438 0.68 10.260705942792924 0.72 10.108006787382092 0.76 9.957992849024155 0.8 9.811876246944873 0.84 9.670784049864492 0.88 9.535747284650183 0.92 9.407691454836032 0.96 9.287428569010583 1 9.175650679071861 1.04 9.072924928349986 1.08 8.979690109597271 1.12 8.89625473284589 1.16 8.82279660313305 1.2 8.75936390809371 1.24 8.705877815420845 1.28 8.662136580193204 1.32 8.62782116207065 1.36 8.602502352356979 1.4000000000000001 8.585649410930325 1.44 8.576640213041067 1.48 8.574772905977257 1.52 8.579279075542269 1.56 8.58933838238207 1.6 8.604094084609617 1.6400000000000001 8.622668143350099 1.68 8.644175327654589 1.72 8.667736278819428 1.76 8.692489534056111 1.8 8.717602509511616 1.84 8.7422814426392 1.8800000000000001 8.765780293919638 1.92 8.787408607932939 1.96 8.806538333780487 2 8.822609604857709 2.04 8.83513547797709 2.08 8.84370563184177 2.12 8.847989024869495 2.16 8.847735512367096 2.2 8.842776423055392 2.24 8.833024094944555 2.2800000000000002 8.818470370559934 2.32 8.799184051518354 2.36 8.775307312454846 2.4 8.747051074299836 2.44 8.714689336906828 2.48 8.678552471030505 2.52 8.639019469691199 2.56 8.596509184843583 2.6 8.551470927815068 2.64 8.504375278823991 2.68 8.455705484043161 2.72 8.405949466126534 2.7600000000000002 8.355592448234955 2.8000000000000003 8.30511019156099 2.84 8.254962846352806 2.88 8.205589416437103 2.92 8.157402837241158 2.96 8.110785667313877 3 8.066086393345955 3.04 8.02361634868909 3.08 7.983647245374242 3.12 7.946409319628994 3.16 7.91209009089395 3.2 7.880833734338212 3.24 7.8527410668739215 3.2800000000000002 7.827870146669853 3.3200000000000003 7.806237486164102 3.36 7.787819878575809 3.4 7.7725568379159595 3.44 7.760353652497259 3.48 7.751085051943065 3.52 7.74459948767411 3.56 7.740724011515443 3.6 7.739269528164601 3.64 7.7400359206340825 3.68 7.742816824409168 3.72 7.747404034963481 3.7600000000000002 7.753591548611028 3.8000000000000003 7.761179236694715 3.84 7.769976153111351 3.88 7.779803475173109 3.92 7.790497077805483 3.96 7.801909741081714 4 7.813912991093708 4.04 7.826398574159396 4.08 7.839279564366616 4.12 7.852491104453439 4.16 7.865990780024993 4.2 7.8797586271067575 4.24 7.893796773034322 4.28 7.908128710679652 4.32 7.922798206013805 4.36 7.937867839006142 4.4 7.953417177859999 4.44 7.969540586584854 4.48 7.986344665904966 4.5200000000000005 8.003945327518373 4.5600000000000005 8.022464511732894 4.6000000000000005 8.042026694893028 4.64 8.062755513616107 4.68 8.084770652251546 4.72 8.108185003589908 4.76 8.133102102835583 4.8 8.15961383484317 4.84 8.187798414617468 4.88 8.217718641077177 4.92 8.249420424082201 4.96 8.282931584724663 5 8.318260928883536 5.04 8.355397594042952 5.08 8.39431066937417 5.12 8.434949089081181 5.16 8.477241799010002 5.2 8.521098196521612 5.24 8.566408843628523 5.28 8.61304645339506 5.32 8.660867149601255 5.36 8.709711999670409 5.4 8.75940882086033 5.44 8.809774259718202 5.48 8.860616144799126 5.5200000000000005 8.911736112636857 5.5600000000000005 8.962932498683875 5.6000000000000005 9.014003372270828 5.64 9.064749445441143 5.68 9.114976734710826 5.72 9.164498967470578 5.76 9.213139733018815 5.8 9.260734378225532 5.84 9.307131647827074 5.88 9.352195069351756 5.92 9.395804082676353 5.96 9.437854914213487 6 9.478261195729864 6.04 9.516954327795407 6.08 9.553883587863236 6.12 9.589015982980532 6.16 9.622335847130298 6.2 9.653844183203951 6.24 9.68355774960482 6.28 9.711507891482503 6.32 9.737739116598108 6.36 9.762307415820343 6.4 9.785278328252526 6.44 9.806724750990398 6.48 9.82672449351089 6.5200000000000005 9.845357576704258 6.5600000000000005 9.862703285616078 6.6000000000000005 9.878837108291119 6.640000000000001 9.893827856419342 6.68 9.907735100176112 6.72 9.920606926322987 6.76 9.932478019581662 6.8 9.943368067281055 6.84 9.953280487277562 6.88 9.962201479148423 6.92 9.97009939865827 6.96 9.976924455498818 7 9.982608734301689 7.04 9.987066538924406 7.08 9.990195060009507 7.12 9.99187536581684 7.16 9.991973716328987 7.2 9.990343200629841 7.24 9.986825697556336 7.28 9.981254159623312 7.32 9.97345522022155 7.36 9.963252124088934 7.4 9.95046798105478 7.44 9.934929343057295 7.48 9.916470104434207 7.5200000000000005 9.89493572546823 7.5600000000000005 9.870187765978619 7.6000000000000005 9.842108536077976 7.640000000000001 9.810605433290945 7.68 9.775614773154055 7.72 9.737105100087838 7.76 9.695079978522966 7.8 9.64958026428043 7.84 9.600685856205745 7.88 9.548516928057138 7.92 9.4932346406478 7.96 9.435041334242126 8 9.37418020120601 8.040000000000001 9.310934438911126 8.08 9.245625882893256 8.120000000000001 9.178613120264625 8.16 9.110289083380263 8.2 9.041078123758394 8.24 8.971432566254824 8.28 8.901828743491395 8.32 8.832762510538393 8.36 8.764744239851048 8.4 8.698293296460005 8.44 8.633931993415839 8.48 8.572179027487591 8.52 8.513542395142563 8.56 8.45851180848368 8.6 8.407550898467141 8.64 8.361089847141331 8.68 8.319518736229828 8.72 8.283181631734676 8.76 8.252371404587224 8.8 8.227325287346556 8.84 8.208221166945453 8.88 8.195174613483946 8.92 8.188236645070404 8.96 8.187392228710216 9 8.19255951724201 9.040000000000001 8.203589822321455 9.08 8.220268323452613 9.120000000000001 8.242315513066858 9.16 8.26938937764937 9.200000000000001 8.301088314913176 9.24 8.336954787020765 9.28 8.376479709853255 9.32 8.41910757832715 9.36 8.464242327758615 9.4 8.511253931275373 9.44 8.559485733276102 9.48 8.608262518937464 9.52 8.656899319735905 9.56 8.704710931364485 9.6 8.751021799135074 9.64 8.795175500503822 9.68 8.836543479810341 9.72 8.874533011610705 9.76 8.908594392571542 9.8 8.938227361925273 9.84 8.962986750486404 9.88 8.982487358228964 9.92 8.996408060425033 9.96 9.004495142344377 10 9.006564862515184 10.040000000000001 9.002505244545915 10.08 8.992277097508255 10.120000000000001 8.975914264881174 10.16 8.953523102056089 10.200000000000001 8.92528118240312 10.24 8.891435231898502 10.28 8.852298292313023 10.32 8.808246112961635 10.36 8.759712771014152 10.4 8.707185520367021 10.44 8.651198869076262 10.48 8.592327885351436 10.52 8.531180732139237 10.56 8.46839045082036 10.6 8.40460629371918 10.64 8.340485274810435 10.68 8.276684238322465 10.72 8.213852465760633 10.76 8.152624821379538 10.8 8.09361543610388 10.84 8.037411929898093 10.88 7.984570172584646 10.92 7.935609583111094 10.96 7.891008967265808 11 7.8512028938424505 11.040000000000001 7.816578609253141 11.08 7.787473490590348 11.120000000000001 7.764173037137483 11.16 7.746909400328225 11.200000000000001 7.735860452154538 11.24 7.731149392023427 11.28 7.7328448920623645 11.32 7.740961780873492 11.36 7.755462265736478 11.4 7.776257693260118 11.44 7.803210848482649 11.48 7.836138792420761 11.52 7.874816238051775 11.56 7.918979453492611 11.6 7.968330528296727 11.64 8.022541636395806 11.68 8.081259131607277 11.72 8.144107464471452 11.76 8.21069292040257 11.8 8.280607179153892 11.84 8.353430695596696 11.88 8.428735901813344 11.92 8.50609023050423 11.96 8.585058959708798 12 8.665207878840466 12.040000000000001 8.746105776035586 12.08 8.827326746816336 12.120000000000001 8.908452324067637 12.16 8.989073429328004 12.200000000000001 9.068792145394422 12.24 9.147223310241158 12.280000000000001 9.223995932252585 12.32 9.298754426769964 12.36 9.371159673952238 12.4 9.440889897950752 12.44 9.507641367397989 12.48 9.57112891721031 12.52 9.63108629170858 12.56 9.687266311937464 12.6 9.739440909247048 12.64 9.787401119087406 12.68 9.830957077079866 12.72 9.869938020245655 12.76 9.904192293395797 12.8 9.933587360682395 12.84 9.958009822311222 12.88 9.977365436415623 12.92 9.991579146091716 12.96 10.000595111594984 13 10.004376747698133 13.040000000000001 10.002906766210277 13.08 9.996187223657467 13.120000000000001 9.984239574124537 13.16 9.967104727258263 13.200000000000001 9.944843111431846 13.24 9.91753474207074 13.280000000000001 9.885279295139753 13.32 9.848196185791533 13.36 9.806424652176334 13.4 9.760123844413105 13.44 9.70947291872193 13.48 9.654671136717766 13.52 9.59593796986134 13.56 9.533513206051357 13.6 9.467657014319675 13.64 9.398649869268736 13.68 9.32679229121293 13.72 9.252404399007991 13.76 9.175825275564355 13.8 9.097412146044356 13.84 9.017539368743385 13.88 8.936597238654914 13.92 8.854990603719438 13.96 8.773137293757307 14 8.6914663620855 14.040000000000001 8.610416139818229 14.08 8.530432102851545 14.120000000000001 8.45196455153173 14.16 8.37546610300772 14.200000000000001 8.301388996267312 14.24 8.230182209857368 14.280000000000001 8.162288392287856 14.32 8.098140605119832 14.36 8.03815887873732 14.4 7.982746580803071 14.44 7.932286597398267 14.48 7.88713732684608 14.52 7.847628486234558 14.56 7.814056741739569 14.6 7.786681324847605 14.64 7.765719996531338 14.68 7.751345521477692 14.72 7.743682663469213 14.76 7.742805701934151 14.8 7.748736469665237 14.84 7.7614429117071495 14.88 7.780838165412686 14.92 7.806780161667618 14.96 7.839071747284264 15 7.877461328563723 15.040000000000001 7.921644036026854 15.08 7.971263410313897 15.120000000000001 8.025913609252836 15.16 8.085142136096426 15.200000000000001 8.148453088927944 15.24 8.215310931235608 15.280000000000001 8.285144783655713 15.32 8.357353236884448 15.36 8.431309685758437 15.4 8.506368184503941 15.44 8.581869823154758 15.48 8.65714962513887 15.52 8.731543966007383 15.56 8.804398494291743 15.6 8.875076276835363 15.64 8.942965548454554 15.68 9.007486788274857 15.72 9.068099103728766 15.76 9.124305922188418 15.8 9.175659990233298 15.84 9.221767680552945 15.88 9.262292606484666 15.92 9.296958544186214 15.96 9.325551662443532 16 9.34792206011343 16.04 9.3639846112013 16.080000000000002 9.373719117573845 16.12 9.377169769306754 16.16 9.374443912667447 16.2 9.365710125732756 16.240000000000002 9.351195601641669 16.28 9.331182839483013 16.32 9.306005642818189 16.36 9.276044425838881 16.4 9.24172082715977 16.44 9.203491631246244 16.48 9.161841997477135 16.52 9.117277996871666 16.56 9.070318477598546 16.6 9.021486567640638 16.64 8.971301503373539 16.68 8.920271092431479 16.72 8.868884831978514 16.76 8.817607682414131 16.8 8.766874496513406 16.84 8.717085104001557 16.88 8.668600051563061 16.92 8.62173699828518 16.96 8.57676776653603 17 8.533916048277064 17.04 8.493355766810096 17.080000000000002 8.455210093958756 17.12 8.419551122684467 17.16 8.386400195136856 17.2 8.355728886138692 17.240000000000002 8.327460642105256 17.28 8.301473075398247 17.32 8.277600914114105 17.36 8.255639607306867 17.400000000000002 8.235349585645453 17.44 8.2164611775055 17.48 8.198680180495598 17.52 8.181694088391593 17.56 8.165178954376536 17.6 8.14880661164379 17.64 8.132251628339914 17.68 8.115197717904795 17.72 8.097343585706696 17.76 8.078408211945764 17.8 8.05813557082598 17.84 8.03629878599552 17.88 8.012703722255637 17.92 7.987192013537902 17.96 7.959643527149971 18 7.929978264289735 18.04 7.898157696827968 18.080000000000002 7.864185540359368 18.12 7.828107963522112 18.16 7.790013233585788 18.2 7.750030798307822 18.240000000000002 7.708329804058324 18.28 7.665117050213416 18.32 7.620634379816949 18.36 7.575155506510732 18.400000000000002 7.5289822777331405 18.44 7.482440374186257 18.48 7.435874445571349 18.52 7.3896426826157455 18.56 7.344110841883928 18.6 7.299645964211946 18.64 7.256610324683794 18.68 7.215355854988665 18.72 7.17621905465223 18.76 7.1395163911646335 18.8 7.105540189005342 18.84 7.074555007564712 18.88 7.046794507962408 18.92 7.022458808762564 18.96 7.001712330585762 19 6.984682129617769 19.04 6.971456720015098 19.080000000000002 6.96208538520731 19.12 6.956577978096165 19.16 6.954905210151495 19.2 6.9569994294039095 19.240000000000002 6.962755887334275 19.28 6.972034494659978 19.32 6.984662066017982 19.36 7.00043505354467 19.400000000000002 7.019122769352468 19.44 7.040471096903276 19.48 7.0642066912786525 19.52 7.090041668327001 19.56 7.117678768373612 19.6 7.146816785472264 19.64 7.177155795345164 19.68 7.208401972989889 19.72 7.2402719856392475 19.76 7.27249696105424 19.8 7.30482603115012 19.84 7.337029450955553 19.88 7.368901292904884 19.92 7.400261716463484 19.96 7.4309588130862 20 7.46087002650893 20.04 7.489903148373257 20.080000000000002 7.517996889184208 20.12 7.545121024601099 20.16 7.571276117061489 20.2 7.596492812738224 20.240000000000002 7.620830713829585 20.28 7.6443768261825324 20.32 7.667243582249038 20.36 7.6895664393755485 20.400000000000002 7.711501053425505 20.44 7.733220027734992 20.48 7.754909237401469 20.52 7.776763728923072 20.56 7.798983207793202 20.6 7.821767298111062 20.64 7.845310985311287 20.68 7.869800426073285 20.72 7.895409138015047 20.76 7.922294569188904 20.8 7.9505950473791795 20.84 7.980427109201802 20.88 8.01188320900583 20.92 8.045029807576906 20.96 8.07990584064262 21 8.116521567179841 21.04 8.154857797523947 21.080000000000002 8.19486550127998 21.12 8.236465795035741 21.16 8.279550309876814 21.2 8.32398193870351 21.240000000000002 8.369595963349736 21.28 8.416201561503806 21.32 8.463583693431149 21.36 8.511505368498998 21.400000000000002 8.559710291502947 21.44 8.607925888795469 21.48 8.655866714216359 21.52 8.703238234809962 21.56 8.749740985399013 21.6 8.7950749324072 21.64 8.838943690443145 21.68 8.881058432037896 21.72 8.921141479605767 21.76 8.958929579613365 21.8 8.99417685895684 21.84 9.026657463547345 21.88 9.05616787910469 21.92 9.082528934159184 21.96 9.105587485261713 22 9.125217784402015 22.04 9.141322528635145 22.080000000000002 9.15383359191615 22.12 9.16271243914296 22.16 9.167950222407473 22.2 9.169567559454856 22.240000000000002 9.167613994351024 22.28 9.162167140358363 22.32 9.153331505019624 22.36 9.141236997450049 22.400000000000002 9.126037117837658 22.44 9.107906829151812 22.48 9.087040111059911 22.52 9.063647196063433 22.56 9.037951495872345 22.6 9.010186335116005 22.64 8.980591753931616 22.68 8.949411496528345 22.72 8.9168901937462 22.76 8.88327073962071 22.8 8.848791861953524 22.84 8.813685886888738 22.88 8.778176697495178 22.92 8.742477886354433 22.96 8.706791102154803 23 8.671304590291017 23.04 8.636191927469863 23.080000000000002 8.601610950321595 23.12 8.567702878017247 23.16 8.53459162889172 23.2 8.502383331072762 23.240000000000002 8.47116602711576 23.28 8.441009572644408 23.32 8.41196572899716 23.36 8.384068449879587 23.400000000000002 8.357334362022522 23.44 8.33176343984609 23.48 8.30733987412955 23.52 8.28403313468201 23.56 8.261799223425038 23.6 8.240582065478689 23.64 8.220314921195842 23.68 8.200921766736341 23.72 8.182318639592033 23.76 8.164414949057646 23.8 8.147114751647589 23.84 8.13031799145858 23.88 8.113921705478228 23.92 8.097821193839398 23.96 8.081911155020558 24 8.066086785991928 24.04 8.050244847307553 24.080000000000002 8.034284693143237 24.12 8.01810926628037 24.16 8.00162605803562 24.2 7.984748033136527 24.240000000000002 7.9673945195429425 24.28 7.949492063214398 24.32 7.930975247823307 24.36 7.911787479414076 24.400000000000002 7.891881736008082 24.44 7.871221282154546 24.48 7.849780348427262 24.52 7.827544775865154 24.560000000000002 7.8045126238567475 24.6 7.780694719566843 24.64 7.756115099987225 24.68 7.730811324709775 24.72 7.7048346579220075 24.76 7.678250119622996 24.8 7.651136406059718 24.84 7.623585679383727 24.88 7.595703226528284 24.92 7.567606987305807 24.96 7.539426951725774 25 7.511304426532949 25.04 7.4833911709660486 25.080000000000002 7.455848401736754 25.12 7.428845667229159 25.16 7.402559590919542 25.2 7.377172484016587 25.240000000000002 7.352870827321937 25.28 7.329843622311203 25.32 7.3082806114352685 25.36 7.2883703676420755 25.400000000000002 7.270298253118723 25.44 7.25424424725401 25.48 7.240380643821317 25.52 7.228869617391564 25.560000000000002 7.219860665944037 25.6 7.213488031423188 25.64 7.209868325497668 25.68 7.209098462269727 25.72 7.211253904902764 25.76 7.216387226176714 25.8 7.224526982971266 25.84 7.235676904676921 25.88 7.249815395533871 25.92 7.266895350898709 25.96 7.2868442874389645 26 7.309564787255493 26.04 7.334935255932675 26.080000000000002 7.362810994516439 26.12 7.393025585420139 26.16 7.4253925922582535 26.2 7.459707573607904 26.240000000000002 7.49575041069822 26.28 7.533287949027513 26.32 7.572076953908324 26.36 7.611867379940248 26.400000000000002 7.65240595441063 26.44 7.693440074623061 26.48 7.73472201915374 26.52 7.776013473016768 26.560000000000002 7.817090353117911 26.6 7.857747735103299 26.64 7.897804437370437 26.68 7.937107063348074 26.72 7.97553348842435 26.76 8.012995791504396 26.8 8.049442631197358 26.84 8.084861066632879 26.88 8.119277822907025 26.92 8.152760001157633 26.96 8.185415233269099 27 8.217391281206622 27.04 8.248875080979891 27.080000000000002 8.280091231236185 27.12 8.311299926482933 27.16 8.34279433493972 27.2 8.374897421019718 27.240000000000002 8.407958212440567 27.28 8.44234751196468 27.32 8.478453053769025 27.36 8.516674104444304 27.400000000000002 8.557415508623592 27.44 8.601081179240424 27.48 8.648067032416304 27.52 8.69875336700807 27.560000000000002 8.753496710761645 27.6 8.812621453546582 27.64 8.876411983457482 27.68 8.945105646256609 27.72 9.01888655010435 27.76 9.09788021560784 27.8 9.1821490711878 27.84 9.271688793763587 27.88 9.366425494756456 27.92 9.466213751410969 27.96 9.570835483434639 28 9.679999674955793 28.04 9.793342941799617 28.080000000000002 9.910430944082394 28.12 10.030760644123914 28.16 10.153763409678177 28.2 10.278808962482213 28.240000000000002 10.405210172123123 28.28 10.532228695223305 28.32 10.65908145994395 28.36 10.784947995806661 28.400000000000002 10.908978608833303 28.44 11.030303402004023 28.48 11.14804214103356 28.52 11.261314965425765 28.560000000000002 11.369253916016522 28.6 11.47101485859897 28.64 11.565788864646168 28.68 11.652812628725107 28.72 11.73137789381217 28.76 11.800839884470088 28.8 11.860624747886469 28.84 11.910236002773827 28.88 11.949259996131175 28.92 11.977370367867119 28.96 11.994331523284478 29 12.000001113426485"></path>
    <g id="GPoint_0" transform="translate(0,12)" visibility="show"><circle id="Point_0" draggable="true" fill="blue" stroke-width="0.0375" stroke="white" cx="0" cy="0" r="0.15" opacity="1"></circle></g><g id="GPoint_1" transform="translate(1,9.175652503967285)" visibility="show"><circle id="Point_1" draggable="true" fill="blue" stroke-width="0.0375" stroke="white" cx="0" cy="0" r="0.15" opacity="1"></circle></g><g id="GPoint_2" transform="translate(2,8.822608947753906)" visibility="show"><circle id="Point_2" draggable="true" fill="blue" stroke-width="0.0375" stroke="white" cx="0" cy="0" r="0.15" opacity="1"></circle></g><g id="GPoint_3" transform="translate(3,8.066086769104004)" visibility="show"><circle id="Point_3" draggable="true" fill="blue" stroke-width="0.0375" stroke="white" cx="0" cy="0" r="0.15" opacity="1"></circle></g><g id="GPoint_4" transform="translate(4,7.813912868499756)" visibility="show"><circle id="Point_4" draggable="true" fill="blue" stroke-width="0.0375" stroke="white" cx="0" cy="0" r="0.15" opacity="1"></circle></g><g id="GPoint_5" transform="translate(5,8.31826114654541)" visibility="show"><circle id="Point_5" draggable="true" fill="blue" stroke-width="0.0375" stroke="white" cx="0" cy="0" r="0.15" opacity="1"></circle></g><g id="GPoint_6" transform="translate(6,9.47826099395752)" visibility="show"><circle id="Point_6" draggable="true" fill="blue" stroke-width="0.0375" stroke="white" cx="0" cy="0" r="0.15" opacity="1"></circle></g><g id="GPoint_7" transform="translate(7,9.982608795166016)" visibility="show"><circle id="Point_7" draggable="true" fill="blue" stroke-width="0.0375" stroke="white" cx="0" cy="0" r="0.15" opacity="1"></circle></g><g id="GPoint_8" transform="translate(8,9.37417984008789)" visibility="show"><circle id="Point_8" draggable="true" fill="blue" stroke-width="0.0375" stroke="white" cx="0" cy="0" r="0.15" opacity="1"></circle></g><g id="GPoint_9" transform="translate(9,8.192560195922852)" visibility="show"><circle id="Point_9" draggable="true" fill="blue" stroke-width="0.0375" stroke="white" cx="0" cy="0" r="0.15" opacity="1"></circle></g><g id="GPoint_10" transform="translate(10,9.006564140319824)" visibility="show"><circle id="Point_10" draggable="true" fill="blue" stroke-width="0.0375" stroke="white" cx="0" cy="0" r="0.15" opacity="1"></circle></g><g id="GPoint_11" transform="translate(11,7.851203441619873)" visibility="show"><circle id="Point_11" draggable="true" fill="blue" stroke-width="0.0375" stroke="white" cx="0" cy="0" r="0.15" opacity="1"></circle></g><g id="GPoint_12" transform="translate(12,8.665207862854004)" visibility="show"><circle id="Point_12" draggable="true" fill="blue" stroke-width="0.0375" stroke="white" cx="0" cy="0" r="0.15" opacity="1"></circle></g><g id="GPoint_13" transform="translate(13,10.004376411437988)" visibility="show"><circle id="Point_13" draggable="true" fill="blue" stroke-width="0.0375" stroke="white" cx="0" cy="0" r="0.15" opacity="1"></circle></g><g id="GPoint_14" transform="translate(14,8.691466331481934)" visibility="show"><circle id="Point_14" draggable="true" fill="blue" stroke-width="0.0375" stroke="white" cx="0" cy="0" r="0.15" opacity="1"></circle></g><g id="GPoint_15" transform="translate(15,7.877461910247803)" visibility="show"><circle id="Point_15" draggable="true" fill="blue" stroke-width="0.0375" stroke="white" cx="0" cy="0" r="0.15" opacity="1"></circle></g><g id="GPoint_16" transform="translate(16,9.347921371459961)" visibility="show"><circle id="Point_16" draggable="true" fill="blue" stroke-width="0.0375" stroke="white" cx="0" cy="0" r="0.15" opacity="1"></circle></g><g id="GPoint_17" transform="translate(17,8.533916473388672)" visibility="show"><circle id="Point_17" draggable="true" fill="blue" stroke-width="0.0375" stroke="white" cx="0" cy="0" r="0.15" opacity="1"></circle></g><g id="GPoint_18" transform="translate(18,7.929977893829346)" visibility="show"><circle id="Point_18" draggable="true" fill="blue" stroke-width="0.0375" stroke="white" cx="0" cy="0" r="0.15" opacity="1"></circle></g><g id="GPoint_19" transform="translate(19,6.984682559967041)" visibility="show"><circle id="Point_19" draggable="true" fill="blue" stroke-width="0.0375" stroke="white" cx="0" cy="0" r="0.15" opacity="1"></circle></g><g id="GPoint_20" transform="translate(20,7.460869789123535)" visibility="show"><circle id="Point_20" draggable="true" fill="blue" stroke-width="0.0375" stroke="white" cx="0" cy="0" r="0.15" opacity="1"></circle></g><g id="GPoint_21" transform="translate(21,8.116521835327148)" visibility="show"><circle id="Point_21" draggable="true" fill="blue" stroke-width="0.0375" stroke="white" cx="0" cy="0" r="0.15" opacity="1"></circle></g><g id="GPoint_22" transform="translate(22,9.12521743774414)" visibility="show"><circle id="Point_22" draggable="true" fill="blue" stroke-width="0.0375" stroke="white" cx="0" cy="0" r="0.15" opacity="1"></circle></g><g id="GPoint_23" transform="translate(23,8.671304702758789)" visibility="show"><circle id="Point_23" draggable="true" fill="blue" stroke-width="0.0375" stroke="white" cx="0" cy="0" r="0.15" opacity="1"></circle></g><g id="GPoint_24" transform="translate(24,8.066086769104004)" visibility="show"><circle id="Point_24" draggable="true" fill="blue" stroke-width="0.0375" stroke="white" cx="0" cy="0" r="0.15" opacity="1"></circle></g><g id="GPoint_25" transform="translate(25,7.5113043785095215)" visibility="show"><circle id="Point_25" draggable="true" fill="blue" stroke-width="0.0375" stroke="white" cx="0" cy="0" r="0.15" opacity="1"></circle></g><g id="GPoint_26" transform="translate(26,7.30956506729126)" visibility="show"><circle id="Point_26" draggable="true" fill="blue" stroke-width="0.0375" stroke="white" cx="0" cy="0" r="0.15" opacity="1"></circle></g><g id="GPoint_27" transform="translate(27,8.217391014099121)" visibility="show"><circle id="Point_27" draggable="true" fill="blue" stroke-width="0.0375" stroke="white" cx="0" cy="0" r="0.15" opacity="1"></circle></g><g id="GPoint_28" transform="translate(28,9.680000305175781)" visibility="show"><circle id="Point_28" draggable="true" fill="blue" stroke-width="0.0375" stroke="white" cx="0" cy="0" r="0.15" opacity="1"></circle></g><g id="GPoint_29" transform="translate(29,12)" visibility="show"><circle id="Point_29" draggable="true" fill="blue" stroke-width="0.0375" stroke="white" cx="0" cy="0" r="0.15" opacity="1"></circle></g></svg>