<svg id="svg" viewBox="0 0 29 24">
      <defs>
        <radialGradient id="g1" cx="50%" cy="50%" r="50%" fx="35%" fy="35%">
          <stop stop-color="#a7e0a7" offset="0%"></stop>
          <stop stop-color="#6cc36c" offset="30%"></stop>
          <stop stop-color="#1c711c" offset="90%"></stop>
          <stop stop-color="#014c04" offset="100%"></stop>
        </radialGradient>
        <radialGradient id="g2" cx="50%" cy="50%" r="50%" fx="35%" fy="35%">
          <stop stop-color="#5bb7ff" offset="0%"></stop>
          <stop stop-color="#008eff" offset="30%"></stop>
          <stop stop-color="blue" offset="90%"></stop>
          <stop stop-color="#014c04" offset="100%"></stop>
        </radialGradient>
      </defs>
      <g id="Background">
      <g id="Grid_0"><line x1="0" x2="0" y1="0" y2="24" stroke-width="0.01" stroke="gray" stroke-dasharray="0.1 0.05"></line><line x1="2" x2="2" y1="0" y2="24" stroke-width="0.01" stroke="gray" stroke-dasharray="0.1 0.05"></line><line x1="4" x2="4" y1="0" y2="24" stroke-width="0.01" stroke="gray" stroke-dasharray="0.1 0.05"></line><line x1="6" x2="6" y1="0" y2="24" stroke-width="0.01" stroke="gray" stroke-dasharray="0.1 0.05"></line><line x1="8" x2="8" y1="0" y2="24" stroke-width="0.01" stroke="gray" stroke-dasharray="0.1 0.05"></line><line x1="10" x2="10" y1="0" y2="24" stroke-width="0.01" stroke="gray" stroke-dasharray="0.1 0.05"></line><line x1="12" x2="12" y1="0" y2="24" stroke-width="0.01" stroke="gray" stroke-dasharray="0.1 0.05"></line><line x1="14" x2="14" y1="0" y2="24" stroke-width="0.01" stroke="gray" stroke-dasharray="0.1 0.05"></line><line x1="16" x2="16" y1="0" y2="24" stroke-width="0.01" stroke="gray" stroke-dasharray="0.1 0.05"></line><line x1="18" x2="18" y1="0" y2="24" stroke-width="0.01" stroke="gray" stroke-dasharray="0.1 0.05"></line><line x1="20" x2="20" y1="0" y2="24" stroke-width="0.01" stroke="gray" stroke-dasharray="0.1 0.05"></line><line x1="22" x2="22" y1="0" y2="24" stroke-width="0.01" stroke="gray" stroke-dasharray="0.1 0.05"></line><line x1="24" x2="24" y1="0" y2="24" stroke-width="0.01" stroke="gray" stroke-dasharray="0.1 0.05"></line><line x1="26" x2="26" y1="0" y2="24" stroke-width="0.01" stroke="gray" stroke-dasharray="0.1 0.05"></line><line x1="28" x2="28" y1="0" y2="24" stroke-width="0.01" stroke="gray" stroke-dasharray="0.1 0.05"></line><line x1="0" x2="30" y1="0" y2="0" stroke-width="0.01" stroke="gray" stroke-dasharray="0.1 0.05"></line><line x1="0" x2="30" y1="2" y2="2" stroke-width="0.01" stroke="gray" stroke-dasharray="0.1 0.05"></line><line x1="0" x2="30" y1="4" y2="4" stroke-width="0.01" stroke="gray" stroke-dasharray="0.1 0.05"></line><line x1="0" x2="30" y1="6" y2="6" stroke-width="0.01" stroke="gray" stroke-dasharray="0.1 0.05"></line><line x1="0" x2="30" y1="8" y2="8" stroke-width="0.01" stroke="gray" stroke-dasharray="0.1 0.05"></line><line x1="0" x2="30" y1="10" y2="10" stroke-width="0.01" stroke="gray" stroke-dasharray="0.1 0.05"></line><line x1="0" x2="30" y1="12" y2="12" stroke-width="0.01" stroke="gray" stroke-dasharray="0.1 0.05"></line><line x1="0" x2="30" y1="14" y2="14" stroke-width="0.01" stroke="gray" stroke-dasharray="0.1 0.05"></line><line x1="0" x2="30" y1="16" y2="16" stroke-width="0.01" stroke="gray" stroke-dasharray="0.1 0.05"></line><line x1="0" x2="30" y1="18" y2="18" stroke-width="0.01" stroke="gray" stroke-dasharray="0.1 0.05"></line><line x1="0" x2="30" y1="20" y2="20" stroke-width="0.01" stroke="gray" stroke-dasharray="0.1 0.05"></line><line x1="0" x2="30" y1="22" y2="22" stroke-width="0.01" stroke="gray" stroke-dasharray="0.1 0.05"></line></g></g>
      <g id="Curve">
      </g>
      <path id="splinefit2" style="fill: none;stroke: red;stroke-width: 0.05px;"></path>
      <path id="splinefit" style="fill: none;stroke: green;stroke-width: 0.05px;" d="M 0 12 0.04 12 0.08 12 0.12 12 0.16 12 0.2 12 0.24 11.999999999999998 0.28 12 0.32 12 0.36 12 0.4 12.000000000000002 0.44 12.000000000000002 0.48 11.999999999999998 0.52 12 0.56 12 0.6 12 0.64 12 0.68 12 0.72 12 0.76 12.000000000000002 0.8 12 0.84 12 0.88 12 0.92 12 0.96 12 1 12 1.04 12 1.08 12 1.12 12 1.16 12 1.2 12 1.24 12.000000000000002 1.28 12 1.32 12 1.36 12.000000000000002 1.4000000000000001 12 1.44 12 1.48 12 1.52 11.999999999999998 1.56 12.000000000000002 1.6 12.000000000000002 1.6400000000000001 12 1.68 12 1.72 12 1.76 11.999999999999998 1.8 12 1.84 12 1.8800000000000001 12 1.92 12 1.96 12 2 12 2.04 11.997295194763183 2.08 11.989326984741211 2.12 11.976314678466798 2.16 11.958477584472655 2.2 11.936035011291503 2.24 11.909206267456055 2.2800000000000002 11.878210661499024 2.32 11.843267501953125 2.36 11.804596097351073 2.4 11.762415756225588 2.44 11.716945787109376 2.48 11.668405498535154 2.52 11.617014199035644 2.56 11.562991197143553 2.6 11.506555801391603 2.64 11.4479273203125 2.68 11.387325062438965 2.72 11.32496833630371 2.7600000000000002 11.261076450439452 2.8000000000000003 11.195868713378907 2.84 11.129564433654785 2.88 11.062382919799806 2.92 10.99454348034668 2.96 10.926265423828125 3 10.857768058776855 3.04 10.789270693725586 3.08 10.720992637207031 3.12 10.653153197753907 3.16 10.585971683898926 3.2 10.519667404174804 3.24 10.454459667114257 3.2800000000000002 10.39056778125 3.3200000000000003 10.328211055114746 3.36 10.267608797241211 3.4 10.208980316162108 3.44 10.152544920410156 3.48 10.098521918518067 3.52 10.047130619018553 3.56 9.998590330444337 3.6 9.953120361328125 3.64 9.910940020202638 3.68 9.872268615600586 3.72 9.837325456054687 3.7600000000000002 9.806329850097656 3.8000000000000003 9.779501106262206 3.84 9.757058533081054 3.88 9.739221439086915 3.92 9.7262091328125 3.96 9.718240922790526 4 9.715536117553711 4.04 9.71485081694277 4.08 9.71280541525673 4.12 9.709415662715763 4.16 9.70469730954004 4.2 9.698666105949737 4.24 9.691337802165021 4.28 9.682728148406067 4.32 9.67285289489305 4.36 9.661727791846138 4.4 9.649368589485507 4.44 9.635791038031327 4.48 9.62101088770377 4.5200000000000005 9.60504388872301 4.5600000000000005 9.587905791309218 4.6000000000000005 9.569612345682568 4.64 9.550179302063235 4.68 9.529622410671386 4.72 9.507957421727195 4.76 9.485200085450833 4.8 9.461366152062475 4.84 9.436471371782293 4.88 9.41053149483046 4.92 9.383562271427145 4.96 9.355579451792524 5 9.326598786146768 5.04 9.296636024710049 5.08 9.26570691770254 5.12 9.233827215344412 5.16 9.20101266785584 5.2 9.167279025456994 5.24 9.132642038368047 5.28 9.097117456809174 5.32 9.060721031000542 5.36 9.023468511162328 5.4 8.9853756475147 5.44 8.946458190277838 5.48 8.906731889671907 5.5200000000000005 8.86621249591708 5.5600000000000005 8.824915759233534 5.6000000000000005 8.782857429841439 5.64 8.740053257960966 5.68 8.696518993812287 5.72 8.652270387615578 5.76 8.607323189591009 5.8 8.56169314995875 5.84 8.515396018938977 5.88 8.468447546751863 5.92 8.420863483617577 5.96 8.372659579756291 6 8.323851585388184 6.04 8.275663912778777 6.08 8.229283196817741 6.12 8.184668521661461 6.16 8.141778971466316 6.2 8.100573630388691 6.24 8.061011582584966 6.28 8.023051912211526 6.32 7.986653703424752 6.36 7.951776040381027 6.4 7.918378007236733 6.44 7.886418688148255 6.48 7.855857167271971 6.5200000000000005 7.826652528764266 6.5600000000000005 7.798763856781523 6.6000000000000005 7.772150235480125 6.640000000000001 7.746770749016453 6.68 7.722584481546892 6.72 7.699550517227822 6.76 7.677627940215622 6.8 7.656775834666682 6.84 7.63695328473738 6.88 7.618119374584102 6.92 7.600233188363225 6.96 7.5832538102311355 7 7.567140324344215 7.04 7.551851814858847 7.08 7.537347365931412 7.12 7.523586061718296 7.16 7.510526986375876 7.2 7.498129224060539 7.24 7.486351858928666 7.28 7.475153975136641 7.32 7.464494656840844 7.36 7.454332988197659 7.4 7.444628053363468 7.44 7.435338936494654 7.48 7.4264247217475985 7.5200000000000005 7.417844493278686 7.5600000000000005 7.409557335244296 7.6000000000000005 7.401522331800816 7.640000000000001 7.393698567104621 7.68 7.386045125312101 7.72 7.378521090579635 7.76 7.371085547063606 7.8 7.3636975789203944 7.84 7.356316270306386 7.88 7.348900705377962 7.92 7.3414099682915035 7.96 7.3338031432033945 8 7.3260393142700195 8.040000000000001 7.319282319123289 8.08 7.314684112586301 8.120000000000001 7.312185954602218 8.16 7.311729105114197 8.2 7.3132548240654005 8.24 7.31670437139899 8.28 7.322019007058123 8.32 7.329139990985958 8.36 7.338008583125657 8.4 7.348566043420383 8.44 7.360753631813291 8.48 7.374512608247545 8.52 7.389784232666303 8.56 7.406509765012726 8.6 7.424630465229975 8.64 7.444087593261206 8.68 7.464822409049584 8.72 7.486776172538267 8.76 7.509890143670413 8.8 7.534105582389188 8.84 7.559363748637744 8.88 7.585605902359248 8.92 7.612773303496856 8.96 7.6408072119937325 9 7.6696488877930316 9.040000000000001 7.6992395908379185 9.08 7.729520581071548 9.120000000000001 7.7604331184370885 9.16 7.791918462877691 9.200000000000001 7.823917874336521 9.24 7.8563726127567355 9.28 7.889223938081499 9.32 7.9224131102539666 9.36 7.955881389217301 9.4 7.989570034914663 9.44 8.02342030728921 9.48 8.057373466284105 9.52 8.091370771842508 9.56 8.125353483907574 9.6 8.15926286242247 9.64 8.193040167330354 9.68 8.226626658574384 9.72 8.259963596097721 9.76 8.292992239843526 9.8 8.325653849754955 9.84 8.357889685775175 9.88 8.389641007847342 9.92 8.420849075914616 9.96 8.45145514992016 10 8.481400489807129 10.040000000000001 8.507659550199822 10.08 8.527397957906361 10.120000000000001 8.540843731145666 10.16 8.548224888136641 10.200000000000001 8.549769447098198 10.24 8.545705426249253 10.28 8.536260843808714 10.32 8.52166371799549 10.36 8.502142067028498 10.4 8.477923909126647 10.44 8.449237262508845 10.48 8.416310145394009 10.52 8.379370576001048 10.56 8.338646572548871 10.6 8.294366153256394 10.64 8.246757336342522 10.68 8.196048140026175 10.72 8.142466582526255 10.76 8.086240682061682 10.8 8.027598456851361 10.84 7.9667679251142065 10.88 7.903977105069125 10.92 7.839454014935036 10.96 7.773426672930845 11 7.706123097275467 11.040000000000001 7.637771306187808 11.08 7.568599317886786 11.120000000000001 7.498835150591306 11.16 7.4287068225202875 11.200000000000001 7.3584423518926325 11.24 7.288269756927259 11.28 7.218417055843077 11.32 7.149112266858993 11.36 7.080583408193926 11.4 7.013058498066782 11.44 6.946765554696474 11.48 6.881932596301913 11.52 6.818787641102011 11.56 6.757558707315678 11.6 6.69847381316183 11.64 6.641760976859372 11.68 6.587648216627221 11.72 6.536363550684282 11.76 6.488134997249473 11.8 6.443190574541699 11.84 6.4017583007798775 11.88 6.364066194182914 11.92 6.330342272969728 11.96 6.300814555359222 12 6.2757110595703125 12.040000000000001 6.2548562199520115 12.08 6.237828816253404 12.120000000000001 6.2244883847935055 12.16 6.214694461891334 12.200000000000001 6.208306583865909 12.24 6.205184287036244 12.280000000000001 6.205187107721358 12.32 6.208174582240265 12.36 6.214006246911986 12.4 6.222541638055539 12.44 6.2336402919899365 12.48 6.247161745034198 12.52 6.262965533507341 12.56 6.280911193728381 12.6 6.300858262016337 12.64 6.322666274690225 12.68 6.346194768069061 12.72 6.371303278471867 12.76 6.397851342217651 12.8 6.42569849562544 12.84 6.454704275014242 12.88 6.484728216703083 12.92 6.515629857010972 12.96 6.547268732256932 13 6.579504378759976 13.040000000000001 6.612196332839124 13.08 6.645204130813392 13.120000000000001 6.678387309001798 13.16 6.711605403723357 13.200000000000001 6.744717951297087 13.24 6.777584488042004 13.280000000000001 6.810064550277129 13.32 6.8420176743214745 13.36 6.873303396494058 13.4 6.903781253113901 13.44 6.9333107805000145 13.48 6.9617515149714215 13.52 6.988962992847135 13.56 7.0148047504461735 13.6 7.039136324087553 13.64 7.061817250090293 13.68 7.082707064773409 13.72 7.101665304455918 13.76 7.118551505456836 13.8 7.133225204095181 13.84 7.145545936689971 13.88 7.155373239560222 13.92 7.162566649024952 13.96 7.166985701403179 14 7.168489933013916 14.040000000000001 7.167463972854615 14.08 7.164441549682617 14.120000000000001 7.159505849456787 14.16 7.152740058135986 14.200000000000001 7.144227361679078 14.24 7.134050946044923 14.280000000000001 7.122293997192383 14.32 7.109039701080323 14.36 7.094371243667602 14.4 7.078371810913086 14.44 7.061124588775634 14.48 7.042712763214111 14.52 7.023219520187378 14.56 7.002728045654296 14.6 6.981321525573731 14.64 6.959083145904541 14.68 6.936096092605592 14.72 6.912443551635742 14.76 6.888208708953857 14.8 6.863474750518799 14.84 6.838324862289429 14.88 6.812842230224609 14.92 6.787110040283203 14.96 6.761211478424071 15 6.735229730606079 15.040000000000001 6.709247982788085 15.08 6.683349420928955 15.120000000000001 6.657617230987548 15.16 6.632134598922729 15.200000000000001 6.606984710693359 15.24 6.5822507522583 15.280000000000001 6.558015909576415 15.32 6.534363368606568 15.36 6.511376315307618 15.4 6.489137935638428 15.44 6.467731415557861 15.48 6.44723994102478 15.52 6.427746697998047 15.56 6.4093348724365224 15.6 6.3920876502990716 15.64 6.376088217544555 15.68 6.361419760131835 15.72 6.348165464019775 15.76 6.3364085151672365 15.8 6.326232099533081 15.84 6.317719403076172 15.88 6.310953611755371 15.92 6.306017911529541 15.96 6.302995488357544 16 6.301969528198242 16.04 6.304052538543702 16.080000000000002 6.31018897442627 16.12 6.320209943115235 16.16 6.333946551879882 16.2 6.351229907989502 16.240000000000002 6.371891118713379 16.28 6.395761291320802 16.32 6.422671533081054 16.36 6.452452951263427 16.4 6.484936653137206 16.44 6.519953745971682 16.48 6.5573353370361325 16.52 6.596912533599852 16.56 6.638516442932128 16.6 6.681978172302248 16.64 6.727128828979493 16.68 6.773799520233155 16.72 6.821821353332519 16.76 6.871025435546876 16.8 6.921242874145509 16.84 6.972304776397705 16.88 7.024042249572753 16.92 7.076286400939944 16.96 7.128868337768556 17 7.181619167327881 17.04 7.234369996887207 17.080000000000002 7.286951933715823 17.12 7.339196085083009 17.16 7.390933558258057 17.2 7.441995460510253 17.240000000000002 7.492212899108889 17.28 7.541416981323244 17.32 7.589438814422608 17.36 7.636109505676268 17.400000000000002 7.681260162353518 17.44 7.724721891723635 17.48 7.766325801055908 17.52 7.805902997619628 17.56 7.843284588684082 17.6 7.878301681518557 17.64 7.910785383392334 17.68 7.9405668015747075 17.72 7.967477043334961 17.76 7.991347215942383 17.8 8.01200842666626 17.84 8.029291782775879 17.88 8.043028391540526 17.92 8.053049360229492 17.96 8.059185796112061 18 8.06126880645752 18.04 8.060056307830811 18.080000000000002 8.056484352416993 18.12 8.050651250915527 18.16 8.042655314025879 18.2 8.03259485244751 18.240000000000002 8.020568176879882 18.28 8.006673598022461 18.32 7.991009426574707 18.36 7.9736739732360835 18.400000000000002 7.954765548706053 18.44 7.934382463684082 18.48 7.912623028869628 18.52 7.889585554962158 18.56 7.865368352661134 18.6 7.840069732666015 18.64 7.813788005676269 18.68 7.786621482391357 18.72 7.758668473510744 18.76 7.730027289733885 18.8 7.700796241760253 18.84 7.671073640289307 18.88 7.640957796020508 18.92 7.610547019653319 18.96 7.579939621887206 19 7.549233913421631 19.04 7.518528204956056 19.080000000000002 7.487920807189941 19.12 7.457510030822753 19.16 7.427394186553955 19.2 7.397671585083009 19.240000000000002 7.3684405371093735 19.28 7.33979935333252 19.32 7.311846344451904 19.36 7.284679821166992 19.400000000000002 7.258398094177244 19.44 7.233099474182129 19.48 7.2088822718811025 19.52 7.185844797973633 19.56 7.164085363159181 19.6 7.143702278137207 19.64 7.124793853607177 19.68 7.1074584002685555 19.72 7.091794228820802 19.76 7.077899649963379 19.8 7.065872974395752 19.84 7.055812512817382 19.88 7.047816575927735 19.92 7.041983474426269 19.96 7.038411519012452 20 7.037199020385742 20.04 7.043074976745605 20.080000000000002 7.060385226562501 20.12 7.0886533409423835 20.16 7.127402890991211 20.2 7.176157447814941 20.240000000000002 7.234440582519534 20.28 7.3017758662109395 20.32 7.377686869995118 20.36 7.461697164978026 20.400000000000002 7.55333032226563 20.44 7.652109912963871 20.48 7.757559508178712 20.52 7.869202679016111 20.56 7.986562996582029 20.6 8.109164031982425 20.64 8.236529356323244 20.68 8.36818254071045 20.72 8.503647156249997 20.76 8.642446774047857 20.8 8.784104965209963 20.84 8.928145300842285 20.88 9.074091352050777 20.92 9.221466689941412 20.96 9.36979488562012 21 9.518599510192871 21.04 9.667404134765622 21.080000000000002 9.815732330444344 21.12 9.963107668334965 21.16 10.109053719543457 21.2 10.25309405517578 21.240000000000002 10.394752246337896 21.28 10.533551864135747 21.32 10.669016479675296 21.36 10.800669664062498 21.400000000000002 10.928034988403326 21.44 11.050636023803715 21.48 11.16799634136963 21.52 11.27963951220703 21.56 11.385089107421873 21.6 11.48386869812012 21.64 11.575501855407715 21.68 11.659512150390626 21.72 11.735423154174804 21.76 11.802758437866213 21.8 11.861041572570802 21.84 11.90979612939453 21.88 11.94854567944336 21.92 11.976813793823244 21.96 11.994124043640136 22 12 22.04 12 22.080000000000002 12 22.12 12 22.16 11.999999999999998 22.2 12 22.240000000000002 12 22.28 12.000000000000002 22.32 12 22.36 12 22.400000000000002 12 22.44 12 22.48 12 22.52 12 22.56 12 22.6 12 22.64 12 22.68 12.000000000000002 22.72 12 22.76 12 22.8 12 22.84 12 22.88 12 22.92 12 22.96 12 23 12 23.04 12 23.080000000000002 12 23.12 12 23.16 12 23.2 12 23.240000000000002 12 23.28 12 23.32 12.000000000000002 23.36 12 23.400000000000002 12 23.44 12 23.48 12 23.52 12 23.56 12 23.6 12 23.64 12 23.68 12 23.72 12.000000000000002 23.76 12 23.8 12 23.84 11.999999999999998 23.88 12 23.92 12 23.96 12 24 12 24.04 12 24.080000000000002 12 24.12 12 24.16 11.999999999999998 24.2 12 24.240000000000002 12 24.28 12.000000000000002 24.32 12 24.36 12 24.400000000000002 12 24.44 12 24.48 12 24.52 12 24.560000000000002 12.000000000000002 24.6 12 24.64 12 24.68 12.000000000000002 24.72 12 24.76 12 24.8 12 24.84 12 24.88 12 24.92 12 24.96 12 25 12 25.04 12 25.080000000000002 12 25.12 12 25.16 12 25.2 12 25.240000000000002 12 25.28 12 25.32 12.000000000000002 25.36 12 25.400000000000002 12 25.44 12 25.48 12 25.52 12 25.560000000000002 12 25.6 12 25.64 12 25.68 12 25.72 12.000000000000002 25.76 12 25.8 12 25.84 11.999999999999998 25.88 12 25.92 12 25.96 12 26 12 26.04 12 26.080000000000002 12 26.12 12 26.16 11.999999999999998 26.2 12 26.240000000000002 12 26.28 12.000000000000002 26.32 12 26.36 12 26.400000000000002 12 26.44 12 26.48 12 26.52 12 26.560000000000002 12.000000000000002 26.6 12 26.64 12 26.68 12.000000000000002 26.72 12 26.76 12 26.8 12 26.84 12 26.88 12 26.92 12 26.96 12 27 12 27.04 12 27.080000000000002 12 27.12 12 27.16 12 27.2 12 27.240000000000002 12 27.28 12 27.32 12.000000000000002 27.36 12 27.400000000000002 12 27.44 12 27.48 12 27.52 12 27.560000000000002 12 27.6 12 27.64 12 27.68 12 27.72 12.000000000000002 27.76 12 27.8 12 27.84 11.999999999999998 27.88 12 27.92 12 27.96 12 28 12 28.04 12 28.080000000000002 12 28.12 12 28.16 11.999999999999998 28.2 12 28.240000000000002 12 28.28 12.000000000000002 28.32 12 28.36 12 28.400000000000002 12 28.44 12 28.48 12 28.52 12 28.560000000000002 12.000000000000002 28.6 12 28.64 12 28.68 12.000000000000002 28.72 12 28.76 12 28.8 12 28.84 12 28.88 12 28.92 12 28.96 12 29 12"></path>
    <g id="GPoint_0" transform="translate(0,12)" visibility="show"><g id="BPoint_0" transform="rotate(0)"><g id="Handle1_0" transform="rotate(0)"><line id="LinePoint1_0" stroke-width="0.02" stroke="blue" x1="-0.75" x2="0" y1="0" y2="0"></line><rect id="RectHandle1_0" height="0.22499999999999998" width="0.22499999999999998" fill="blue" stroke-width="0" stroke="white" x="-0.75" y="-0.11249999999999999" opacity="1"></rect></g><g id="Handle2_0" transform="rotate(0)"><line id="LinePoint2_0" stroke-width="0.02" stroke="blue" x1="0" x2="0.75" y1="0" y2="0"></line><rect id="RectHandle2_0" height="0.22499999999999998" width="0.22499999999999998" fill="blue" stroke-width="0" stroke="white" x="0.525" y="-0.11249999999999999" opacity="1"></rect></g></g><circle id="Point_0" draggable="true" fill="blue" stroke-width="0.0375" stroke="white" cx="0" cy="0" r="0.15" opacity="1"></circle></g><g id="GPoint_1" transform="translate(1,12)" visibility="hidden"><circle id="Point_1" draggable="true" fill="blue" stroke-width="0.0375" stroke="white" cx="0" cy="0" r="0.15" opacity="1"></circle></g><g id="GPoint_2" transform="translate(2,12)" visibility="show"><g id="BPoint_2" transform="rotate(0)"><g id="Handle1_2" transform="rotate(0)"><line id="LinePoint1_2" stroke-width="0.02" stroke="blue" x1="-0.75" x2="0" y1="0" y2="0"></line><rect id="RectHandle1_2" height="0.22499999999999998" width="0.22499999999999998" fill="blue" stroke-width="0" stroke="white" x="-0.75" y="-0.11249999999999999" opacity="1"></rect></g><g id="Handle2_2" transform="rotate(0)"><line id="LinePoint2_2" stroke-width="0.02" stroke="blue" x1="0" x2="0.75" y1="0" y2="0"></line><rect id="RectHandle2_2" height="0.22499999999999998" width="0.22499999999999998" fill="blue" stroke-width="0" stroke="white" x="0.525" y="-0.11249999999999999" opacity="1"></rect></g></g><circle id="Point_2" draggable="true" fill="blue" stroke-width="0.0375" stroke="white" cx="0" cy="0" r="0.15" opacity="1"></circle></g><g id="GPoint_3" transform="translate(3,12)" visibility="hidden"><circle id="Point_3" draggable="true" fill="blue" stroke-width="0.0375" stroke="white" cx="0" cy="0" r="0.15" opacity="1"></circle></g><g id="GPoint_4" transform="translate(4,9.715536117553711)" visibility="show"><g id="BPoint_4" transform="rotate(0)"><g id="Handle1_4" transform="rotate(0)"><line id="LinePoint1_4" stroke-width="0.02" stroke="blue" x1="-0.75" x2="0" y1="0" y2="0"></line><rect id="RectHandle1_4" height="0.22499999999999998" width="0.22499999999999998" fill="blue" stroke-width="0" stroke="white" x="-0.75" y="-0.11249999999999999" opacity="1"></rect></g><g id="Handle2_4" transform="rotate(0)"><line id="LinePoint2_4" stroke-width="0.02" stroke="blue" x1="0" x2="0.75" y1="0" y2="0"></line><rect id="RectHandle2_4" height="0.22499999999999998" width="0.22499999999999998" fill="blue" stroke-width="0" stroke="white" x="0.525" y="-0.11249999999999999" opacity="1"></rect></g></g><circle id="Point_4" draggable="true" fill="blue" stroke-width="0.0375" stroke="white" cx="0" cy="0" r="0.15" opacity="1"></circle></g><g id="GPoint_5" transform="translate(5,12)" visibility="hidden"><circle id="Point_5" draggable="true" fill="blue" stroke-width="0.0375" stroke="white" cx="0" cy="0" r="0.15" opacity="1"></circle></g><g id="GPoint_6" transform="translate(6,8.323851585388184)" visibility="show"><g id="BPoint_6" transform="rotate(-50.834273928597526)"><g id="Handle1_6" transform="rotate(0)"><line id="LinePoint1_6" stroke-width="0.02" stroke="blue" x1="-0.6773487174606873" x2="0" y1="0" y2="0"></line><rect id="RectHandle1_6" height="0.22499999999999998" width="0.22499999999999998" fill="blue" stroke-width="0" stroke="white" x="-0.6773487174606873" y="-0.11249999999999999" opacity="1"></rect></g><g id="Handle2_6" transform="rotate(0)"><line id="LinePoint2_6" stroke-width="0.02" stroke="blue" x1="0" x2="0.6773487174606873" y1="0" y2="0"></line><rect id="RectHandle2_6" height="0.22499999999999998" width="0.22499999999999998" fill="blue" stroke-width="0" stroke="white" x="0.4523487174606873" y="-0.11249999999999999" opacity="1"></rect></g></g><circle id="Point_6" draggable="true" fill="blue" stroke-width="0.0375" stroke="white" cx="0" cy="0" r="0.15" opacity="1"></circle></g><g id="GPoint_7" transform="translate(7,12)" visibility="hidden"><circle id="Point_7" draggable="true" fill="blue" stroke-width="0.0375" stroke="white" cx="0" cy="0" r="0.15" opacity="1"></circle></g><g id="GPoint_8" transform="translate(8,7.3260393142700195)" visibility="show"><g id="BPoint_8" transform="rotate(-11.111422215700863)"><g id="Handle1_8" transform="rotate(0)"><line id="LinePoint1_8" stroke-width="0.02" stroke="blue" x1="-0.6812606654428895" x2="0" y1="0" y2="0"></line><rect id="RectHandle1_8" height="0.22499999999999998" width="0.22499999999999998" fill="blue" stroke-width="0" stroke="white" x="-0.6812606654428895" y="-0.11249999999999999" opacity="1"></rect></g><g id="Handle2_8" transform="rotate(0)"><line id="LinePoint2_8" stroke-width="0.02" stroke="blue" x1="0" x2="0.6812606654428895" y1="0" y2="0"></line><rect id="RectHandle2_8" height="0.22499999999999998" width="0.22499999999999998" fill="blue" stroke-width="0" stroke="white" x="0.45626066544288957" y="-0.11249999999999999" opacity="1"></rect></g></g><circle id="Point_8" draggable="true" fill="blue" stroke-width="0.0375" stroke="white" cx="0" cy="0" r="0.15" opacity="1"></circle></g><g id="GPoint_9" transform="translate(9,12)" visibility="hidden"><circle id="Point_9" draggable="true" fill="blue" stroke-width="0.0375" stroke="white" cx="0" cy="0" r="0.15" opacity="1"></circle></g><g id="GPoint_10" transform="translate(10,8.481400489807129)" visibility="show"><g id="BPoint_10" transform="rotate(36.49717666016151)"><g id="Handle1_10" transform="rotate(0)"><line id="LinePoint1_10" stroke-width="0.02" stroke="blue" x1="-0.706361076119234" x2="0" y1="0" y2="0"></line><rect id="RectHandle1_10" height="0.22499999999999998" width="0.22499999999999998" fill="blue" stroke-width="0" stroke="white" x="-0.706361076119234" y="-0.11249999999999999" opacity="1"></rect></g><g id="Handle2_10" transform="rotate(0)"><line id="LinePoint2_10" stroke-width="0.02" stroke="blue" x1="0" x2="0.706361076119234" y1="0" y2="0"></line><rect id="RectHandle2_10" height="0.22499999999999998" width="0.22499999999999998" fill="blue" stroke-width="0" stroke="white" x="0.48136107611923407" y="-0.11249999999999999" opacity="1"></rect></g></g><circle id="Point_10" draggable="true" fill="blue" stroke-width="0.0375" stroke="white" cx="0" cy="0" r="0.15" opacity="1"></circle></g><g id="GPoint_11" transform="translate(11,12)" visibility="hidden"><circle id="Point_11" draggable="true" fill="blue" stroke-width="0.0375" stroke="white" cx="0" cy="0" r="0.15" opacity="1"></circle></g><g id="GPoint_12" transform="translate(12,6.2757110595703125)" visibility="show"><g id="BPoint_12" transform="rotate(-29.699763978673943)"><g id="Handle1_12" transform="rotate(0)"><line id="LinePoint1_12" stroke-width="0.02" stroke="blue" x1="-0.6889761777266035" x2="0" y1="0" y2="0"></line><rect id="RectHandle1_12" height="0.22499999999999998" width="0.22499999999999998" fill="blue" stroke-width="0" stroke="white" x="-0.6889761777266035" y="-0.11249999999999999" opacity="1"></rect></g><g id="Handle2_12" transform="rotate(0)"><line id="LinePoint2_12" stroke-width="0.02" stroke="blue" x1="0" x2="0.6889761777266035" y1="0" y2="0"></line><rect id="RectHandle2_12" height="0.22499999999999998" width="0.22499999999999998" fill="blue" stroke-width="0" stroke="white" x="0.4639761777266035" y="-0.11249999999999999" opacity="1"></rect></g></g><circle id="Point_12" draggable="true" fill="blue" stroke-width="0.0375" stroke="white" cx="0" cy="0" r="0.15" opacity="1"></circle></g><g id="GPoint_13" transform="translate(13,12)" visibility="hidden"><circle id="Point_13" draggable="true" fill="blue" stroke-width="0.0375" stroke="white" cx="0" cy="0" r="0.15" opacity="1"></circle></g><g id="GPoint_14" transform="translate(14,7.168489933013916)" visibility="show"><g id="BPoint_14" transform="rotate(0)"><g id="Handle1_14" transform="rotate(0)"><line id="LinePoint1_14" stroke-width="0.02" stroke="blue" x1="-0.75" x2="0" y1="0" y2="0"></line><rect id="RectHandle1_14" height="0.22499999999999998" width="0.22499999999999998" fill="blue" stroke-width="0" stroke="white" x="-0.75" y="-0.11249999999999999" opacity="1"></rect></g><g id="Handle2_14" transform="rotate(0)"><line id="LinePoint2_14" stroke-width="0.02" stroke="blue" x1="0" x2="0.75" y1="0" y2="0"></line><rect id="RectHandle2_14" height="0.22499999999999998" width="0.22499999999999998" fill="blue" stroke-width="0" stroke="white" x="0.525" y="-0.11249999999999999" opacity="1"></rect></g></g><circle id="Point_14" draggable="true" fill="blue" stroke-width="0.0375" stroke="white" cx="0" cy="0" r="0.15" opacity="1"></circle></g><g id="GPoint_15" transform="translate(15,12)" visibility="hidden"><circle id="Point_15" draggable="true" fill="blue" stroke-width="0.0375" stroke="white" cx="0" cy="0" r="0.15" opacity="1"></circle></g><g id="GPoint_16" transform="translate(16,6.301969528198242)" visibility="show"><g id="BPoint_16" transform="rotate(0)"><g id="Handle1_16" transform="rotate(0)"><line id="LinePoint1_16" stroke-width="0.02" stroke="blue" x1="-0.75" x2="0" y1="0" y2="0"></line><rect id="RectHandle1_16" height="0.22499999999999998" width="0.22499999999999998" fill="blue" stroke-width="0" stroke="white" x="-0.75" y="-0.11249999999999999" opacity="1"></rect></g><g id="Handle2_16" transform="rotate(0)"><line id="LinePoint2_16" stroke-width="0.02" stroke="blue" x1="0" x2="0.75" y1="0" y2="0"></line><rect id="RectHandle2_16" height="0.22499999999999998" width="0.22499999999999998" fill="blue" stroke-width="0" stroke="white" x="0.525" y="-0.11249999999999999" opacity="1"></rect></g></g><circle id="Point_16" draggable="true" fill="blue" stroke-width="0.0375" stroke="white" cx="0" cy="0" r="0.15" opacity="1"></circle></g><g id="GPoint_17" transform="translate(17,12)" visibility="hidden"><circle id="Point_17" draggable="true" fill="blue" stroke-width="0.0375" stroke="white" cx="0" cy="0" r="0.15" opacity="1"></circle></g><g id="GPoint_18" transform="translate(18,8.06126880645752)" visibility="show"><g id="BPoint_18" transform="rotate(0)"><g id="Handle1_18" transform="rotate(0)"><line id="LinePoint1_18" stroke-width="0.02" stroke="blue" x1="-0.75" x2="0" y1="0" y2="0"></line><rect id="RectHandle1_18" height="0.22499999999999998" width="0.22499999999999998" fill="blue" stroke-width="0" stroke="white" x="-0.75" y="-0.11249999999999999" opacity="1"></rect></g><g id="Handle2_18" transform="rotate(0)"><line id="LinePoint2_18" stroke-width="0.02" stroke="blue" x1="0" x2="0.75" y1="0" y2="0"></line><rect id="RectHandle2_18" height="0.22499999999999998" width="0.22499999999999998" fill="blue" stroke-width="0" stroke="white" x="0.525" y="-0.11249999999999999" opacity="1"></rect></g></g><circle id="Point_18" draggable="true" fill="blue" stroke-width="0.0375" stroke="white" cx="0" cy="0" r="0.15" opacity="1"></circle></g><g id="GPoint_19" transform="translate(19,12)" visibility="hidden"><circle id="Point_19" draggable="true" fill="blue" stroke-width="0.0375" stroke="white" cx="0" cy="0" r="0.15" opacity="1"></circle></g><g id="GPoint_20" transform="translate(20,7.037199020385742)" visibility="show"><g id="BPoint_20" transform="rotate(0)"><g id="Handle1_20" transform="rotate(0)"><line id="LinePoint1_20" stroke-width="0.02" stroke="blue" x1="-0.75" x2="0" y1="0" y2="0"></line><rect id="RectHandle1_20" height="0.22499999999999998" width="0.22499999999999998" fill="blue" stroke-width="0" stroke="white" x="-0.75" y="-0.11249999999999999" opacity="1"></rect></g><g id="Handle2_20" transform="rotate(0)"><line id="LinePoint2_20" stroke-width="0.02" stroke="blue" x1="0" x2="0.75" y1="0" y2="0"></line><rect id="RectHandle2_20" height="0.22499999999999998" width="0.22499999999999998" fill="blue" stroke-width="0" stroke="white" x="0.525" y="-0.11249999999999999" opacity="1"></rect></g></g><circle id="Point_20" draggable="true" fill="blue" stroke-width="0.0375" stroke="white" cx="0" cy="0" r="0.15" opacity="1"></circle></g><g id="GPoint_21" transform="translate(21,12)" visibility="hidden"><circle id="Point_21" draggable="true" fill="blue" stroke-width="0.0375" stroke="white" cx="0" cy="0" r="0.15" opacity="1"></circle></g><g id="GPoint_22" transform="translate(22,12)" visibility="show"><g id="BPoint_22" transform="rotate(0)"><g id="Handle1_22" transform="rotate(0)"><line id="LinePoint1_22" stroke-width="0.02" stroke="blue" x1="-0.75" x2="0" y1="0" y2="0"></line><rect id="RectHandle1_22" height="0.22499999999999998" width="0.22499999999999998" fill="blue" stroke-width="0" stroke="white" x="-0.75" y="-0.11249999999999999" opacity="1"></rect></g><g id="Handle2_22" transform="rotate(0)"><line id="LinePoint2_22" stroke-width="0.02" stroke="blue" x1="0" x2="0.75" y1="0" y2="0"></line><rect id="RectHandle2_22" height="0.22499999999999998" width="0.22499999999999998" fill="blue" stroke-width="0" stroke="white" x="0.525" y="-0.11249999999999999" opacity="1"></rect></g></g><circle id="Point_22" draggable="true" fill="blue" stroke-width="0.0375" stroke="white" cx="0" cy="0" r="0.15" opacity="1"></circle></g><g id="GPoint_23" transform="translate(23,12)" visibility="hidden"><circle id="Point_23" draggable="true" fill="blue" stroke-width="0.0375" stroke="white" cx="0" cy="0" r="0.15" opacity="1"></circle></g><g id="GPoint_24" transform="translate(24,12)" visibility="show"><g id="BPoint_24" transform="rotate(0)"><g id="Handle1_24" transform="rotate(0)"><line id="LinePoint1_24" stroke-width="0.02" stroke="blue" x1="-0.75" x2="0" y1="0" y2="0"></line><rect id="RectHandle1_24" height="0.22499999999999998" width="0.22499999999999998" fill="blue" stroke-width="0" stroke="white" x="-0.75" y="-0.11249999999999999" opacity="1"></rect></g><g id="Handle2_24" transform="rotate(0)"><line id="LinePoint2_24" stroke-width="0.02" stroke="blue" x1="0" x2="0.75" y1="0" y2="0"></line><rect id="RectHandle2_24" height="0.22499999999999998" width="0.22499999999999998" fill="blue" stroke-width="0" stroke="white" x="0.525" y="-0.11249999999999999" opacity="1"></rect></g></g><circle id="Point_24" draggable="true" fill="blue" stroke-width="0.0375" stroke="white" cx="0" cy="0" r="0.15" opacity="1"></circle></g><g id="GPoint_25" transform="translate(25,12)" visibility="hidden"><circle id="Point_25" draggable="true" fill="blue" stroke-width="0.0375" stroke="white" cx="0" cy="0" r="0.15" opacity="1"></circle></g><g id="GPoint_26" transform="translate(26,12)" visibility="show"><g id="BPoint_26" transform="rotate(0)"><g id="Handle1_26" transform="rotate(0)"><line id="LinePoint1_26" stroke-width="0.02" stroke="blue" x1="-0.75" x2="0" y1="0" y2="0"></line><rect id="RectHandle1_26" height="0.22499999999999998" width="0.22499999999999998" fill="blue" stroke-width="0" stroke="white" x="-0.75" y="-0.11249999999999999" opacity="1"></rect></g><g id="Handle2_26" transform="rotate(0)"><line id="LinePoint2_26" stroke-width="0.02" stroke="blue" x1="0" x2="0.75" y1="0" y2="0"></line><rect id="RectHandle2_26" height="0.22499999999999998" width="0.22499999999999998" fill="blue" stroke-width="0" stroke="white" x="0.525" y="-0.11249999999999999" opacity="1"></rect></g></g><circle id="Point_26" draggable="true" fill="blue" stroke-width="0.0375" stroke="white" cx="0" cy="0" r="0.15" opacity="1"></circle></g><g id="GPoint_27" transform="translate(27,12)" visibility="hidden"><circle id="Point_27" draggable="true" fill="blue" stroke-width="0.0375" stroke="white" cx="0" cy="0" r="0.15" opacity="1"></circle></g><g id="GPoint_28" transform="translate(28,12)" visibility="show"><g id="BPoint_28" transform="rotate(0)"><g id="Handle1_28" transform="rotate(0)"><line id="LinePoint1_28" stroke-width="0.02" stroke="blue" x1="-0.75" x2="0" y1="0" y2="0"></line><rect id="RectHandle1_28" height="0.22499999999999998" width="0.22499999999999998" fill="blue" stroke-width="0" stroke="white" x="-0.75" y="-0.11249999999999999" opacity="1"></rect></g><g id="Handle2_28" transform="rotate(0)"><line id="LinePoint2_28" stroke-width="0.02" stroke="blue" x1="0" x2="0.75" y1="0" y2="0"></line><rect id="RectHandle2_28" height="0.22499999999999998" width="0.22499999999999998" fill="blue" stroke-width="0" stroke="white" x="0.525" y="-0.11249999999999999" opacity="1"></rect></g></g><circle id="Point_28" draggable="true" fill="blue" stroke-width="0.0375" stroke="white" cx="0" cy="0" r="0.15" opacity="1"></circle></g><g id="GPoint_29" transform="translate(29,12)" visibility="hidden"><circle id="Point_29" draggable="true" fill="blue" stroke-width="0.0375" stroke="white" cx="0" cy="0" r="0.15" opacity="1"></circle></g></svg>
