<?xml version="1.0" encoding="utf-8"?>
<!-- Generator: Adobe Illustrator 19.0.0, SVG Export Plug-In . SVG Version: 6.00 Build 0)  -->
<svg version="1.1" id="Layer_1" xmlns="http://www.w3.org/2000/svg" xmlns:xlink="http://www.w3.org/1999/xlink" x="0px" y="0px"
	 viewBox="-53 -102.9 47.4 41.5" style="enable-background:new -53 -102.9 47.4 41.5;" xml:space="preserve">
<g id="figure_1">
	<g id="patch_1">
		<path style="fill:#FFFFFF;" d="M-53,242.7h460.8v-345.6H-53V242.7z"/>
	</g>
	<g id="axes_1">
		<g id="patch_2">
			<path style="fill:#FFFFFF;" d="M4.6,204.7h357.1V-61.4H4.6V204.7z"/>
		</g>
		<g id="matplotlib.axis_1">
			<g id="xtick_1">
				<g id="line2d_1">
					<g>
						<defs>
							<rect id="SVGID_1_" x="4.6" y="-61.4" width="357.1" height="266.1"/>
						</defs>
						<clipPath id="SVGID_2_">
							<use xlink:href="#SVGID_1_"  style="overflow:visible;"/>
						</clipPath>
						
							<path style="clip-path:url(#SVGID_2_);fill:none;stroke:#808080;stroke-width:0.3;stroke-linecap:square;stroke-linejoin:round;" d="
							M12.4,204.7V-61.4"/>
					</g>
				</g>
				<g id="line2d_2">
					<g>
						<g>
							<path id="mbd2cb5f034" style="stroke:#000000;stroke-width:0.8;stroke-linejoin:round;" d="M12.4,204.7v3.5"/>
						</g>
					</g>
				</g>
				<g id="text_1">
					<g transform="translate(62.206888 322.182437)scale(0.1 -0.1)">
						<g>
							<path id="DejaVuSans-48" d="M-498.2,1095.1c-5.1,0-8.9-2.5-11.5-7.5c-2.6-5-3.8-12.5-3.8-22.5c0-10,1.3-17.5,3.8-22.5
								c2.6-5,6.4-7.5,11.5-7.5c5.1,0,8.9,2.5,11.5,7.5c2.6,5,3.8,12.5,3.8,22.5c0,10-1.3,17.5-3.8,22.5
								C-489.3,1092.6-493.1,1095.1-498.2,1095.1z M-498.2,1102.9c8.2,0,14.4-3.2,18.7-9.7c4.3-6.5,6.5-15.8,6.5-28.1
								c0-12.3-2.2-21.6-6.5-28.1c-4.3-6.5-10.6-9.7-18.7-9.7c-8.2,0-14.4,3.2-18.7,9.7c-4.3,6.5-6.5,15.8-6.5,28.1
								c0,12.3,2.2,21.7,6.5,28.1C-512.6,1099.7-506.4,1102.9-498.2,1102.9z"/>
						</g>
					</g>
				</g>
			</g>
			<g id="xtick_2">
				<g id="line2d_3">
					<g>
						<defs>
							<rect id="SVGID_3_" x="4.6" y="-61.4" width="357.1" height="266.1"/>
						</defs>
						<clipPath id="SVGID_4_">
							<use xlink:href="#SVGID_3_"  style="overflow:visible;"/>
						</clipPath>
						
							<path style="clip-path:url(#SVGID_4_);fill:none;stroke:#808080;stroke-width:0.3;stroke-linecap:square;stroke-linejoin:round;" d="
							M127.4,204.7V-61.4"/>
					</g>
				</g>
				<g id="line2d_4">
					<g>
						<g>
							<path id="mbd2cb5f034_1_" style="stroke:#000000;stroke-width:0.8;stroke-linejoin:round;" d="M127.4,204.7v3.5"/>
						</g>
					</g>
				</g>
				<g id="text_2">
					<g transform="translate(177.24091 322.182437)scale(0.1 -0.1)">
						<g>
							<path id="DejaVuSans-49" d="M-517.6,1037h16.1v55.6l-17.5-3.5v9l17.4,3.5h9.9V1037h16.1v-8.3h-42V1037z"/>
						</g>
					</g>
				</g>
			</g>
			<g id="xtick_3">
				<g id="line2d_5">
					<g>
						<defs>
							<rect id="SVGID_5_" x="4.6" y="-61.4" width="357.1" height="266.1"/>
						</defs>
						<clipPath id="SVGID_6_">
							<use xlink:href="#SVGID_5_"  style="overflow:visible;"/>
						</clipPath>
						
							<path style="clip-path:url(#SVGID_6_);fill:none;stroke:#808080;stroke-width:0.3;stroke-linecap:square;stroke-linejoin:round;" d="
							M242.5,204.7V-61.4"/>
					</g>
				</g>
				<g id="line2d_6">
					<g>
						<g>
							<path id="mbd2cb5f034_2_" style="stroke:#000000;stroke-width:0.8;stroke-linejoin:round;" d="M242.5,204.7v3.5"/>
						</g>
					</g>
				</g>
				<g id="text_3">
					<g transform="translate(292.274931 322.182437)scale(0.1 -0.1)">
						<g>
							<path id="DejaVuSans-50" d="M-510.8,1037h34.4v-8.3h-46.3v8.3c3.7,3.9,8.8,9.1,15.3,15.6c6.5,6.5,10.5,10.7,12.2,12.6
								c3.2,3.5,5.4,6.5,6.6,9c1.3,2.5,1.9,4.9,1.9,7.2c0,3.9-1.4,7-4.1,9.5c-2.7,2.4-6.3,3.7-10.6,3.7c-3.1,0-6.4-0.5-9.8-1.6
								c-3.4-1.1-7.1-2.7-11-4.9v10c4,1.6,7.7,2.8,11.1,3.6c3.5,0.8,6.6,1.2,9.5,1.2c7.6,0,13.6-1.9,18.1-5.7
								c4.5-3.8,6.7-8.8,6.7-15.1c0-3-0.6-5.8-1.7-8.5c-1.1-2.7-3.2-5.8-6.1-9.5c-0.8-0.9-3.4-3.7-7.8-8.2
								C-496.7,1051.4-502.9,1045.1-510.8,1037z"/>
						</g>
					</g>
				</g>
			</g>
			<g id="xtick_4">
				<g id="line2d_7">
					<g>
						<defs>
							<rect id="SVGID_7_" x="4.6" y="-61.4" width="357.1" height="266.1"/>
						</defs>
						<clipPath id="SVGID_8_">
							<use xlink:href="#SVGID_7_"  style="overflow:visible;"/>
						</clipPath>
						
							<path style="clip-path:url(#SVGID_8_);fill:none;stroke:#808080;stroke-width:0.3;stroke-linecap:square;stroke-linejoin:round;" d="
							M357.5,204.7V-61.4"/>
					</g>
				</g>
				<g id="line2d_8">
					<g>
						<g>
							<path id="mbd2cb5f034_3_" style="stroke:#000000;stroke-width:0.8;stroke-linejoin:round;" d="M357.5,204.7v3.5"/>
						</g>
					</g>
				</g>
				<g id="text_4">
					<g transform="translate(407.308953 322.182437)scale(0.1 -0.1)">
						<g>
							<path id="DejaVuSans-51" d="M-489.4,1068c4.7-1,8.4-3.1,11-6.3c2.7-3.2,4-7.1,4-11.8c0-7.2-2.5-12.8-7.4-16.7
								c-4.9-3.9-12-5.9-21.1-5.9c-3.1,0-6.2,0.3-9.4,0.9c-3.2,0.6-6.6,1.5-10,2.7v9.5c2.7-1.6,5.7-2.8,9-3.6
								c3.3-0.8,6.7-1.2,10.2-1.2c6.2,0,10.9,1.2,14.1,3.7s4.9,6,4.9,10.6c0,4.3-1.5,7.7-4.5,10.1c-3,2.4-7.2,3.6-12.6,3.6h-8.5v8.1
								h8.9c4.8,0,8.6,1,11.1,2.9s3.9,4.7,3.9,8.4c0,3.7-1.3,6.6-4,8.6c-2.6,2-6.4,3-11.4,3c-2.7,0-5.6-0.3-8.7-0.9
								c-3.1-0.6-6.5-1.5-10.2-2.7v8.8c3.8,1,7.3,1.8,10.5,2.3c3.3,0.5,6.4,0.8,9.2,0.8c7.5,0,13.4-1.7,17.8-5.1
								c4.4-3.4,6.5-8,6.5-13.8c0-4-1.2-7.5-3.5-10.2S-485.2,1069.1-489.4,1068z"/>
						</g>
					</g>
				</g>
			</g>
		</g>
		<g id="matplotlib.axis_2">
			<g id="ytick_1">
				<g id="line2d_9">
					<g>
						<defs>
							<rect id="SVGID_9_" x="4.6" y="-61.4" width="357.1" height="266.1"/>
						</defs>
						<clipPath id="SVGID_10_">
							<use xlink:href="#SVGID_9_"  style="overflow:visible;"/>
						</clipPath>
						
							<path style="clip-path:url(#SVGID_10_);fill:none;stroke:#808080;stroke-width:0.3;stroke-linecap:square;stroke-linejoin:round;" d="
							M4.6,155.1h357.1"/>
					</g>
				</g>
				<g id="line2d_10">
					<g>
						<g>
							<path id="m62ba6129e5" style="stroke:#000000;stroke-width:0.8;stroke-linejoin:round;" d="M4.6,155.1H1.1"/>
						</g>
					</g>
				</g>
				<g id="text_5">
					<g transform="translate(34.696875 261.750087)scale(0.1 -0.1)">
						<g>
							<path id="DejaVuSans-48_1_" d="M-498.2,1095.1c-5.1,0-8.9-2.5-11.5-7.5c-2.6-5-3.8-12.5-3.8-22.5c0-10,1.3-17.5,3.8-22.5
								c2.6-5,6.4-7.5,11.5-7.5c5.1,0,8.9,2.5,11.5,7.5c2.6,5,3.8,12.5,3.8,22.5c0,10-1.3,17.5-3.8,22.5
								C-489.3,1092.6-493.1,1095.1-498.2,1095.1z M-498.2,1102.9c8.2,0,14.4-3.2,18.7-9.7c4.3-6.5,6.5-15.8,6.5-28.1
								c0-12.3-2.2-21.6-6.5-28.1c-4.3-6.5-10.6-9.7-18.7-9.7c-8.2,0-14.4,3.2-18.7,9.7c-4.3,6.5-6.5,15.8-6.5,28.1
								c0,12.3,2.2,21.7,6.5,28.1C-512.6,1099.7-506.4,1102.9-498.2,1102.9z"/>
						</g>
						<g>
							<path id="DejaVuSans-46" d="M-455.7,1041.1h10.3v-12.4h-10.3V1041.1z"/>
						</g>
						<g>
							<path id="DejaVuSans-48_2_" d="M-402.8,1095.1c-5.1,0-8.9-2.5-11.5-7.5c-2.6-5-3.8-12.5-3.8-22.5c0-10,1.3-17.5,3.8-22.5
								c2.6-5,6.4-7.5,11.5-7.5c5.1,0,8.9,2.5,11.5,7.5c2.6,5,3.8,12.5,3.8,22.5c0,10-1.3,17.5-3.8,22.5
								C-393.9,1092.6-397.7,1095.1-402.8,1095.1z M-402.8,1102.9c8.2,0,14.4-3.2,18.7-9.7c4.3-6.5,6.5-15.8,6.5-28.1
								c0-12.3-2.2-21.6-6.5-28.1c-4.3-6.5-10.6-9.7-18.7-9.7c-8.2,0-14.4,3.2-18.7,9.7c-4.3,6.5-6.5,15.8-6.5,28.1
								c0,12.3,2.2,21.7,6.5,28.1C-417.2,1099.7-411,1102.9-402.8,1102.9z"/>
						</g>
					</g>
				</g>
			</g>
			<g id="ytick_2">
				<g id="line2d_11">
					<g>
						<defs>
							<rect id="SVGID_11_" x="4.6" y="-61.4" width="357.1" height="266.1"/>
						</defs>
						<clipPath id="SVGID_12_">
							<use xlink:href="#SVGID_11_"  style="overflow:visible;"/>
						</clipPath>
						
							<path style="clip-path:url(#SVGID_12_);fill:none;stroke:#808080;stroke-width:0.3;stroke-linecap:square;stroke-linejoin:round;" d="
							M4.6,102.7h357.1"/>
					</g>
				</g>
				<g id="line2d_12">
					<g>
						<g>
							<path id="m62ba6129e5_1_" style="stroke:#000000;stroke-width:0.8;stroke-linejoin:round;" d="M4.6,102.7H1.1"/>
						</g>
					</g>
				</g>
				<g id="text_6">
					<g transform="translate(34.696875 209.349855)scale(0.1 -0.1)">
						<g>
							<path id="DejaVuSans-48_3_" d="M-498.2,1095.1c-5.1,0-8.9-2.5-11.5-7.5c-2.6-5-3.8-12.5-3.8-22.5c0-10,1.3-17.5,3.8-22.5
								c2.6-5,6.4-7.5,11.5-7.5c5.1,0,8.9,2.5,11.5,7.5c2.6,5,3.8,12.5,3.8,22.5c0,10-1.3,17.5-3.8,22.5
								C-489.3,1092.6-493.1,1095.1-498.2,1095.1z M-498.2,1102.9c8.2,0,14.4-3.2,18.7-9.7c4.3-6.5,6.5-15.8,6.5-28.1
								c0-12.3-2.2-21.6-6.5-28.1c-4.3-6.5-10.6-9.7-18.7-9.7c-8.2,0-14.4,3.2-18.7,9.7c-4.3,6.5-6.5,15.8-6.5,28.1
								c0,12.3,2.2,21.7,6.5,28.1C-512.6,1099.7-506.4,1102.9-498.2,1102.9z"/>
						</g>
						<g>
							<path id="DejaVuSans-46_1_" d="M-455.7,1041.1h10.3v-12.4h-10.3V1041.1z"/>
						</g>
						<g>
							<path id="DejaVuSans-50_1_" d="M-415.4,1037h34.4v-8.3h-46.3v8.3c3.7,3.9,8.8,9.1,15.3,15.6c6.5,6.5,10.5,10.7,12.2,12.6
								c3.2,3.5,5.4,6.5,6.6,9c1.3,2.5,1.9,4.9,1.9,7.2c0,3.9-1.4,7-4.1,9.5c-2.7,2.4-6.3,3.7-10.6,3.7c-3.1,0-6.4-0.5-9.8-1.6
								c-3.4-1.1-7.1-2.7-11-4.9v10c4,1.6,7.7,2.8,11.1,3.6c3.5,0.8,6.6,1.2,9.5,1.2c7.6,0,13.6-1.9,18.1-5.7
								c4.5-3.8,6.7-8.8,6.7-15.1c0-3-0.6-5.8-1.7-8.5c-1.1-2.7-3.2-5.8-6.1-9.5c-0.8-0.9-3.4-3.7-7.8-8.2
								C-401.3,1051.4-407.5,1045.1-415.4,1037z"/>
						</g>
					</g>
				</g>
			</g>
			<g id="ytick_3">
				<g id="line2d_13">
					<g>
						<defs>
							<rect id="SVGID_13_" x="4.6" y="-61.4" width="357.1" height="266.1"/>
						</defs>
						<clipPath id="SVGID_14_">
							<use xlink:href="#SVGID_13_"  style="overflow:visible;"/>
						</clipPath>
						
							<path style="clip-path:url(#SVGID_14_);fill:none;stroke:#808080;stroke-width:0.3;stroke-linecap:square;stroke-linejoin:round;" d="
							M4.6,50.3h357.1"/>
					</g>
				</g>
				<g id="line2d_14">
					<g>
						<g>
							<path id="m62ba6129e5_2_" style="stroke:#000000;stroke-width:0.8;stroke-linejoin:round;" d="M4.6,50.3H1.1"/>
						</g>
					</g>
				</g>
				<g id="text_7">
					<g transform="translate(34.696875 156.949622)scale(0.1 -0.1)">
						<g>
							<path id="DejaVuSans-48_4_" d="M-498.2,1095.1c-5.1,0-8.9-2.5-11.5-7.5c-2.6-5-3.8-12.5-3.8-22.5c0-10,1.3-17.5,3.8-22.5
								c2.6-5,6.4-7.5,11.5-7.5c5.1,0,8.9,2.5,11.5,7.5c2.6,5,3.8,12.5,3.8,22.5c0,10-1.3,17.5-3.8,22.5
								C-489.3,1092.6-493.1,1095.1-498.2,1095.1z M-498.2,1102.9c8.2,0,14.4-3.2,18.7-9.7c4.3-6.5,6.5-15.8,6.5-28.1
								c0-12.3-2.2-21.6-6.5-28.1c-4.3-6.5-10.6-9.7-18.7-9.7c-8.2,0-14.4,3.2-18.7,9.7c-4.3,6.5-6.5,15.8-6.5,28.1
								c0,12.3,2.2,21.7,6.5,28.1C-512.6,1099.7-506.4,1102.9-498.2,1102.9z"/>
						</g>
						<g>
							<path id="DejaVuSans-46_2_" d="M-455.7,1041.1h10.3v-12.4h-10.3V1041.1z"/>
						</g>
						<g>
							<path id="DejaVuSans-52" d="M-396.8,1093l-24.9-38.9h24.9V1093z M-399.4,1101.6h12.4v-47.5h10.4v-8.2H-387v-17.2h-9.8v17.2
								h-32.9v9.5L-399.4,1101.6z"/>
						</g>
					</g>
				</g>
			</g>
			<g id="ytick_4">
				<g id="line2d_15">
					<g>
						<defs>
							<rect id="SVGID_15_" x="4.6" y="-61.4" width="357.1" height="266.1"/>
						</defs>
						<clipPath id="SVGID_16_">
							<use xlink:href="#SVGID_15_"  style="overflow:visible;"/>
						</clipPath>
						
							<path style="clip-path:url(#SVGID_16_);fill:none;stroke:#808080;stroke-width:0.3;stroke-linecap:square;stroke-linejoin:round;" d="
							M4.6-2.1h357.1"/>
					</g>
				</g>
				<g id="line2d_16">
					<g>
						<g>
							<path id="m62ba6129e5_3_" style="stroke:#000000;stroke-width:0.8;stroke-linejoin:round;" d="M4.6-2.1H1.1"/>
						</g>
					</g>
				</g>
				<g id="text_8">
					<g transform="translate(34.696875 104.54939)scale(0.1 -0.1)">
						<g>
							<path id="DejaVuSans-48_5_" d="M-498.2,1095.1c-5.1,0-8.9-2.5-11.5-7.5c-2.6-5-3.8-12.5-3.8-22.5c0-10,1.3-17.5,3.8-22.5
								c2.6-5,6.4-7.5,11.5-7.5c5.1,0,8.9,2.5,11.5,7.5c2.6,5,3.8,12.5,3.8,22.5c0,10-1.3,17.5-3.8,22.5
								C-489.3,1092.6-493.1,1095.1-498.2,1095.1z M-498.2,1102.9c8.2,0,14.4-3.2,18.7-9.7c4.3-6.5,6.5-15.8,6.5-28.1
								c0-12.3-2.2-21.6-6.5-28.1c-4.3-6.5-10.6-9.7-18.7-9.7c-8.2,0-14.4,3.2-18.7,9.7c-4.3,6.5-6.5,15.8-6.5,28.1
								c0,12.3,2.2,21.7,6.5,28.1C-512.6,1099.7-506.4,1102.9-498.2,1102.9z"/>
						</g>
						<g>
							<path id="DejaVuSans-46_3_" d="M-455.7,1041.1h10.3v-12.4h-10.3V1041.1z"/>
						</g>
						<g>
							<path id="DejaVuSans-54" d="M-401.6,1069.1c-4.4,0-7.9-1.5-10.5-4.5c-2.6-3-3.9-7.2-3.9-12.4c0-5.2,1.3-9.4,3.9-12.4
								c2.6-3,6.1-4.6,10.5-4.6s7.9,1.5,10.5,4.6c2.6,3.1,3.9,7.2,3.9,12.4c0,5.3-1.3,9.4-3.9,12.4
								C-393.6,1067.6-397.1,1069.1-401.6,1069.1z M-382,1100v-9c-2.5,1.2-5,2.1-7.5,2.7c-2.5,0.6-5,0.9-7.5,0.9
								c-6.5,0-11.5-2.2-14.9-6.6c-3.4-4.4-5.4-11-5.9-19.9c1.9,2.8,4.3,5,7.2,6.5c2.9,1.5,6.1,2.3,9.6,2.3c7.3,0,13.1-2.2,17.4-6.7
								c4.2-4.4,6.4-10.5,6.4-18.1c0-7.5-2.2-13.5-6.6-18c-4.4-4.5-10.3-6.8-17.7-6.8c-8.4,0-14.9,3.2-19.3,9.7
								c-4.5,6.5-6.7,15.8-6.7,28.1c0,11.5,2.7,20.7,8.2,27.6c5.5,6.9,12.8,10.3,22,10.3c2.5,0,5-0.2,7.5-0.7
								C-387.4,1101.7-384.7,1101-382,1100z"/>
						</g>
					</g>
				</g>
			</g>
			<g id="ytick_5">
				<g id="line2d_17">
					<g>
						<defs>
							<rect id="SVGID_17_" x="4.6" y="-61.4" width="357.1" height="266.1"/>
						</defs>
						<clipPath id="SVGID_18_">
							<use xlink:href="#SVGID_17_"  style="overflow:visible;"/>
						</clipPath>
						
							<path style="clip-path:url(#SVGID_18_);fill:none;stroke:#808080;stroke-width:0.3;stroke-linecap:square;stroke-linejoin:round;" d="
							M4.6-54.5h357.1"/>
					</g>
				</g>
				<g id="line2d_18">
					<g>
						<g>
							<path id="m62ba6129e5_4_" style="stroke:#000000;stroke-width:0.8;stroke-linejoin:round;" d="M4.6-54.5H1.1"/>
						</g>
					</g>
				</g>
				<g id="text_9">
					<g transform="translate(34.696875 52.149157)scale(0.1 -0.1)">
						<g>
							<path id="DejaVuSans-48_6_" d="M-498.2,1095.1c-5.1,0-8.9-2.5-11.5-7.5c-2.6-5-3.8-12.5-3.8-22.5c0-10,1.3-17.5,3.8-22.5
								c2.6-5,6.4-7.5,11.5-7.5c5.1,0,8.9,2.5,11.5,7.5c2.6,5,3.8,12.5,3.8,22.5c0,10-1.3,17.5-3.8,22.5
								C-489.3,1092.6-493.1,1095.1-498.2,1095.1z M-498.2,1102.9c8.2,0,14.4-3.2,18.7-9.7c4.3-6.5,6.5-15.8,6.5-28.1
								c0-12.3-2.2-21.6-6.5-28.1c-4.3-6.5-10.6-9.7-18.7-9.7c-8.2,0-14.4,3.2-18.7,9.7c-4.3,6.5-6.5,15.8-6.5,28.1
								c0,12.3,2.2,21.7,6.5,28.1C-512.6,1099.7-506.4,1102.9-498.2,1102.9z"/>
						</g>
						<g>
							<path id="DejaVuSans-46_4_" d="M-455.7,1041.1h10.3v-12.4h-10.3V1041.1z"/>
						</g>
						<g>
							<path id="DejaVuSans-56" d="M-402.8,1063.3c-4.7,0-8.4-1.3-11.1-3.8c-2.7-2.5-4-6-4-10.3c0-4.4,1.3-7.8,4-10.4
								c2.7-2.5,6.4-3.8,11.1-3.8s8.4,1.3,11.1,3.8c2.7,2.5,4.1,6,4.1,10.3c0,4.4-1.3,7.8-4,10.3
								C-394.4,1062.1-398.1,1063.3-402.8,1063.3z M-412.7,1067.5c-4.2,1-7.5,3-9.9,5.9c-2.4,2.9-3.5,6.4-3.5,10.6
								c0,5.8,2.1,10.4,6.2,13.8c4.2,3.4,9.8,5.1,17.1,5.1c7.3,0,13-1.7,17.1-5.1c4.1-3.4,6.2-8,6.2-13.8c0-4.2-1.2-7.7-3.5-10.6
								c-2.4-2.9-5.6-4.9-9.8-5.9c4.8-1.1,8.4-3.3,11.1-6.5c2.7-3.2,4-7.2,4-11.8c0-7.1-2.2-12.5-6.5-16.3
								c-4.3-3.8-10.5-5.7-18.5-5.7c-8,0-14.2,1.9-18.5,5.7c-4.3,3.8-6.5,9.2-6.5,16.3c0,4.6,1.3,8.6,4,11.8
								C-421.1,1064.2-417.4,1066.4-412.7,1067.5z M-416.3,1083.1c0-3.8,1.2-6.7,3.5-8.8c2.4-2.1,5.7-3.2,9.9-3.2
								c4.2,0,7.6,1.1,9.9,3.2c2.4,2.1,3.6,5.1,3.6,8.8c0,3.8-1.2,6.7-3.6,8.8c-2.4,2.1-5.7,3.2-9.9,3.2c-4.3,0-7.6-1.1-9.9-3.2
								C-415.1,1089.8-416.3,1086.9-416.3,1083.1z"/>
						</g>
					</g>
				</g>
			</g>
		</g>
		<g id="line2d_19">
			<g>
				<defs>
					<rect id="SVGID_19_" x="4.6" y="-61.4" width="357.1" height="266.1"/>
				</defs>
				<clipPath id="SVGID_20_">
					<use xlink:href="#SVGID_19_"  style="overflow:visible;"/>
				</clipPath>
				
					<path style="clip-path:url(#SVGID_20_);fill:none;stroke:#1F77B4;stroke-width:1.5;stroke-linecap:square;stroke-linejoin:round;" d="
					M12.4,155.1l3.5-0.1l3.5-0.4l3.5-0.6l3.5-0.8l3.5-1.1l3.5-1.3l3.5-1.5l3.5-1.8l3.5-2l3.5-2.2l3.5-2.5l3.5-2.7l3.5-2.9l3.5-3.2
					l3.5-3.4l4.6-4.9l4.6-5.3l4.6-5.8l4.6-6.2l4.6-6.6l4.6-7l4.6-7.4l4.6-7.9l4.6-8.3l4.6-8.7l4.6-9.1l4.6-9.5l4.6-10l9.2-20.2
					l3.5-6.8l3.5-6.4l3.5-5.9l3.5-5.4l3.5-5l3.5-4.5l3.5-4l3.5-3.5l2.3-2.1l2.3-1.9l2.3-1.7L170-37l2.3-1.3l2.3-1l2.3-0.8l2.3-0.6
					l2.3-0.4l2.3-0.2h2.3l2.3,0.2l2.3,0.4l2.3,0.6l2.3,0.8l2.3,1l2.3,1.3l2.3,1.5l2.3,1.7l2.3,1.9l2.3,2.1l2.3,2.3l3.5,3.9l3.5,4.3
					l3.5,4.8l3.5,5.3l3.5,5.7l3.5,6.2l3.5,6.7l3.5,7.2l3.5,7.6l5.8,12.8L254,49l4.6,9.2l4.6,8.8l4.6,8.4l4.6,8l4.6,7.5l4.6,7.1
					l4.6,6.7l4.6,6.3l4.6,5.9l4.6,5.4l4.6,5l4.6,4.6l3.5,3.2l3.5,2.9l3.5,2.7l3.5,2.5l3.5,2.2l3.5,2l3.5,1.8l3.5,1.5l3.5,1.3
					l3.5,1.1l3.5,0.8l3.5,0.6l3.5,0.4l2.3,0.1l0,0"/>
			</g>
		</g>
		<g id="line2d_20">
			<g>
				<defs>
					<rect id="SVGID_21_" x="4.6" y="-61.4" width="357.1" height="266.1"/>
				</defs>
				<clipPath id="SVGID_22_">
					<use xlink:href="#SVGID_21_"  style="overflow:visible;"/>
				</clipPath>
				<g style="clip-path:url(#SVGID_22_);">
					<g>
						<path id="m0b8a9a7e7a" style="fill:#FFFFFF;stroke:#000000;stroke-linejoin:round;" d="M12.4,157.1c0.5,0,1-0.2,1.4-0.6
							c0.4-0.4,0.6-0.9,0.6-1.4c0-0.5-0.2-1-0.6-1.4c-0.4-0.4-0.9-0.6-1.4-0.6s-1,0.2-1.4,0.6c-0.4,0.4-0.6,0.9-0.6,1.4
							c0,0.5,0.2,1,0.6,1.4C11.3,156.9,11.9,157.1,12.4,157.1z"/>
					</g>
					<g>
						<path id="m0b8a9a7e7a_1_" style="fill:#FFFFFF;stroke:#000000;stroke-linejoin:round;" d="M127.4,26.1c0.5,0,1-0.2,1.4-0.6
							c0.4-0.4,0.6-0.9,0.6-1.4c0-0.5-0.2-1-0.6-1.4c-0.4-0.4-0.9-0.6-1.4-0.6s-1,0.2-1.4,0.6s-0.6,0.9-0.6,1.4c0,0.5,0.2,1,0.6,1.4
							S126.9,26.1,127.4,26.1z"/>
					</g>
					<g>
						<path id="m0b8a9a7e7a_2_" style="fill:#FFFFFF;stroke:#000000;stroke-linejoin:round;" d="M242.5,26.1c0.5,0,1-0.2,1.4-0.6
							c0.4-0.4,0.6-0.9,0.6-1.4c0-0.5-0.2-1-0.6-1.4c-0.4-0.4-0.9-0.6-1.4-0.6s-1,0.2-1.4,0.6c-0.4,0.4-0.6,0.9-0.6,1.4
							c0,0.5,0.2,1,0.6,1.4C241.4,25.9,241.9,26.1,242.5,26.1z"/>
					</g>
				</g>
			</g>
		</g>
		<g id="line2d_21">
			<g>
				<defs>
					<rect id="SVGID_23_" x="4.6" y="-61.4" width="357.1" height="266.1"/>
				</defs>
				<clipPath id="SVGID_24_">
					<use xlink:href="#SVGID_23_"  style="overflow:visible;"/>
				</clipPath>
				
					<path style="clip-path:url(#SVGID_24_);fill:none;stroke:#2CA02C;stroke-width:1.5;stroke-linecap:square;stroke-linejoin:round;" d="
					M12.4,155.1l3.5,0.1l3.5,0.4l3.5,0.6l3.5,0.8l3.5,1l3.5,1.2l3.5,1.4l4.6,2.2l4.6,2.4l5.8,3.3l8.1,4.9l9.2,5.6l4.6,2.6l4.6,2.3
					l3.5,1.4l3.5,1.2l2.3,0.6l2.3,0.4l2.3,0.3l2.3,0.1l2.3-0.1l2.3-0.4l2.3-0.6l2.3-0.9l2.3-1.2l2.3-1.5l2.3-1.8l2.3-2.2l2.3-2.5
					l2.3-2.9l2.3-3.3l2.3-3.8l2.3-4.2l2.3-4.7l3.5-7.5l2.3-4.5l2.3-4l2.3-3.6l2.3-3.1l2.3-2.7l2.3-2.3l2.3-2l2.3-1.6l2.3-1.3l2.3-1
					l2.3-0.8l2.3-0.5l2.3-0.3l2.3,0l2.3,0.2l2.3,0.4l2.3,0.5l3.5,1.1l3.5,1.4l3.5,1.6l4.6,2.4l5.8,3.4l19.6,11.8l4.6,2.4l4.6,2.2
					l3.5,1.4l3.5,1.2l3.5,1l3.5,0.8l3.5,0.6l3.5,0.4l2.3,0.1l0,0"/>
			</g>
		</g>
		<g id="line2d_22">
			<g>
				<defs>
					<rect id="SVGID_25_" x="4.6" y="-61.4" width="357.1" height="266.1"/>
				</defs>
				<clipPath id="SVGID_26_">
					<use xlink:href="#SVGID_25_"  style="overflow:visible;"/>
				</clipPath>
				<g style="clip-path:url(#SVGID_26_);">
					<g>
						<path id="m0b8a9a7e7a_3_" style="fill:#FFFFFF;stroke:#000000;stroke-linejoin:round;" d="M12.4,157.1c0.5,0,1-0.2,1.4-0.6
							c0.4-0.4,0.6-0.9,0.6-1.4c0-0.5-0.2-1-0.6-1.4c-0.4-0.4-0.9-0.6-1.4-0.6s-1,0.2-1.4,0.6c-0.4,0.4-0.6,0.9-0.6,1.4
							c0,0.5,0.2,1,0.6,1.4C11.3,156.9,11.9,157.1,12.4,157.1z"/>
					</g>
					<g>
						<path id="m0b8a9a7e7a_4_" style="fill:#FFFFFF;stroke:#000000;stroke-linejoin:round;" d="M127.4,157.1c0.5,0,1-0.2,1.4-0.6
							c0.4-0.4,0.6-0.9,0.6-1.4c0-0.5-0.2-1-0.6-1.4c-0.4-0.4-0.9-0.6-1.4-0.6s-1,0.2-1.4,0.6c-0.4,0.4-0.6,0.9-0.6,1.4
							c0,0.5,0.2,1,0.6,1.4C126.4,156.9,126.9,157.1,127.4,157.1z"/>
					</g>
				</g>
			</g>
		</g>
		<g id="patch_3">
			<path style="fill:none;stroke:#000000;stroke-width:0.8;stroke-linecap:square;" d="M4.6,204.7V-61.4"/>
		</g>
		<g id="patch_4">
			<path style="fill:none;stroke:#000000;stroke-width:0.8;stroke-linecap:square;" d="M361.7,204.7V-61.4"/>
		</g>
		<g id="patch_5">
			<path style="fill:none;stroke:#000000;stroke-width:0.8;stroke-linecap:square;" d="M4.6,204.7h357.1"/>
		</g>
		<g id="patch_6">
			<path style="fill:none;stroke:#000000;stroke-width:0.8;stroke-linecap:square;" d="M4.6-61.4h357.1"/>
		</g>
		<g id="text_10">
			<g transform="translate(215.879063 35.472)scale(0.12 -0.12)">
				<g>
					<path id="DejaVuSans-83" d="M-388.2,927.8v-9.6c-3.7,1.8-7.3,3.1-10.6,4c-3.3,0.9-6.5,1.3-9.6,1.3c-5.4,0-9.5-1-12.4-3.1
						c-2.9-2.1-4.4-5-4.4-8.9c0-3.2,1-5.7,2.9-7.3c1.9-1.6,5.6-3,11-4l6-1.2c7.4-1.4,12.8-3.9,16.3-7.4s5.2-8.3,5.2-14.2
						c0-7.1-2.4-12.4-7.1-16.1c-4.7-3.6-11.7-5.5-20.8-5.5c-3.4,0-7.1,0.4-11,1.2c-3.9,0.8-7.9,1.9-12.1,3.5v10.2
						c4-2.2,7.9-3.9,11.8-5.1c3.8-1.1,7.6-1.7,11.3-1.7c5.6,0,10,1.1,13,3.3c3.1,2.2,4.6,5.4,4.6,9.5c0,3.6-1.1,6.4-3.3,8.4
						c-2.2,2-5.8,3.5-10.8,4.5l-6,1.2c-7.4,1.5-12.7,3.8-16,6.9c-3.3,3.1-4.9,7.5-4.9,13c0,6.4,2.3,11.5,6.8,15.2
						c4.5,3.7,10.8,5.6,18.8,5.6c3.4,0,6.9-0.3,10.5-0.9C-395.5,929.9-391.9,929-388.2,927.8z"/>
				</g>
				<g>
					<path id="DejaVuSans-50_2_" d="M-359,865.5h34.4v-8.3h-46.3v8.3c3.7,3.9,8.8,9.1,15.3,15.6c6.5,6.5,10.5,10.7,12.2,12.6
						c3.2,3.5,5.4,6.5,6.6,9c1.3,2.5,1.9,4.9,1.9,7.2c0,3.9-1.4,7-4.1,9.5c-2.7,2.4-6.3,3.7-10.6,3.7c-3.1,0-6.4-0.5-9.8-1.6
						c-3.4-1.1-7.1-2.7-11-4.9v10c4,1.6,7.7,2.8,11.1,3.6c3.5,0.8,6.6,1.2,9.5,1.2c7.6,0,13.6-1.9,18.1-5.7
						c4.5-3.8,6.7-8.8,6.7-15.1c0-3-0.6-5.8-1.7-8.5c-1.1-2.7-3.2-5.8-6.1-9.5c-0.8-0.9-3.4-3.7-7.8-8.2
						C-344.9,880-351.1,873.7-359,865.5z"/>
				</g>
				<g>
					<path id="DejaVuSans-43" d="M-268.6,920v-27.2h27.2v-8.3h-27.2v-27.2h-8.2v27.2H-304v8.3h27.2V920H-268.6z"/>
				</g>
				<g>
					<path id="DejaVuSans-83_1_" d="M-177.3,927.8v-9.6c-3.7,1.8-7.3,3.1-10.6,4c-3.3,0.9-6.5,1.3-9.6,1.3c-5.4,0-9.5-1-12.4-3.1
						c-2.9-2.1-4.4-5-4.4-8.9c0-3.2,1-5.7,2.9-7.3c1.9-1.6,5.6-3,11-4l6-1.2c7.4-1.4,12.8-3.9,16.3-7.4s5.2-8.3,5.2-14.2
						c0-7.1-2.4-12.4-7.1-16.1c-4.7-3.6-11.7-5.5-20.8-5.5c-3.4,0-7.1,0.4-11,1.2c-3.9,0.8-7.9,1.9-12.1,3.5v10.2
						c4-2.2,7.9-3.9,11.8-5.1c3.8-1.1,7.6-1.7,11.3-1.7c5.6,0,10,1.1,13,3.3c3.1,2.2,4.6,5.4,4.6,9.5c0,3.6-1.1,6.4-3.3,8.4
						c-2.2,2-5.8,3.5-10.8,4.5l-6,1.2c-7.4,1.5-12.7,3.8-16,6.9c-3.3,3.1-4.9,7.5-4.9,13c0,6.4,2.3,11.5,6.8,15.2
						c4.5,3.7,10.8,5.6,18.8,5.6c3.4,0,6.9-0.3,10.5-0.9C-184.6,929.9-181,929-177.3,927.8z"/>
				</g>
				<g>
					<path id="DejaVuSans-52_1_" d="M-129.5,921.6l-24.9-38.9h24.9V921.6z M-132.1,930.2h12.4v-47.5h10.4v-8.2h-10.4v-17.2h-9.8
						v17.2h-32.9v9.5L-132.1,930.2z"/>
				</g>
			</g>
		</g>
	</g>
</g>
</svg>
