<?xml version="1.0" encoding="utf-8"?>
<!-- Generator: Adobe Illustrator 19.0.0, SVG Export Plug-In . SVG Version: 6.00 Build 0)  -->
<svg version="1.1" id="Layer_1" xmlns="http://www.w3.org/2000/svg" xmlns:xlink="http://www.w3.org/1999/xlink" x="0px" y="0px"
	 viewBox="0 0 403 294" style="enable-background:new 0 0 403 294;" xml:space="preserve">
<g>
	<defs>
		<rect id="SVGID_1_" x="-22" y="-35.6" width="460.8" height="345.6"/>
	</defs>
	<clipPath id="SVGID_2_">
		<use xlink:href="#SVGID_1_"  style="overflow:visible;"/>
	</clipPath>
	<rect x="-22" y="-35.6" style="clip-path:url(#SVGID_2_);fill:#FFFFFF;" width="460.8" height="345.6"/>
	<rect x="35.6" y="5.9" style="clip-path:url(#SVGID_2_);fill:#FFFFFF;" width="357.1" height="266.1"/>
	<g style="clip-path:url(#SVGID_2_);">
		<defs>
			<rect id="SVGID_3_" x="35.6" y="5.9" width="357.1" height="266.1"/>
		</defs>
		<clipPath id="SVGID_4_">
			<use xlink:href="#SVGID_3_"  style="overflow:visible;"/>
		</clipPath>
		
			<line style="clip-path:url(#SVGID_4_);fill:none;stroke:#808080;stroke-width:0.3;stroke-linecap:square;stroke-linejoin:round;stroke-miterlimit:10;" x1="80.2" y1="272" x2="80.2" y2="5.9"/>
	</g>
	<line style="clip-path:url(#SVGID_2_);" x1="80.2" y1="272" x2="80.2" y2="275.5"/>
	
		<line style="clip-path:url(#SVGID_2_);fill:none;stroke:#000000;stroke-width:0.8;stroke-linejoin:round;stroke-miterlimit:10;" x1="80.2" y1="272" x2="80.2" y2="275.5"/>
	<path style="clip-path:url(#SVGID_2_);" d="M80.2,279.2c0.8,0,1.4,0.3,1.9,1c0.4,0.6,0.6,1.6,0.6,2.8c0,1.2-0.2,2.2-0.6,2.8
		c-0.4,0.6-1.1,1-1.9,1c-0.8,0-1.4-0.3-1.9-1c-0.4-0.6-0.6-1.6-0.6-2.8c0-1.2,0.2-2.2,0.6-2.8C78.8,279.5,79.4,279.2,80.2,279.2
		 M80.2,279.9c-0.5,0-0.9,0.2-1.2,0.8s-0.4,1.2-0.4,2.2s0.1,1.8,0.4,2.2s0.6,0.8,1.2,0.8s0.9-0.2,1.2-0.8c0.2-0.5,0.4-1.2,0.4-2.2
		s-0.1-1.8-0.4-2.2C81.1,280.2,80.8,279.9,80.2,279.9"/>
	<g style="clip-path:url(#SVGID_2_);">
		<defs>
			<rect id="SVGID_5_" x="35.6" y="5.9" width="357.1" height="266.1"/>
		</defs>
		<clipPath id="SVGID_6_">
			<use xlink:href="#SVGID_5_"  style="overflow:visible;"/>
		</clipPath>
		
			<line style="clip-path:url(#SVGID_6_);fill:none;stroke:#808080;stroke-width:0.3;stroke-linecap:square;stroke-linejoin:round;stroke-miterlimit:10;" x1="169.5" y1="272" x2="169.5" y2="5.9"/>
	</g>
	<line style="clip-path:url(#SVGID_2_);" x1="169.5" y1="272" x2="169.5" y2="275.5"/>
	
		<line style="clip-path:url(#SVGID_2_);fill:none;stroke:#000000;stroke-width:0.8;stroke-linejoin:round;stroke-miterlimit:10;" x1="169.5" y1="272" x2="169.5" y2="275.5"/>
	<polyline style="clip-path:url(#SVGID_2_);" points="167.6,285.7 169.2,285.7 169.2,280.2 167.4,280.5 167.4,279.6 169.2,279.3 
		170.2,279.3 170.2,285.7 171.8,285.7 171.8,286.6 167.6,286.6 167.6,285.7 	"/>
	<g style="clip-path:url(#SVGID_2_);">
		<defs>
			<rect id="SVGID_7_" x="35.6" y="5.9" width="357.1" height="266.1"/>
		</defs>
		<clipPath id="SVGID_8_">
			<use xlink:href="#SVGID_7_"  style="overflow:visible;"/>
		</clipPath>
		
			<line style="clip-path:url(#SVGID_8_);fill:none;stroke:#808080;stroke-width:0.3;stroke-linecap:square;stroke-linejoin:round;stroke-miterlimit:10;" x1="258.8" y1="272" x2="258.8" y2="5.9"/>
	</g>
	<line style="clip-path:url(#SVGID_2_);" x1="258.8" y1="272" x2="258.8" y2="275.5"/>
	
		<line style="clip-path:url(#SVGID_2_);fill:none;stroke:#000000;stroke-width:0.8;stroke-linejoin:round;stroke-miterlimit:10;" x1="258.8" y1="272" x2="258.8" y2="275.5"/>
	<path style="clip-path:url(#SVGID_2_);" d="M257.5,285.7h3.4v0.8h-4.6v-0.8c0.4-0.4,0.9-0.9,1.5-1.6c0.6-0.6,1-1.1,1.2-1.3
		c0.3-0.3,0.5-0.6,0.7-0.9c0.1-0.2,0.2-0.5,0.2-0.7c0-0.4-0.1-0.7-0.4-0.9c-0.3-0.2-0.6-0.4-1.1-0.4c-0.3,0-0.6,0.1-1,0.2
		c-0.3,0.1-0.7,0.3-1.1,0.5v-1c0.4-0.2,0.8-0.3,1.1-0.4c0.3-0.1,0.7-0.1,0.9-0.1c0.8,0,1.4,0.2,1.8,0.6c0.4,0.4,0.7,0.9,0.7,1.5
		c0,0.3-0.1,0.6-0.2,0.8c-0.1,0.3-0.3,0.6-0.6,1c-0.1,0.1-0.3,0.4-0.8,0.8C258.9,284.3,258.3,284.9,257.5,285.7"/>
	<g style="clip-path:url(#SVGID_2_);">
		<defs>
			<rect id="SVGID_9_" x="35.6" y="5.9" width="357.1" height="266.1"/>
		</defs>
		<clipPath id="SVGID_10_">
			<use xlink:href="#SVGID_9_"  style="overflow:visible;"/>
		</clipPath>
		
			<line style="clip-path:url(#SVGID_10_);fill:none;stroke:#808080;stroke-width:0.3;stroke-linecap:square;stroke-linejoin:round;stroke-miterlimit:10;" x1="348.1" y1="272" x2="348.1" y2="5.9"/>
	</g>
	<line style="clip-path:url(#SVGID_2_);" x1="348.1" y1="272" x2="348.1" y2="275.5"/>
	
		<line style="clip-path:url(#SVGID_2_);fill:none;stroke:#000000;stroke-width:0.8;stroke-linejoin:round;stroke-miterlimit:10;" x1="348.1" y1="272" x2="348.1" y2="275.5"/>
	<path style="clip-path:url(#SVGID_2_);" d="M349,282.6c0.5,0.1,0.8,0.3,1.1,0.6c0.3,0.3,0.4,0.7,0.4,1.2c0,0.7-0.2,1.3-0.7,1.7
		c-0.5,0.4-1.2,0.6-2.1,0.6c-0.3,0-0.6,0-0.9-0.1c-0.3,0-0.7-0.1-1-0.3v-1c0.3,0.2,0.6,0.3,0.9,0.4c0.3,0.1,0.7,0.1,1,0.1
		c0.6,0,1.1-0.1,1.4-0.4c0.3-0.2,0.5-0.6,0.5-1.1c0-0.4-0.1-0.8-0.4-1c-0.3-0.2-0.7-0.4-1.3-0.4h-0.9v-0.8h0.9
		c0.5,0,0.9-0.1,1.1-0.3c0.3-0.2,0.4-0.5,0.4-0.8c0-0.4-0.1-0.7-0.4-0.9c-0.3-0.2-0.7-0.3-1.1-0.3c-0.3,0-0.6,0-0.9,0.1
		s-0.6,0.1-1,0.3v-0.9c0.4-0.1,0.7-0.2,1-0.2c0.3-0.1,0.6-0.1,0.9-0.1c0.7,0,1.3,0.2,1.8,0.5s0.7,0.8,0.7,1.4c0,0.4-0.1,0.7-0.4,1
		C349.7,282.3,349.4,282.5,349,282.6"/>
	<g style="clip-path:url(#SVGID_2_);">
		<defs>
			<rect id="SVGID_11_" x="35.6" y="5.9" width="357.1" height="266.1"/>
		</defs>
		<clipPath id="SVGID_12_">
			<use xlink:href="#SVGID_11_"  style="overflow:visible;"/>
		</clipPath>
		
			<line style="clip-path:url(#SVGID_12_);fill:none;stroke:#808080;stroke-width:0.3;stroke-linecap:square;stroke-linejoin:round;stroke-miterlimit:10;" x1="35.6" y1="272" x2="392.7" y2="272"/>
	</g>
	<line style="clip-path:url(#SVGID_2_);" x1="35.6" y1="272" x2="32.1" y2="272"/>
	
		<line style="clip-path:url(#SVGID_2_);fill:none;stroke:#000000;stroke-width:0.8;stroke-linejoin:round;stroke-miterlimit:10;" x1="35.6" y1="272" x2="32.1" y2="272"/>
	<path style="clip-path:url(#SVGID_2_);" d="M14.6,275h3.4v0.8h-4.6V275c0.4-0.4,0.9-0.9,1.5-1.6c0.6-0.6,1-1.1,1.2-1.3
		c0.3-0.3,0.5-0.6,0.7-0.9c0.1-0.2,0.2-0.5,0.2-0.7c0-0.4-0.1-0.7-0.4-0.9c-0.3-0.2-0.6-0.4-1.1-0.4c-0.3,0-0.6,0.1-1,0.2
		c-0.3,0.1-0.7,0.3-1.1,0.5v-1c0.4-0.2,0.8-0.3,1.1-0.4c0.3-0.1,0.7-0.1,1-0.1c0.8,0,1.4,0.2,1.8,0.6c0.5,0.4,0.7,0.9,0.7,1.5
		c0,0.3-0.1,0.6-0.2,0.8c-0.1,0.3-0.3,0.6-0.6,1c-0.1,0.1-0.3,0.4-0.8,0.8C16,273.5,15.4,274.1,14.6,275"/>
	<polyline style="clip-path:url(#SVGID_2_);" points="20.1,274.5 21.2,274.5 21.2,275.8 20.1,275.8 20.1,274.5 	"/>
	<path style="clip-path:url(#SVGID_2_);" d="M25.4,268.4c0.8,0,1.4,0.3,1.9,1c0.4,0.6,0.7,1.6,0.7,2.8c0,1.2-0.2,2.2-0.7,2.8
		c-0.4,0.6-1.1,1-1.9,1c-0.8,0-1.5-0.3-1.9-1c-0.4-0.6-0.6-1.6-0.6-2.8c0-1.2,0.2-2.2,0.6-2.8C24,268.7,24.6,268.4,25.4,268.4
		 M25.4,269.1c-0.5,0-0.9,0.2-1.2,0.8c-0.3,0.5-0.4,1.2-0.4,2.2s0.1,1.8,0.4,2.2c0.3,0.5,0.6,0.8,1.2,0.8c0.5,0,0.9-0.2,1.2-0.8
		c0.2-0.5,0.4-1.2,0.4-2.2s-0.1-1.8-0.4-2.2C26.3,269.4,25.9,269.1,25.4,269.1"/>
	<g style="clip-path:url(#SVGID_2_);">
		<defs>
			<rect id="SVGID_13_" x="-5.9" y="263.5" width="28.1" height="17"/>
		</defs>
		<clipPath id="SVGID_14_">
			<use xlink:href="#SVGID_13_"  style="overflow:visible;"/>
		</clipPath>
		<polyline style="clip-path:url(#SVGID_14_);" points="5.4,272.2 11.6,272.2 11.6,273.1 5.4,273.1 5.4,272.2 		"/>
	</g>
	<g style="clip-path:url(#SVGID_2_);">
		<defs>
			<rect id="SVGID_15_" x="35.6" y="5.9" width="357.1" height="266.1"/>
		</defs>
		<clipPath id="SVGID_16_">
			<use xlink:href="#SVGID_15_"  style="overflow:visible;"/>
		</clipPath>
		
			<line style="clip-path:url(#SVGID_16_);fill:none;stroke:#808080;stroke-width:0.3;stroke-linecap:square;stroke-linejoin:round;stroke-miterlimit:10;" x1="35.6" y1="238.7" x2="392.7" y2="238.7"/>
	</g>
	<line style="clip-path:url(#SVGID_2_);" x1="35.6" y1="238.7" x2="32.1" y2="238.7"/>
	
		<line style="clip-path:url(#SVGID_2_);fill:none;stroke:#000000;stroke-width:0.8;stroke-linejoin:round;stroke-miterlimit:10;" x1="35.6" y1="238.7" x2="32.1" y2="238.7"/>
	<polyline style="clip-path:url(#SVGID_2_);" points="13.9,241.7 15.5,241.7 15.5,236.1 13.8,236.5 13.8,235.6 15.5,235.2 
		16.5,235.2 16.5,241.7 18.1,241.7 18.1,242.5 13.9,242.5 13.9,241.7 	"/>
	<polyline style="clip-path:url(#SVGID_2_);" points="20.1,241.3 21.2,241.3 21.2,242.5 20.1,242.5 20.1,241.3 	"/>
	<path style="clip-path:url(#SVGID_2_);" d="M23.3,235.2h3.9v0.8h-3v1.8c0.1-0.1,0.3-0.1,0.4-0.1c0.1,0,0.3,0,0.4,0
		c0.8,0,1.5,0.2,1.9,0.7c0.5,0.4,0.7,1,0.7,1.8c0,0.8-0.2,1.4-0.7,1.8c-0.5,0.4-1.2,0.6-2.1,0.6c-0.3,0-0.6,0-0.9-0.1
		c-0.3,0-0.6-0.1-1-0.2v-1c0.3,0.2,0.6,0.3,0.9,0.4c0.3,0.1,0.6,0.1,1,0.1c0.6,0,1-0.1,1.3-0.4c0.3-0.3,0.5-0.7,0.5-1.2
		c0-0.5-0.2-0.9-0.5-1.2c-0.3-0.3-0.8-0.4-1.3-0.4c-0.3,0-0.5,0-0.8,0.1c-0.3,0.1-0.5,0.1-0.8,0.3V235.2"/>
	<g style="clip-path:url(#SVGID_2_);">
		<defs>
			<rect id="SVGID_17_" x="-5.9" y="230.2" width="28.1" height="17"/>
		</defs>
		<clipPath id="SVGID_18_">
			<use xlink:href="#SVGID_17_"  style="overflow:visible;"/>
		</clipPath>
		<polyline style="clip-path:url(#SVGID_18_);" points="5.4,239 11.6,239 11.6,239.8 5.4,239.8 5.4,239 		"/>
	</g>
	<g style="clip-path:url(#SVGID_2_);">
		<defs>
			<rect id="SVGID_19_" x="35.6" y="5.9" width="357.1" height="266.1"/>
		</defs>
		<clipPath id="SVGID_20_">
			<use xlink:href="#SVGID_19_"  style="overflow:visible;"/>
		</clipPath>
		
			<line style="clip-path:url(#SVGID_20_);fill:none;stroke:#808080;stroke-width:0.3;stroke-linecap:square;stroke-linejoin:round;stroke-miterlimit:10;" x1="35.6" y1="205.5" x2="392.7" y2="205.5"/>
	</g>
	<line style="clip-path:url(#SVGID_2_);" x1="35.6" y1="205.5" x2="32.1" y2="205.5"/>
	
		<line style="clip-path:url(#SVGID_2_);fill:none;stroke:#000000;stroke-width:0.8;stroke-linejoin:round;stroke-miterlimit:10;" x1="35.6" y1="205.5" x2="32.1" y2="205.5"/>
	<polyline style="clip-path:url(#SVGID_2_);" points="13.9,208.4 15.5,208.4 15.5,202.9 13.8,203.2 13.8,202.3 15.5,202 16.5,202 
		16.5,208.4 18.1,208.4 18.1,209.3 13.9,209.3 13.9,208.4 	"/>
	<polyline style="clip-path:url(#SVGID_2_);" points="20.1,208 21.2,208 21.2,209.3 20.1,209.3 20.1,208 	"/>
	<path style="clip-path:url(#SVGID_2_);" d="M25.4,201.8c0.8,0,1.4,0.3,1.9,1c0.4,0.6,0.7,1.6,0.7,2.8c0,1.2-0.2,2.2-0.7,2.8
		c-0.4,0.6-1.1,1-1.9,1c-0.8,0-1.5-0.3-1.9-1c-0.4-0.6-0.6-1.6-0.6-2.8c0-1.2,0.2-2.2,0.6-2.8C24,202.2,24.6,201.8,25.4,201.8
		 M25.4,202.6c-0.5,0-0.9,0.2-1.2,0.8c-0.3,0.5-0.4,1.2-0.4,2.2s0.1,1.8,0.4,2.2c0.3,0.5,0.6,0.8,1.2,0.8c0.5,0,0.9-0.2,1.2-0.8
		c0.2-0.5,0.4-1.2,0.4-2.2s-0.1-1.8-0.4-2.2C26.3,202.9,25.9,202.6,25.4,202.6"/>
	<g style="clip-path:url(#SVGID_2_);">
		<defs>
			<rect id="SVGID_21_" x="-5.9" y="196.9" width="28.1" height="17"/>
		</defs>
		<clipPath id="SVGID_22_">
			<use xlink:href="#SVGID_21_"  style="overflow:visible;"/>
		</clipPath>
		<polyline style="clip-path:url(#SVGID_22_);" points="5.4,205.7 11.6,205.7 11.6,206.5 5.4,206.5 5.4,205.7 		"/>
	</g>
	<g style="clip-path:url(#SVGID_2_);">
		<defs>
			<rect id="SVGID_23_" x="35.6" y="5.9" width="357.1" height="266.1"/>
		</defs>
		<clipPath id="SVGID_24_">
			<use xlink:href="#SVGID_23_"  style="overflow:visible;"/>
		</clipPath>
		
			<line style="clip-path:url(#SVGID_24_);fill:none;stroke:#808080;stroke-width:0.3;stroke-linecap:square;stroke-linejoin:round;stroke-miterlimit:10;" x1="35.6" y1="172.2" x2="392.7" y2="172.2"/>
	</g>
	<line style="clip-path:url(#SVGID_2_);" x1="35.6" y1="172.2" x2="32.1" y2="172.2"/>
	
		<line style="clip-path:url(#SVGID_2_);fill:none;stroke:#000000;stroke-width:0.8;stroke-linejoin:round;stroke-miterlimit:10;" x1="35.6" y1="172.2" x2="32.1" y2="172.2"/>
	<path style="clip-path:url(#SVGID_2_);" d="M15.9,168.6c0.8,0,1.4,0.3,1.9,1c0.4,0.6,0.7,1.6,0.7,2.8c0,1.2-0.2,2.2-0.7,2.8
		c-0.4,0.6-1.1,1-1.9,1c-0.8,0-1.5-0.3-1.9-1s-0.6-1.6-0.6-2.8c0-1.2,0.2-2.2,0.6-2.8C14.4,168.9,15.1,168.6,15.9,168.6 M15.9,169.3
		c-0.5,0-0.9,0.2-1.2,0.8c-0.3,0.5-0.4,1.2-0.4,2.2s0.1,1.8,0.4,2.2c0.3,0.5,0.6,0.8,1.2,0.8c0.5,0,0.9-0.2,1.2-0.8
		c0.2-0.5,0.4-1.2,0.4-2.2s-0.1-1.8-0.4-2.2C16.8,169.6,16.4,169.3,15.9,169.3"/>
	<polyline style="clip-path:url(#SVGID_2_);" points="20.1,174.7 21.2,174.7 21.2,176 20.1,176 20.1,174.7 	"/>
	<path style="clip-path:url(#SVGID_2_);" d="M23.3,168.7h3.9v0.8h-3v1.8c0.1-0.1,0.3-0.1,0.4-0.1s0.3,0,0.4,0c0.8,0,1.5,0.2,1.9,0.7
		c0.5,0.4,0.7,1,0.7,1.8c0,0.8-0.2,1.4-0.7,1.8c-0.5,0.4-1.2,0.6-2.1,0.6c-0.3,0-0.6,0-0.9-0.1c-0.3-0.1-0.6-0.1-1-0.2v-1
		c0.3,0.2,0.6,0.3,0.9,0.4c0.3,0.1,0.6,0.1,1,0.1c0.6,0,1-0.1,1.3-0.4c0.3-0.3,0.5-0.7,0.5-1.2c0-0.5-0.2-0.9-0.5-1.2
		c-0.3-0.3-0.8-0.5-1.3-0.5c-0.3,0-0.5,0-0.8,0.1c-0.3,0.1-0.5,0.1-0.8,0.3V168.7"/>
	<g style="clip-path:url(#SVGID_2_);">
		<defs>
			<rect id="SVGID_25_" x="-5.9" y="163.7" width="28.1" height="17"/>
		</defs>
		<clipPath id="SVGID_26_">
			<use xlink:href="#SVGID_25_"  style="overflow:visible;"/>
		</clipPath>
		<polyline style="clip-path:url(#SVGID_26_);" points="5.4,172.4 11.6,172.4 11.6,173.3 5.4,173.3 5.4,172.4 		"/>
	</g>
	<g style="clip-path:url(#SVGID_2_);">
		<defs>
			<rect id="SVGID_27_" x="35.6" y="5.9" width="357.1" height="266.1"/>
		</defs>
		<clipPath id="SVGID_28_">
			<use xlink:href="#SVGID_27_"  style="overflow:visible;"/>
		</clipPath>
		
			<line style="clip-path:url(#SVGID_28_);fill:none;stroke:#808080;stroke-width:0.3;stroke-linecap:square;stroke-linejoin:round;stroke-miterlimit:10;" x1="35.6" y1="138.9" x2="392.7" y2="138.9"/>
	</g>
	<line style="clip-path:url(#SVGID_2_);" x1="35.6" y1="138.9" x2="32.1" y2="138.9"/>
	
		<line style="clip-path:url(#SVGID_2_);fill:none;stroke:#000000;stroke-width:0.8;stroke-linejoin:round;stroke-miterlimit:10;" x1="35.6" y1="138.9" x2="32.1" y2="138.9"/>
	<path style="clip-path:url(#SVGID_2_);" d="M15.9,135.3c0.8,0,1.4,0.3,1.9,1c0.4,0.6,0.7,1.6,0.7,2.8c0,1.2-0.2,2.2-0.7,2.8
		c-0.4,0.6-1.1,1-1.9,1c-0.8,0-1.5-0.3-1.9-1s-0.6-1.6-0.6-2.8c0-1.2,0.2-2.2,0.6-2.8C14.4,135.6,15.1,135.3,15.9,135.3 M15.9,136.1
		c-0.5,0-0.9,0.2-1.2,0.8c-0.3,0.5-0.4,1.2-0.4,2.2s0.1,1.8,0.4,2.2c0.3,0.5,0.6,0.8,1.2,0.8c0.5,0,0.9-0.2,1.2-0.8
		c0.2-0.5,0.4-1.2,0.4-2.2s-0.1-1.8-0.4-2.2C16.8,136.3,16.4,136.1,15.9,136.1"/>
	<polyline style="clip-path:url(#SVGID_2_);" points="20.1,141.5 21.2,141.5 21.2,142.7 20.1,142.7 20.1,141.5 	"/>
	<path style="clip-path:url(#SVGID_2_);" d="M25.4,135.3c0.8,0,1.4,0.3,1.9,1c0.4,0.6,0.7,1.6,0.7,2.8c0,1.2-0.2,2.2-0.7,2.8
		c-0.4,0.6-1.1,1-1.9,1c-0.8,0-1.5-0.3-1.9-1s-0.6-1.6-0.6-2.8c0-1.2,0.2-2.2,0.6-2.8C24,135.6,24.6,135.3,25.4,135.3 M25.4,136.1
		c-0.5,0-0.9,0.2-1.2,0.8c-0.3,0.5-0.4,1.2-0.4,2.2s0.1,1.8,0.4,2.2c0.3,0.5,0.6,0.8,1.2,0.8c0.5,0,0.9-0.2,1.2-0.8
		c0.2-0.5,0.4-1.2,0.4-2.2s-0.1-1.8-0.4-2.2C26.3,136.3,25.9,136.1,25.4,136.1"/>
	<g style="clip-path:url(#SVGID_2_);">
		<defs>
			<rect id="SVGID_29_" x="35.6" y="5.9" width="357.1" height="266.1"/>
		</defs>
		<clipPath id="SVGID_30_">
			<use xlink:href="#SVGID_29_"  style="overflow:visible;"/>
		</clipPath>
		
			<line style="clip-path:url(#SVGID_30_);fill:none;stroke:#808080;stroke-width:0.3;stroke-linecap:square;stroke-linejoin:round;stroke-miterlimit:10;" x1="35.6" y1="105.7" x2="392.7" y2="105.7"/>
	</g>
	<line style="clip-path:url(#SVGID_2_);" x1="35.6" y1="105.7" x2="32.1" y2="105.7"/>
	
		<line style="clip-path:url(#SVGID_2_);fill:none;stroke:#000000;stroke-width:0.8;stroke-linejoin:round;stroke-miterlimit:10;" x1="35.6" y1="105.7" x2="32.1" y2="105.7"/>
	<path style="clip-path:url(#SVGID_2_);" d="M15.9,102c0.8,0,1.4,0.3,1.9,1c0.4,0.6,0.7,1.6,0.7,2.8c0,1.2-0.2,2.2-0.7,2.8
		c-0.4,0.6-1.1,1-1.9,1c-0.8,0-1.5-0.3-1.9-1s-0.6-1.6-0.6-2.8c0-1.2,0.2-2.2,0.6-2.8C14.4,102.4,15.1,102,15.9,102 M15.9,102.8
		c-0.5,0-0.9,0.2-1.2,0.8c-0.3,0.5-0.4,1.2-0.4,2.2s0.1,1.8,0.4,2.2c0.3,0.5,0.6,0.8,1.2,0.8c0.5,0,0.9-0.2,1.2-0.8
		c0.2-0.5,0.4-1.2,0.4-2.2s-0.1-1.8-0.4-2.2C16.8,103.1,16.4,102.8,15.9,102.8"/>
	<polyline style="clip-path:url(#SVGID_2_);" points="20.1,108.2 21.2,108.2 21.2,109.5 20.1,109.5 20.1,108.2 	"/>
	<path style="clip-path:url(#SVGID_2_);" d="M23.3,102.2h3.9v0.8h-3v1.8c0.1-0.1,0.3-0.1,0.4-0.1s0.3,0,0.4,0c0.8,0,1.5,0.2,1.9,0.7
		c0.5,0.4,0.7,1,0.7,1.8c0,0.8-0.2,1.4-0.7,1.8c-0.5,0.4-1.2,0.6-2.1,0.6c-0.3,0-0.6,0-0.9-0.1c-0.3-0.1-0.6-0.1-1-0.2v-1
		c0.3,0.2,0.6,0.3,0.9,0.4c0.3,0.1,0.6,0.1,1,0.1c0.6,0,1-0.1,1.3-0.4c0.3-0.3,0.5-0.7,0.5-1.2c0-0.5-0.2-0.9-0.5-1.2
		c-0.3-0.3-0.8-0.5-1.3-0.5c-0.3,0-0.5,0-0.8,0.1c-0.3,0.1-0.5,0.1-0.8,0.3V102.2"/>
	<g style="clip-path:url(#SVGID_2_);">
		<defs>
			<rect id="SVGID_31_" x="35.6" y="5.9" width="357.1" height="266.1"/>
		</defs>
		<clipPath id="SVGID_32_">
			<use xlink:href="#SVGID_31_"  style="overflow:visible;"/>
		</clipPath>
		
			<line style="clip-path:url(#SVGID_32_);fill:none;stroke:#808080;stroke-width:0.3;stroke-linecap:square;stroke-linejoin:round;stroke-miterlimit:10;" x1="35.6" y1="72.4" x2="392.7" y2="72.4"/>
	</g>
	<line style="clip-path:url(#SVGID_2_);" x1="35.6" y1="72.4" x2="32.1" y2="72.4"/>
	
		<line style="clip-path:url(#SVGID_2_);fill:none;stroke:#000000;stroke-width:0.8;stroke-linejoin:round;stroke-miterlimit:10;" x1="35.6" y1="72.4" x2="32.1" y2="72.4"/>
	<polyline style="clip-path:url(#SVGID_2_);" points="13.9,75.4 15.5,75.4 15.5,69.8 13.8,70.2 13.8,69.3 15.5,68.9 16.5,68.9 
		16.5,75.4 18.1,75.4 18.1,76.2 13.9,76.2 13.9,75.4 	"/>
	<polyline style="clip-path:url(#SVGID_2_);" points="20.1,75 21.2,75 21.2,76.2 20.1,76.2 20.1,75 	"/>
	<path style="clip-path:url(#SVGID_2_);" d="M25.4,68.8c0.8,0,1.4,0.3,1.9,1c0.4,0.6,0.7,1.6,0.7,2.8c0,1.2-0.2,2.2-0.7,2.8
		c-0.4,0.6-1.1,1-1.9,1c-0.8,0-1.5-0.3-1.9-1s-0.6-1.6-0.6-2.8c0-1.2,0.2-2.2,0.6-2.8C24,69.1,24.6,68.8,25.4,68.8 M25.4,69.6
		c-0.5,0-0.9,0.2-1.2,0.8c-0.3,0.5-0.4,1.2-0.4,2.2s0.1,1.8,0.4,2.2c0.3,0.5,0.6,0.8,1.2,0.8c0.5,0,0.9-0.2,1.2-0.8
		c0.2-0.5,0.4-1.2,0.4-2.2s-0.1-1.8-0.4-2.2C26.3,69.8,25.9,69.6,25.4,69.6"/>
	<g style="clip-path:url(#SVGID_2_);">
		<defs>
			<rect id="SVGID_33_" x="35.6" y="5.9" width="357.1" height="266.1"/>
		</defs>
		<clipPath id="SVGID_34_">
			<use xlink:href="#SVGID_33_"  style="overflow:visible;"/>
		</clipPath>
		
			<line style="clip-path:url(#SVGID_34_);fill:none;stroke:#808080;stroke-width:0.3;stroke-linecap:square;stroke-linejoin:round;stroke-miterlimit:10;" x1="35.6" y1="39.1" x2="392.7" y2="39.1"/>
	</g>
	<line style="clip-path:url(#SVGID_2_);" x1="35.6" y1="39.1" x2="32.1" y2="39.1"/>
	
		<line style="clip-path:url(#SVGID_2_);fill:none;stroke:#000000;stroke-width:0.8;stroke-linejoin:round;stroke-miterlimit:10;" x1="35.6" y1="39.1" x2="32.1" y2="39.1"/>
	<polyline style="clip-path:url(#SVGID_2_);" points="13.9,42.1 15.5,42.1 15.5,36.5 13.8,36.9 13.8,36 15.5,35.6 16.5,35.6 
		16.5,42.1 18.1,42.1 18.1,42.9 13.9,42.9 13.9,42.1 	"/>
	<polyline style="clip-path:url(#SVGID_2_);" points="20.1,41.7 21.2,41.7 21.2,42.9 20.1,42.9 20.1,41.7 	"/>
	<path style="clip-path:url(#SVGID_2_);" d="M23.3,35.6h3.9v0.8h-3v1.8c0.1,0,0.3-0.1,0.4-0.1s0.3,0,0.4,0c0.8,0,1.5,0.2,1.9,0.7
		c0.5,0.4,0.7,1,0.7,1.8c0,0.8-0.2,1.4-0.7,1.8c-0.5,0.4-1.2,0.6-2.1,0.6c-0.3,0-0.6,0-0.9-0.1c-0.3,0-0.6-0.1-1-0.2v-1
		c0.3,0.2,0.6,0.3,0.9,0.4c0.3,0.1,0.6,0.1,1,0.1c0.6,0,1-0.1,1.3-0.4c0.3-0.3,0.5-0.7,0.5-1.2c0-0.5-0.2-0.9-0.5-1.2
		c-0.3-0.3-0.8-0.4-1.3-0.4c-0.3,0-0.5,0-0.8,0.1c-0.3,0.1-0.5,0.1-0.8,0.3V35.6"/>
	<g style="clip-path:url(#SVGID_2_);">
		<defs>
			<rect id="SVGID_35_" x="35.6" y="5.9" width="357.1" height="266.1"/>
		</defs>
		<clipPath id="SVGID_36_">
			<use xlink:href="#SVGID_35_"  style="overflow:visible;"/>
		</clipPath>
		
			<line style="clip-path:url(#SVGID_36_);fill:none;stroke:#808080;stroke-width:0.3;stroke-linecap:square;stroke-linejoin:round;stroke-miterlimit:10;" x1="35.6" y1="5.9" x2="392.7" y2="5.9"/>
	</g>
	<line style="clip-path:url(#SVGID_2_);" x1="35.6" y1="5.9" x2="32.1" y2="5.9"/>
	
		<line style="clip-path:url(#SVGID_2_);fill:none;stroke:#000000;stroke-width:0.8;stroke-linejoin:round;stroke-miterlimit:10;" x1="35.6" y1="5.9" x2="32.1" y2="5.9"/>
	<path style="clip-path:url(#SVGID_2_);" d="M14.6,8.8h3.4v0.8h-4.6V8.8c0.4-0.4,0.9-0.9,1.5-1.6c0.6-0.6,1-1.1,1.2-1.3
		c0.3-0.4,0.5-0.6,0.7-0.9C17,4.9,17,4.6,17,4.4c0-0.4-0.1-0.7-0.4-0.9S16,3.1,15.6,3.1c-0.3,0-0.6,0.1-1,0.2
		c-0.3,0.1-0.7,0.3-1.1,0.5v-1c0.4-0.2,0.8-0.3,1.1-0.4c0.3-0.1,0.7-0.1,1-0.1c0.8,0,1.4,0.2,1.8,0.6C17.8,3.2,18,3.7,18,4.3
		c0,0.3-0.1,0.6-0.2,0.9c-0.1,0.3-0.3,0.6-0.6,0.9c-0.1,0.1-0.3,0.4-0.8,0.8C16,7.4,15.4,8,14.6,8.8"/>
	<polyline style="clip-path:url(#SVGID_2_);" points="20.1,8.4 21.2,8.4 21.2,9.7 20.1,9.7 20.1,8.4 	"/>
	<path style="clip-path:url(#SVGID_2_);" d="M25.4,2.2c0.8,0,1.4,0.3,1.9,1c0.4,0.7,0.7,1.6,0.7,2.8c0,1.2-0.2,2.2-0.7,2.8
		c-0.4,0.6-1.1,1-1.9,1c-0.8,0-1.5-0.3-1.9-1c-0.4-0.6-0.6-1.6-0.6-2.8c0-1.2,0.2-2.2,0.6-2.8C24,2.6,24.6,2.2,25.4,2.2 M25.4,3
		c-0.5,0-0.9,0.2-1.2,0.8C24,4.3,23.9,5,23.9,6s0.1,1.8,0.4,2.2C24.5,8.8,24.9,9,25.4,9c0.5,0,0.9-0.2,1.2-0.8
		C26.8,7.8,26.9,7,26.9,6s-0.1-1.8-0.4-2.2C26.3,3.3,25.9,3,25.4,3"/>
	<g style="clip-path:url(#SVGID_2_);">
		<defs>
			<rect id="SVGID_37_" x="35.6" y="5.9" width="357.1" height="266.1"/>
		</defs>
		<clipPath id="SVGID_38_">
			<use xlink:href="#SVGID_37_"  style="overflow:visible;"/>
		</clipPath>
		
			<polyline style="clip-path:url(#SVGID_38_);fill:none;stroke:#1F77B4;stroke-width:1.5;stroke-linecap:square;stroke-linejoin:round;stroke-miterlimit:10;" points="
			80.2,138.9 92.7,138.8 98.1,138.6 102.6,138.1 106.1,137.5 109.7,136.7 112.4,135.8 115.1,134.8 117.7,133.5 120.4,132 
			123.1,130.2 125.8,128.2 128.5,125.9 131.1,123.4 133.8,120.6 136.5,117.5 140.1,113 143.6,108.1 148.1,101.6 156.1,89.2 
			160.6,82.5 164.2,77.6 166.8,74.3 168.6,72.4 170.4,70.7 172.2,69.3 174,68.2 175.8,67.5 177.6,67.2 179.3,67.2 181.1,67.7 
			182.9,68.6 184.7,69.8 186.5,71.5 188.3,73.6 190.1,76.2 191.8,79.1 193.6,82.3 195.4,86 198.1,92 200.8,98.8 203.4,106.1 
			207,116.6 211.5,130.4 221.3,161.3 224.9,171.8 227.6,179.1 230.2,185.8 232.9,191.9 234.7,195.5 236.5,198.8 238.3,201.7 
			240.1,204.2 241.8,206.3 243.6,208 245.4,209.3 247.2,210.2 249,210.6 250.8,210.7 252.6,210.3 254.3,209.6 256.1,208.5 
			257.9,207.1 259.7,205.5 261.5,203.5 264.2,200.2 266.8,196.6 270.4,191.3 285.6,168.5 289.2,163.7 292.7,159.3 295.4,156.3 
			298.1,153.6 300.8,151.1 303.4,148.9 306.1,147 308.8,145.3 311.5,143.9 314.2,142.7 316.8,141.7 319.5,141 323.1,140.2 
			326.7,139.6 331.1,139.2 336.5,139 345.4,138.9 436.5,138.9 		"/>
	</g>
	<g style="clip-path:url(#SVGID_2_);">
		<defs>
			<rect id="SVGID_39_" x="35.6" y="5.9" width="357.1" height="266.1"/>
		</defs>
		<clipPath id="SVGID_40_">
			<use xlink:href="#SVGID_39_"  style="overflow:visible;"/>
		</clipPath>
		<g style="clip-path:url(#SVGID_40_);">
			<defs>
				<rect id="SVGID_41_" x="77.7" y="136.4" width="5" height="5"/>
			</defs>
			<clipPath id="SVGID_42_">
				<use xlink:href="#SVGID_41_"  style="overflow:visible;"/>
			</clipPath>
			<path style="clip-path:url(#SVGID_42_);fill:#FFFFFF;" d="M80.2,140.9c0.5,0,1-0.2,1.4-0.6c0.4-0.4,0.6-0.9,0.6-1.4
				s-0.2-1-0.6-1.4c-0.4-0.4-0.9-0.6-1.4-0.6s-1,0.2-1.4,0.6c-0.4,0.4-0.6,0.9-0.6,1.4s0.2,1,0.6,1.4
				C79.2,140.7,79.7,140.9,80.2,140.9z"/>
			<path style="clip-path:url(#SVGID_42_);fill:none;stroke:#000000;stroke-linejoin:round;stroke-miterlimit:10;" d="M80.2,140.9
				c0.5,0,1-0.2,1.4-0.6c0.4-0.4,0.6-0.9,0.6-1.4s-0.2-1-0.6-1.4c-0.4-0.4-0.9-0.6-1.4-0.6s-1,0.2-1.4,0.6c-0.4,0.4-0.6,0.9-0.6,1.4
				s0.2,1,0.6,1.4C79.2,140.7,79.7,140.9,80.2,140.9z"/>
		</g>
		<g style="clip-path:url(#SVGID_40_);">
			<defs>
				<rect id="SVGID_43_" x="167" y="69" width="5" height="5"/>
			</defs>
			<clipPath id="SVGID_44_">
				<use xlink:href="#SVGID_43_"  style="overflow:visible;"/>
			</clipPath>
			<path style="clip-path:url(#SVGID_44_);fill:#FFFFFF;" d="M169.5,73.5c0.5,0,1-0.2,1.4-0.6c0.4-0.4,0.6-0.9,0.6-1.4
				s-0.2-1-0.6-1.4c-0.4-0.4-0.9-0.6-1.4-0.6s-1,0.2-1.4,0.6c-0.4,0.4-0.6,0.9-0.6,1.4s0.2,1,0.6,1.4
				C168.5,73.3,169,73.5,169.5,73.5z"/>
			<path style="clip-path:url(#SVGID_44_);fill:none;stroke:#000000;stroke-linejoin:round;stroke-miterlimit:10;" d="M169.5,73.5
				c0.5,0,1-0.2,1.4-0.6c0.4-0.4,0.6-0.9,0.6-1.4s-0.2-1-0.6-1.4c-0.4-0.4-0.9-0.6-1.4-0.6s-1,0.2-1.4,0.6c-0.4,0.4-0.6,0.9-0.6,1.4
				s0.2,1,0.6,1.4C168.5,73.3,169,73.5,169.5,73.5z"/>
		</g>
		<g style="clip-path:url(#SVGID_40_);">
			<defs>
				<rect id="SVGID_45_" x="256.3" y="203.8" width="5" height="5"/>
			</defs>
			<clipPath id="SVGID_46_">
				<use xlink:href="#SVGID_45_"  style="overflow:visible;"/>
			</clipPath>
			<path style="clip-path:url(#SVGID_46_);fill:#FFFFFF;" d="M258.8,208.3c0.5,0,1-0.2,1.4-0.6s0.6-0.9,0.6-1.4s-0.2-1-0.6-1.4
				s-0.9-0.6-1.4-0.6s-1,0.2-1.4,0.6s-0.6,0.9-0.6,1.4s0.2,1,0.6,1.4S258.3,208.3,258.8,208.3z"/>
			<path style="clip-path:url(#SVGID_46_);fill:none;stroke:#000000;stroke-linejoin:round;stroke-miterlimit:10;" d="M258.8,208.3
				c0.5,0,1-0.2,1.4-0.6s0.6-0.9,0.6-1.4s-0.2-1-0.6-1.4s-0.9-0.6-1.4-0.6s-1,0.2-1.4,0.6s-0.6,0.9-0.6,1.4s0.2,1,0.6,1.4
				S258.3,208.3,258.8,208.3z"/>
		</g>
		<g style="clip-path:url(#SVGID_40_);">
			<defs>
				<rect id="SVGID_47_" x="345.6" y="136.4" width="5" height="5"/>
			</defs>
			<clipPath id="SVGID_48_">
				<use xlink:href="#SVGID_47_"  style="overflow:visible;"/>
			</clipPath>
			<path style="clip-path:url(#SVGID_48_);fill:#FFFFFF;" d="M348.1,140.9c0.5,0,1-0.2,1.4-0.6c0.4-0.4,0.6-0.9,0.6-1.4
				s-0.2-1-0.6-1.4c-0.4-0.4-0.9-0.6-1.4-0.6s-1,0.2-1.4,0.6c-0.4,0.4-0.6,0.9-0.6,1.4s0.2,1,0.6,1.4
				C347,140.7,347.5,140.9,348.1,140.9z"/>
			<path style="clip-path:url(#SVGID_48_);fill:none;stroke:#000000;stroke-linejoin:round;stroke-miterlimit:10;" d="M348.1,140.9
				c0.5,0,1-0.2,1.4-0.6c0.4-0.4,0.6-0.9,0.6-1.4s-0.2-1-0.6-1.4c-0.4-0.4-0.9-0.6-1.4-0.6s-1,0.2-1.4,0.6c-0.4,0.4-0.6,0.9-0.6,1.4
				s0.2,1,0.6,1.4C347,140.7,347.5,140.9,348.1,140.9z"/>
		</g>
	</g>
	<g style="clip-path:url(#SVGID_2_);">
		<defs>
			<rect id="SVGID_49_" x="35.6" y="5.9" width="357.1" height="266.1"/>
		</defs>
		<clipPath id="SVGID_50_">
			<use xlink:href="#SVGID_49_"  style="overflow:visible;"/>
		</clipPath>
		
			<polyline style="clip-path:url(#SVGID_50_);fill:none;stroke:#2CA02C;stroke-width:1.5;stroke-linecap:square;stroke-linejoin:round;stroke-miterlimit:10;" points="
			80.2,138.9 94.5,138.8 99.9,138.6 104.3,138.2 107.9,137.6 111.5,136.9 115.1,135.9 117.7,135 120.4,133.8 123.1,132.5 
			125.8,130.9 128.5,129.1 131.1,127.1 133.8,124.8 136.5,122.2 139.2,119.4 141.8,116.3 144.5,112.9 148.1,108 151.7,102.6 
			155.2,96.8 159.7,89.1 165.1,79.2 179.3,52.4 182.9,46.2 186.5,40.4 190.1,35.1 192.7,31.6 195.4,28.3 198.1,25.5 200.8,23.1 
			203.4,21 205.2,19.9 207,19 208.8,18.3 210.6,17.8 212.4,17.5 214.2,17.4 215.9,17.5 217.7,17.8 219.5,18.3 221.3,19 223.1,19.9 
			224.9,21 226.7,22.3 229.3,24.6 232,27.3 234.7,30.4 237.4,33.9 240.1,37.7 243.6,43.2 247.2,49.2 251.7,57.2 257.9,69 
			266.8,85.8 271.3,93.8 274.9,99.7 278.4,105.3 282,110.5 285.6,115.2 288.3,118.4 290.9,121.3 293.6,124 296.3,126.3 299,128.5 
			301.7,130.3 304.3,132 307,133.4 309.7,134.6 312.4,135.6 315.9,136.7 319.5,137.5 323.1,138.1 327.5,138.5 332.9,138.8 
			340,138.9 366.8,138.9 436.5,138.9 		"/>
	</g>
	<g style="clip-path:url(#SVGID_2_);">
		<defs>
			<rect id="SVGID_51_" x="35.6" y="5.9" width="357.1" height="266.1"/>
		</defs>
		<clipPath id="SVGID_52_">
			<use xlink:href="#SVGID_51_"  style="overflow:visible;"/>
		</clipPath>
		<g style="clip-path:url(#SVGID_52_);">
			<defs>
				<rect id="SVGID_53_" x="77.7" y="136.4" width="5" height="5"/>
			</defs>
			<clipPath id="SVGID_54_">
				<use xlink:href="#SVGID_53_"  style="overflow:visible;"/>
			</clipPath>
			<path style="clip-path:url(#SVGID_54_);fill:#FFFFFF;" d="M80.2,140.9c0.5,0,1-0.2,1.4-0.6c0.4-0.4,0.6-0.9,0.6-1.4
				s-0.2-1-0.6-1.4c-0.4-0.4-0.9-0.6-1.4-0.6s-1,0.2-1.4,0.6c-0.4,0.4-0.6,0.9-0.6,1.4s0.2,1,0.6,1.4
				C79.2,140.7,79.7,140.9,80.2,140.9z"/>
			<path style="clip-path:url(#SVGID_54_);fill:none;stroke:#000000;stroke-linejoin:round;stroke-miterlimit:10;" d="M80.2,140.9
				c0.5,0,1-0.2,1.4-0.6c0.4-0.4,0.6-0.9,0.6-1.4s-0.2-1-0.6-1.4c-0.4-0.4-0.9-0.6-1.4-0.6s-1,0.2-1.4,0.6c-0.4,0.4-0.6,0.9-0.6,1.4
				s0.2,1,0.6,1.4C79.2,140.7,79.7,140.9,80.2,140.9z"/>
		</g>
		<g style="clip-path:url(#SVGID_52_);">
			<defs>
				<rect id="SVGID_55_" x="167" y="68.2" width="5" height="5"/>
			</defs>
			<clipPath id="SVGID_56_">
				<use xlink:href="#SVGID_55_"  style="overflow:visible;"/>
			</clipPath>
			<path style="clip-path:url(#SVGID_56_);fill:#FFFFFF;" d="M169.5,72.7c0.5,0,1-0.2,1.4-0.6c0.4-0.4,0.6-0.9,0.6-1.4
				s-0.2-1-0.6-1.4c-0.4-0.4-0.9-0.6-1.4-0.6s-1,0.2-1.4,0.6c-0.4,0.4-0.6,0.9-0.6,1.4s0.2,1,0.6,1.4
				C168.5,72.5,169,72.7,169.5,72.7z"/>
			<path style="clip-path:url(#SVGID_56_);fill:none;stroke:#000000;stroke-linejoin:round;stroke-miterlimit:10;" d="M169.5,72.7
				c0.5,0,1-0.2,1.4-0.6c0.4-0.4,0.6-0.9,0.6-1.4s-0.2-1-0.6-1.4c-0.4-0.4-0.9-0.6-1.4-0.6s-1,0.2-1.4,0.6c-0.4,0.4-0.6,0.9-0.6,1.4
				s0.2,1,0.6,1.4C168.5,72.5,169,72.7,169.5,72.7z"/>
		</g>
		<g style="clip-path:url(#SVGID_52_);">
			<defs>
				<rect id="SVGID_57_" x="256.3" y="68.2" width="5" height="5"/>
			</defs>
			<clipPath id="SVGID_58_">
				<use xlink:href="#SVGID_57_"  style="overflow:visible;"/>
			</clipPath>
			<path style="clip-path:url(#SVGID_58_);fill:#FFFFFF;" d="M258.8,72.7c0.5,0,1-0.2,1.4-0.6c0.4-0.4,0.6-0.9,0.6-1.4
				s-0.2-1-0.6-1.4c-0.4-0.4-0.9-0.6-1.4-0.6s-1,0.2-1.4,0.6c-0.4,0.4-0.6,0.9-0.6,1.4s0.2,1,0.6,1.4
				C257.8,72.5,258.3,72.7,258.8,72.7z"/>
			<path style="clip-path:url(#SVGID_58_);fill:none;stroke:#000000;stroke-linejoin:round;stroke-miterlimit:10;" d="M258.8,72.7
				c0.5,0,1-0.2,1.4-0.6c0.4-0.4,0.6-0.9,0.6-1.4s-0.2-1-0.6-1.4c-0.4-0.4-0.9-0.6-1.4-0.6s-1,0.2-1.4,0.6c-0.4,0.4-0.6,0.9-0.6,1.4
				s0.2,1,0.6,1.4C257.8,72.5,258.3,72.7,258.8,72.7z"/>
		</g>
		<g style="clip-path:url(#SVGID_52_);">
			<defs>
				<rect id="SVGID_59_" x="345.6" y="136.4" width="5" height="5"/>
			</defs>
			<clipPath id="SVGID_60_">
				<use xlink:href="#SVGID_59_"  style="overflow:visible;"/>
			</clipPath>
			<path style="clip-path:url(#SVGID_60_);fill:#FFFFFF;" d="M348.1,140.9c0.5,0,1-0.2,1.4-0.6c0.4-0.4,0.6-0.9,0.6-1.4
				s-0.2-1-0.6-1.4c-0.4-0.4-0.9-0.6-1.4-0.6s-1,0.2-1.4,0.6c-0.4,0.4-0.6,0.9-0.6,1.4s0.2,1,0.6,1.4
				C347,140.7,347.5,140.9,348.1,140.9z"/>
			<path style="clip-path:url(#SVGID_60_);fill:none;stroke:#000000;stroke-linejoin:round;stroke-miterlimit:10;" d="M348.1,140.9
				c0.5,0,1-0.2,1.4-0.6c0.4-0.4,0.6-0.9,0.6-1.4s-0.2-1-0.6-1.4c-0.4-0.4-0.9-0.6-1.4-0.6s-1,0.2-1.4,0.6c-0.4,0.4-0.6,0.9-0.6,1.4
				s0.2,1,0.6,1.4C347,140.7,347.5,140.9,348.1,140.9z"/>
		</g>
	</g>
	
		<line style="clip-path:url(#SVGID_2_);fill:none;stroke:#000000;stroke-width:0.8;stroke-linecap:square;stroke-miterlimit:10;" x1="35.6" y1="272" x2="35.6" y2="5.9"/>
	
		<line style="clip-path:url(#SVGID_2_);fill:none;stroke:#000000;stroke-width:0.8;stroke-linecap:square;stroke-miterlimit:10;" x1="392.7" y1="272" x2="392.7" y2="5.9"/>
	
		<line style="clip-path:url(#SVGID_2_);fill:none;stroke:#000000;stroke-width:0.8;stroke-linecap:square;stroke-miterlimit:10;" x1="35.6" y1="272" x2="392.7" y2="272"/>
	
		<line style="clip-path:url(#SVGID_2_);fill:none;stroke:#000000;stroke-width:0.8;stroke-linecap:square;stroke-miterlimit:10;" x1="35.6" y1="5.9" x2="392.7" y2="5.9"/>
	<path style="clip-path:url(#SVGID_2_);" d="M196.5-8.6v1.2c-0.5-0.2-0.9-0.4-1.3-0.5c-0.4-0.1-0.8-0.2-1.2-0.2
		c-0.6,0-1.2,0.1-1.5,0.4c-0.3,0.3-0.5,0.6-0.5,1.1c0,0.4,0.1,0.7,0.3,0.9c0.2,0.2,0.7,0.4,1.3,0.5l0.7,0.1c0.9,0.2,1.5,0.5,1.9,0.9
		c0.4,0.4,0.6,1,0.6,1.7c0,0.9-0.3,1.5-0.9,1.9c-0.6,0.4-1.4,0.6-2.5,0.6c-0.4,0-0.9,0-1.3-0.1c-0.5-0.1-0.9-0.2-1.4-0.4v-1.2
		c0.5,0.3,0.9,0.5,1.4,0.6c0.5,0.1,0.9,0.2,1.4,0.2c0.7,0,1.2-0.1,1.6-0.4c0.4-0.3,0.6-0.6,0.6-1.1c0-0.4-0.1-0.8-0.4-1
		c-0.3-0.2-0.7-0.4-1.3-0.5l-0.7-0.1c-0.9-0.2-1.5-0.4-1.9-0.8c-0.4-0.4-0.6-0.9-0.6-1.6c0-0.8,0.3-1.4,0.8-1.8
		c0.5-0.4,1.3-0.7,2.3-0.7c0.4,0,0.8,0,1.2,0.1C195.6-8.9,196-8.7,196.5-8.6"/>
	<path style="clip-path:url(#SVGID_2_);" d="M201.9-8.9h1.5v5.7h1.2v1h-1.2v2.1h-1.2v-2.1h-3.9v-1.1L201.9-8.9 M202.2-7.8l-3,4.7h3
		V-7.8"/>
	<polyline style="clip-path:url(#SVGID_2_);" points="214.6,-7.7 214.6,-4.4 217.9,-4.4 217.9,-3.4 214.6,-3.4 214.6,-0.1 
		213.7,-0.1 213.7,-3.4 210.4,-3.4 210.4,-4.4 213.7,-4.4 213.7,-7.7 214.6,-7.7 	"/>
	<path style="clip-path:url(#SVGID_2_);" d="M229.4-8.6v1.2c-0.5-0.2-0.9-0.4-1.3-0.5c-0.4-0.1-0.8-0.2-1.2-0.2
		c-0.6,0-1.2,0.1-1.5,0.4c-0.3,0.3-0.5,0.6-0.5,1.1c0,0.4,0.1,0.7,0.3,0.9c0.2,0.2,0.7,0.4,1.3,0.5l0.7,0.1c0.9,0.2,1.5,0.5,1.9,0.9
		c0.4,0.4,0.6,1,0.6,1.7c0,0.9-0.3,1.5-0.9,1.9c-0.6,0.4-1.4,0.6-2.5,0.6c-0.4,0-0.9,0-1.3-0.1c-0.5-0.1-0.9-0.2-1.4-0.4v-1.2
		c0.5,0.3,0.9,0.5,1.4,0.6c0.5,0.1,0.9,0.2,1.4,0.2c0.7,0,1.2-0.1,1.6-0.4c0.4-0.3,0.6-0.6,0.6-1.1c0-0.4-0.1-0.8-0.4-1
		C228-3.7,227.6-3.9,227-4l-0.7-0.1c-0.9-0.2-1.5-0.4-1.9-0.8c-0.4-0.4-0.6-0.9-0.6-1.6c0-0.8,0.3-1.4,0.8-1.8
		c0.5-0.4,1.3-0.7,2.3-0.7c0.4,0,0.8,0,1.2,0.1C228.5-8.9,229-8.7,229.4-8.6"/>
	<path style="clip-path:url(#SVGID_2_);" d="M231.9-8.9h4.6v1H233v2.1c0.2-0.1,0.3-0.1,0.5-0.1c0.2,0,0.3,0,0.5,0
		c1,0,1.7,0.3,2.3,0.8c0.6,0.5,0.9,1.3,0.9,2.2c0,0.9-0.3,1.7-0.9,2.2c-0.6,0.5-1.4,0.8-2.5,0.8c-0.4,0-0.7,0-1.1-0.1
		c-0.4-0.1-0.8-0.1-1.2-0.3v-1.2c0.3,0.2,0.7,0.3,1.1,0.4C233-1,233.4-1,233.8-1c0.7,0,1.2-0.2,1.6-0.5c0.4-0.4,0.6-0.8,0.6-1.5
		c0-0.6-0.2-1.1-0.6-1.4c-0.4-0.4-0.9-0.5-1.6-0.5c-0.3,0-0.6,0-0.9,0.1c-0.3,0.1-0.6,0.2-1,0.3V-8.9"/>
</g>
</svg>
