<?xml version="1.0" encoding="utf-8"?>
<!-- Generator: Adobe Illustrator 19.0.0, SVG Export Plug-In . SVG Version: 6.00 Build 0)  -->
<svg version="1.1" id="Layer_1" xmlns="http://www.w3.org/2000/svg" xmlns:xlink="http://www.w3.org/1999/xlink" x="0px" y="0px"
	 viewBox="0 0 395 209" style="enable-background:new 0 0 395 209;" xml:space="preserve">
<g>
	<defs>
		<rect id="SVGID_1_" x="-24" y="-115.6" width="460.8" height="345.6"/>
	</defs>
	<clipPath id="SVGID_2_">
		<use xlink:href="#SVGID_1_"  style="overflow:visible;"/>
	</clipPath>
	<rect x="-24" y="-115.6" style="clip-path:url(#SVGID_2_);fill:#FFFFFF;" width="460.8" height="345.6"/>
	<rect x="33.6" y="-74.1" style="clip-path:url(#SVGID_2_);fill:#FFFFFF;" width="357.1" height="266.1"/>
	<g style="clip-path:url(#SVGID_2_);">
		<defs>
			<rect id="SVGID_3_" x="33.6" y="-74.1" width="357.1" height="266.1"/>
		</defs>
		<clipPath id="SVGID_4_">
			<use xlink:href="#SVGID_3_"  style="overflow:visible;"/>
		</clipPath>
		
			<line style="clip-path:url(#SVGID_4_);fill:none;stroke:#808080;stroke-width:0.3;stroke-linecap:square;stroke-linejoin:round;stroke-miterlimit:10;" x1="58.3" y1="192" x2="58.3" y2="-74.1"/>
	</g>
	<line style="clip-path:url(#SVGID_2_);" x1="58.3" y1="192" x2="58.3" y2="195.5"/>
	
		<line style="clip-path:url(#SVGID_2_);fill:none;stroke:#000000;stroke-width:0.8;stroke-linejoin:round;stroke-miterlimit:10;" x1="58.3" y1="192" x2="58.3" y2="195.5"/>
	<path style="clip-path:url(#SVGID_2_);" d="M58.3,199.2c0.8,0,1.4,0.3,1.9,1c0.4,0.6,0.6,1.6,0.6,2.8c0,1.2-0.2,2.2-0.6,2.8
		c-0.4,0.6-1.1,1-1.9,1c-0.8,0-1.4-0.3-1.9-1c-0.4-0.6-0.6-1.6-0.6-2.8c0-1.2,0.2-2.2,0.6-2.8C56.9,199.5,57.5,199.2,58.3,199.2
		 M58.3,199.9c-0.5,0-0.9,0.2-1.2,0.8s-0.4,1.2-0.4,2.2s0.1,1.8,0.4,2.2s0.6,0.8,1.2,0.8s0.9-0.2,1.2-0.8c0.2-0.5,0.4-1.2,0.4-2.2
		s-0.1-1.8-0.4-2.2C59.2,200.2,58.8,199.9,58.3,199.9"/>
	<g style="clip-path:url(#SVGID_2_);">
		<defs>
			<rect id="SVGID_5_" x="33.6" y="-74.1" width="357.1" height="266.1"/>
		</defs>
		<clipPath id="SVGID_6_">
			<use xlink:href="#SVGID_5_"  style="overflow:visible;"/>
		</clipPath>
		
			<line style="clip-path:url(#SVGID_6_);fill:none;stroke:#808080;stroke-width:0.3;stroke-linecap:square;stroke-linejoin:round;stroke-miterlimit:10;" x1="164.1" y1="192" x2="164.1" y2="-74.1"/>
	</g>
	<line style="clip-path:url(#SVGID_2_);" x1="164.1" y1="192" x2="164.1" y2="195.5"/>
	
		<line style="clip-path:url(#SVGID_2_);fill:none;stroke:#000000;stroke-width:0.8;stroke-linejoin:round;stroke-miterlimit:10;" x1="164.1" y1="192" x2="164.1" y2="195.5"/>
	<polyline style="clip-path:url(#SVGID_2_);" points="162.1,205.7 163.8,205.7 163.8,200.2 162,200.5 162,199.6 163.7,199.3 
		164.7,199.3 164.7,205.7 166.3,205.7 166.3,206.6 162.1,206.6 162.1,205.7 	"/>
	<g style="clip-path:url(#SVGID_2_);">
		<defs>
			<rect id="SVGID_7_" x="33.6" y="-74.1" width="357.1" height="266.1"/>
		</defs>
		<clipPath id="SVGID_8_">
			<use xlink:href="#SVGID_7_"  style="overflow:visible;"/>
		</clipPath>
		
			<line style="clip-path:url(#SVGID_8_);fill:none;stroke:#808080;stroke-width:0.3;stroke-linecap:square;stroke-linejoin:round;stroke-miterlimit:10;" x1="269.8" y1="192" x2="269.8" y2="-74.1"/>
	</g>
	<line style="clip-path:url(#SVGID_2_);" x1="269.8" y1="192" x2="269.8" y2="195.5"/>
	
		<line style="clip-path:url(#SVGID_2_);fill:none;stroke:#000000;stroke-width:0.8;stroke-linejoin:round;stroke-miterlimit:10;" x1="269.8" y1="192" x2="269.8" y2="195.5"/>
	<path style="clip-path:url(#SVGID_2_);" d="M268.6,205.7h3.4v0.8h-4.6v-0.8c0.4-0.4,0.9-0.9,1.5-1.6c0.6-0.6,1-1.1,1.2-1.3
		c0.3-0.4,0.5-0.7,0.7-0.9c0.1-0.2,0.2-0.5,0.2-0.7c0-0.4-0.1-0.7-0.4-0.9c-0.3-0.2-0.6-0.4-1.1-0.4c-0.3,0-0.6,0.1-1,0.2
		c-0.3,0.1-0.7,0.3-1.1,0.5v-1c0.4-0.2,0.8-0.3,1.1-0.4c0.3-0.1,0.7-0.1,0.9-0.1c0.8,0,1.4,0.2,1.8,0.6c0.4,0.4,0.7,0.9,0.7,1.5
		c0,0.3-0.1,0.6-0.2,0.9c-0.1,0.3-0.3,0.6-0.6,0.9c-0.1,0.1-0.3,0.4-0.8,0.8C270,204.3,269.4,204.9,268.6,205.7"/>
	<g style="clip-path:url(#SVGID_2_);">
		<defs>
			<rect id="SVGID_9_" x="33.6" y="-74.1" width="357.1" height="266.1"/>
		</defs>
		<clipPath id="SVGID_10_">
			<use xlink:href="#SVGID_9_"  style="overflow:visible;"/>
		</clipPath>
		
			<line style="clip-path:url(#SVGID_10_);fill:none;stroke:#808080;stroke-width:0.3;stroke-linecap:square;stroke-linejoin:round;stroke-miterlimit:10;" x1="375.6" y1="192" x2="375.6" y2="-74.1"/>
	</g>
	<line style="clip-path:url(#SVGID_2_);" x1="375.6" y1="192" x2="375.6" y2="195.5"/>
	
		<line style="clip-path:url(#SVGID_2_);fill:none;stroke:#000000;stroke-width:0.8;stroke-linejoin:round;stroke-miterlimit:10;" x1="375.6" y1="192" x2="375.6" y2="195.5"/>
	<path style="clip-path:url(#SVGID_2_);" d="M376.5,202.6c0.5,0.1,0.8,0.3,1.1,0.6c0.3,0.3,0.4,0.7,0.4,1.2c0,0.7-0.2,1.3-0.7,1.7
		c-0.5,0.4-1.2,0.6-2.1,0.6c-0.3,0-0.6,0-0.9-0.1c-0.3-0.1-0.7-0.1-1-0.3v-1c0.3,0.2,0.6,0.3,0.9,0.4c0.3,0.1,0.7,0.1,1,0.1
		c0.6,0,1.1-0.1,1.4-0.4c0.3-0.2,0.5-0.6,0.5-1.1c0-0.4-0.1-0.8-0.4-1c-0.3-0.2-0.7-0.4-1.3-0.4h-0.9v-0.8h0.9
		c0.5,0,0.9-0.1,1.1-0.3c0.3-0.2,0.4-0.5,0.4-0.8c0-0.4-0.1-0.7-0.4-0.9c-0.3-0.2-0.7-0.3-1.1-0.3c-0.3,0-0.6,0-0.9,0.1
		c-0.3,0.1-0.6,0.2-1,0.3v-0.9c0.4-0.1,0.7-0.2,1-0.2c0.3-0.1,0.6-0.1,0.9-0.1c0.7,0,1.3,0.2,1.8,0.5c0.4,0.3,0.7,0.8,0.7,1.4
		c0,0.4-0.1,0.7-0.4,1C377.2,202.3,376.9,202.5,376.5,202.6"/>
	<g style="clip-path:url(#SVGID_2_);">
		<defs>
			<rect id="SVGID_11_" x="33.6" y="-74.1" width="357.1" height="266.1"/>
		</defs>
		<clipPath id="SVGID_12_">
			<use xlink:href="#SVGID_11_"  style="overflow:visible;"/>
		</clipPath>
		
			<line style="clip-path:url(#SVGID_12_);fill:none;stroke:#808080;stroke-width:0.3;stroke-linecap:square;stroke-linejoin:round;stroke-miterlimit:10;" x1="33.6" y1="173.4" x2="390.7" y2="173.4"/>
	</g>
	<line style="clip-path:url(#SVGID_2_);" x1="33.6" y1="173.4" x2="30.1" y2="173.4"/>
	
		<line style="clip-path:url(#SVGID_2_);fill:none;stroke:#000000;stroke-width:0.8;stroke-linejoin:round;stroke-miterlimit:10;" x1="33.6" y1="173.4" x2="30.1" y2="173.4"/>
	<polyline style="clip-path:url(#SVGID_2_);" points="11.9,176.4 13.5,176.4 13.5,170.8 11.8,171.2 11.8,170.3 13.5,169.9 
		14.5,169.9 14.5,176.4 16.1,176.4 16.1,177.2 11.9,177.2 11.9,176.4 	"/>
	<polyline style="clip-path:url(#SVGID_2_);" points="18.1,176 19.2,176 19.2,177.2 18.1,177.2 18.1,176 	"/>
	<path style="clip-path:url(#SVGID_2_);" d="M23.4,169.8c0.8,0,1.4,0.3,1.9,1c0.4,0.6,0.7,1.6,0.7,2.8c0,1.2-0.2,2.2-0.7,2.8
		c-0.4,0.6-1.1,1-1.9,1c-0.8,0-1.5-0.3-1.9-1s-0.6-1.6-0.6-2.8c0-1.2,0.2-2.2,0.6-2.8C22,170.1,22.6,169.8,23.4,169.8 M23.4,170.6
		c-0.5,0-0.9,0.2-1.2,0.8c-0.3,0.5-0.4,1.2-0.4,2.2s0.1,1.8,0.4,2.2c0.3,0.5,0.6,0.8,1.2,0.8c0.5,0,0.9-0.2,1.2-0.8
		c0.2-0.5,0.4-1.2,0.4-2.2s-0.1-1.8-0.4-2.2C24.3,170.8,23.9,170.6,23.4,170.6"/>
	<g style="clip-path:url(#SVGID_2_);">
		<defs>
			<rect id="SVGID_13_" x="-7.9" y="164.9" width="28.1" height="17"/>
		</defs>
		<clipPath id="SVGID_14_">
			<use xlink:href="#SVGID_13_"  style="overflow:visible;"/>
		</clipPath>
		<polyline style="clip-path:url(#SVGID_14_);" points="3.4,173.7 9.6,173.7 9.6,174.5 3.4,174.5 3.4,173.7 		"/>
	</g>
	<g style="clip-path:url(#SVGID_2_);">
		<defs>
			<rect id="SVGID_15_" x="33.6" y="-74.1" width="357.1" height="266.1"/>
		</defs>
		<clipPath id="SVGID_16_">
			<use xlink:href="#SVGID_15_"  style="overflow:visible;"/>
		</clipPath>
		
			<line style="clip-path:url(#SVGID_16_);fill:none;stroke:#808080;stroke-width:0.3;stroke-linecap:square;stroke-linejoin:round;stroke-miterlimit:10;" x1="33.6" y1="133.8" x2="390.7" y2="133.8"/>
	</g>
	<line style="clip-path:url(#SVGID_2_);" x1="33.6" y1="133.8" x2="30.1" y2="133.8"/>
	
		<line style="clip-path:url(#SVGID_2_);fill:none;stroke:#000000;stroke-width:0.8;stroke-linejoin:round;stroke-miterlimit:10;" x1="33.6" y1="133.8" x2="30.1" y2="133.8"/>
	<path style="clip-path:url(#SVGID_2_);" d="M13.9,130.2c0.8,0,1.4,0.3,1.9,1c0.4,0.6,0.7,1.6,0.7,2.8c0,1.2-0.2,2.2-0.7,2.8
		c-0.4,0.6-1.1,1-1.9,1c-0.8,0-1.5-0.3-1.9-1s-0.6-1.6-0.6-2.8c0-1.2,0.2-2.2,0.6-2.8C12.4,130.5,13.1,130.2,13.9,130.2 M13.9,130.9
		c-0.5,0-0.9,0.2-1.2,0.8c-0.3,0.5-0.4,1.2-0.4,2.2s0.1,1.8,0.4,2.2c0.3,0.5,0.6,0.8,1.2,0.8c0.5,0,0.9-0.2,1.2-0.8
		c0.2-0.5,0.4-1.2,0.4-2.2s-0.1-1.8-0.4-2.2C14.8,131.2,14.4,130.9,13.9,130.9"/>
	<polyline style="clip-path:url(#SVGID_2_);" points="18.1,136.3 19.2,136.3 19.2,137.6 18.1,137.6 18.1,136.3 	"/>
	<path style="clip-path:url(#SVGID_2_);" d="M21.3,130.3h3.9v0.8h-3v1.8c0.1-0.1,0.3-0.1,0.4-0.1s0.3,0,0.4,0c0.8,0,1.5,0.2,1.9,0.7
		c0.5,0.5,0.7,1.1,0.7,1.8c0,0.8-0.2,1.4-0.7,1.8c-0.5,0.4-1.2,0.6-2.1,0.6c-0.3,0-0.6,0-0.9-0.1c-0.3-0.1-0.6-0.1-1-0.2v-1
		c0.3,0.2,0.6,0.3,0.9,0.4c0.3,0.1,0.6,0.1,1,0.1c0.6,0,1-0.1,1.3-0.4c0.3-0.3,0.5-0.7,0.5-1.2c0-0.5-0.2-0.9-0.5-1.2
		c-0.3-0.3-0.8-0.5-1.3-0.5c-0.3,0-0.5,0-0.8,0.1c-0.3,0.1-0.5,0.2-0.8,0.3V130.3"/>
	<g style="clip-path:url(#SVGID_2_);">
		<defs>
			<rect id="SVGID_17_" x="-7.9" y="125.2" width="28.1" height="17"/>
		</defs>
		<clipPath id="SVGID_18_">
			<use xlink:href="#SVGID_17_"  style="overflow:visible;"/>
		</clipPath>
		<polyline style="clip-path:url(#SVGID_18_);" points="3.4,134 9.6,134 9.6,134.9 3.4,134.9 3.4,134 		"/>
	</g>
	<g style="clip-path:url(#SVGID_2_);">
		<defs>
			<rect id="SVGID_19_" x="33.6" y="-74.1" width="357.1" height="266.1"/>
		</defs>
		<clipPath id="SVGID_20_">
			<use xlink:href="#SVGID_19_"  style="overflow:visible;"/>
		</clipPath>
		
			<line style="clip-path:url(#SVGID_20_);fill:none;stroke:#808080;stroke-width:0.3;stroke-linecap:square;stroke-linejoin:round;stroke-miterlimit:10;" x1="33.6" y1="94.1" x2="390.7" y2="94.1"/>
	</g>
	<line style="clip-path:url(#SVGID_2_);" x1="33.6" y1="94.1" x2="30.1" y2="94.1"/>
	
		<line style="clip-path:url(#SVGID_2_);fill:none;stroke:#000000;stroke-width:0.8;stroke-linejoin:round;stroke-miterlimit:10;" x1="33.6" y1="94.1" x2="30.1" y2="94.1"/>
	<path style="clip-path:url(#SVGID_2_);" d="M13.9,90.5c0.8,0,1.4,0.3,1.9,1c0.4,0.6,0.7,1.6,0.7,2.8c0,1.2-0.2,2.2-0.7,2.8
		c-0.4,0.6-1.1,1-1.9,1c-0.8,0-1.5-0.3-1.9-1s-0.6-1.6-0.6-2.8c0-1.2,0.2-2.2,0.6-2.8C12.4,90.8,13.1,90.5,13.9,90.5 M13.9,91.3
		c-0.5,0-0.9,0.2-1.2,0.8c-0.3,0.5-0.4,1.2-0.4,2.2s0.1,1.8,0.4,2.2c0.3,0.5,0.6,0.8,1.2,0.8c0.5,0,0.9-0.2,1.2-0.8
		c0.2-0.5,0.4-1.2,0.4-2.2S15.3,92.5,15,92C14.8,91.5,14.4,91.3,13.9,91.3"/>
	<polyline style="clip-path:url(#SVGID_2_);" points="18.1,96.7 19.2,96.7 19.2,97.9 18.1,97.9 18.1,96.7 	"/>
	<path style="clip-path:url(#SVGID_2_);" d="M23.4,90.5c0.8,0,1.4,0.3,1.9,1c0.4,0.6,0.7,1.6,0.7,2.8c0,1.2-0.2,2.2-0.7,2.8
		c-0.4,0.6-1.1,1-1.9,1c-0.8,0-1.5-0.3-1.9-1s-0.6-1.6-0.6-2.8c0-1.2,0.2-2.2,0.6-2.8C22,90.8,22.6,90.5,23.4,90.5 M23.4,91.3
		c-0.5,0-0.9,0.2-1.2,0.8c-0.3,0.5-0.4,1.2-0.4,2.2s0.1,1.8,0.4,2.2c0.3,0.5,0.6,0.8,1.2,0.8c0.5,0,0.9-0.2,1.2-0.8
		c0.2-0.5,0.4-1.2,0.4-2.2s-0.1-1.8-0.4-2.2C24.3,91.5,23.9,91.3,23.4,91.3"/>
	<g style="clip-path:url(#SVGID_2_);">
		<defs>
			<rect id="SVGID_21_" x="33.6" y="-74.1" width="357.1" height="266.1"/>
		</defs>
		<clipPath id="SVGID_22_">
			<use xlink:href="#SVGID_21_"  style="overflow:visible;"/>
		</clipPath>
		
			<line style="clip-path:url(#SVGID_22_);fill:none;stroke:#808080;stroke-width:0.3;stroke-linecap:square;stroke-linejoin:round;stroke-miterlimit:10;" x1="33.6" y1="54.5" x2="390.7" y2="54.5"/>
	</g>
	<line style="clip-path:url(#SVGID_2_);" x1="33.6" y1="54.5" x2="30.1" y2="54.5"/>
	
		<line style="clip-path:url(#SVGID_2_);fill:none;stroke:#000000;stroke-width:0.8;stroke-linejoin:round;stroke-miterlimit:10;" x1="33.6" y1="54.5" x2="30.1" y2="54.5"/>
	<path style="clip-path:url(#SVGID_2_);" d="M13.9,50.8c0.8,0,1.4,0.3,1.9,1c0.4,0.6,0.7,1.6,0.7,2.8c0,1.2-0.2,2.2-0.7,2.8
		c-0.4,0.6-1.1,1-1.9,1c-0.8,0-1.5-0.3-1.9-1s-0.6-1.6-0.6-2.8c0-1.2,0.2-2.2,0.6-2.8C12.4,51.2,13.1,50.8,13.9,50.8 M13.9,51.6
		c-0.5,0-0.9,0.2-1.2,0.8c-0.3,0.5-0.4,1.2-0.4,2.2s0.1,1.8,0.4,2.2c0.3,0.5,0.6,0.8,1.2,0.8c0.5,0,0.9-0.2,1.2-0.8
		c0.2-0.5,0.4-1.2,0.4-2.2s-0.1-1.8-0.4-2.2C14.8,51.9,14.4,51.6,13.9,51.6"/>
	<polyline style="clip-path:url(#SVGID_2_);" points="18.1,57 19.2,57 19.2,58.3 18.1,58.3 18.1,57 	"/>
	<path style="clip-path:url(#SVGID_2_);" d="M21.3,51h3.9v0.8h-3v1.8c0.1-0.1,0.3-0.1,0.4-0.1s0.3,0,0.4,0c0.8,0,1.5,0.2,1.9,0.7
		c0.5,0.4,0.7,1,0.7,1.8c0,0.8-0.2,1.4-0.7,1.8c-0.5,0.4-1.2,0.6-2.1,0.6c-0.3,0-0.6,0-0.9-0.1c-0.3-0.1-0.6-0.1-1-0.2v-1
		c0.3,0.2,0.6,0.3,0.9,0.4c0.3,0.1,0.6,0.1,1,0.1c0.6,0,1-0.1,1.3-0.4c0.3-0.3,0.5-0.7,0.5-1.2c0-0.5-0.2-0.9-0.5-1.2
		c-0.3-0.3-0.8-0.5-1.3-0.5c-0.3,0-0.5,0-0.8,0.1c-0.3,0.1-0.5,0.1-0.8,0.3V51"/>
	<g style="clip-path:url(#SVGID_2_);">
		<defs>
			<rect id="SVGID_23_" x="33.6" y="-74.1" width="357.1" height="266.1"/>
		</defs>
		<clipPath id="SVGID_24_">
			<use xlink:href="#SVGID_23_"  style="overflow:visible;"/>
		</clipPath>
		
			<line style="clip-path:url(#SVGID_24_);fill:none;stroke:#808080;stroke-width:0.3;stroke-linecap:square;stroke-linejoin:round;stroke-miterlimit:10;" x1="33.6" y1="14.8" x2="390.7" y2="14.8"/>
	</g>
	<line style="clip-path:url(#SVGID_2_);" x1="33.6" y1="14.8" x2="30.1" y2="14.8"/>
	
		<line style="clip-path:url(#SVGID_2_);fill:none;stroke:#000000;stroke-width:0.8;stroke-linejoin:round;stroke-miterlimit:10;" x1="33.6" y1="14.8" x2="30.1" y2="14.8"/>
	<polyline style="clip-path:url(#SVGID_2_);" points="11.9,17.8 13.5,17.8 13.5,12.2 11.8,12.6 11.8,11.7 13.5,11.3 14.5,11.3 
		14.5,17.8 16.1,17.8 16.1,18.6 11.9,18.6 11.9,17.8 	"/>
	<polyline style="clip-path:url(#SVGID_2_);" points="18.1,17.4 19.2,17.4 19.2,18.6 18.1,18.6 18.1,17.4 	"/>
	<path style="clip-path:url(#SVGID_2_);" d="M23.4,11.2c0.8,0,1.4,0.3,1.9,1c0.4,0.6,0.7,1.6,0.7,2.8c0,1.2-0.2,2.2-0.7,2.8
		c-0.4,0.6-1.1,1-1.9,1c-0.8,0-1.5-0.3-1.9-1s-0.6-1.6-0.6-2.8c0-1.2,0.2-2.2,0.6-2.8C22,11.5,22.6,11.2,23.4,11.2 M23.4,12
		c-0.5,0-0.9,0.2-1.2,0.8C22,13.2,21.9,14,21.9,15s0.1,1.8,0.4,2.2c0.3,0.5,0.6,0.8,1.2,0.8c0.5,0,0.9-0.2,1.2-0.8
		c0.2-0.5,0.4-1.2,0.4-2.2s-0.1-1.8-0.4-2.2C24.3,12.2,23.9,12,23.4,12"/>
	<g style="clip-path:url(#SVGID_2_);">
		<defs>
			<rect id="SVGID_25_" x="33.6" y="-74.1" width="357.1" height="266.1"/>
		</defs>
		<clipPath id="SVGID_26_">
			<use xlink:href="#SVGID_25_"  style="overflow:visible;"/>
		</clipPath>
		
			<line style="clip-path:url(#SVGID_26_);fill:none;stroke:#808080;stroke-width:0.3;stroke-linecap:square;stroke-linejoin:round;stroke-miterlimit:10;" x1="33.6" y1="-24.9" x2="390.7" y2="-24.9"/>
	</g>
	<line style="clip-path:url(#SVGID_2_);" x1="33.6" y1="-24.9" x2="30.1" y2="-24.9"/>
	
		<line style="clip-path:url(#SVGID_2_);fill:none;stroke:#000000;stroke-width:0.8;stroke-linejoin:round;stroke-miterlimit:10;" x1="33.6" y1="-24.9" x2="30.1" y2="-24.9"/>
	<polyline style="clip-path:url(#SVGID_2_);" points="11.9,-21.9 13.5,-21.9 13.5,-27.4 11.8,-27.1 11.8,-28 13.5,-28.3 14.5,-28.3 
		14.5,-21.9 16.1,-21.9 16.1,-21.1 11.9,-21.1 11.9,-21.9 	"/>
	<polyline style="clip-path:url(#SVGID_2_);" points="18.1,-22.3 19.2,-22.3 19.2,-21.1 18.1,-21.1 18.1,-22.3 	"/>
	<path style="clip-path:url(#SVGID_2_);" d="M21.3-28.3h3.9v0.8h-3v1.8c0.1-0.1,0.3-0.1,0.4-0.1s0.3,0,0.4,0c0.8,0,1.5,0.2,1.9,0.7
		c0.5,0.4,0.7,1,0.7,1.8c0,0.8-0.2,1.4-0.7,1.8c-0.5,0.4-1.2,0.6-2.1,0.6c-0.3,0-0.6,0-0.9-0.1c-0.3-0.1-0.6-0.1-1-0.2v-1
		c0.3,0.2,0.6,0.3,0.9,0.4c0.3,0.1,0.6,0.1,1,0.1c0.6,0,1-0.1,1.3-0.4c0.3-0.3,0.5-0.7,0.5-1.2c0-0.5-0.2-0.9-0.5-1.2
		c-0.3-0.3-0.8-0.5-1.3-0.5c-0.3,0-0.5,0-0.8,0.1c-0.3,0.1-0.5,0.1-0.8,0.3V-28.3"/>
	<g style="clip-path:url(#SVGID_2_);">
		<defs>
			<rect id="SVGID_27_" x="33.6" y="-74.1" width="357.1" height="266.1"/>
		</defs>
		<clipPath id="SVGID_28_">
			<use xlink:href="#SVGID_27_"  style="overflow:visible;"/>
		</clipPath>
		
			<line style="clip-path:url(#SVGID_28_);fill:none;stroke:#808080;stroke-width:0.3;stroke-linecap:square;stroke-linejoin:round;stroke-miterlimit:10;" x1="33.6" y1="-64.5" x2="390.7" y2="-64.5"/>
	</g>
	<line style="clip-path:url(#SVGID_2_);" x1="33.6" y1="-64.5" x2="30.1" y2="-64.5"/>
	
		<line style="clip-path:url(#SVGID_2_);fill:none;stroke:#000000;stroke-width:0.8;stroke-linejoin:round;stroke-miterlimit:10;" x1="33.6" y1="-64.5" x2="30.1" y2="-64.5"/>
	<path style="clip-path:url(#SVGID_2_);" d="M12.6-61.5h3.4v0.8h-4.6v-0.8c0.4-0.4,0.9-0.9,1.5-1.6c0.6-0.6,1-1.1,1.2-1.3
		c0.3-0.4,0.5-0.6,0.7-0.9C15-65.5,15-65.8,15-66c0-0.4-0.1-0.7-0.4-0.9s-0.6-0.4-1.1-0.4c-0.3,0-0.6,0.1-1,0.2
		c-0.3,0.1-0.7,0.3-1.1,0.5v-1c0.4-0.2,0.8-0.3,1.1-0.4c0.3-0.1,0.7-0.1,1-0.1c0.8,0,1.4,0.2,1.8,0.6c0.5,0.4,0.7,0.9,0.7,1.5
		c0,0.3-0.1,0.6-0.2,0.9c-0.1,0.3-0.3,0.6-0.6,0.9c-0.1,0.1-0.3,0.4-0.8,0.8C14-63,13.4-62.4,12.6-61.5"/>
	<polyline style="clip-path:url(#SVGID_2_);" points="18.1,-62 19.2,-62 19.2,-60.7 18.1,-60.7 18.1,-62 	"/>
	<path style="clip-path:url(#SVGID_2_);" d="M23.4-68.1c0.8,0,1.4,0.3,1.9,1c0.4,0.7,0.7,1.6,0.7,2.8c0,1.2-0.2,2.2-0.7,2.8
		c-0.4,0.6-1.1,1-1.9,1c-0.8,0-1.5-0.3-1.9-1c-0.4-0.6-0.6-1.6-0.6-2.8c0-1.2,0.2-2.2,0.6-2.8C22-67.8,22.6-68.1,23.4-68.1
		 M23.4-67.4c-0.5,0-0.9,0.2-1.2,0.8c-0.3,0.5-0.4,1.2-0.4,2.2s0.1,1.8,0.4,2.2c0.3,0.5,0.6,0.8,1.2,0.8c0.5,0,0.9-0.2,1.2-0.8
		c0.2-0.5,0.4-1.2,0.4-2.2s-0.1-1.8-0.4-2.2C24.3-67.1,23.9-67.4,23.4-67.4"/>
	<g style="clip-path:url(#SVGID_2_);">
		<defs>
			<rect id="SVGID_29_" x="33.6" y="-74.1" width="357.1" height="266.1"/>
		</defs>
		<clipPath id="SVGID_30_">
			<use xlink:href="#SVGID_29_"  style="overflow:visible;"/>
		</clipPath>
		
			<polyline style="clip-path:url(#SVGID_30_);fill:none;stroke:#1F77B4;stroke-width:1.5;stroke-linecap:square;stroke-linejoin:round;stroke-miterlimit:10;" points="
			58.3,94.1 65.7,94 70,93.7 73.1,93.3 76.3,92.8 79.5,92 82.7,90.9 85.8,89.6 89,88.1 92.2,86.2 95.3,84.1 98.5,81.7 101.7,79 
			104.9,76 108,72.8 112.3,68.1 116.5,63.1 121.8,56.4 130.2,45.2 137.6,35.6 141.9,30.4 145,26.8 148.2,23.5 151.4,20.6 153.5,19 
			155.6,17.5 157.7,16.4 159.9,15.5 162,15 164.1,14.8 166.2,15 168.3,15.5 170.4,16.4 172.5,17.5 174.7,19 176.8,20.6 178.9,22.5 
			182.1,25.6 185.2,29.1 189.5,34.2 194.7,41 210.6,61.8 214.8,66.9 219.1,71.7 223.3,76 226.5,79 229.6,81.7 232.8,84.1 236,86.2 
			239.2,88.1 242.3,89.6 245.5,90.9 248.7,92 251.9,92.8 255,93.3 258.2,93.7 262.4,94 267.7,94.1 268.8,94.1 		"/>
	</g>
	<g style="clip-path:url(#SVGID_2_);">
		<defs>
			<rect id="SVGID_31_" x="33.6" y="-74.1" width="357.1" height="266.1"/>
		</defs>
		<clipPath id="SVGID_32_">
			<use xlink:href="#SVGID_31_"  style="overflow:visible;"/>
		</clipPath>
		<g style="clip-path:url(#SVGID_32_);">
			<defs>
				<rect id="SVGID_33_" x="55.8" y="91.6" width="5" height="5"/>
			</defs>
			<clipPath id="SVGID_34_">
				<use xlink:href="#SVGID_33_"  style="overflow:visible;"/>
			</clipPath>
			<path style="clip-path:url(#SVGID_34_);fill:#FFFFFF;" d="M58.3,96.1c0.5,0,1-0.2,1.4-0.6c0.4-0.4,0.6-0.9,0.6-1.4
				s-0.2-1-0.6-1.4c-0.4-0.4-0.9-0.6-1.4-0.6s-1,0.2-1.4,0.6c-0.4,0.4-0.6,0.9-0.6,1.4s0.2,1,0.6,1.4C57.3,95.9,57.8,96.1,58.3,96.1
				z"/>
			<path style="clip-path:url(#SVGID_34_);fill:none;stroke:#000000;stroke-linejoin:round;stroke-miterlimit:10;" d="M58.3,96.1
				c0.5,0,1-0.2,1.4-0.6c0.4-0.4,0.6-0.9,0.6-1.4s-0.2-1-0.6-1.4c-0.4-0.4-0.9-0.6-1.4-0.6s-1,0.2-1.4,0.6c-0.4,0.4-0.6,0.9-0.6,1.4
				s0.2,1,0.6,1.4C57.3,95.9,57.8,96.1,58.3,96.1z"/>
		</g>
		<g style="clip-path:url(#SVGID_32_);">
			<defs>
				<rect id="SVGID_35_" x="161.6" y="12.3" width="5" height="5"/>
			</defs>
			<clipPath id="SVGID_36_">
				<use xlink:href="#SVGID_35_"  style="overflow:visible;"/>
			</clipPath>
			<path style="clip-path:url(#SVGID_36_);fill:#FFFFFF;" d="M164.1,16.8c0.5,0,1-0.2,1.4-0.6c0.4-0.4,0.6-0.9,0.6-1.4
				s-0.2-1-0.6-1.4c-0.4-0.4-0.9-0.6-1.4-0.6s-1,0.2-1.4,0.6c-0.4,0.4-0.6,0.9-0.6,1.4s0.2,1,0.6,1.4
				C163,16.6,163.6,16.8,164.1,16.8z"/>
			<path style="clip-path:url(#SVGID_36_);fill:none;stroke:#000000;stroke-linejoin:round;stroke-miterlimit:10;" d="M164.1,16.8
				c0.5,0,1-0.2,1.4-0.6c0.4-0.4,0.6-0.9,0.6-1.4s-0.2-1-0.6-1.4c-0.4-0.4-0.9-0.6-1.4-0.6s-1,0.2-1.4,0.6c-0.4,0.4-0.6,0.9-0.6,1.4
				s0.2,1,0.6,1.4C163,16.6,163.6,16.8,164.1,16.8z"/>
		</g>
	</g>
	<g style="clip-path:url(#SVGID_2_);">
		<defs>
			<rect id="SVGID_37_" x="33.6" y="-74.1" width="357.1" height="266.1"/>
		</defs>
		<clipPath id="SVGID_38_">
			<use xlink:href="#SVGID_37_"  style="overflow:visible;"/>
		</clipPath>
		
			<polyline style="clip-path:url(#SVGID_38_);fill:none;stroke:#2CA02C;stroke-width:1.5;stroke-linecap:square;stroke-linejoin:round;stroke-miterlimit:10;" points="
			58.3,94.1 70,94.2 77.4,94.5 83.7,95 90.1,95.6 96.4,96.5 103.8,97.7 126,101.6 131.3,102.2 135.5,102.5 139.8,102.5 142.9,102.2 
			146.1,101.8 149.3,101.2 152.4,100.3 155.6,99.1 158.8,97.5 160.9,96.3 163,94.9 166.2,92.4 169.4,89.6 173.6,85.5 179.9,78.9 
			187.3,71.2 191.6,67.1 194.7,64.3 197.9,61.8 201.1,59.7 204.3,57.8 206.4,56.8 208.5,56 210.6,55.3 212.7,54.8 214.8,54.6 
			217,54.5 219.1,54.6 221.2,54.8 223.3,55.3 225.4,56 227.5,56.8 229.6,57.8 232.8,59.7 236,61.8 239.2,64.3 242.3,67.1 
			246.6,71.2 251.9,76.6 261.4,86.6 265.6,90.6 268.8,93.3 271.9,95.6 275.1,97.5 278.3,99.1 281.5,100.3 284.6,101.2 287.8,101.8 
			291,102.2 294.2,102.5 298.4,102.5 302.6,102.2 307.9,101.6 314.2,100.6 324.8,98.7 335.4,96.8 342.8,95.8 349.1,95.1 355.5,94.6 
			362.9,94.2 371.4,94.1 374.5,94.1 		"/>
	</g>
	<g style="clip-path:url(#SVGID_2_);">
		<defs>
			<rect id="SVGID_39_" x="33.6" y="-74.1" width="357.1" height="266.1"/>
		</defs>
		<clipPath id="SVGID_40_">
			<use xlink:href="#SVGID_39_"  style="overflow:visible;"/>
		</clipPath>
		<g style="clip-path:url(#SVGID_40_);">
			<defs>
				<rect id="SVGID_41_" x="55.8" y="91.6" width="5" height="5"/>
			</defs>
			<clipPath id="SVGID_42_">
				<use xlink:href="#SVGID_41_"  style="overflow:visible;"/>
			</clipPath>
			<path style="clip-path:url(#SVGID_42_);fill:#FFFFFF;" d="M58.3,96.1c0.5,0,1-0.2,1.4-0.6c0.4-0.4,0.6-0.9,0.6-1.4
				s-0.2-1-0.6-1.4c-0.4-0.4-0.9-0.6-1.4-0.6s-1,0.2-1.4,0.6c-0.4,0.4-0.6,0.9-0.6,1.4s0.2,1,0.6,1.4C57.3,95.9,57.8,96.1,58.3,96.1
				z"/>
			<path style="clip-path:url(#SVGID_42_);fill:none;stroke:#000000;stroke-linejoin:round;stroke-miterlimit:10;" d="M58.3,96.1
				c0.5,0,1-0.2,1.4-0.6c0.4-0.4,0.6-0.9,0.6-1.4s-0.2-1-0.6-1.4c-0.4-0.4-0.9-0.6-1.4-0.6s-1,0.2-1.4,0.6c-0.4,0.4-0.6,0.9-0.6,1.4
				s0.2,1,0.6,1.4C57.3,95.9,57.8,96.1,58.3,96.1z"/>
		</g>
		<g style="clip-path:url(#SVGID_40_);">
			<defs>
				<rect id="SVGID_43_" x="161.6" y="91.6" width="5" height="5"/>
			</defs>
			<clipPath id="SVGID_44_">
				<use xlink:href="#SVGID_43_"  style="overflow:visible;"/>
			</clipPath>
			<path style="clip-path:url(#SVGID_44_);fill:#FFFFFF;" d="M164.1,96.1c0.5,0,1-0.2,1.4-0.6c0.4-0.4,0.6-0.9,0.6-1.4
				s-0.2-1-0.6-1.4c-0.4-0.4-0.9-0.6-1.4-0.6s-1,0.2-1.4,0.6c-0.4,0.4-0.6,0.9-0.6,1.4s0.2,1,0.6,1.4
				C163,95.9,163.6,96.1,164.1,96.1z"/>
			<path style="clip-path:url(#SVGID_44_);fill:none;stroke:#000000;stroke-linejoin:round;stroke-miterlimit:10;" d="M164.1,96.1
				c0.5,0,1-0.2,1.4-0.6c0.4-0.4,0.6-0.9,0.6-1.4s-0.2-1-0.6-1.4c-0.4-0.4-0.9-0.6-1.4-0.6s-1,0.2-1.4,0.6c-0.4,0.4-0.6,0.9-0.6,1.4
				s0.2,1,0.6,1.4C163,95.9,163.6,96.1,164.1,96.1z"/>
		</g>
		<g style="clip-path:url(#SVGID_40_);">
			<defs>
				<rect id="SVGID_45_" x="267.3" y="91.6" width="5" height="5"/>
			</defs>
			<clipPath id="SVGID_46_">
				<use xlink:href="#SVGID_45_"  style="overflow:visible;"/>
			</clipPath>
			<path style="clip-path:url(#SVGID_46_);fill:#FFFFFF;" d="M269.8,96.1c0.5,0,1-0.2,1.4-0.6c0.4-0.4,0.6-0.9,0.6-1.4
				s-0.2-1-0.6-1.4c-0.4-0.4-0.9-0.6-1.4-0.6s-1,0.2-1.4,0.6c-0.4,0.4-0.6,0.9-0.6,1.4s0.2,1,0.6,1.4
				C268.8,95.9,269.3,96.1,269.8,96.1z"/>
			<path style="clip-path:url(#SVGID_46_);fill:none;stroke:#000000;stroke-linejoin:round;stroke-miterlimit:10;" d="M269.8,96.1
				c0.5,0,1-0.2,1.4-0.6c0.4-0.4,0.6-0.9,0.6-1.4s-0.2-1-0.6-1.4c-0.4-0.4-0.9-0.6-1.4-0.6s-1,0.2-1.4,0.6c-0.4,0.4-0.6,0.9-0.6,1.4
				s0.2,1,0.6,1.4C268.8,95.9,269.3,96.1,269.8,96.1z"/>
		</g>
	</g>
	
		<line style="clip-path:url(#SVGID_2_);fill:none;stroke:#000000;stroke-width:0.8;stroke-linecap:square;stroke-miterlimit:10;" x1="33.6" y1="192" x2="33.6" y2="-74.1"/>
	
		<line style="clip-path:url(#SVGID_2_);fill:none;stroke:#000000;stroke-width:0.8;stroke-linecap:square;stroke-miterlimit:10;" x1="390.7" y1="192" x2="390.7" y2="-74.1"/>
	
		<line style="clip-path:url(#SVGID_2_);fill:none;stroke:#000000;stroke-width:0.8;stroke-linecap:square;stroke-miterlimit:10;" x1="33.6" y1="192" x2="390.7" y2="192"/>
	
		<line style="clip-path:url(#SVGID_2_);fill:none;stroke:#000000;stroke-width:0.8;stroke-linecap:square;stroke-miterlimit:10;" x1="33.6" y1="-74.1" x2="390.7" y2="-74.1"/>
</g>
</svg>
